{"asset":{"version":"2.0","generator":"THREE.GLTFExporter"},"scenes":[{"nodes":[0]}],"scene":0,"nodes":[{"matrix":[0.02539999969303608,0,0,0,0,0.02539999969303608,0,0,0,0,0.02539999969303608,0,119.34086664425467,12.56635075187387,-5.434581739795362,1],"name":"HouseLG02_Mullions_Wood","extras":{"name":"HouseLG02_Mullions_Wood"},"mesh":0}],"bufferViews":[{"buffer":0,"byteOffset":0,"byteLength":87552,"target":34962,"byteStride":12},{"buffer":0,"byteOffset":87552,"byteLength":87552,"target":34962,"byteStride":12},{"buffer":0,"byteOffset":175104,"byteLength":58368,"target":34962,"byteStride":8},{"buffer":0,"byteOffset":233472,"byteLength":23616,"target":34963}],"buffers":[{"byteLength":257088,"uri":"data:application/octet-stream;base64,"}],"accessors":[{"bufferView":0,"componentType":5126,"count":7296,"max":[404.36376953125,156.31924438476562,386.187744140625],"min":[-404.36474609375,-156.31912231445312,-386.187255859375],"type":"VEC3"},{"bufferView":1,"componentType":5126,"count":7296,"max":[1,1,1],"min":[-1,-1,-1],"type":"VEC3"},{"bufferView":2,"componentType":5126,"count":7296,"max":[102.28652954101562,53.381649017333984],"min":[-101.28652954101562,2.2945775985717773],"type":"VEC2"},{"bufferView":3,"componentType":5123,"count":11808,"max":[7295],"min":[0],"type":"SCALAR"}],"materials":[{"pbrMetallicRoughness":{"baseColorFactor":[0.7058823704719543,0.8588235974311829,0.6549019813537598,1],"metallicFactor":1,"roughnessFactor":0.858578622341156},"doubleSided":true,"name":"Mullions_Wood"}],"meshes":[{"primitives":[{"mode":4,"attributes":{"POSITION":0,"NORMAL":1,"TEXCOORD_0":2},"indices":3,"material":0}]}]}