{"asset":{"version":"2.0","generator":"THREE.GLTFExporter"},"scenes":[{"nodes":[0]}],"scene":0,"nodes":[{"matrix":[0.02539999969303608,0,0,0,0,0.02539999969303608,0,0,0,0,0.02539999969303608,0,-40.46345354556047,1.6395720778313034,25.363796915722986,1],"name":"网格251","mesh":0}],"bufferViews":[{"buffer":0,"byteOffset":0,"byteLength":31992,"target":34962,"byteStride":12},{"buffer":0,"byteOffset":31992,"byteLength":31992,"target":34962,"byteStride":12},{"buffer":0,"byteOffset":63984,"byteLength":21328,"target":34962,"byteStride":8},{"buffer":0,"byteOffset":85312,"byteLength":10056,"target":34963}],"buffers":[{"byteLength":95368,"uri":"data:application/octet-stream;base64,"}],"accessors":[{"bufferView":0,"componentType":5126,"count":2666,"max":[25.172672271728516,35.83781814575195,6.385749816894531],"min":[-25.383161544799805,-64.93815612792969,1.0066430568695068],"type":"VEC3"},{"bufferView":1,"componentType":5126,"count":2666,"max":[1,1,1],"min":[-1,-1,-1],"type":"VEC3"},{"bufferView":2,"componentType":5126,"count":2666,"max":[1.330172061920166,1.1270031929016113],"min":[-0.49815836548805237,-0.3710392713546753],"type":"VEC2"},{"bufferView":3,"componentType":5123,"count":5028,"max":[2665],"min":[0],"type":"SCALAR"}],"materials":[{"pbrMetallicRoughness":{"baseColorFactor":[0.12941177189350128,0.03921568766236305,0.007843137718737125,1],"metallicFactor":1,"roughnessFactor":0.858578622341156},"doubleSided":true,"name":"Wood_Beams"}],"meshes":[{"primitives":[{"mode":4,"attributes":{"POSITION":0,"NORMAL":1,"TEXCOORD_0":2},"indices":3,"material":0}]}]}