{"asset":{"version":"2.0","generator":"THREE.GLTFExporter"},"scenes":[{"nodes":[0]}],"scene":0,"nodes":[{"matrix":[0.02539999969303608,0,0,0,0,0.02539999969303608,0,0,0,0,0.02539999969303608,0,93.53109450330885,7.735572776254315,26.09922220160189,1],"name":"HouseSM03_Glass","extras":{"name":"HouseSM03_Glass"},"mesh":0}],"bufferViews":[{"buffer":0,"byteOffset":0,"byteLength":13200,"target":34962,"byteStride":12},{"buffer":0,"byteOffset":13200,"byteLength":13200,"target":34962,"byteStride":12},{"buffer":0,"byteOffset":26400,"byteLength":8800,"target":34962,"byteStride":8},{"buffer":0,"byteOffset":35200,"byteLength":8800,"target":34962,"byteStride":8},{"buffer":0,"byteOffset":44000,"byteLength":3300,"target":34963}],"buffers":[{"byteLength":47300,"uri":"data:application/octet-stream;base64,"}],"accessors":[{"bufferView":0,"componentType":5126,"count":1100,"max":[326.6396179199219,93.9117431640625,190.27890014648438],"min":[-326.63958740234375,-93.91172790527344,-190.27896118164062],"type":"VEC3"},{"bufferView":1,"componentType":5126,"count":1100,"max":[1,1,1],"min":[-1,-3.343367040997691e-7,-1],"type":"VEC3"},{"bufferView":2,"componentType":5126,"count":1100,"max":[0.625,1],"min":[0,0.5],"type":"VEC2"},{"bufferView":3,"componentType":5126,"count":1100,"max":[0.9649898409843445,1],"min":[0,0.02315056324005127],"type":"VEC2"},{"bufferView":4,"componentType":5123,"count":1650,"max":[1099],"min":[0],"type":"SCALAR"}],"materials":[{"pbrMetallicRoughness":{"baseColorFactor":[0.41960787773132324,0.6274510025978088,0.7568628191947937,1],"metallicFactor":1,"roughnessFactor":0.858578622341156},"doubleSided":true,"name":"Glass"}],"meshes":[{"primitives":[{"mode":4,"attributes":{"POSITION":0,"NORMAL":1,"TEXCOORD_0":2,"TEXCOORD_1":3},"indices":4,"material":0}]}]}