{"asset":{"version":"2.0","generator":"THREE.GLTFExporter"},"scenes":[{"nodes":[0]}],"scene":0,"nodes":[{"matrix":[0.02539999969303608,0,0,0,0,0.02539999969303608,0,0,0,0,0.02539999969303608,0,33.71877109483921,28.833853476426498,-48.089348232715565,1],"name":"HouseLG03_RoofTiles","extras":{"name":"HouseLG03_RoofTiles"},"mesh":0}],"bufferViews":[{"buffer":0,"byteOffset":0,"byteLength":32004,"target":34962,"byteStride":12},{"buffer":0,"byteOffset":32004,"byteLength":32004,"target":34962,"byteStride":12},{"buffer":0,"byteOffset":64008,"byteLength":21336,"target":34962,"byteStride":8},{"buffer":0,"byteOffset":85344,"byteLength":8012,"target":34963}],"buffers":[{"byteLength":93356,"uri":"data:application/octet-stream;base64,"}],"accessors":[{"bufferView":0,"componentType":5126,"count":2667,"max":[451.6565246582031,306.3875732421875,311.4273681640625],"min":[-451.656494140625,-306.3873596191406,-311.42755126953125],"type":"VEC3"},{"bufferView":1,"componentType":5126,"count":2667,"max":[1.0000001192092896,1.0000001192092896,1],"min":[-1.0000001192092896,-1,-1],"type":"VEC3"},{"bufferView":2,"componentType":5126,"count":2667,"max":[8.549848556518555,4.52448844909668],"min":[-7.549848556518555,0.1313939094543457],"type":"VEC2"},{"bufferView":3,"componentType":5123,"count":4005,"max":[2666],"min":[0],"type":"SCALAR"}],"materials":[{"pbrMetallicRoughness":{"baseColorFactor":[0.4666666666666667,0.4745098039215686,0.4666666666666667,1],"metallicFactor":0,"roughnessFactor":1}}],"meshes":[{"primitives":[{"mode":4,"attributes":{"POSITION":0,"NORMAL":1,"TEXCOORD_0":2},"indices":3,"material":0}]}]}