{"asset":{"version":"2.0","generator":"THREE.GLTFExporter"},"scenes":[{"nodes":[0]}],"scene":0,"nodes":[{"matrix":[0.02539999969303608,0,0,0,0,0.02539999969303608,0,0,0,0,0.02539999969303608,0,-38.34350358613938,13.877841126335056,-48.120535710512286,1],"name":"ManorMD_PlasterBrown","extras":{"name":"ManorMD_PlasterBrown"},"mesh":0}],"bufferViews":[{"buffer":0,"byteOffset":0,"byteLength":52416,"target":34962,"byteStride":12},{"buffer":0,"byteOffset":52416,"byteLength":52416,"target":34962,"byteStride":12},{"buffer":0,"byteOffset":104832,"byteLength":34944,"target":34962,"byteStride":8},{"buffer":0,"byteOffset":139776,"byteLength":13104,"target":34963}],"buffers":[{"byteLength":152880,"uri":"data:application/octet-stream;base64,"}],"accessors":[{"bufferView":0,"componentType":5126,"count":4368,"max":[502.33892822265625,166.7494659423828,262.67694091796875],"min":[-502.3388671875,-166.74949645996094,-262.6767883300781],"type":"VEC3"},{"bufferView":1,"componentType":5126,"count":4368,"max":[1,1,1],"min":[-1,-1,-1],"type":"VEC3"},{"bufferView":2,"componentType":5126,"count":4368,"max":[24.063575744628906,7.3731794357299805],"min":[-23.063575744628906,0.807612419128418],"type":"VEC2"},{"bufferView":3,"componentType":5123,"count":6552,"max":[4367],"min":[0],"type":"SCALAR"}],"materials":[{"pbrMetallicRoughness":{"baseColorFactor":[0.5803921818733215,0.13725490868091583,0.13725490868091583,1],"metallicFactor":1,"roughnessFactor":0.858578622341156},"doubleSided":true,"name":"PlasterBrown"}],"meshes":[{"primitives":[{"mode":4,"attributes":{"POSITION":0,"NORMAL":1,"TEXCOORD_0":2},"indices":3,"material":0}]}]}