{"asset":{"version":"2.0","generator":"THREE.GLTFExporter"},"scenes":[{"nodes":[0]}],"scene":0,"nodes":[{"matrix":[0.02539999969303608,0,0,0,0,0.02539999969303608,0,0,0,0,0.02539999969303608,0,-3.9028672518354597,4.776574082647404,25.156773352233472,1],"name":"GateHouseSM_WoodDark","extras":{"name":"GateHouseSM_WoodDark"},"mesh":0}],"bufferViews":[{"buffer":0,"byteOffset":0,"byteLength":14976,"target":34962,"byteStride":12},{"buffer":0,"byteOffset":14976,"byteLength":14976,"target":34962,"byteStride":12},{"buffer":0,"byteOffset":29952,"byteLength":9984,"target":34962,"byteStride":8},{"buffer":0,"byteOffset":39936,"byteLength":3432,"target":34963}],"buffers":[{"byteLength":43368,"uri":"data:application/octet-stream;base64,"}],"accessors":[{"bufferView":0,"componentType":5126,"count":1248,"max":[1.17822265625,9.691488265991211,10.6083984375],"min":[-0.8050537109375,-9.691476821899414,-10.6083984375],"type":"VEC3"},{"bufferView":1,"componentType":5126,"count":1248,"max":[0.9998854994773865,1.0000001192092896,0.9999602437019348],"min":[-0.9999194741249084,-1.0000001192092896,-0.9999964833259583],"type":"VEC3"},{"bufferView":2,"componentType":5126,"count":1248,"max":[78.65204620361328,71.11528778076172],"min":[-77.65204620361328,14.81786823272705],"type":"VEC2"},{"bufferView":3,"componentType":5123,"count":1716,"max":[1247],"min":[0],"type":"SCALAR"}],"materials":[{"pbrMetallicRoughness":{"baseColorFactor":[0.07058823853731155,0.003921568859368563,0.003921568859368563,1],"metallicFactor":1,"roughnessFactor":0.858578622341156},"doubleSided":true,"name":"WoodDark"}],"meshes":[{"primitives":[{"mode":4,"attributes":{"POSITION":0,"NORMAL":1,"TEXCOORD_0":2},"indices":3,"material":0}]}]}