{"asset":{"version":"2.0","generator":"THREE.GLTFExporter"},"scenes":[{"nodes":[0]}],"scene":0,"nodes":[{"matrix":[0.02539999969303608,0,0,0,0,0.02539999969303608,0,0,0,0,0.02539999969303608,0,20.695783615112305,14.431915643901448,25.68600806926463,1],"name":"Turret_Wood_Beams","extras":{"name":"Turret_Wood_Beams"},"mesh":0}],"bufferViews":[{"buffer":0,"byteOffset":0,"byteLength":4512,"target":34962,"byteStride":12},{"buffer":0,"byteOffset":4512,"byteLength":4512,"target":34962,"byteStride":12},{"buffer":0,"byteOffset":9024,"byteLength":3008,"target":34962,"byteStride":8},{"buffer":0,"byteOffset":12032,"byteLength":1224,"target":34963}],"buffers":[{"byteLength":13256,"uri":"data:application/octet-stream;base64,"}],"accessors":[{"bufferView":0,"componentType":5126,"count":376,"max":[25.64163589477539,51.339996337890625,9.269688606262207],"min":[-25.641677856445312,-51.340087890625,-23.351593017578125],"type":"VEC3"},{"bufferView":1,"componentType":5126,"count":376,"max":[1,1,1],"min":[-1,-1,-1],"type":"VEC3"},{"bufferView":2,"componentType":5126,"count":376,"max":[50.48271560668945,50.48271560668945],"min":[-49.48271560668945,-0.49994468688964844],"type":"VEC2"},{"bufferView":3,"componentType":5123,"count":612,"max":[375],"min":[0],"type":"SCALAR"}],"materials":[{"pbrMetallicRoughness":{"baseColorFactor":[0.12941177189350128,0.03921568766236305,0.007843137718737125,1],"metallicFactor":1,"roughnessFactor":0.858578622341156},"doubleSided":true,"name":"Wood_Beams"}],"meshes":[{"primitives":[{"mode":4,"attributes":{"POSITION":0,"NORMAL":1,"TEXCOORD_0":2},"indices":3,"material":0}]}]}