{"asset":{"version":"2.0","generator":"THREE.GLTFExporter"},"scenes":[{"nodes":[0]}],"scene":0,"nodes":[{"matrix":[0.02539999969303608,0,0,0,0,0.02539999969303608,0,0,0,0,0.02539999969303608,0,-45.31576815977087,5.575525582510636,25.364559078494537,1],"name":"网格.254_2","mesh":0}],"bufferViews":[{"buffer":0,"byteOffset":0,"byteLength":144,"target":34962,"byteStride":12},{"buffer":0,"byteOffset":144,"byteLength":144,"target":34962,"byteStride":12},{"buffer":0,"byteOffset":288,"byteLength":96,"target":34962,"byteStride":8},{"buffer":0,"byteOffset":384,"byteLength":36,"target":34963}],"buffers":[{"byteLength":420,"uri":"data:application/octet-stream;base64,"}],"accessors":[{"bufferView":0,"componentType":5126,"count":12,"max":[37.656585693359375,25.20987892150879,8.500222206115723],"min":[-37.656585693359375,-36.20793151855469,-8.520983695983887],"type":"VEC3"},{"bufferView":1,"componentType":5126,"count":12,"max":[0.6599004864692688,0.0016877269372344017,0.9999995827674866],"min":[-0.6599004864692688,0.0008969468763098121,0.7513511776924133],"type":"VEC3"},{"bufferView":2,"componentType":5126,"count":12,"max":[0.9904761910438538,0.9903226494789124],"min":[0.009375105611979961,0.3097221851348877],"type":"VEC2"},{"bufferView":3,"componentType":5123,"count":18,"max":[11],"min":[0],"type":"SCALAR"}],"materials":[{"pbrMetallicRoughness":{"baseColorFactor":[0.41960787773132324,0.6274510025978088,0.7568628191947937,1],"metallicFactor":1,"roughnessFactor":0.858578622341156},"doubleSided":true,"name":"Glass"}],"meshes":[{"primitives":[{"mode":4,"attributes":{"POSITION":0,"NORMAL":1,"TEXCOORD_0":2},"indices":3,"material":0}]}]}