{"asset":{"version":"2.0","generator":"THREE.GLTFExporter"},"scenes":[{"nodes":[0]}],"scene":0,"nodes":[{"matrix":[0.02539999969303608,0,0,0,0,0.02539999969303608,0,0,0,0,0.02539999969303608,0,31.4876651763916,6.018478408323375,22.05031797556569,1],"name":"HouseAFrame_Wood_Beams","extras":{"name":"HouseAFrame_Wood_Beams"},"mesh":0}],"bufferViews":[{"buffer":0,"byteOffset":0,"byteLength":19704,"target":34962,"byteStride":12},{"buffer":0,"byteOffset":19704,"byteLength":19704,"target":34962,"byteStride":12},{"buffer":0,"byteOffset":39408,"byteLength":13136,"target":34962,"byteStride":8},{"buffer":0,"byteOffset":52544,"byteLength":5076,"target":34963}],"buffers":[{"byteLength":57620,"uri":"data:application/octet-stream;base64,"}],"accessors":[{"bufferView":0,"componentType":5126,"count":1642,"max":[104.66716766357422,94.51336669921875,97.79489135742188],"min":[-104.66714477539062,-94.51345825195312,-97.7948989868164],"type":"VEC3"},{"bufferView":1,"componentType":5126,"count":1642,"max":[1,1,1],"min":[-1,-1,-1],"type":"VEC3"},{"bufferView":2,"componentType":5126,"count":1642,"max":[48.449562072753906,48.449562072753906],"min":[-47.449562072753906,-0.7224363088607788],"type":"VEC2"},{"bufferView":3,"componentType":5123,"count":2538,"max":[1641],"min":[0],"type":"SCALAR"}],"materials":[{"pbrMetallicRoughness":{"baseColorFactor":[0.12941177189350128,0.03921568766236305,0.007843137718737125,1],"metallicFactor":1,"roughnessFactor":0.858578622341156},"doubleSided":true,"name":"Wood_Beams"}],"meshes":[{"primitives":[{"mode":4,"attributes":{"POSITION":0,"NORMAL":1,"TEXCOORD_0":2},"indices":3,"material":0}]}]}