{"asset":{"version":"2.0","generator":"THREE.GLTFExporter"},"scenes":[{"nodes":[0]}],"scene":0,"nodes":[{"matrix":[0.02539999969303608,0,0,0,0,0.02539999969303608,0,0,0,0,0.02539999969303608,0,60.175403997321155,16.228418733505464,-2.703472695702658,1],"name":"HouseMD06_WoodDark","extras":{"name":"HouseMD06_WoodDark"},"mesh":0}],"bufferViews":[{"buffer":0,"byteOffset":0,"byteLength":67380,"target":34962,"byteStride":12},{"buffer":0,"byteOffset":67380,"byteLength":67380,"target":34962,"byteStride":12},{"buffer":0,"byteOffset":134760,"byteLength":44920,"target":34962,"byteStride":8},{"buffer":0,"byteOffset":179680,"byteLength":17580,"target":34963}],"buffers":[{"byteLength":197260,"uri":"data:application/octet-stream;base64,"}],"accessors":[{"bufferView":0,"componentType":5126,"count":5615,"max":[135.78759765625,252.81398010253906,8.977386474609375],"min":[-135.78759765625,-252.81399536132812,-8.9774169921875],"type":"VEC3"},{"bufferView":1,"componentType":5126,"count":5615,"max":[1,1.0000001192092896,1],"min":[-1,-1.0000001192092896,-1],"type":"VEC3"},{"bufferView":2,"componentType":5126,"count":5615,"max":[43.656280517578125,43.656280517578125],"min":[-42.656280517578125,3.163959503173828],"type":"VEC2"},{"bufferView":3,"componentType":5123,"count":8790,"max":[5614],"min":[0],"type":"SCALAR"}],"materials":[{"pbrMetallicRoughness":{"baseColorFactor":[0.07058823853731155,0.003921568859368563,0.003921568859368563,1],"metallicFactor":1,"roughnessFactor":0.858578622341156},"doubleSided":true,"name":"WoodDark"}],"meshes":[{"primitives":[{"mode":4,"attributes":{"POSITION":0,"NORMAL":1,"TEXCOORD_0":2},"indices":3,"material":0}]}]}