{"asset":{"version":"2.0","generator":"THREE.GLTFExporter"},"scenes":[{"nodes":[0]}],"scene":0,"nodes":[{"matrix":[0.02539999969303608,0,0,0,0,0.02539999969303608,0,0,0,0,0.02539999969303608,0,42.353470026286686,6.276207372673639,23.317612287774637,1],"name":"Tavern_WoodDark","extras":{"name":"Tavern_WoodDark"},"mesh":0}],"bufferViews":[{"buffer":0,"byteOffset":0,"byteLength":10908,"target":34962,"byteStride":12},{"buffer":0,"byteOffset":10908,"byteLength":10908,"target":34962,"byteStride":12},{"buffer":0,"byteOffset":21816,"byteLength":7272,"target":34962,"byteStride":8},{"buffer":0,"byteOffset":29088,"byteLength":2820,"target":34963}],"buffers":[{"byteLength":31908,"uri":"data:application/octet-stream;base64,"}],"accessors":[{"bufferView":0,"componentType":5126,"count":909,"max":[1.0482177734375,42.21758270263672,29.45330810546875],"min":[-1.0482177734375,-42.21773147583008,-29.45330810546875],"type":"VEC3"},{"bufferView":1,"componentType":5126,"count":909,"max":[1,1,1],"min":[-1,-1,-1],"type":"VEC3"},{"bufferView":2,"componentType":5126,"count":909,"max":[23.455142974853516,23.455142974853516],"min":[-22.455142974853516,-15.293964385986328],"type":"VEC2"},{"bufferView":3,"componentType":5123,"count":1410,"max":[908],"min":[0],"type":"SCALAR"}],"materials":[{"pbrMetallicRoughness":{"baseColorFactor":[0.07058823853731155,0.003921568859368563,0.003921568859368563,1],"metallicFactor":1,"roughnessFactor":0.858578622341156},"doubleSided":true,"name":"WoodDark"}],"meshes":[{"primitives":[{"mode":4,"attributes":{"POSITION":0,"NORMAL":1,"TEXCOORD_0":2},"indices":3,"material":0}]}]}