{"asset":{"version":"2.0","generator":"THREE.GLTFExporter"},"scenes":[{"nodes":[0]}],"scene":0,"nodes":[{"matrix":[0.02539999969303608,0,0,0,0,0.02539999969303608,0,0,0,0,0.02539999969303608,0,-49.68434486478827,1.2756264676056333,25.37069261876465,1],"name":"网格.256_3","mesh":0}],"bufferViews":[{"buffer":0,"byteOffset":0,"byteLength":4992,"target":34962,"byteStride":12},{"buffer":0,"byteOffset":4992,"byteLength":4992,"target":34962,"byteStride":12},{"buffer":0,"byteOffset":9984,"byteLength":3328,"target":34962,"byteStride":8},{"buffer":0,"byteOffset":13312,"byteLength":2472,"target":34963}],"buffers":[{"byteLength":15784,"uri":"data:application/octet-stream;base64,"}],"accessors":[{"bufferView":0,"componentType":5126,"count":416,"max":[25.17877769470215,34.681983947753906,-8.359030723571777],"min":[-25.17877769470215,-44.71818161010742,-13.118261337280273],"type":"VEC3"},{"bufferView":1,"componentType":5126,"count":416,"max":[1,1,1],"min":[-1,-1,-1.979655372963407e-8],"type":"VEC3"},{"bufferView":2,"componentType":5126,"count":416,"max":[4.171294689178467,1.979720115661621],"min":[-0.9093733429908752,-0.9797201156616211],"type":"VEC2"},{"bufferView":3,"componentType":5123,"count":1236,"max":[415],"min":[0],"type":"SCALAR"}],"materials":[{"pbrMetallicRoughness":{"baseColorFactor":[0.12941177189350128,0.03921568766236305,0.007843137718737125,1],"metallicFactor":1,"roughnessFactor":0.858578622341156},"doubleSided":true,"name":"Wood_Beams"}],"meshes":[{"primitives":[{"mode":4,"attributes":{"POSITION":0,"NORMAL":1,"TEXCOORD_0":2},"indices":3,"material":0}]}]}