{"asset":{"version":"2.0","generator":"THREE.GLTFExporter"},"scenes":[{"nodes":[0]}],"scene":0,"nodes":[{"matrix":[0.02539999969303608,0,0,0,0,0.02539999969303608,0,0,0,0,0.02539999969303608,0,-63.44068332158713,5.706864075796432,25.165842915734927,1],"name":"网格.273_1","mesh":0}],"bufferViews":[{"buffer":0,"byteOffset":0,"byteLength":7956,"target":34962,"byteStride":12},{"buffer":0,"byteOffset":7956,"byteLength":7956,"target":34962,"byteStride":12},{"buffer":0,"byteOffset":15912,"byteLength":5304,"target":34962,"byteStride":8},{"buffer":0,"byteOffset":21216,"byteLength":2064,"target":34963}],"buffers":[{"byteLength":23280,"uri":"data:application/octet-stream;base64,"}],"accessors":[{"bufferView":0,"componentType":5126,"count":663,"max":[25.4237117767334,32.97334671020508,8.986507415771484],"min":[-25.4198055267334,-32.00105667114258,-1.1698060035705566],"type":"VEC3"},{"bufferView":1,"componentType":5126,"count":663,"max":[1,1,1],"min":[-1,-1.0000001192092896,-1],"type":"VEC3"},{"bufferView":2,"componentType":5126,"count":663,"max":[0.6267889142036438,0.9988464117050171],"min":[0.0011518209939822555,0.2801598906517029],"type":"VEC2"},{"bufferView":3,"componentType":5123,"count":1032,"max":[662],"min":[0],"type":"SCALAR"}],"materials":[{"pbrMetallicRoughness":{"baseColorFactor":[0.5803921818733215,0.13725490868091583,0.13725490868091583,1],"metallicFactor":1,"roughnessFactor":0.858578622341156},"doubleSided":true,"name":"PlasterBrown"}],"meshes":[{"primitives":[{"mode":4,"attributes":{"POSITION":0,"NORMAL":1,"TEXCOORD_0":2},"indices":3,"material":0}]}]}