{"asset":{"version":"2.0","generator":"THREE.GLTFExporter"},"scenes":[{"nodes":[0]}],"scene":0,"nodes":[{"matrix":[0.02539999969303608,0,0,0,0,0.02539999969303608,0,0,0,0,0.02539999969303608,0,149.69463107109277,38.30318499066641,-128.20570398314158,1],"name":"ManorLG_Glass","extras":{"name":"ManorLG_Glass"},"mesh":0}],"bufferViews":[{"buffer":0,"byteOffset":0,"byteLength":84264,"target":34962,"byteStride":12},{"buffer":0,"byteOffset":84264,"byteLength":84264,"target":34962,"byteStride":12},{"buffer":0,"byteOffset":168528,"byteLength":56176,"target":34962,"byteStride":8},{"buffer":0,"byteOffset":224704,"byteLength":27888,"target":34963}],"buffers":[{"byteLength":252592,"uri":"data:application/octet-stream;base64,"}],"accessors":[{"bufferView":0,"componentType":5126,"count":7022,"max":[652.736083984375,502.25787353515625,315.81903076171875],"min":[-652.7362670898438,-502.2578125,-315.8188781738281],"type":"VEC3"},{"bufferView":1,"componentType":5126,"count":7022,"max":[1,1,1],"min":[-1,-0.0003041451855096966,-1],"type":"VEC3"},{"bufferView":2,"componentType":5126,"count":7022,"max":[1.0036200284957886,1.004408359527588],"min":[0,-0.09837996959686279],"type":"VEC2"},{"bufferView":3,"componentType":5123,"count":13944,"max":[7021],"min":[0],"type":"SCALAR"}],"materials":[{"pbrMetallicRoughness":{"baseColorFactor":[0.41960787773132324,0.6274510025978088,0.7568628191947937,1],"metallicFactor":1,"roughnessFactor":0.858578622341156},"doubleSided":true,"name":"Glass"}],"meshes":[{"primitives":[{"mode":4,"attributes":{"POSITION":0,"NORMAL":1,"TEXCOORD_0":2},"indices":3,"material":0}]}]}