{"asset":{"version":"2.0","generator":"THREE.GLTFExporter"},"scenes":[{"nodes":[0]}],"scene":0,"nodes":[{"matrix":[0.02539999969303608,0,0,0,0,0.02539999969303608,0,0,0,0,0.02539999969303608,0,43.41400062870434,10.347111165639063,25.346148521193953,1],"name":"Tavern_Wood_Beams","extras":{"name":"Tavern_Wood_Beams"},"mesh":0}],"bufferViews":[{"buffer":0,"byteOffset":0,"byteLength":446268,"target":34962,"byteStride":12},{"buffer":0,"byteOffset":446268,"byteLength":446268,"target":34962,"byteStride":12},{"buffer":0,"byteOffset":892536,"byteLength":297512,"target":34962,"byteStride":8},{"buffer":0,"byteOffset":1190048,"byteLength":113460,"target":34963}],"buffers":[{"byteLength":1303508,"uri":"data:application/octet-stream;base64,"}],"accessors":[{"bufferView":0,"componentType":5126,"count":37189,"max":[100.61805725097656,203.0319061279297,194.9871826171875],"min":[-100.61807250976562,-203.03187561035156,-194.98715209960938],"type":"VEC3"},{"bufferView":1,"componentType":5126,"count":37189,"max":[1,1,1],"min":[-1,-1,-1],"type":"VEC3"},{"bufferView":2,"componentType":5126,"count":37189,"max":[3.0980169773101807,3.0378987789154053],"min":[-2.2919929027557373,-1.9373400211334229],"type":"VEC2"},{"bufferView":3,"componentType":5123,"count":56730,"max":[37188],"min":[0],"type":"SCALAR"}],"materials":[{"pbrMetallicRoughness":{"baseColorFactor":[0.12941177189350128,0.03921568766236305,0.007843137718737125,1],"metallicFactor":1,"roughnessFactor":0.858578622341156},"doubleSided":true,"name":"Wood_Beams"}],"meshes":[{"primitives":[{"mode":4,"attributes":{"POSITION":0,"NORMAL":1,"TEXCOORD_0":2},"indices":3,"material":0}]}]}