{"asset":{"version":"2.0","generator":"THREE.GLTFExporter"},"scenes":[{"nodes":[0]}],"scene":0,"nodes":[{"matrix":[0.02539999969303608,0,0,0,0,0.02539999969303608,0,0,0,0,0.02539999969303608,0,-64.41387041920098,0.33364792979529057,26.122180073061685,1],"name":"网格264","mesh":0}],"bufferViews":[{"buffer":0,"byteOffset":0,"byteLength":5304,"target":34962,"byteStride":12},{"buffer":0,"byteOffset":5304,"byteLength":5304,"target":34962,"byteStride":12},{"buffer":0,"byteOffset":10608,"byteLength":3536,"target":34962,"byteStride":8},{"buffer":0,"byteOffset":14144,"byteLength":3120,"target":34963}],"buffers":[{"byteLength":17264,"uri":"data:application/octet-stream;base64,"}],"accessors":[{"bufferView":0,"componentType":5126,"count":442,"max":[20.465030670166016,16.782651901245117,18.76309585571289],"min":[-20.465030670166016,-16.782651901245117,-18.763097763061523],"type":"VEC3"},{"bufferView":1,"componentType":5126,"count":442,"max":[1,1,1],"min":[-1,-1,-1],"type":"VEC3"},{"bufferView":2,"componentType":5126,"count":442,"max":[1.0940980911254883,4.622159481048584],"min":[-2.094097852706909,1.175887107849121],"type":"VEC2"},{"bufferView":3,"componentType":5123,"count":1560,"max":[441],"min":[0],"type":"SCALAR"}],"materials":[{"pbrMetallicRoughness":{"baseColorFactor":[0.12941177189350128,0.03921568766236305,0.007843137718737125,1],"metallicFactor":1,"roughnessFactor":0.858578622341156},"doubleSided":true,"name":"Wood_Beams"}],"meshes":[{"primitives":[{"mode":4,"attributes":{"POSITION":0,"NORMAL":1,"TEXCOORD_0":2},"indices":3,"material":0}]}]}