{"asset":{"version":"2.0","generator":"THREE.GLTFExporter"},"scenes":[{"nodes":[0]}],"scene":0,"nodes":[{"matrix":[0.02539999969303608,0,0,0,0,0.02539999969303608,0,0,0,0,0.02539999969303608,0,137.48400593261704,10.177458338251597,24.496234118652353,1],"name":"GateHouseLG_Glass","extras":{"name":"GateHouseLG_Glass"},"mesh":0}],"bufferViews":[{"buffer":0,"byteOffset":0,"byteLength":113280,"target":34962,"byteStride":12},{"buffer":0,"byteOffset":113280,"byteLength":113280,"target":34962,"byteStride":12},{"buffer":0,"byteOffset":226560,"byteLength":75520,"target":34962,"byteStride":8},{"buffer":0,"byteOffset":302080,"byteLength":34944,"target":34963}],"buffers":[{"byteLength":337024,"uri":"data:application/octet-stream;base64,"}],"accessors":[{"bufferView":0,"componentType":5126,"count":9440,"max":[224.71253967285156,115.3121337890625,138.7062225341797],"min":[-224.7130126953125,-115.3121566772461,-138.70614624023438],"type":"VEC3"},{"bufferView":1,"componentType":5126,"count":9440,"max":[1,1,1],"min":[-1,-0.000009133900675806217,-1],"type":"VEC3"},{"bufferView":2,"componentType":5126,"count":9440,"max":[0.6217066049575806,0.9347248673439026],"min":[0.2534453272819519,0.0298614501953125],"type":"VEC2"},{"bufferView":3,"componentType":5123,"count":17472,"max":[9439],"min":[0],"type":"SCALAR"}],"materials":[{"pbrMetallicRoughness":{"baseColorFactor":[0.41960787773132324,0.6274510025978088,0.7568628191947937,1],"metallicFactor":1,"roughnessFactor":0.858578622341156},"doubleSided":true,"name":"Glass"}],"meshes":[{"primitives":[{"mode":4,"attributes":{"POSITION":0,"NORMAL":1,"TEXCOORD_0":2},"indices":3,"material":0}]}]}