{"asset":{"version":"2.0","generator":"THREE.GLTFExporter"},"scenes":[{"nodes":[0]}],"scene":0,"nodes":[{"matrix":[0.02539999969303608,0,0,0,0,0.02539999969303608,0,0,0,0,0.02539999969303608,0,61.270052870454265,20.461805392354563,-48.01066331391303,1],"name":"HouseLG04_Stone_Stacked","extras":{"name":"HouseLG04_Stone_Stacked"},"mesh":0}],"bufferViews":[{"buffer":0,"byteOffset":0,"byteLength":96936,"target":34962,"byteStride":12},{"buffer":0,"byteOffset":96936,"byteLength":96936,"target":34962,"byteStride":12},{"buffer":0,"byteOffset":193872,"byteLength":64624,"target":34962,"byteStride":8},{"buffer":0,"byteOffset":258496,"byteLength":24864,"target":34963}],"buffers":[{"byteLength":283360,"uri":"data:application/octet-stream;base64,"}],"accessors":[{"bufferView":0,"componentType":5126,"count":8078,"max":[179.378173828125,321.95355224609375,174.509033203125],"min":[-179.3779296875,-321.9535827636719,-174.5089111328125],"type":"VEC3"},{"bufferView":1,"componentType":5126,"count":8078,"max":[1.0000001192092896,1.0000001192092896,1.0000001192092896],"min":[-1.0000001192092896,-1.0000001192092896,-1],"type":"VEC3"},{"bufferView":2,"componentType":5126,"count":8078,"max":[4.040208339691162,4.124540328979492],"min":[-1.5402084589004517,1.0871155261993408],"type":"VEC2"},{"bufferView":3,"componentType":5123,"count":12432,"max":[8077],"min":[0],"type":"SCALAR"}],"materials":[{"pbrMetallicRoughness":{"baseColorFactor":[0.40000003576278687,0.41960787773132324,0.7921569347381592,1],"metallicFactor":1,"roughnessFactor":0.858578622341156},"doubleSided":true,"name":"Stone_Stacked"}],"meshes":[{"primitives":[{"mode":4,"attributes":{"POSITION":0,"NORMAL":1,"TEXCOORD_0":2},"indices":3,"material":0}]}]}