{"asset":{"version":"2.0","generator":"THREE.GLTFExporter"},"scenes":[{"nodes":[0]}],"scene":0,"nodes":[{"matrix":[0.02539999969303608,0,0,0,0,0.02539999969303608,0,0,0,0,0.02539999969303608,0,-55.08909396939271,1.0858279774677442,25.054036757112982,1],"name":"网格259","mesh":0}],"bufferViews":[{"buffer":0,"byteOffset":0,"byteLength":3600,"target":34962,"byteStride":12},{"buffer":0,"byteOffset":3600,"byteLength":3600,"target":34962,"byteStride":12},{"buffer":0,"byteOffset":7200,"byteLength":2400,"target":34962,"byteStride":8},{"buffer":0,"byteOffset":9600,"byteLength":1992,"target":34963}],"buffers":[{"byteLength":11592,"uri":"data:application/octet-stream;base64,"}],"accessors":[{"bufferView":0,"componentType":5126,"count":300,"max":[25.96262550354004,45.80699920654297,1.34288489818573],"min":[-25.96262550354004,-45.80699920654297,-1.34288489818573],"type":"VEC3"},{"bufferView":1,"componentType":5126,"count":300,"max":[1,1,1],"min":[-1,-1,0],"type":"VEC3"},{"bufferView":2,"componentType":5126,"count":300,"max":[1.5212798118591309,2.086735248565674],"min":[-0.9180161356925964,-1.0867352485656738],"type":"VEC2"},{"bufferView":3,"componentType":5123,"count":996,"max":[299],"min":[0],"type":"SCALAR"}],"materials":[{"pbrMetallicRoughness":{"baseColorFactor":[0.12941177189350128,0.03921568766236305,0.007843137718737125,1],"metallicFactor":1,"roughnessFactor":0.858578622341156},"doubleSided":true,"name":"Wood_Beams"}],"meshes":[{"primitives":[{"mode":4,"attributes":{"POSITION":0,"NORMAL":1,"TEXCOORD_0":2},"indices":3,"material":0}]}]}