{"asset":{"version":"2.0","generator":"THREE.GLTFExporter"},"scenes":[{"nodes":[0]}],"scene":0,"nodes":[{"matrix":[0.02539999969303608,0,0,0,0,0.02539999969303608,0,0,0,0,0.02539999969303608,0,85.88083612202263,15.187078216062758,-5.826757717642408,1],"name":"HouseLG01_Glass","extras":{"name":"HouseLG01_Glass"},"mesh":0}],"bufferViews":[{"buffer":0,"byteOffset":0,"byteLength":38592,"target":34962,"byteStride":12},{"buffer":0,"byteOffset":38592,"byteLength":38592,"target":34962,"byteStride":12},{"buffer":0,"byteOffset":77184,"byteLength":25728,"target":34962,"byteStride":8},{"buffer":0,"byteOffset":102912,"byteLength":14060,"target":34963}],"buffers":[{"byteLength":116972,"uri":"data:application/octet-stream;base64,"}],"accessors":[{"bufferView":0,"componentType":5126,"count":3216,"max":[366.9613037109375,226.8502197265625,204.45376586914062],"min":[-366.9612731933594,-226.85025024414062,-204.45361328125],"type":"VEC3"},{"bufferView":1,"componentType":5126,"count":3216,"max":[1,1,1],"min":[-1,-1,-1],"type":"VEC3"},{"bufferView":2,"componentType":5126,"count":3216,"max":[1.7237672805786133,31.063426971435547],"min":[-0.9303924441337585,-30.0637264251709],"type":"VEC2"},{"bufferView":3,"componentType":5123,"count":7029,"max":[3215],"min":[0],"type":"SCALAR"}],"materials":[{"pbrMetallicRoughness":{"baseColorFactor":[0.41960787773132324,0.6274510025978088,0.7568628191947937,1],"metallicFactor":1,"roughnessFactor":0.858578622341156},"doubleSided":true,"name":"Glass"}],"meshes":[{"primitives":[{"mode":4,"attributes":{"POSITION":0,"NORMAL":1,"TEXCOORD_0":2},"indices":3,"material":0}]}]}