{"asset":{"version":"2.0","generator":"THREE.GLTFExporter"},"scenes":[{"nodes":[0]}],"scene":0,"nodes":[{"matrix":[0.02539999969303608,0,0,0,0,0.02539999969303608,0,0,0,0,0.02539999969303608,0,95.61261229359297,32.77434380480304,-125.97983152467532,1],"name":"CastleSM_Wood_Beams","extras":{"name":"CastleSM_Wood_Beams"},"mesh":0}],"bufferViews":[{"buffer":0,"byteOffset":0,"byteLength":609576,"target":34962,"byteStride":12},{"buffer":0,"byteOffset":609576,"byteLength":609576,"target":34962,"byteStride":12},{"buffer":0,"byteOffset":1219152,"byteLength":406384,"target":34962,"byteStride":8},{"buffer":0,"byteOffset":1625536,"byteLength":147948,"target":34963}],"buffers":[{"byteLength":1773484,"uri":"data:application/octet-stream;base64,"}],"accessors":[{"bufferView":0,"componentType":5126,"count":50798,"max":[756.1951904296875,593.085205078125,1071.9873046875],"min":[-756.1952514648438,-593.085693359375,-1071.98779296875],"type":"VEC3"},{"bufferView":1,"componentType":5126,"count":50798,"max":[1,1,1],"min":[-1,-1,-1],"type":"VEC3"},{"bufferView":2,"componentType":5126,"count":50798,"max":[78.19699096679688,41.22974395751953],"min":[-54.02708435058594,-54.133262634277344],"type":"VEC2"},{"bufferView":3,"componentType":5123,"count":73974,"max":[50797],"min":[0],"type":"SCALAR"}],"materials":[{"pbrMetallicRoughness":{"baseColorFactor":[0.12941177189350128,0.03921568766236305,0.007843137718737125,1],"metallicFactor":1,"roughnessFactor":0.858578622341156},"doubleSided":true,"name":"Wood_Beams"}],"meshes":[{"primitives":[{"mode":4,"attributes":{"POSITION":0,"NORMAL":1,"TEXCOORD_0":2},"indices":3,"material":0}]}]}