{"asset":{"version":"2.0","generator":"THREE.GLTFExporter"},"scenes":[{"nodes":[0]}],"scene":0,"nodes":[{"matrix":[0.02539999969303608,0,0,0,0,0.02539999969303608,0,0,0,0,0.02539999969303608,0,45.1774362116048,62.83330232098615,-109.91296630593024,1],"name":"CastleMD_Glass","extras":{"name":"CastleMD_Glass"},"mesh":0}],"bufferViews":[{"buffer":0,"byteOffset":0,"byteLength":3396,"target":34962,"byteStride":12},{"buffer":0,"byteOffset":3396,"byteLength":3396,"target":34962,"byteStride":12},{"buffer":0,"byteOffset":6792,"byteLength":2264,"target":34962,"byteStride":8},{"buffer":0,"byteOffset":9056,"byteLength":968,"target":34963}],"buffers":[{"byteLength":10024,"uri":"data:application/octet-stream;base64,"}],"accessors":[{"bufferView":0,"componentType":5126,"count":283,"max":[416.2684631347656,618.355712890625,1012.906494140625],"min":[-416.2685852050781,-618.3556518554688,-1012.906494140625],"type":"VEC3"},{"bufferView":1,"componentType":5126,"count":283,"max":[1,0.08994730561971664,1],"min":[-1.0000001192092896,-0.1078849732875824,-1],"type":"VEC3"},{"bufferView":2,"componentType":5126,"count":283,"max":[1.0111138820648193,0.8760049939155579],"min":[-0.011443226598203182,0],"type":"VEC2"},{"bufferView":3,"componentType":5123,"count":483,"max":[282],"min":[0],"type":"SCALAR"}],"materials":[{"pbrMetallicRoughness":{"baseColorFactor":[0.41960787773132324,0.6274510025978088,0.7568628191947937,1],"metallicFactor":1,"roughnessFactor":0.858578622341156},"doubleSided":true,"name":"Glass"}],"meshes":[{"primitives":[{"mode":4,"attributes":{"POSITION":0,"NORMAL":1,"TEXCOORD_0":2},"indices":3,"material":0}]}]}