{"asset":{"version":"2.0","generator":"THREE.GLTFExporter"},"scenes":[{"nodes":[0]}],"scene":0,"nodes":[{"matrix":[0.02539999969303608,0,0,0,0,0.02539999969303608,0,0,0,0,0.02539999969303608,0,149.4737341877144,16.49088724044441,-5.994957913134385,1],"name":"TowerBridge_RoofTiles","extras":{"name":"TowerBridge_RoofTiles"},"mesh":0}],"bufferViews":[{"buffer":0,"byteOffset":0,"byteLength":31488,"target":34962,"byteStride":12},{"buffer":0,"byteOffset":31488,"byteLength":31488,"target":34962,"byteStride":12},{"buffer":0,"byteOffset":62976,"byteLength":20992,"target":34962,"byteStride":8},{"buffer":0,"byteOffset":83968,"byteLength":20992,"target":34962,"byteStride":8},{"buffer":0,"byteOffset":104960,"byteLength":12744,"target":34963}],"buffers":[{"byteLength":117704,"uri":"data:application/octet-stream;base64,"}],"accessors":[{"bufferView":0,"componentType":5126,"count":2624,"max":[377.3115234375,217.64361572265625,11.782015800476074],"min":[-92.59373474121094,-32.15911865234375,-113.25564575195312],"type":"VEC3"},{"bufferView":1,"componentType":5126,"count":2624,"max":[1.0000001192092896,1,1],"min":[-1,-1,-1],"type":"VEC3"},{"bufferView":2,"componentType":5126,"count":2624,"max":[2.4579386711120605,1.0209898948669434],"min":[-1.4579386711120605,-0.922919511795044],"type":"VEC2"},{"bufferView":3,"componentType":5126,"count":2624,"max":[234.95262145996094,59.22684097290039],"min":[-234.95262145996094,-57.226783752441406],"type":"VEC2"},{"bufferView":4,"componentType":5123,"count":6372,"max":[2623],"min":[0],"type":"SCALAR"}],"materials":[{"pbrMetallicRoughness":{"baseColorFactor":[0.4666666666666667,0.4745098039215686,0.4666666666666667,1],"metallicFactor":0,"roughnessFactor":1}}],"meshes":[{"primitives":[{"mode":4,"attributes":{"POSITION":0,"NORMAL":1,"TEXCOORD_0":2,"TEXCOORD_1":3},"indices":4,"material":0}]}]}