{"asset":{"version":"2.0","generator":"THREE.GLTFExporter"},"scenes":[{"nodes":[0]}],"scene":0,"nodes":[{"matrix":[0.02539999969303608,0,0,0,0,0.02539999969303608,0,0,0,0,0.02539999969303608,0,148.88546496759045,26.48720210429005,-123.64290657734637,1],"name":"ManorLG_Stone_Blocks","extras":{"name":"ManorLG_Stone_Blocks"},"mesh":0}],"bufferViews":[{"buffer":0,"byteOffset":0,"byteLength":114840,"target":34962,"byteStride":12},{"buffer":0,"byteOffset":114840,"byteLength":114840,"target":34962,"byteStride":12},{"buffer":0,"byteOffset":229680,"byteLength":76560,"target":34962,"byteStride":8},{"buffer":0,"byteOffset":306240,"byteLength":54072,"target":34963}],"buffers":[{"byteLength":360312,"uri":"data:application/octet-stream;base64,"}],"accessors":[{"bufferView":0,"componentType":5126,"count":9570,"max":[676.59814453125,0.3928326964378357,746.6998291015625],"min":[-659.8740234375,-122.24093627929688,-590.2269287109375],"type":"VEC3"},{"bufferView":1,"componentType":5126,"count":9570,"max":[0.999998152256012,1,1],"min":[-0.999998152256012,-1,-1],"type":"VEC3"},{"bufferView":2,"componentType":5126,"count":9570,"max":[13.930049896240234,3.8909945487976074],"min":[-11.431375503540039,-6.982505798339844],"type":"VEC2"},{"bufferView":3,"componentType":5123,"count":27036,"max":[9569],"min":[0],"type":"SCALAR"}],"materials":[{"pbrMetallicRoughness":{"baseColorFactor":[0.9254902601242065,0.7960785031318665,0.19215688109397888,1],"metallicFactor":1,"roughnessFactor":0.858578622341156},"doubleSided":true,"name":"Stone_Blocks"}],"meshes":[{"primitives":[{"mode":4,"attributes":{"POSITION":0,"NORMAL":1,"TEXCOORD_0":2},"indices":3,"material":0}]}]}