{"asset":{"version":"2.0","generator":"THREE.GLTFExporter"},"scenes":[{"nodes":[0]}],"scene":0,"nodes":[{"matrix":[0.02539999969303608,0,0,0,0,0.02539999969303608,0,0,0,0,0.02539999969303608,0,40.40752410888672,18.712961135704404,-7.381714398129134,1],"name":"HouseMD05_Wood_Beams","extras":{"name":"HouseMD05_Wood_Beams"},"mesh":0}],"bufferViews":[{"buffer":0,"byteOffset":0,"byteLength":669096,"target":34962,"byteStride":12},{"buffer":0,"byteOffset":669096,"byteLength":669096,"target":34962,"byteStride":12},{"buffer":0,"byteOffset":1338192,"byteLength":446064,"target":34962,"byteStride":8},{"buffer":0,"byteOffset":1784256,"byteLength":172944,"target":34963}],"buffers":[{"byteLength":1957200,"uri":"data:application/octet-stream;base64,"}],"accessors":[{"bufferView":0,"componentType":5126,"count":55758,"max":[202.728271484375,368.3647155761719,215.10769653320312],"min":[-202.728271484375,-368.36480712890625,-215.10765075683594],"type":"VEC3"},{"bufferView":1,"componentType":5126,"count":55758,"max":[1,1,1],"min":[-1,-1,-1],"type":"VEC3"},{"bufferView":2,"componentType":5126,"count":55758,"max":[34.89702224731445,31.98067283630371],"min":[-33.89702224731445,-2.1888463497161865],"type":"VEC2"},{"bufferView":3,"componentType":5123,"count":86472,"max":[55757],"min":[0],"type":"SCALAR"}],"materials":[{"pbrMetallicRoughness":{"baseColorFactor":[0.12941177189350128,0.03921568766236305,0.007843137718737125,1],"metallicFactor":1,"roughnessFactor":0.858578622341156},"doubleSided":true,"name":"Wood_Beams"}],"meshes":[{"primitives":[{"mode":4,"attributes":{"POSITION":0,"NORMAL":1,"TEXCOORD_0":2},"indices":3,"material":0}]}]}