{"asset":{"version":"2.0","generator":"THREE.GLTFExporter"},"scenes":[{"nodes":[0]}],"scene":0,"nodes":[{"matrix":[0.02539999969303608,0,0,0,0,0.02539999969303608,0,0,0,0,0.02539999969303608,0,9.071354274185751,7.267285849373195,23.43340974604405,1],"name":"HouseCabin_RoofTiles","extras":{"name":"HouseCabin_RoofTiles"},"mesh":0}],"bufferViews":[{"buffer":0,"byteOffset":0,"byteLength":3720,"target":34962,"byteStride":12},{"buffer":0,"byteOffset":3720,"byteLength":3720,"target":34962,"byteStride":12},{"buffer":0,"byteOffset":7440,"byteLength":2480,"target":34962,"byteStride":8},{"buffer":0,"byteOffset":9920,"byteLength":984,"target":34963}],"buffers":[{"byteLength":10904,"uri":"data:application/octet-stream;base64,"}],"accessors":[{"bufferView":0,"componentType":5126,"count":310,"max":[105.31584930419922,39.940032958984375,149.81651306152344],"min":[-105.31584930419922,-39.9400634765625,-149.81651306152344],"type":"VEC3"},{"bufferView":1,"componentType":5126,"count":310,"max":[1,0.8331658840179443,1],"min":[-1,-0.8317849636077881,-1],"type":"VEC3"},{"bufferView":2,"componentType":5126,"count":310,"max":[19.189777374267578,19.189777374267578],"min":[-18.189777374267578,4.852733612060547],"type":"VEC2"},{"bufferView":3,"componentType":5123,"count":492,"max":[309],"min":[0],"type":"SCALAR"}],"materials":[{"pbrMetallicRoughness":{"baseColorFactor":[0.4666666666666667,0.4745098039215686,0.4666666666666667,1],"metallicFactor":0,"roughnessFactor":1}}],"meshes":[{"primitives":[{"mode":4,"attributes":{"POSITION":0,"NORMAL":1,"TEXCOORD_0":2},"indices":3,"material":0}]}]}