{"asset":{"version":"2.0","generator":"THREE.GLTFExporter"},"scenes":[{"nodes":[0]}],"scene":0,"nodes":[{"matrix":[0.02539999969303608,0,0,0,0,0.02539999969303608,0,0,0,0,0.02539999969303608,0,-67.52971120185794,0.28598378547386005,26.032944048139143,1],"name":"Acc_Cart001","extras":{"name":"Acc_Cart001"},"mesh":0}],"bufferViews":[{"buffer":0,"byteOffset":0,"byteLength":36072,"target":34962,"byteStride":12},{"buffer":0,"byteOffset":36072,"byteLength":36072,"target":34962,"byteStride":12},{"buffer":0,"byteOffset":72144,"byteLength":24048,"target":34962,"byteStride":8},{"buffer":0,"byteOffset":96192,"byteLength":14760,"target":34963}],"buffers":[{"byteLength":110952,"uri":"data:application/octet-stream;base64,"}],"accessors":[{"bufferView":0,"componentType":5126,"count":3006,"max":[19.654794692993164,14.948278427124023,36.24477005004883],"min":[-19.654794692993164,-14.94827938079834,-36.24476623535156],"type":"VEC3"},{"bufferView":1,"componentType":5126,"count":3006,"max":[1,1,1],"min":[-1,-1,-1],"type":"VEC3"},{"bufferView":2,"componentType":5126,"count":3006,"max":[0.9961175918579102,2.0777206420898438],"min":[-5.171295642852783,-1.077726125717163],"type":"VEC2"},{"bufferView":3,"componentType":5123,"count":7380,"max":[3005],"min":[0],"type":"SCALAR"}],"materials":[{"pbrMetallicRoughness":{"baseColorFactor":[0.12941177189350128,0.03921568766236305,0.007843137718737125,1],"metallicFactor":1,"roughnessFactor":0.858578622341156},"doubleSided":true,"name":"Wood_Beams"}],"meshes":[{"primitives":[{"mode":4,"attributes":{"POSITION":0,"NORMAL":1,"TEXCOORD_0":2},"indices":3,"material":0}]}]}