{"asset":{"version":"2.0","generator":"THREE.GLTFExporter"},"scenes":[{"nodes":[0]}],"scene":0,"nodes":[{"matrix":[0.02539999969303608,0,0,0,0,0.02539999969303608,0,0,0,0,0.02539999969303608,0,40.40752410888672,18.598573545534066,-7.288256537930465,1],"name":"HouseMD05_Mullions_Wood","extras":{"name":"HouseMD05_Mullions_Wood"},"mesh":0}],"bufferViews":[{"buffer":0,"byteOffset":0,"byteLength":785196,"target":34962,"byteStride":12},{"buffer":0,"byteOffset":785196,"byteLength":785196,"target":34962,"byteStride":12},{"buffer":0,"byteOffset":1570392,"byteLength":523464,"target":34962,"byteStride":8},{"buffer":0,"byteOffset":2093856,"byteLength":247920,"target":34963}],"buffers":[{"byteLength":2341776,"uri":"data:application/octet-stream;base64,"}],"accessors":[{"bufferView":0,"componentType":5126,"count":65433,"max":[193.464599609375,330.9666442871094,179.68614196777344],"min":[-193.464599609375,-330.96673583984375,-179.68626403808594],"type":"VEC3"},{"bufferView":1,"componentType":5126,"count":65433,"max":[1.0000001192092896,1.0000001192092896,1.0000001192092896],"min":[-1.0000001192092896,-1.0000001192092896,-1.0000001192092896],"type":"VEC3"},{"bufferView":2,"componentType":5126,"count":65433,"max":[73.15220642089844,12.869877815246582],"min":[-72.15220642089844,-9.194565773010254],"type":"VEC2"},{"bufferView":3,"componentType":5123,"count":123960,"max":[65432],"min":[0],"type":"SCALAR"}],"materials":[{"pbrMetallicRoughness":{"baseColorFactor":[0.7058823704719543,0.8588235974311829,0.6549019813537598,1],"metallicFactor":1,"roughnessFactor":0.858578622341156},"doubleSided":true,"name":"Mullions_Wood"}],"meshes":[{"primitives":[{"mode":4,"attributes":{"POSITION":0,"NORMAL":1,"TEXCOORD_0":2},"indices":3,"material":0}]}]}