{"asset":{"version":"2.0","generator":"THREE.GLTFExporter"},"scenes":[{"nodes":[0]}],"scene":0,"nodes":[{"matrix":[0.02539999969303608,0,0,0,0,0.02539999969303608,0,0,0,0,0.02539999969303608,0,149.04428937973353,45.17393451700707,-118.50255683478099,1],"name":"ManorLG_RoofTiles","extras":{"name":"ManorLG_RoofTiles"},"mesh":0}],"bufferViews":[{"buffer":0,"byteOffset":0,"byteLength":125700,"target":34962,"byteStride":12},{"buffer":0,"byteOffset":125700,"byteLength":125700,"target":34962,"byteStride":12},{"buffer":0,"byteOffset":251400,"byteLength":83800,"target":34962,"byteStride":8},{"buffer":0,"byteOffset":335200,"byteLength":47124,"target":34963}],"buffers":[{"byteLength":382324,"uri":"data:application/octet-stream;base64,"}],"accessors":[{"bufferView":0,"componentType":5126,"count":10475,"max":[691.74609375,858.783447265625,813.6397094726562],"min":[-691.7460327148438,-858.7835083007812,-813.6397705078125],"type":"VEC3"},{"bufferView":1,"componentType":5126,"count":10475,"max":[1.0000001192092896,1,1],"min":[-1,-1,-1.0000001192092896],"type":"VEC3"},{"bufferView":2,"componentType":5126,"count":10475,"max":[22.726673126220703,5.797987937927246],"min":[-21.726673126220703,-16.82278060913086],"type":"VEC2"},{"bufferView":3,"componentType":5123,"count":23562,"max":[10474],"min":[0],"type":"SCALAR"}],"materials":[{"pbrMetallicRoughness":{"baseColorFactor":[0.4666666666666667,0.4745098039215686,0.4666666666666667,1],"metallicFactor":0,"roughnessFactor":1}}],"meshes":[{"primitives":[{"mode":4,"attributes":{"POSITION":0,"NORMAL":1,"TEXCOORD_0":2},"indices":3,"material":0}]}]}