{"asset":{"version":"2.0","generator":"THREE.GLTFExporter"},"scenes":[{"nodes":[0]}],"scene":0,"nodes":[{"matrix":[0.02539999969303608,0,0,0,0,0.02539999969303608,0,0,0,0,0.02539999969303608,0,117.08189392089844,14.027211703936985,24.248395361161982,1],"name":"HouseSM02_Wood_Beams","extras":{"name":"HouseSM02_Wood_Beams"},"mesh":0}],"bufferViews":[{"buffer":0,"byteOffset":0,"byteLength":1536,"target":34962,"byteStride":12},{"buffer":0,"byteOffset":1536,"byteLength":1536,"target":34962,"byteStride":12},{"buffer":0,"byteOffset":3072,"byteLength":1024,"target":34962,"byteStride":8},{"buffer":0,"byteOffset":4096,"byteLength":384,"target":34963}],"buffers":[{"byteLength":4480,"uri":"data:application/octet-stream;base64,"}],"accessors":[{"bufferView":0,"componentType":5126,"count":128,"max":[189.84312438964844,-187.30821228027344,124.14452362060547],"min":[-183.7282257080078,-195.84234619140625,-125.5275650024414],"type":"VEC3"},{"bufferView":1,"componentType":5126,"count":128,"max":[1,1,1],"min":[-1,-1,-1],"type":"VEC3"},{"bufferView":2,"componentType":5126,"count":128,"max":[51.21929168701172,51.21929168701172],"min":[-50.21929168701172,8.553403854370117],"type":"VEC2"},{"bufferView":3,"componentType":5123,"count":192,"max":[127],"min":[0],"type":"SCALAR"}],"materials":[{"pbrMetallicRoughness":{"baseColorFactor":[0.12941177189350128,0.03921568766236305,0.007843137718737125,1],"metallicFactor":1,"roughnessFactor":0.858578622341156},"doubleSided":true,"name":"Wood_Beams"}],"meshes":[{"primitives":[{"mode":4,"attributes":{"POSITION":0,"NORMAL":1,"TEXCOORD_0":2},"indices":3,"material":0}]}]}