{"asset":{"version":"2.0","generator":"THREE.GLTFExporter"},"scenes":[{"nodes":[0]}],"scene":0,"nodes":[{"matrix":[0.02539999969303608,0,0,0,0,0.02539999969303608,0,0,0,0,0.02539999969303608,0,117.12649274848445,14.122299697172593,24.23445861511459,1],"name":"HouseSM02_PlasterYellow","extras":{"name":"HouseSM02_PlasterYellow"},"mesh":0}],"bufferViews":[{"buffer":0,"byteOffset":0,"byteLength":42156,"target":34962,"byteStride":12},{"buffer":0,"byteOffset":42156,"byteLength":42156,"target":34962,"byteStride":12},{"buffer":0,"byteOffset":84312,"byteLength":28104,"target":34962,"byteStride":8},{"buffer":0,"byteOffset":112416,"byteLength":11208,"target":34963}],"buffers":[{"byteLength":123624,"uri":"data:application/octet-stream;base64,"}],"accessors":[{"bufferView":0,"componentType":5126,"count":3513,"max":[187.33810424804688,195.81884765625,128.48793029785156],"min":[-187.33816528320312,-195.81893920898438,-128.48793029785156],"type":"VEC3"},{"bufferView":1,"componentType":5126,"count":3513,"max":[1,1,1.0000001192092896],"min":[-1.0000001192092896,-1,-1],"type":"VEC3"},{"bufferView":2,"componentType":5126,"count":3513,"max":[18.466581344604492,18.395309448242188],"min":[-17.502328872680664,2.2407774925231934],"type":"VEC2"},{"bufferView":3,"componentType":5123,"count":5604,"max":[3512],"min":[0],"type":"SCALAR"}],"materials":[{"pbrMetallicRoughness":{"baseColorFactor":[0.7372549176216125,0.6000000238418579,0.3803921937942505,1],"metallicFactor":1,"roughnessFactor":0.858578622341156},"doubleSided":true,"name":"PlasterYellow"}],"meshes":[{"primitives":[{"mode":4,"attributes":{"POSITION":0,"NORMAL":1,"TEXCOORD_0":2},"indices":3,"material":0}]}]}