{"asset":{"version":"2.0","generator":"THREE.GLTFExporter"},"scenes":[{"nodes":[0]}],"scene":0,"nodes":[{"matrix":[-3.4127149151033032e-9,0,0.02539999882363095,0,0,0.02539999969303608,0,0,-0.02539999882363095,0,-3.4127149151033032e-9,0,-1.1989578557694358,11.7439608596801,-51.63746468323791,1],"name":"HouseCastle_RoofTiles","extras":{"name":"HouseCastle_RoofTiles"},"mesh":0}],"bufferViews":[{"buffer":0,"byteOffset":0,"byteLength":24924,"target":34962,"byteStride":12},{"buffer":0,"byteOffset":24924,"byteLength":24924,"target":34962,"byteStride":12},{"buffer":0,"byteOffset":49848,"byteLength":16616,"target":34962,"byteStride":8},{"buffer":0,"byteOffset":66464,"byteLength":7668,"target":34963}],"buffers":[{"byteLength":74132,"uri":"data:application/octet-stream;base64,"}],"accessors":[{"bufferView":0,"componentType":5126,"count":2077,"max":[395.4513854980469,878.6820068359375,88.2154541015625],"min":[-161.20266723632812,582.8868408203125,-459.99151611328125],"type":"VEC3"},{"bufferView":1,"componentType":5126,"count":2077,"max":[1,1,1],"min":[-1,-1,-1],"type":"VEC3"},{"bufferView":2,"componentType":5126,"count":2077,"max":[2.092262029647827,1.7186431884765625],"min":[-1.092226505279541,-1.1963562965393066],"type":"VEC2"},{"bufferView":3,"componentType":5123,"count":3834,"max":[2076],"min":[0],"type":"SCALAR"}],"materials":[{"pbrMetallicRoughness":{"baseColorFactor":[0.4666666666666667,0.4745098039215686,0.4666666666666667,1],"metallicFactor":0,"roughnessFactor":1}}],"meshes":[{"primitives":[{"mode":4,"attributes":{"POSITION":0,"NORMAL":1,"TEXCOORD_0":2},"indices":3,"material":0}]}]}