{"asset":{"version":"2.0","generator":"THREE.GLTFExporter"},"scenes":[{"nodes":[0]}],"scene":0,"nodes":[{"matrix":[0.02539999969303608,0,0,0,0,0.02539999969303608,0,0,0,0,0.02539999969303608,0,-50.12006026699828,12.820683715406972,-5.088932983464929,1],"name":"HouseMD01_Stone_Stacked","extras":{"name":"HouseMD01_Stone_Stacked"},"mesh":0}],"bufferViews":[{"buffer":0,"byteOffset":0,"byteLength":3528,"target":34962,"byteStride":12},{"buffer":0,"byteOffset":3528,"byteLength":3528,"target":34962,"byteStride":12},{"buffer":0,"byteOffset":7056,"byteLength":2352,"target":34962,"byteStride":8},{"buffer":0,"byteOffset":9408,"byteLength":948,"target":34963}],"buffers":[{"byteLength":10356,"uri":"data:application/octet-stream;base64,"}],"accessors":[{"bufferView":0,"componentType":5126,"count":294,"max":[52.99609375,257,122.09246826171875],"min":[-52.996429443359375,-257,-122.09259033203125],"type":"VEC3"},{"bufferView":1,"componentType":5126,"count":294,"max":[1,1,1],"min":[-1,-1,-1],"type":"VEC3"},{"bufferView":2,"componentType":5126,"count":294,"max":[14.339385986328125,12.839385986328125],"min":[-11.839385986328125,1.9889196157455444],"type":"VEC2"},{"bufferView":3,"componentType":5123,"count":474,"max":[293],"min":[0],"type":"SCALAR"}],"materials":[{"pbrMetallicRoughness":{"baseColorFactor":[0.40000003576278687,0.41960787773132324,0.7921569347381592,1],"metallicFactor":1,"roughnessFactor":0.858578622341156},"doubleSided":true,"name":"Stone_Stacked"}],"meshes":[{"primitives":[{"mode":4,"attributes":{"POSITION":0,"NORMAL":1,"TEXCOORD_0":2},"indices":3,"material":0}]}]}