{"asset":{"version":"2.0","generator":"THREE.GLTFExporter"},"scenes":[{"nodes":[0]}],"scene":0,"nodes":[{"matrix":[0.02539999969303608,0,0,0,0,0.02539999969303608,0,0,0,0,0.02539999969303608,0,-16.677477081183042,15.387553053614283,24.093968095162666,1],"name":"Windmill_RoofTiles","extras":{"name":"Windmill_RoofTiles"},"mesh":0}],"bufferViews":[{"buffer":0,"byteOffset":0,"byteLength":10176,"target":34962,"byteStride":12},{"buffer":0,"byteOffset":10176,"byteLength":10176,"target":34962,"byteStride":12},{"buffer":0,"byteOffset":20352,"byteLength":6784,"target":34962,"byteStride":8},{"buffer":0,"byteOffset":27136,"byteLength":5400,"target":34963}],"buffers":[{"byteLength":32536,"uri":"data:application/octet-stream;base64,"}],"accessors":[{"bufferView":0,"componentType":5126,"count":848,"max":[79.8370132446289,54.39312744140625,81.1656494140625],"min":[-79.8370361328125,-54.39324951171875,-81.16571044921875],"type":"VEC3"},{"bufferView":1,"componentType":5126,"count":848,"max":[0.8966642022132874,0.8173538446426392,0.9591856598854065],"min":[-0.8956483006477356,-0.814197301864624,-0.959186315536499],"type":"VEC3"},{"bufferView":2,"componentType":5126,"count":848,"max":[23.639123916625977,18.894119262695312],"min":[-22.639123916625977,3.550455093383789],"type":"VEC2"},{"bufferView":3,"componentType":5123,"count":2700,"max":[847],"min":[0],"type":"SCALAR"}],"materials":[{"pbrMetallicRoughness":{"baseColorFactor":[0.4666666666666667,0.4745098039215686,0.4666666666666667,1],"metallicFactor":0,"roughnessFactor":1}}],"meshes":[{"primitives":[{"mode":4,"attributes":{"POSITION":0,"NORMAL":1,"TEXCOORD_0":2},"indices":3,"material":0}]}]}