{"asset":{"version":"2.0","generator":"THREE.GLTFExporter"},"scenes":[{"nodes":[0]}],"scene":0,"nodes":[{"matrix":[0.02539999969303608,0,0,0,0,0.02539999969303608,0,0,0,0,0.02539999969303608,0,159.50842395147083,9.44861229969041,25.209885775756845,1],"name":"HouseSM01_Wood_Beams","extras":{"name":"HouseSM01_Wood_Beams"},"mesh":0}],"bufferViews":[{"buffer":0,"byteOffset":0,"byteLength":161664,"target":34962,"byteStride":12},{"buffer":0,"byteOffset":161664,"byteLength":161664,"target":34962,"byteStride":12},{"buffer":0,"byteOffset":323328,"byteLength":107776,"target":34962,"byteStride":8},{"buffer":0,"byteOffset":431104,"byteLength":41316,"target":34963}],"buffers":[{"byteLength":472420,"uri":"data:application/octet-stream;base64,"}],"accessors":[{"bufferView":0,"componentType":5126,"count":13472,"max":[265.12042236328125,185.28814697265625,131.8805389404297],"min":[-265.12042236328125,-185.2881622314453,-131.8804473876953],"type":"VEC3"},{"bufferView":1,"componentType":5126,"count":13472,"max":[1,1,1],"min":[-1,-1,-1],"type":"VEC3"},{"bufferView":2,"componentType":5126,"count":13472,"max":[51.979129791259766,51.9448127746582],"min":[-50.979129791259766,-2.814004898071289],"type":"VEC2"},{"bufferView":3,"componentType":5123,"count":20658,"max":[13471],"min":[0],"type":"SCALAR"}],"materials":[{"pbrMetallicRoughness":{"baseColorFactor":[0.12941177189350128,0.03921568766236305,0.007843137718737125,1],"metallicFactor":1,"roughnessFactor":0.858578622341156},"doubleSided":true,"name":"Wood_Beams"}],"meshes":[{"primitives":[{"mode":4,"attributes":{"POSITION":0,"NORMAL":1,"TEXCOORD_0":2},"indices":3,"material":0}]}]}