{"asset":{"version":"2.0","generator":"THREE.GLTFExporter"},"scenes":[{"nodes":[0]}],"scene":0,"nodes":[{"matrix":[0.02539999969303608,0,0,0,0,0.02539999969303608,0,0,0,0,0.02539999969303608,0,-8.159973749513256,12.967515674070086,-5.478137114144602,1],"name":"HouseMD03_PlasterBrown","extras":{"name":"HouseMD03_PlasterBrown"},"mesh":0}],"bufferViews":[{"buffer":0,"byteOffset":0,"byteLength":167688,"target":34962,"byteStride":12},{"buffer":0,"byteOffset":167688,"byteLength":167688,"target":34962,"byteStride":12},{"buffer":0,"byteOffset":335376,"byteLength":111792,"target":34962,"byteStride":8},{"buffer":0,"byteOffset":447168,"byteLength":55068,"target":34963}],"buffers":[{"byteLength":502236,"uri":"data:application/octet-stream;base64,"}],"accessors":[{"bufferView":0,"componentType":5126,"count":13974,"max":[195.48202514648438,200.5321502685547,186.6356658935547],"min":[-195.4820556640625,-200.5321807861328,-186.6356964111328],"type":"VEC3"},{"bufferView":1,"componentType":5126,"count":13974,"max":[1.0000001192092896,1.0000001192092896,1],"min":[-1.0000001192092896,-1.0000001192092896,-1],"type":"VEC3"},{"bufferView":2,"componentType":5126,"count":13974,"max":[23.63019371032715,16.476240158081055],"min":[-22.63019371032715,0.7625839710235596],"type":"VEC2"},{"bufferView":3,"componentType":5123,"count":27534,"max":[13973],"min":[0],"type":"SCALAR"}],"materials":[{"pbrMetallicRoughness":{"baseColorFactor":[0.5803921818733215,0.13725490868091583,0.13725490868091583,1],"metallicFactor":1,"roughnessFactor":0.858578622341156},"doubleSided":true,"name":"PlasterBrown"}],"meshes":[{"primitives":[{"mode":4,"attributes":{"POSITION":0,"NORMAL":1,"TEXCOORD_0":2},"indices":3,"material":0}]}]}