{"asset":{"version":"2.0","generator":"THREE.GLTFExporter"},"scenes":[{"nodes":[0]}],"scene":0,"nodes":[{"matrix":[0.02539999969303608,0,0,0,0,0.02539999969303608,0,0,0,0,0.02539999969303608,0,-51.75018153415817,4.99657565664603,25.23092925222862,1],"name":"网格.278_2","mesh":0}],"bufferViews":[{"buffer":0,"byteOffset":0,"byteLength":612,"target":34962,"byteStride":12},{"buffer":0,"byteOffset":612,"byteLength":612,"target":34962,"byteStride":12},{"buffer":0,"byteOffset":1224,"byteLength":408,"target":34962,"byteStride":8},{"buffer":0,"byteOffset":1632,"byteLength":152,"target":34963}],"buffers":[{"byteLength":1784,"uri":"data:application/octet-stream;base64,"}],"accessors":[{"bufferView":0,"componentType":5126,"count":51,"max":[18.812026977539062,45.65895080566406,11.163002014160156],"min":[-18.812026977539062,36.02256774902344,-8.123604774475098],"type":"VEC3"},{"bufferView":1,"componentType":5126,"count":51,"max":[0.6419339179992676,1,0.6220236420631409],"min":[-0.6419273018836975,0.4626588821411133,0],"type":"VEC3"},{"bufferView":2,"componentType":5126,"count":51,"max":[-0.007015305105596781,1.421658992767334],"min":[-0.7786990404129028,1.0069124698638916],"type":"VEC2"},{"bufferView":3,"componentType":5123,"count":75,"max":[50],"min":[0],"type":"SCALAR"}],"materials":[{"pbrMetallicRoughness":{"baseColorFactor":[0.4666666666666667,0.4745098039215686,0.4666666666666667,1],"metallicFactor":0,"roughnessFactor":1}}],"meshes":[{"primitives":[{"mode":4,"attributes":{"POSITION":0,"NORMAL":1,"TEXCOORD_0":2},"indices":3,"material":0}]}]}