{"asset":{"version":"2.0","generator":"THREE.GLTFExporter"},"scenes":[{"nodes":[0]}],"scene":0,"nodes":[{"matrix":[0.02539999969303608,0,0,0,0,0.02539999969303608,0,0,0,0,0.02539999969303608,0,-32.081324861410394,107.04184457533438,-120.14886767764438,1],"name":"CastleLG_PlasterBrown001","extras":{"name":"CastleLG_PlasterBrown.001"},"mesh":0}],"bufferViews":[{"buffer":0,"byteOffset":0,"byteLength":438048,"target":34962,"byteStride":12},{"buffer":0,"byteOffset":438048,"byteLength":438048,"target":34962,"byteStride":12},{"buffer":0,"byteOffset":876096,"byteLength":292032,"target":34962,"byteStride":8},{"buffer":0,"byteOffset":1168128,"byteLength":133920,"target":34963}],"buffers":[{"byteLength":1302048,"uri":"data:application/octet-stream;base64,"}],"accessors":[{"bufferView":0,"componentType":5126,"count":36504,"max":[515.6876220703125,1846.3333740234375,543.0123901367188],"min":[-515.6874389648438,-1846.3331298828125,-543.0128173828125],"type":"VEC3"},{"bufferView":1,"componentType":5126,"count":36504,"max":[1,1,1],"min":[-1,-1,-1],"type":"VEC3"},{"bufferView":2,"componentType":5126,"count":36504,"max":[1.0474570989608765,1.0432904958724976],"min":[-0.047457098960876465,-0.047457098960876465],"type":"VEC2"},{"bufferView":3,"componentType":5123,"count":66960,"max":[36503],"min":[0],"type":"SCALAR"}],"materials":[{"pbrMetallicRoughness":{"baseColorFactor":[0.5803921818733215,0.13725490868091583,0.13725490868091583,1],"metallicFactor":1,"roughnessFactor":0.858578622341156},"doubleSided":true,"name":"PlasterBrown"}],"meshes":[{"primitives":[{"mode":4,"attributes":{"POSITION":0,"NORMAL":1,"TEXCOORD_0":2},"indices":3,"material":0}]}]}