{"asset":{"version":"2.0","generator":"THREE.GLTFExporter"},"scenes":[{"nodes":[0]}],"scene":0,"nodes":[{"matrix":[0.02539999969303608,0,0,0,0,0.02539999969303608,0,0,0,0,0.02539999969303608,0,31.48845892638201,4.81724166746946,23.15077482261802,1],"name":"HouseAFrame_WoodDark","extras":{"name":"HouseAFrame_WoodDark"},"mesh":0}],"bufferViews":[{"buffer":0,"byteOffset":0,"byteLength":30912,"target":34962,"byteStride":12},{"buffer":0,"byteOffset":30912,"byteLength":30912,"target":34962,"byteStride":12},{"buffer":0,"byteOffset":61824,"byteLength":20608,"target":34962,"byteStride":8},{"buffer":0,"byteOffset":82432,"byteLength":7440,"target":34963}],"buffers":[{"byteLength":89872,"uri":"data:application/octet-stream;base64,"}],"accessors":[{"bufferView":0,"componentType":5126,"count":2576,"max":[24.034414291381836,46.07500457763672,3.13800048828125],"min":[-24.0344295501709,-46.07501983642578,-3.1380081176757812],"type":"VEC3"},{"bufferView":1,"componentType":5126,"count":2576,"max":[0.9894995093345642,0.9999504089355469,0.9999963045120239],"min":[-0.9894900918006897,-0.9999545216560364,-0.9999787211418152],"type":"VEC3"},{"bufferView":2,"componentType":5126,"count":2576,"max":[23.181110382080078,23.180883407592773],"min":[-22.181110382080078,-17.226137161254883],"type":"VEC2"},{"bufferView":3,"componentType":5123,"count":3720,"max":[2575],"min":[0],"type":"SCALAR"}],"materials":[{"pbrMetallicRoughness":{"baseColorFactor":[0.07058823853731155,0.003921568859368563,0.003921568859368563,1],"metallicFactor":1,"roughnessFactor":0.858578622341156},"doubleSided":true,"name":"WoodDark"}],"meshes":[{"primitives":[{"mode":4,"attributes":{"POSITION":0,"NORMAL":1,"TEXCOORD_0":2},"indices":3,"material":0}]}]}