{"asset":{"version":"2.0","generator":"THREE.GLTFExporter"},"scenes":[{"nodes":[0]}],"scene":0,"nodes":[{"matrix":[0.02539999969303608,0,0,0,0,0.02539999969303608,0,0,0,0,0.02539999969303608,0,33.950732514765406,22.12968680329726,-48.62245057002292,1],"name":"HouseLG03_PlasterYellow","extras":{"name":"HouseLG03_PlasterYellow"},"mesh":0}],"bufferViews":[{"buffer":0,"byteOffset":0,"byteLength":222828,"target":34962,"byteStride":12},{"buffer":0,"byteOffset":222828,"byteLength":222828,"target":34962,"byteStride":12},{"buffer":0,"byteOffset":445656,"byteLength":148552,"target":34962,"byteStride":8},{"buffer":0,"byteOffset":594208,"byteLength":63476,"target":34963}],"buffers":[{"byteLength":657684,"uri":"data:application/octet-stream;base64,"}],"accessors":[{"bufferView":0,"componentType":5126,"count":18569,"max":[426.966796875,390.665771484375,292.6341552734375],"min":[-426.9668273925781,-390.6657409667969,-292.6341857910156],"type":"VEC3"},{"bufferView":1,"componentType":5126,"count":18569,"max":[1,1,1],"min":[-1,-1,-1],"type":"VEC3"},{"bufferView":2,"componentType":5126,"count":18569,"max":[8.564969062805176,5.461677074432373],"min":[-7.564968109130859,-1.3757121562957764],"type":"VEC2"},{"bufferView":3,"componentType":5123,"count":31737,"max":[18568],"min":[0],"type":"SCALAR"}],"materials":[{"pbrMetallicRoughness":{"baseColorFactor":[0.7372549176216125,0.6000000238418579,0.3803921937942505,1],"metallicFactor":1,"roughnessFactor":0.858578622341156},"doubleSided":true,"name":"PlasterYellow"}],"meshes":[{"primitives":[{"mode":4,"attributes":{"POSITION":0,"NORMAL":1,"TEXCOORD_0":2},"indices":3,"material":0}]}]}