{"asset":{"version":"2.0","generator":"THREE.GLTFExporter"},"scenes":[{"nodes":[0]}],"scene":0,"nodes":[{"matrix":[0.02539999969303608,0,0,0,0,0.02539999969303608,0,0,0,0,0.02539999969303608,0,117.08189392089844,14.027211703936985,24.24839574873522,1],"name":"HouseSM02_Wood_Beams001","extras":{"name":"HouseSM02_Wood_Beams.001"},"mesh":0}],"bufferViews":[{"buffer":0,"byteOffset":0,"byteLength":148800,"target":34962,"byteStride":12},{"buffer":0,"byteOffset":148800,"byteLength":148800,"target":34962,"byteStride":12},{"buffer":0,"byteOffset":297600,"byteLength":99200,"target":34962,"byteStride":8},{"buffer":0,"byteOffset":396800,"byteLength":37680,"target":34963}],"buffers":[{"byteLength":434480,"uri":"data:application/octet-stream;base64,"}],"accessors":[{"bufferView":0,"componentType":5126,"count":12400,"max":[194.91824340820312,209.812744140625,140.31048583984375],"min":[-194.9182891845703,-209.81283569335938,-140.3104705810547],"type":"VEC3"},{"bufferView":1,"componentType":5126,"count":12400,"max":[1,1,1],"min":[-1,-1,-1],"type":"VEC3"},{"bufferView":2,"componentType":5126,"count":12400,"max":[51.34711837768555,51.34711837768555],"min":[-50.34711837768555,-1.9364783763885498],"type":"VEC2"},{"bufferView":3,"componentType":5123,"count":18840,"max":[12399],"min":[0],"type":"SCALAR"}],"materials":[{"pbrMetallicRoughness":{"baseColorFactor":[0.12941177189350128,0.03921568766236305,0.007843137718737125,1],"metallicFactor":1,"roughnessFactor":0.858578622341156},"doubleSided":true,"name":"Wood_Beams"}],"meshes":[{"primitives":[{"mode":4,"attributes":{"POSITION":0,"NORMAL":1,"TEXCOORD_0":2},"indices":3,"material":0}]}]}