{"asset":{"version":"2.0","generator":"THREE.GLTFExporter"},"scenes":[{"nodes":[0]}],"scene":0,"nodes":[{"matrix":[0.02539999969303608,0,0,0,0,0.02539999969303608,0,0,0,0,0.02539999969303608,0,93.01268894316763,8.292013223631187,26.106021011334178,1],"name":"HouseSM03_Wood_Beams","extras":{"name":"HouseSM03_Wood_Beams"},"mesh":0}],"bufferViews":[{"buffer":0,"byteOffset":0,"byteLength":33072,"target":34962,"byteStride":12},{"buffer":0,"byteOffset":33072,"byteLength":33072,"target":34962,"byteStride":12},{"buffer":0,"byteOffset":66144,"byteLength":22048,"target":34962,"byteStride":8},{"buffer":0,"byteOffset":88192,"byteLength":8496,"target":34963}],"buffers":[{"byteLength":96688,"uri":"data:application/octet-stream;base64,"}],"accessors":[{"bufferView":0,"componentType":5126,"count":2756,"max":[334.7873840332031,166.37298583984375,194.81378173828125],"min":[-334.7873840332031,-166.3729705810547,-194.81378173828125],"type":"VEC3"},{"bufferView":1,"componentType":5126,"count":2756,"max":[1,1,1],"min":[-1,-1,-1],"type":"VEC3"},{"bufferView":2,"componentType":5126,"count":2756,"max":[53.596923828125,53.596923828125],"min":[-52.596923828125,-3.4072141647338867],"type":"VEC2"},{"bufferView":3,"componentType":5123,"count":4248,"max":[2755],"min":[0],"type":"SCALAR"}],"materials":[{"pbrMetallicRoughness":{"baseColorFactor":[0.12941177189350128,0.03921568766236305,0.007843137718737125,1],"metallicFactor":1,"roughnessFactor":0.858578622341156},"doubleSided":true,"name":"Wood_Beams"}],"meshes":[{"primitives":[{"mode":4,"attributes":{"POSITION":0,"NORMAL":1,"TEXCOORD_0":2},"indices":3,"material":0}]}]}