{"asset":{"version":"2.0","generator":"THREE.GLTFExporter"},"scenes":[{"nodes":[0]}],"scene":0,"nodes":[{"matrix":[0.02539999969303608,0,0,0,0,0.02539999969303608,0,0,0,0,0.02539999969303608,0,-54.46022073480526,5.371819414318168,25.52206457891039,1],"name":"网格.281_1","mesh":0}],"bufferViews":[{"buffer":0,"byteOffset":0,"byteLength":81600,"target":34962,"byteStride":12},{"buffer":0,"byteOffset":81600,"byteLength":81600,"target":34962,"byteStride":12},{"buffer":0,"byteOffset":163200,"byteLength":54400,"target":34962,"byteStride":8},{"buffer":0,"byteOffset":217600,"byteLength":33168,"target":34963}],"buffers":[{"byteLength":250768,"uri":"data:application/octet-stream;base64,"}],"accessors":[{"bufferView":0,"componentType":5126,"count":6800,"max":[64.77188110351562,94.7792739868164,18.46778678894043],"min":[-64.77188110351562,-46.52611541748047,-20.94722557067871],"type":"VEC3"},{"bufferView":1,"componentType":5126,"count":6800,"max":[1,1,1],"min":[-1,-1,-1],"type":"VEC3"},{"bufferView":2,"componentType":5126,"count":6800,"max":[0.9991227984428406,0.9990430474281311],"min":[0.0008771930006332695,0.011403501033782959],"type":"VEC2"},{"bufferView":3,"componentType":5123,"count":16584,"max":[6799],"min":[0],"type":"SCALAR"}],"materials":[{"pbrMetallicRoughness":{"baseColorFactor":[0.12941177189350128,0.03921568766236305,0.007843137718737125,1],"metallicFactor":1,"roughnessFactor":0.858578622341156},"doubleSided":true,"name":"Wood_Beams"}],"meshes":[{"primitives":[{"mode":4,"attributes":{"POSITION":0,"NORMAL":1,"TEXCOORD_0":2},"indices":3,"material":0}]}]}