{"asset":{"version":"2.0","generator":"THREE.GLTFExporter"},"scenes":[{"nodes":[0]}],"scene":0,"nodes":[{"matrix":[0.02539999969303608,0,0,0,0,0.02539999969303608,0,0,0,0,0.02539999969303608,0,98.13919292712126,22.83896664826267,-119.32716480819909,1],"name":"CastleSM_WoodDark001","extras":{"name":"CastleSM_WoodDark.001"},"mesh":0}],"bufferViews":[{"buffer":0,"byteOffset":0,"byteLength":38208,"target":34962,"byteStride":12},{"buffer":0,"byteOffset":38208,"byteLength":38208,"target":34962,"byteStride":12},{"buffer":0,"byteOffset":76416,"byteLength":25472,"target":34962,"byteStride":8},{"buffer":0,"byteOffset":101888,"byteLength":10032,"target":34963}],"buffers":[{"byteLength":111920,"uri":"data:application/octet-stream;base64,"}],"accessors":[{"bufferView":0,"componentType":5126,"count":3184,"max":[319.74957275390625,195.82550048828125,945.245849609375],"min":[-319.74969482421875,-195.82566833496094,-945.2456665039062],"type":"VEC3"},{"bufferView":1,"componentType":5126,"count":3184,"max":[1,1,1],"min":[-1,-1,-1],"type":"VEC3"},{"bufferView":2,"componentType":5126,"count":3184,"max":[25.88620376586914,11.500516891479492],"min":[-24.88620376586914,-24.88620376586914],"type":"VEC2"},{"bufferView":3,"componentType":5123,"count":5016,"max":[3183],"min":[0],"type":"SCALAR"}],"materials":[{"pbrMetallicRoughness":{"baseColorFactor":[0.07058823853731155,0.003921568859368563,0.003921568859368563,1],"metallicFactor":1,"roughnessFactor":0.858578622341156},"doubleSided":true,"name":"WoodDark"}],"meshes":[{"primitives":[{"mode":4,"attributes":{"POSITION":0,"NORMAL":1,"TEXCOORD_0":2},"indices":3,"material":0}]}]}