{"asset":{"version":"2.0","generator":"THREE.GLTFExporter"},"scenes":[{"nodes":[0]}],"scene":0,"nodes":[{"matrix":[0.02539999969303608,0,0,0,0,0.02539999969303608,0,0,0,0,0.02539999969303608,0,-40.31807637446582,5.606526015485599,25.368953383861353,1],"name":"网格252","mesh":0}],"bufferViews":[{"buffer":0,"byteOffset":0,"byteLength":15720,"target":34962,"byteStride":12},{"buffer":0,"byteOffset":15720,"byteLength":15720,"target":34962,"byteStride":12},{"buffer":0,"byteOffset":31440,"byteLength":10480,"target":34962,"byteStride":8},{"buffer":0,"byteOffset":41920,"byteLength":6828,"target":34963}],"buffers":[{"byteLength":48748,"uri":"data:application/octet-stream;base64,"}],"accessors":[{"bufferView":0,"componentType":5126,"count":1310,"max":[33.103023529052734,32.74203109741211,12.802848815917969],"min":[-33.14351272583008,-41.111976623535156,-4.417115211486816],"type":"VEC3"},{"bufferView":1,"componentType":5126,"count":1310,"max":[1,1,1],"min":[-1,-1,-1],"type":"VEC3"},{"bufferView":2,"componentType":5126,"count":1310,"max":[0.8312326669692993,0.8692700266838074],"min":[0.16876733303070068,0.13072997331619263],"type":"VEC2"},{"bufferView":3,"componentType":5123,"count":3414,"max":[1309],"min":[0],"type":"SCALAR"}],"materials":[{"pbrMetallicRoughness":{"baseColorFactor":[0.5803921818733215,0.13725490868091583,0.13725490868091583,1],"metallicFactor":1,"roughnessFactor":0.858578622341156},"doubleSided":true,"name":"PlasterBrown"}],"meshes":[{"primitives":[{"mode":4,"attributes":{"POSITION":0,"NORMAL":1,"TEXCOORD_0":2},"indices":3,"material":0}]}]}