{"asset":{"version":"2.0","generator":"THREE.GLTFExporter"},"scenes":[{"nodes":[0]}],"scene":0,"nodes":[{"matrix":[0.02539999969303608,0,0,0,0,0.02539999969303608,0,0,0,0,0.02539999969303608,0,117.20705757043288,17.34067985574444,-48.43474170648642,1],"name":"HouseLG06_Stone_Stacked","extras":{"name":"HouseLG06_Stone_Stacked"},"mesh":0}],"bufferViews":[{"buffer":0,"byteOffset":0,"byteLength":107064,"target":34962,"byteStride":12},{"buffer":0,"byteOffset":107064,"byteLength":107064,"target":34962,"byteStride":12},{"buffer":0,"byteOffset":214128,"byteLength":71376,"target":34962,"byteStride":8},{"buffer":0,"byteOffset":285504,"byteLength":29028,"target":34963}],"buffers":[{"byteLength":314532,"uri":"data:application/octet-stream;base64,"}],"accessors":[{"bufferView":0,"componentType":5126,"count":8922,"max":[320.218994140625,104.45782470703125,226.76870727539062],"min":[-320.218994140625,-104.45783996582031,-226.76870727539062],"type":"VEC3"},{"bufferView":1,"componentType":5126,"count":8922,"max":[1.0000001192092896,1,1.0000001192092896],"min":[-1.0000001192092896,-1,-1.0000001192092896],"type":"VEC3"},{"bufferView":2,"componentType":5126,"count":8922,"max":[12.452058792114258,8.097244262695312],"min":[-9.952058792114258,3.250669240951538],"type":"VEC2"},{"bufferView":3,"componentType":5123,"count":14514,"max":[8921],"min":[0],"type":"SCALAR"}],"materials":[{"pbrMetallicRoughness":{"baseColorFactor":[0.40000003576278687,0.41960787773132324,0.7921569347381592,1],"metallicFactor":1,"roughnessFactor":0.858578622341156},"doubleSided":true,"name":"Stone_Stacked"}],"meshes":[{"primitives":[{"mode":4,"attributes":{"POSITION":0,"NORMAL":1,"TEXCOORD_0":2},"indices":3,"material":0}]}]}