{"asset":{"version":"2.0","generator":"THREE.GLTFExporter"},"scenes":[{"nodes":[0]}],"scene":0,"nodes":[{"matrix":[0.02539999969303608,0,0,0,0,0.02539999969303608,0,0,0,0,0.02539999969303608,0,-65.9656764551346,1.8381727437661368,25.573865098609076,1],"name":"网格.268_1","mesh":0}],"bufferViews":[{"buffer":0,"byteOffset":0,"byteLength":2256,"target":34962,"byteStride":12},{"buffer":0,"byteOffset":2256,"byteLength":2256,"target":34962,"byteStride":12},{"buffer":0,"byteOffset":4512,"byteLength":1504,"target":34962,"byteStride":8},{"buffer":0,"byteOffset":6016,"byteLength":480,"target":34963}],"buffers":[{"byteLength":6496,"uri":"data:application/octet-stream;base64,"}],"accessors":[{"bufferView":0,"componentType":5126,"count":188,"max":[3.423304796218872,2.691157817840576,4.4839372634887695],"min":[-3.423304796218872,-7.400538921356201,-2.3627216815948486],"type":"VEC3"},{"bufferView":1,"componentType":5126,"count":188,"max":[1.0000001192092896,1,1],"min":[-1.0000001192092896,-1,-1],"type":"VEC3"},{"bufferView":2,"componentType":5126,"count":188,"max":[0.6843891143798828,0.9980742335319519],"min":[0.1587757021188736,0.21759921312332153],"type":"VEC2"},{"bufferView":3,"componentType":5123,"count":240,"max":[187],"min":[0],"type":"SCALAR"}],"materials":[{"pbrMetallicRoughness":{"baseColorFactor":[0.41960787773132324,0.6274510025978088,0.7568628191947937,1],"metallicFactor":1,"roughnessFactor":0.858578622341156},"doubleSided":true,"name":"Glass"}],"meshes":[{"primitives":[{"mode":4,"attributes":{"POSITION":0,"NORMAL":1,"TEXCOORD_0":2},"indices":3,"material":0}]}]}