{"asset":{"version":"2.0","generator":"THREE.GLTFExporter"},"scenes":[{"nodes":[0]}],"scene":0,"nodes":[{"matrix":[0.02539999969303608,0,0,0,0,0.02539999969303608,0,0,0,0,0.02539999969303608,0,149.25108731540513,13.15180931143746,-5.603267097555545,1],"name":"TowerBridge_Glass","extras":{"name":"TowerBridge_Glass"},"mesh":0}],"bufferViews":[{"buffer":0,"byteOffset":0,"byteLength":6144,"target":34962,"byteStride":12},{"buffer":0,"byteOffset":6144,"byteLength":6144,"target":34962,"byteStride":12},{"buffer":0,"byteOffset":12288,"byteLength":4096,"target":34962,"byteStride":8},{"buffer":0,"byteOffset":16384,"byteLength":4096,"target":34962,"byteStride":8},{"buffer":0,"byteOffset":20480,"byteLength":1836,"target":34963}],"buffers":[{"byteLength":22316,"uri":"data:application/octet-stream;base64,"}],"accessors":[{"bufferView":0,"componentType":5126,"count":512,"max":[640.6199951171875,177.2740478515625,90.36075592041016],"min":[-318.57989501953125,-16.474170684814453,-208.80450439453125],"type":"VEC3"},{"bufferView":1,"componentType":5126,"count":512,"max":[0.9999538660049438,0.007202780339866877,1],"min":[-0.986393392086029,-0.00013236480299383402,-1],"type":"VEC3"},{"bufferView":2,"componentType":5126,"count":512,"max":[1,1],"min":[0,0],"type":"VEC2"},{"bufferView":3,"componentType":5126,"count":512,"max":[640.6199951171875,91.36075592041016],"min":[-318.57989501953125,-207.80450439453125],"type":"VEC2"},{"bufferView":4,"componentType":5123,"count":918,"max":[511],"min":[0],"type":"SCALAR"}],"materials":[{"pbrMetallicRoughness":{"baseColorFactor":[0.41960787773132324,0.6274510025978088,0.7568628191947937,1],"metallicFactor":1,"roughnessFactor":0.858578622341156},"doubleSided":true,"name":"Glass"}],"meshes":[{"primitives":[{"mode":4,"attributes":{"POSITION":0,"NORMAL":1,"TEXCOORD_0":2,"TEXCOORD_1":3},"indices":4,"material":0}]}]}