{"asset":{"version":"2.0","generator":"THREE.GLTFExporter"},"scenes":[{"nodes":[0]}],"scene":0,"nodes":[{"matrix":[0.02539999969303608,0,0,0,0,0.02539999969303608,0,0,0,0,0.02539999969303608,0,144.9560193009056,7.353824136756259,-3.3223179796134445,1],"name":"TowerBridge_Stone_Stacked","extras":{"name":"TowerBridge_Stone_Stacked"},"mesh":0}],"bufferViews":[{"buffer":0,"byteOffset":0,"byteLength":18228,"target":34962,"byteStride":12},{"buffer":0,"byteOffset":18228,"byteLength":18228,"target":34962,"byteStride":12},{"buffer":0,"byteOffset":36456,"byteLength":12152,"target":34962,"byteStride":8},{"buffer":0,"byteOffset":48608,"byteLength":10320,"target":34963}],"buffers":[{"byteLength":58928,"uri":"data:application/octet-stream;base64,"}],"accessors":[{"bufferView":0,"componentType":5126,"count":1519,"max":[807.689208984375,336.2626953125,3.1929779052734375],"min":[-151.230224609375,-3.655031204223633,-299.2674560546875],"type":"VEC3"},{"bufferView":1,"componentType":5126,"count":1519,"max":[1,1,1],"min":[-1,-1,-1],"type":"VEC3"},{"bufferView":2,"componentType":5126,"count":1519,"max":[3.125,0.9995005130767822],"min":[-0.1250002384185791,0.0004994869232177734],"type":"VEC2"},{"bufferView":3,"componentType":5123,"count":5160,"max":[1518],"min":[0],"type":"SCALAR"}],"materials":[{"pbrMetallicRoughness":{"baseColorFactor":[0.40000003576278687,0.41960787773132324,0.7921569347381592,1],"metallicFactor":1,"roughnessFactor":0.858578622341156},"doubleSided":true,"name":"Stone_Stacked"}],"meshes":[{"primitives":[{"mode":4,"attributes":{"POSITION":0,"NORMAL":1,"TEXCOORD_0":2},"indices":3,"material":0}]}]}