{"asset":{"version":"2.0","generator":"THREE.GLTFExporter"},"scenes":[{"nodes":[0]}],"scene":0,"nodes":[{"matrix":[0.02539999969303608,0,0,0,0,0.02539999969303608,0,0,0,0,0.02539999969303608,0,145.59248823391317,12.620555007777568,-41.80862448851235,1],"name":"HouseLG07_Wood_Beams","extras":{"name":"HouseLG07_Wood_Beams"},"mesh":0}],"bufferViews":[{"buffer":0,"byteOffset":0,"byteLength":48,"target":34962,"byteStride":12},{"buffer":0,"byteOffset":48,"byteLength":48,"target":34962,"byteStride":12},{"buffer":0,"byteOffset":96,"byteLength":32,"target":34962,"byteStride":8},{"buffer":0,"byteOffset":128,"byteLength":12,"target":34963}],"buffers":[{"byteLength":140,"uri":"data:application/octet-stream;base64,"}],"accessors":[{"bufferView":0,"componentType":5126,"count":4,"max":[0.2821044921875,23.954605102539062,0.12223052978515625],"min":[-0.2818603515625,-23.954574584960938,-0.12226104736328125],"type":"VEC3"},{"bufferView":1,"componentType":5126,"count":4,"max":[0.9977647066116333,0.0000292360782623291,0.1443183869123459],"min":[0.9895313382148743,-0.00005154744940227829,0.06682637333869934],"type":"VEC3"},{"bufferView":2,"componentType":5126,"count":4,"max":[5.609320163726807,6.762077331542969],"min":[5.599920749664307,5.9635910987854],"type":"VEC2"},{"bufferView":3,"componentType":5123,"count":6,"max":[3],"min":[0],"type":"SCALAR"}],"materials":[{"pbrMetallicRoughness":{"baseColorFactor":[0.12941177189350128,0.03921568766236305,0.007843137718737125,1],"metallicFactor":1,"roughnessFactor":0.858578622341156},"doubleSided":true,"name":"Wood_Beams"}],"meshes":[{"primitives":[{"mode":4,"attributes":{"POSITION":0,"NORMAL":1,"TEXCOORD_0":2},"indices":3,"material":0}]}]}