{"asset":{"version":"2.0","generator":"THREE.GLTFExporter"},"scenes":[{"nodes":[0]}],"scene":0,"nodes":[{"matrix":[0.02539999969303608,0,0,0,0,0.02539999969303608,0,0,0,0,0.02539999969303608,0,-49.68434486478827,1.2756264676056333,25.37069261876465,1],"name":"网格256","mesh":0}],"bufferViews":[{"buffer":0,"byteOffset":0,"byteLength":156,"target":34962,"byteStride":12},{"buffer":0,"byteOffset":156,"byteLength":156,"target":34962,"byteStride":12},{"buffer":0,"byteOffset":312,"byteLength":104,"target":34962,"byteStride":8},{"buffer":0,"byteOffset":416,"byteLength":68,"target":34963}],"buffers":[{"byteLength":484,"uri":"data:application/octet-stream;base64,"}],"accessors":[{"bufferView":0,"componentType":5126,"count":13,"max":[13.976807594299316,21.491024017333984,-13.11829662322998],"min":[-13.976807594299316,-29.713783264160156,-13.118305206298828],"type":"VEC3"},{"bufferView":1,"componentType":5126,"count":13,"max":[-1.3588133244797824e-15,-1.496059951477946e-7,1],"min":[-1.3588133244797824e-15,-1.496059951477946e-7,1],"type":"VEC3"},{"bufferView":2,"componentType":5126,"count":13,"max":[0.9857252836227417,0.49609440565109253],"min":[0.8571977019309998,0.268771231174469],"type":"VEC2"},{"bufferView":3,"componentType":5123,"count":33,"max":[12],"min":[0],"type":"SCALAR"}],"materials":[{"pbrMetallicRoughness":{"baseColorFactor":[0.41960787773132324,0.6274510025978088,0.7568628191947937,1],"metallicFactor":1,"roughnessFactor":0.858578622341156},"doubleSided":true,"name":"Glass"}],"meshes":[{"primitives":[{"mode":4,"attributes":{"POSITION":0,"NORMAL":1,"TEXCOORD_0":2},"indices":3,"material":0}]}]}