{"asset":{"version":"2.0","generator":"THREE.GLTFExporter"},"scenes":[{"nodes":[0]}],"scene":0,"nodes":[{"matrix":[0.02539999969303608,0,0,0,0,0.02539999969303608,0,0,0,0,0.02539999969303608,0,153.0896498666716,7.293485184848748,-7.283040514755157,1],"name":"TowerBridge_PlasterBrown","extras":{"name":"TowerBridge_PlasterBrown"},"mesh":0}],"bufferViews":[{"buffer":0,"byteOffset":0,"byteLength":27156,"target":34962,"byteStride":12},{"buffer":0,"byteOffset":27156,"byteLength":27156,"target":34962,"byteStride":12},{"buffer":0,"byteOffset":54312,"byteLength":18104,"target":34962,"byteStride":8},{"buffer":0,"byteOffset":72416,"byteLength":6984,"target":34963}],"buffers":[{"byteLength":79400,"uri":"data:application/octet-stream;base64,"}],"accessors":[{"bufferView":0,"componentType":5126,"count":2263,"max":[234.95262145996094,336.8486022949219,46.93418502807617],"min":[-234.95262145996094,-0.000007646545782336034,-46.934165954589844],"type":"VEC3"},{"bufferView":1,"componentType":5126,"count":2263,"max":[1,1,1],"min":[-1,-1,-1.0000001192092896],"type":"VEC3"},{"bufferView":2,"componentType":5126,"count":2263,"max":[2.4579386711120605,1.9035358428955078],"min":[-1.4579386711120605,-0.9035357236862183],"type":"VEC2"},{"bufferView":3,"componentType":5123,"count":3492,"max":[2262],"min":[0],"type":"SCALAR"}],"materials":[{"pbrMetallicRoughness":{"baseColorFactor":[0.5803921818733215,0.13725490868091583,0.13725490868091583,1],"metallicFactor":1,"roughnessFactor":0.858578622341156},"doubleSided":true,"name":"PlasterBrown"}],"meshes":[{"primitives":[{"mode":4,"attributes":{"POSITION":0,"NORMAL":1,"TEXCOORD_0":2},"indices":3,"material":0}]}]}