{"asset":{"version":"2.0","generator":"THREE.GLTFExporter"},"scenes":[{"nodes":[0]}],"scene":0,"nodes":[{"matrix":[0.02539999969303608,0,0,0,0,0.02539999969303608,0,0,0,0,0.02539999969303608,0,117.12649274848445,11.971836023820543,24.24055087883491,1],"name":"HouseSM02_Glass","extras":{"name":"HouseSM02_Glass"},"mesh":0}],"bufferViews":[{"buffer":0,"byteOffset":0,"byteLength":33120,"target":34962,"byteStride":12},{"buffer":0,"byteOffset":33120,"byteLength":33120,"target":34962,"byteStride":12},{"buffer":0,"byteOffset":66240,"byteLength":22080,"target":34962,"byteStride":8},{"buffer":0,"byteOffset":88320,"byteLength":12552,"target":34963}],"buffers":[{"byteLength":100872,"uri":"data:application/octet-stream;base64,"}],"accessors":[{"bufferView":0,"componentType":5126,"count":2760,"max":[179.088134765625,179.0534210205078,119.99807739257812],"min":[-179.08819580078125,-179.0534210205078,-119.998046875],"type":"VEC3"},{"bufferView":1,"componentType":5126,"count":2760,"max":[1,1,1],"min":[-1,-0.0000020773652522620978,-1],"type":"VEC3"},{"bufferView":2,"componentType":5126,"count":2760,"max":[1,1],"min":[0,0],"type":"VEC2"},{"bufferView":3,"componentType":5123,"count":6276,"max":[2759],"min":[0],"type":"SCALAR"}],"materials":[{"pbrMetallicRoughness":{"baseColorFactor":[0.41960787773132324,0.6274510025978088,0.7568628191947937,1],"metallicFactor":1,"roughnessFactor":0.858578622341156},"doubleSided":true,"name":"Glass"}],"meshes":[{"primitives":[{"mode":4,"attributes":{"POSITION":0,"NORMAL":1,"TEXCOORD_0":2},"indices":3,"material":0}]}]}