{"asset":{"version":"2.0","generator":"THREE.GLTFExporter"},"scenes":[{"nodes":[0]}],"scene":0,"nodes":[{"matrix":[0.02539999969303608,0,0,0,0,0.02539999969303608,0,0,0,0,0.02539999969303608,0,116.93467810236507,7.7889664889526316,24.209281857606356,1],"name":"HouseSM02_Stone_Stacked","extras":{"name":"HouseSM02_Stone_Stacked"},"mesh":0}],"bufferViews":[{"buffer":0,"byteOffset":0,"byteLength":81660,"target":34962,"byteStride":12},{"buffer":0,"byteOffset":81660,"byteLength":81660,"target":34962,"byteStride":12},{"buffer":0,"byteOffset":163320,"byteLength":54440,"target":34962,"byteStride":8},{"buffer":0,"byteOffset":217760,"byteLength":29208,"target":34963}],"buffers":[{"byteLength":246968,"uri":"data:application/octet-stream;base64,"}],"accessors":[{"bufferView":0,"componentType":5126,"count":6805,"max":[163.23399353027344,36.287410736083984,97.29413604736328],"min":[-163.2335662841797,-36.28741455078125,-97.29413604736328],"type":"VEC3"},{"bufferView":1,"componentType":5126,"count":6805,"max":[1,1,1],"min":[-1,-1,-1],"type":"VEC3"},{"bufferView":2,"componentType":5126,"count":6805,"max":[14.2842378616333,12.784238815307617],"min":[-11.784238815307617,3.8115246295928955],"type":"VEC2"},{"bufferView":3,"componentType":5123,"count":14604,"max":[6804],"min":[0],"type":"SCALAR"}],"materials":[{"pbrMetallicRoughness":{"baseColorFactor":[0.40000003576278687,0.41960787773132324,0.7921569347381592,1],"metallicFactor":1,"roughnessFactor":0.858578622341156},"doubleSided":true,"name":"Stone_Stacked"}],"meshes":[{"primitives":[{"mode":4,"attributes":{"POSITION":0,"NORMAL":1,"TEXCOORD_0":2},"indices":3,"material":0}]}]}