{"asset":{"version":"2.0","generator":"THREE.GLTFExporter"},"scenes":[{"nodes":[0]}],"scene":0,"nodes":[{"matrix":[0.02539999969303608,0,0,0,0,0.02539999969303608,0,0,0,0,0.02539999969303608,0,71.49090576171875,9.498322828400433,24.938396472996317,1],"name":"HouseSM_RoofTiles","extras":{"name":"HouseSM_RoofTiles"},"mesh":0}],"bufferViews":[{"buffer":0,"byteOffset":0,"byteLength":7296,"target":34962,"byteStride":12},{"buffer":0,"byteOffset":7296,"byteLength":7296,"target":34962,"byteStride":12},{"buffer":0,"byteOffset":14592,"byteLength":4864,"target":34962,"byteStride":8},{"buffer":0,"byteOffset":19456,"byteLength":1824,"target":34963}],"buffers":[{"byteLength":21280,"uri":"data:application/octet-stream;base64,"}],"accessors":[{"bufferView":0,"componentType":5126,"count":608,"max":[139,54.24552917480469,138.964111328125],"min":[-139,-54.245574951171875,-138.9640655517578],"type":"VEC3"},{"bufferView":1,"componentType":5126,"count":608,"max":[0.9999532699584961,0.8040812611579895,0.9997280836105347],"min":[-0.9999532699584961,-0.8252875208854675,-0.9995434284210205],"type":"VEC3"},{"bufferView":2,"componentType":5126,"count":608,"max":[19.389677047729492,19.492273330688477],"min":[-18.389677047729492,4.659155368804932],"type":"VEC2"},{"bufferView":3,"componentType":5123,"count":912,"max":[607],"min":[0],"type":"SCALAR"}],"materials":[{"pbrMetallicRoughness":{"baseColorFactor":[0.4666666666666667,0.4745098039215686,0.4666666666666667,1],"metallicFactor":0,"roughnessFactor":1}}],"meshes":[{"primitives":[{"mode":4,"attributes":{"POSITION":0,"NORMAL":1,"TEXCOORD_0":2},"indices":3,"material":0}]}]}