{"asset":{"version":"2.0","generator":"THREE.GLTFExporter"},"scenes":[{"nodes":[0]}],"scene":0,"nodes":[{"matrix":[0.02539999969303608,0,0,0,0,0.02539999969303608,0,0,0,0,0.02539999969303608,0,-28.997556539303332,125.76375894868579,-121.92892644519452,1],"name":"CastleLG_RoofTiles001","extras":{"name":"CastleLG_RoofTiles.001"},"mesh":0}],"bufferViews":[{"buffer":0,"byteOffset":0,"byteLength":11592,"target":34962,"byteStride":12},{"buffer":0,"byteOffset":11592,"byteLength":11592,"target":34962,"byteStride":12},{"buffer":0,"byteOffset":23184,"byteLength":7728,"target":34962,"byteStride":8},{"buffer":0,"byteOffset":30912,"byteLength":5112,"target":34963}],"buffers":[{"byteLength":36024,"uri":"data:application/octet-stream;base64,"}],"accessors":[{"bufferView":0,"componentType":5126,"count":966,"max":[776.402587890625,1918.6009521484375,736.9830932617188],"min":[-672.8480224609375,-1918.601318359375,-734.2945556640625],"type":"VEC3"},{"bufferView":1,"componentType":5126,"count":966,"max":[0.9954105615615845,1,0.9971798658370972],"min":[-0.9954105615615845,0,-0.9971798062324524],"type":"VEC3"},{"bufferView":2,"componentType":5126,"count":966,"max":[14.910326957702637,7.041445732116699],"min":[-5.774173736572266,-5.834841728210449],"type":"VEC2"},{"bufferView":3,"componentType":5123,"count":2556,"max":[965],"min":[0],"type":"SCALAR"}],"materials":[{"pbrMetallicRoughness":{"baseColorFactor":[0.4666666666666667,0.4745098039215686,0.4666666666666667,1],"metallicFactor":0,"roughnessFactor":1}}],"meshes":[{"primitives":[{"mode":4,"attributes":{"POSITION":0,"NORMAL":1,"TEXCOORD_0":2},"indices":3,"material":0}]}]}