{"asset":{"version":"2.0","generator":"THREE.GLTFExporter"},"scenes":[{"nodes":[0]}],"scene":0,"nodes":[{"matrix":[0.02539999969303608,0,0,0,0,0.02539999969303608,0,0,0,0,0.02539999969303608,0,117.06807070687819,28.560051491396393,-48.53817725211138,1],"name":"HouseLG06_Mullions_Wood001","extras":{"name":"HouseLG06_Mullions_Wood.001"},"mesh":0}],"bufferViews":[{"buffer":0,"byteOffset":0,"byteLength":218436,"target":34962,"byteStride":12},{"buffer":0,"byteOffset":218436,"byteLength":218436,"target":34962,"byteStride":12},{"buffer":0,"byteOffset":436872,"byteLength":145624,"target":34962,"byteStride":8},{"buffer":0,"byteOffset":582496,"byteLength":55548,"target":34963}],"buffers":[{"byteLength":638044,"uri":"data:application/octet-stream;base64,"}],"accessors":[{"bufferView":0,"componentType":5126,"count":18203,"max":[376.82763671875,264.49554443359375,299.030517578125],"min":[-376.8280029296875,-264.4955139160156,-299.0306396484375],"type":"VEC3"},{"bufferView":1,"componentType":5126,"count":18203,"max":[1,1,1],"min":[-1,-1,-1],"type":"VEC3"},{"bufferView":2,"componentType":5126,"count":18203,"max":[71.9267578125,9.4884033203125],"min":[-70.9267578125,-12.840505599975586],"type":"VEC2"},{"bufferView":3,"componentType":5123,"count":27774,"max":[18202],"min":[0],"type":"SCALAR"}],"materials":[{"pbrMetallicRoughness":{"baseColorFactor":[0.7058823704719543,0.8588235974311829,0.6549019813537598,1],"metallicFactor":1,"roughnessFactor":0.858578622341156},"doubleSided":true,"name":"Mullions_Wood"}],"meshes":[{"primitives":[{"mode":4,"attributes":{"POSITION":0,"NORMAL":1,"TEXCOORD_0":2},"indices":3,"material":0}]}]}