{"asset":{"version":"2.0","generator":"THREE.GLTFExporter"},"scenes":[{"nodes":[0]}],"scene":0,"nodes":[{"matrix":[0.02539999969303608,0,0,0,0,0.02539999969303608,0,0,0,0,0.02539999969303608,0,-7.649086335033132,19.13917726025096,-5.494021415710449,1],"name":"HouseMD03_Wood_Beams","extras":{"name":"HouseMD03_Wood_Beams"},"mesh":0}],"bufferViews":[{"buffer":0,"byteOffset":0,"byteLength":65232,"target":34962,"byteStride":12},{"buffer":0,"byteOffset":65232,"byteLength":65232,"target":34962,"byteStride":12},{"buffer":0,"byteOffset":130464,"byteLength":43488,"target":34962,"byteStride":8},{"buffer":0,"byteOffset":173952,"byteLength":16920,"target":34963}],"buffers":[{"byteLength":190872,"uri":"data:application/octet-stream;base64,"}],"accessors":[{"bufferView":0,"componentType":5126,"count":5436,"max":[216.7270050048828,176.48907470703125,212.48301696777344],"min":[-216.72702026367188,-176.4891357421875,-212.48306274414062],"type":"VEC3"},{"bufferView":1,"componentType":5126,"count":5436,"max":[1,1,1],"min":[-1,-1,-1],"type":"VEC3"},{"bufferView":2,"componentType":5126,"count":5436,"max":[57.65951156616211,32.628047943115234],"min":[-56.65951156616211,-2.3948371410369873],"type":"VEC2"},{"bufferView":3,"componentType":5123,"count":8460,"max":[5435],"min":[0],"type":"SCALAR"}],"materials":[{"pbrMetallicRoughness":{"baseColorFactor":[0.12941177189350128,0.03921568766236305,0.007843137718737125,1],"metallicFactor":1,"roughnessFactor":0.858578622341156},"doubleSided":true,"name":"Wood_Beams"}],"meshes":[{"primitives":[{"mode":4,"attributes":{"POSITION":0,"NORMAL":1,"TEXCOORD_0":2},"indices":3,"material":0}]}]}