{"asset":{"version":"2.0","generator":"THREE.GLTFExporter"},"scenes":[{"nodes":[0]}],"scene":0,"nodes":[{"matrix":[0.02539999969303608,0,0,0,0,0.02539999969303608,0,0,0,0,0.02539999969303608,0,122.90873564410504,10.319080973124358,-10.545731714647218,1],"name":"HouseLG02_WoodDark","extras":{"name":"HouseLG02_WoodDark"},"mesh":0}],"bufferViews":[{"buffer":0,"byteOffset":0,"byteLength":17424,"target":34962,"byteStride":12},{"buffer":0,"byteOffset":17424,"byteLength":17424,"target":34962,"byteStride":12},{"buffer":0,"byteOffset":34848,"byteLength":11616,"target":34962,"byteStride":8},{"buffer":0,"byteOffset":46464,"byteLength":11616,"target":34962,"byteStride":8},{"buffer":0,"byteOffset":58080,"byteLength":4140,"target":34963}],"buffers":[{"byteLength":62220,"uri":"data:application/octet-stream;base64,"}],"accessors":[{"bufferView":0,"componentType":5126,"count":1452,"max":[53.46337890625,116.43038177490234,144.4462890625],"min":[-53.4638671875,-116.43038177490234,-144.446533203125],"type":"VEC3"},{"bufferView":1,"componentType":5126,"count":1452,"max":[1,1,1],"min":[-1,-1,-1],"type":"VEC3"},{"bufferView":2,"componentType":5126,"count":1452,"max":[22.789199829101562,29.73558807373047],"min":[-21.789199829101562,20.381759643554688],"type":"VEC2"},{"bufferView":3,"componentType":5126,"count":1452,"max":[1.0205678939819336,1.0042332410812378],"min":[0,0],"type":"VEC2"},{"bufferView":4,"componentType":5123,"count":2070,"max":[1451],"min":[0],"type":"SCALAR"}],"materials":[{"pbrMetallicRoughness":{"baseColorFactor":[0.07058823853731155,0.003921568859368563,0.003921568859368563,1],"metallicFactor":1,"roughnessFactor":0.858578622341156},"doubleSided":true,"name":"WoodDark"}],"meshes":[{"primitives":[{"mode":4,"attributes":{"POSITION":0,"NORMAL":1,"TEXCOORD_0":2,"TEXCOORD_1":3},"indices":4,"material":0}]}]}