{"asset":{"version":"2.0","generator":"THREE.GLTFExporter"},"scenes":[{"nodes":[0]}],"scene":0,"nodes":[{"matrix":[0.02539999969303608,0,0,0,0,0.02539999969303608,0,0,0,0,0.02539999969303608,0,119.93354984021698,13.54442592315911,-4.486656665802002,1],"name":"HouseLG02_WoodDark001","extras":{"name":"HouseLG02_WoodDark.001"},"mesh":0}],"bufferViews":[{"buffer":0,"byteOffset":0,"byteLength":26880,"target":34962,"byteStride":12},{"buffer":0,"byteOffset":26880,"byteLength":26880,"target":34962,"byteStride":12},{"buffer":0,"byteOffset":53760,"byteLength":17920,"target":34962,"byteStride":8},{"buffer":0,"byteOffset":71680,"byteLength":6720,"target":34963}],"buffers":[{"byteLength":78400,"uri":"data:application/octet-stream;base64,"}],"accessors":[{"bufferView":0,"componentType":5126,"count":2240,"max":[504.015625,241.0790252685547,470.8544921875],"min":[-504.0166015625,-241.07901000976562,-470.8544921875],"type":"VEC3"},{"bufferView":1,"componentType":5126,"count":2240,"max":[0.9999998807907104,1,0.9995837211608887],"min":[-1,-1,-1],"type":"VEC3"},{"bufferView":2,"componentType":5126,"count":2240,"max":[94.72491455078125,79.46574401855469],"min":[-93.72491455078125,3.778903007507324],"type":"VEC2"},{"bufferView":3,"componentType":5123,"count":3360,"max":[2239],"min":[0],"type":"SCALAR"}],"materials":[{"pbrMetallicRoughness":{"baseColorFactor":[0.07058823853731155,0.003921568859368563,0.003921568859368563,1],"metallicFactor":1,"roughnessFactor":0.858578622341156},"doubleSided":true,"name":"WoodDark"}],"meshes":[{"primitives":[{"mode":4,"attributes":{"POSITION":0,"NORMAL":1,"TEXCOORD_0":2},"indices":3,"material":0}]}]}