{"asset":{"version":"2.0","generator":"THREE.GLTFExporter"},"scenes":[{"nodes":[0]}],"scene":0,"nodes":[{"matrix":[0.02539999969303608,0,0,0,0,0.02539999969303608,0,0,0,0,0.02539999969303608,0,-41.129888513402875,17.92832329784318,-45.499542236328125,1],"name":"ManorMD_RoofTiles","extras":{"name":"ManorMD_RoofTiles"},"mesh":0}],"bufferViews":[{"buffer":0,"byteOffset":0,"byteLength":31884,"target":34962,"byteStride":12},{"buffer":0,"byteOffset":31884,"byteLength":31884,"target":34962,"byteStride":12},{"buffer":0,"byteOffset":63768,"byteLength":21256,"target":34962,"byteStride":8},{"buffer":0,"byteOffset":85024,"byteLength":8036,"target":34963}],"buffers":[{"byteLength":93060,"uri":"data:application/octet-stream;base64,"}],"accessors":[{"bufferView":0,"componentType":5126,"count":2657,"max":[1001.3900756835938,243.86477661132812,446.3585205078125],"min":[-1001.3900756835938,-243.864990234375,-446.3585205078125],"type":"VEC3"},{"bufferView":1,"componentType":5126,"count":2657,"max":[1.0000001192092896,1,1],"min":[-1,-1,-1],"type":"VEC3"},{"bufferView":2,"componentType":5126,"count":2657,"max":[23.59716033935547,6.005058765411377],"min":[-22.60747528076172,0.4255795478820801],"type":"VEC2"},{"bufferView":3,"componentType":5123,"count":4017,"max":[2656],"min":[0],"type":"SCALAR"}],"materials":[{"pbrMetallicRoughness":{"baseColorFactor":[0.4666666666666667,0.4745098039215686,0.4666666666666667,1],"metallicFactor":0,"roughnessFactor":1}}],"meshes":[{"primitives":[{"mode":4,"attributes":{"POSITION":0,"NORMAL":1,"TEXCOORD_0":2},"indices":3,"material":0}]}]}