{"asset":{"version":"2.0","generator":"THREE.GLTFExporter"},"scenes":[{"nodes":[0]}],"scene":0,"nodes":[{"matrix":[0.02539999969303608,0,0,0,0,0.02539999969303608,0,0,0,0,0.02539999969303608,0,60.323292066466365,24.73018588886606,-48.18819046020508,1],"name":"HouseLG04_PlasterYellow","extras":{"name":"HouseLG04_PlasterYellow"},"mesh":0}],"bufferViews":[{"buffer":0,"byteOffset":0,"byteLength":19536,"target":34962,"byteStride":12},{"buffer":0,"byteOffset":19536,"byteLength":19536,"target":34962,"byteStride":12},{"buffer":0,"byteOffset":39072,"byteLength":13024,"target":34962,"byteStride":8},{"buffer":0,"byteOffset":52096,"byteLength":5540,"target":34963}],"buffers":[{"byteLength":57636,"uri":"data:application/octet-stream;base64,"}],"accessors":[{"bufferView":0,"componentType":5126,"count":1628,"max":[214.57667541503906,487.209228515625,187.9770965576172],"min":[-214.57667541503906,-487.2092590332031,-187.9770050048828],"type":"VEC3"},{"bufferView":1,"componentType":5126,"count":1628,"max":[1,1,1],"min":[-1,-1,-1],"type":"VEC3"},{"bufferView":2,"componentType":5126,"count":1628,"max":[2.8174195289611816,5.448831558227539],"min":[-1.8174200057983398,-1.0472922325134277],"type":"VEC2"},{"bufferView":3,"componentType":5123,"count":2769,"max":[1627],"min":[0],"type":"SCALAR"}],"materials":[{"pbrMetallicRoughness":{"baseColorFactor":[0.7372549176216125,0.6000000238418579,0.3803921937942505,1],"metallicFactor":1,"roughnessFactor":0.858578622341156},"doubleSided":true,"name":"PlasterYellow"}],"meshes":[{"primitives":[{"mode":4,"attributes":{"POSITION":0,"NORMAL":1,"TEXCOORD_0":2},"indices":3,"material":0}]}]}