{"asset":{"version":"2.0","generator":"THREE.GLTFExporter"},"scenes":[{"nodes":[0]}],"scene":0,"nodes":[{"matrix":[-3.4127149151033032e-9,0,0.02539999882363095,0,0,0.02539999969303608,0,0,-0.02539999882363095,0,-3.4127149151033032e-9,0,3.2655494267019094,22.87193729990338,-48.43816698020282,1],"name":"HouseCastle_PlasterBrown","extras":{"name":"HouseCastle_PlasterBrown"},"mesh":0}],"bufferViews":[{"buffer":0,"byteOffset":0,"byteLength":522696,"target":34962,"byteStride":12},{"buffer":0,"byteOffset":522696,"byteLength":522696,"target":34962,"byteStride":12},{"buffer":0,"byteOffset":1045392,"byteLength":348464,"target":34962,"byteStride":8},{"buffer":0,"byteOffset":1393856,"byteLength":177312,"target":34963}],"buffers":[{"byteLength":1571168,"uri":"data:application/octet-stream;base64,"}],"accessors":[{"bufferView":0,"componentType":5126,"count":43558,"max":[280.36639404296875,486.66455078125,273.472412109375],"min":[-280.3658447265625,-438.1628112792969,-273.4723815917969],"type":"VEC3"},{"bufferView":1,"componentType":5126,"count":43558,"max":[1.0000001192092896,1,1],"min":[-1,-1.0000001192092896,-1],"type":"VEC3"},{"bufferView":2,"componentType":5126,"count":43558,"max":[9.977072715759277,0.9987000226974487],"min":[-0.4041217565536499,-8.979999542236328],"type":"VEC2"},{"bufferView":3,"componentType":5123,"count":88656,"max":[43557],"min":[0],"type":"SCALAR"}],"materials":[{"pbrMetallicRoughness":{"baseColorFactor":[0.5803921818733215,0.13725490868091583,0.13725490868091583,1],"metallicFactor":1,"roughnessFactor":0.858578622341156},"doubleSided":true,"name":"PlasterBrown"}],"meshes":[{"primitives":[{"mode":4,"attributes":{"POSITION":0,"NORMAL":1,"TEXCOORD_0":2},"indices":3,"material":0}]}]}