{"asset":{"version":"2.0","generator":"THREE.GLTFExporter"},"scenes":[{"nodes":[0]}],"scene":0,"nodes":[{"matrix":[0.02539999969303608,0,0,0,0,0.02539999969303608,0,0,0,0,0.02539999969303608,0,-63.44068332158713,5.706864075796432,25.165842915734927,1],"name":"网格.273_2","mesh":0}],"bufferViews":[{"buffer":0,"byteOffset":0,"byteLength":19776,"target":34962,"byteStride":12},{"buffer":0,"byteOffset":19776,"byteLength":19776,"target":34962,"byteStride":12},{"buffer":0,"byteOffset":39552,"byteLength":13184,"target":34962,"byteStride":8},{"buffer":0,"byteOffset":52736,"byteLength":6480,"target":34963}],"buffers":[{"byteLength":59216,"uri":"data:application/octet-stream;base64,"}],"accessors":[{"bufferView":0,"componentType":5126,"count":1648,"max":[19.2779598236084,26.77127456665039,2.536925792694092],"min":[-19.2740535736084,-26.17691421508789,-0.20700740814208984],"type":"VEC3"},{"bufferView":1,"componentType":5126,"count":1648,"max":[1,1,1],"min":[-1,-1,-1],"type":"VEC3"},{"bufferView":2,"componentType":5126,"count":1648,"max":[2.090275287628174,1.4798592329025269],"min":[-3.1537070274353027,-2.1499080657958984],"type":"VEC2"},{"bufferView":3,"componentType":5123,"count":3240,"max":[1647],"min":[0],"type":"SCALAR"}],"materials":[{"pbrMetallicRoughness":{"baseColorFactor":[0.12941177189350128,0.03921568766236305,0.007843137718737125,1],"metallicFactor":1,"roughnessFactor":0.858578622341156},"doubleSided":true,"name":"Wood_Beams"}],"meshes":[{"primitives":[{"mode":4,"attributes":{"POSITION":0,"NORMAL":1,"TEXCOORD_0":2},"indices":3,"material":0}]}]}