{"asset":{"version":"2.0","generator":"THREE.GLTFExporter"},"scenes":[{"nodes":[0]}],"scene":0,"nodes":[{"matrix":[0.02539999969303608,0,0,0,0,0.02539999969303608,0,0,0,0,0.02539999969303608,0,85.79952015620847,17.38952011144289,-5.925567189104527,1],"name":"HouseLG01_PlasterYellow","extras":{"name":"HouseLG01_PlasterYellow"},"mesh":0}],"bufferViews":[{"buffer":0,"byteOffset":0,"byteLength":257100,"target":34962,"byteStride":12},{"buffer":0,"byteOffset":257100,"byteLength":257100,"target":34962,"byteStride":12},{"buffer":0,"byteOffset":514200,"byteLength":171400,"target":34962,"byteStride":8},{"buffer":0,"byteOffset":685600,"byteLength":171400,"target":34962,"byteStride":8},{"buffer":0,"byteOffset":857000,"byteLength":68460,"target":34963}],"buffers":[{"byteLength":925460,"uri":"data:application/octet-stream;base64,"}],"accessors":[{"bufferView":0,"componentType":5126,"count":21425,"max":[373.81146240234375,341.82037353515625,208.97251892089844],"min":[-373.8116760253906,-341.8204040527344,-208.97238159179688],"type":"VEC3"},{"bufferView":1,"componentType":5126,"count":21425,"max":[1,1,1],"min":[-1,-1,-1],"type":"VEC3"},{"bufferView":2,"componentType":5126,"count":21425,"max":[11.096464157104492,11.083000183105469],"min":[-10.10189437866211,0.9035344123840332],"type":"VEC2"},{"bufferView":3,"componentType":5126,"count":21425,"max":[1,1],"min":[0,0],"type":"VEC2"},{"bufferView":4,"componentType":5123,"count":34230,"max":[21424],"min":[0],"type":"SCALAR"}],"materials":[{"pbrMetallicRoughness":{"baseColorFactor":[0.7372549176216125,0.6000000238418579,0.3803921937942505,1],"metallicFactor":1,"roughnessFactor":0.858578622341156},"doubleSided":true,"name":"PlasterYellow"}],"meshes":[{"primitives":[{"mode":4,"attributes":{"POSITION":0,"NORMAL":1,"TEXCOORD_0":2,"TEXCOORD_1":3},"indices":4,"material":0}]}]}