{"asset":{"version":"2.0","generator":"THREE.GLTFExporter"},"scenes":[{"nodes":[0]}],"scene":0,"nodes":[{"matrix":[0.02539999969303608,0,0,0,0,0.02539999969303608,0,0,0,0,0.02539999969303608,0,-64.3414841407789,1.8386217473617847,25.414623657662446,1],"name":"网格.271_1","mesh":0}],"bufferViews":[{"buffer":0,"byteOffset":0,"byteLength":2028,"target":34962,"byteStride":12},{"buffer":0,"byteOffset":2028,"byteLength":2028,"target":34962,"byteStride":12},{"buffer":0,"byteOffset":4056,"byteLength":1352,"target":34962,"byteStride":8},{"buffer":0,"byteOffset":5408,"byteLength":480,"target":34963}],"buffers":[{"byteLength":5888,"uri":"data:application/octet-stream;base64,"}],"accessors":[{"bufferView":0,"componentType":5126,"count":169,"max":[3.3848233222961426,3.2259507179260254,3.383220911026001],"min":[-3.3848233222961426,-8.39716911315918,-3.383220911026001],"type":"VEC3"},{"bufferView":1,"componentType":5126,"count":169,"max":[1,1,0.9999999403953552],"min":[-1,-1,-1],"type":"VEC3"},{"bufferView":2,"componentType":5126,"count":169,"max":[0.4574170410633087,0.9983797073364258],"min":[0.0015864621382206678,0.1655416488647461],"type":"VEC2"},{"bufferView":3,"componentType":5123,"count":240,"max":[168],"min":[0],"type":"SCALAR"}],"materials":[{"pbrMetallicRoughness":{"baseColorFactor":[0.41960787773132324,0.6274510025978088,0.7568628191947937,1],"metallicFactor":1,"roughnessFactor":0.858578622341156},"doubleSided":true,"name":"Glass"}],"meshes":[{"primitives":[{"mode":4,"attributes":{"POSITION":0,"NORMAL":1,"TEXCOORD_0":2},"indices":3,"material":0}]}]}