{"asset":{"version":"2.0","generator":"THREE.GLTFExporter"},"scenes":[{"nodes":[0]}],"scene":0,"nodes":[{"matrix":[0.02539999969303608,0,0,0,0,0.02539999969303608,0,0,0,0,0.02539999969303608,0,153.79792836912384,12.401890450483648,-49.49475679308489,1],"name":"HouseLG07_PlasterYellow","extras":{"name":"HouseLG07_PlasterYellow"},"mesh":0}],"bufferViews":[{"buffer":0,"byteOffset":0,"byteLength":34608,"target":34962,"byteStride":12},{"buffer":0,"byteOffset":34608,"byteLength":34608,"target":34962,"byteStride":12},{"buffer":0,"byteOffset":69216,"byteLength":23072,"target":34962,"byteStride":8},{"buffer":0,"byteOffset":92288,"byteLength":8720,"target":34963}],"buffers":[{"byteLength":101008,"uri":"data:application/octet-stream;base64,"}],"accessors":[{"bufferView":0,"componentType":5126,"count":2884,"max":[425.433349609375,201.1285400390625,355.94110107421875],"min":[-425.43310546875,-201.1285400390625,-355.9411315917969],"type":"VEC3"},{"bufferView":1,"componentType":5126,"count":2884,"max":[1,1,1],"min":[-1,-1.0000001192092896,-1],"type":"VEC3"},{"bufferView":2,"componentType":5126,"count":2884,"max":[11.616360664367676,11.109675407409668],"min":[-10.616360664367676,2.660222291946411],"type":"VEC2"},{"bufferView":3,"componentType":5123,"count":4359,"max":[2883],"min":[0],"type":"SCALAR"}],"materials":[{"pbrMetallicRoughness":{"baseColorFactor":[0.7372549176216125,0.6000000238418579,0.3803921937942505,1],"metallicFactor":1,"roughnessFactor":0.858578622341156},"doubleSided":true,"name":"PlasterYellow"}],"meshes":[{"primitives":[{"mode":4,"attributes":{"POSITION":0,"NORMAL":1,"TEXCOORD_0":2},"indices":3,"material":0}]}]}