{"asset":{"version":"2.0","generator":"THREE.GLTFExporter"},"scenes":[{"nodes":[0]}],"scene":0,"nodes":[{"matrix":[0.02539999969303608,0,0,0,0,0.02539999969303608,0,0,0,0,0.02539999969303608,0,81.5519221118384,10.633832165132588,-5.797534695534637,1],"name":"HouseLG01_Stone_Stacked","extras":{"name":"HouseLG01_Stone_Stacked"},"mesh":0}],"bufferViews":[{"buffer":0,"byteOffset":0,"byteLength":91032,"target":34962,"byteStride":12},{"buffer":0,"byteOffset":91032,"byteLength":91032,"target":34962,"byteStride":12},{"buffer":0,"byteOffset":182064,"byteLength":60688,"target":34962,"byteStride":8},{"buffer":0,"byteOffset":242752,"byteLength":23604,"target":34963}],"buffers":[{"byteLength":266356,"uri":"data:application/octet-stream;base64,"}],"accessors":[{"bufferView":0,"componentType":5126,"count":7586,"max":[168.32252502441406,76.46540069580078,159.12081909179688],"min":[-168.322509765625,-76.46541595458984,-159.1207275390625],"type":"VEC3"},{"bufferView":1,"componentType":5126,"count":7586,"max":[1,1,1],"min":[-1,-1.0000001192092896,-1],"type":"VEC3"},{"bufferView":2,"componentType":5126,"count":7586,"max":[9.619470596313477,8.119470596313477],"min":[-7.119470596313477,3.4859633445739746],"type":"VEC2"},{"bufferView":3,"componentType":5123,"count":11802,"max":[7585],"min":[0],"type":"SCALAR"}],"materials":[{"pbrMetallicRoughness":{"baseColorFactor":[0.40000003576278687,0.41960787773132324,0.7921569347381592,1],"metallicFactor":1,"roughnessFactor":0.858578622341156},"doubleSided":true,"name":"Stone_Stacked"}],"meshes":[{"primitives":[{"mode":4,"attributes":{"POSITION":0,"NORMAL":1,"TEXCOORD_0":2},"indices":3,"material":0}]}]}