{"asset":{"version":"2.0","generator":"THREE.GLTFExporter"},"scenes":[{"nodes":[0]}],"scene":0,"nodes":[{"matrix":[0.02539999969303608,0,0,0,0,0.02539999969303608,0,0,0,0,0.02539999969303608,0,-7.5728157976247985,20.494667374484834,-5.372661382997421,1],"name":"HouseMD03_RoofTiles","extras":{"name":"HouseMD03_RoofTiles"},"mesh":0}],"bufferViews":[{"buffer":0,"byteOffset":0,"byteLength":9732,"target":34962,"byteStride":12},{"buffer":0,"byteOffset":9732,"byteLength":9732,"target":34962,"byteStride":12},{"buffer":0,"byteOffset":19464,"byteLength":6488,"target":34962,"byteStride":8},{"buffer":0,"byteOffset":25952,"byteLength":2460,"target":34963}],"buffers":[{"byteLength":28412,"uri":"data:application/octet-stream;base64,"}],"accessors":[{"bufferView":0,"componentType":5126,"count":811,"max":[210.9971466064453,122.16757202148438,202.28451538085938],"min":[-210.99713134765625,-122.16769409179688,-202.28453063964844],"type":"VEC3"},{"bufferView":1,"componentType":5126,"count":811,"max":[1,1.0000001192092896,1],"min":[-1,-1,-1],"type":"VEC3"},{"bufferView":2,"componentType":5126,"count":811,"max":[19.376060485839844,12.301055908203125],"min":[-18.376060485839844,2.2580668926239014],"type":"VEC2"},{"bufferView":3,"componentType":5123,"count":1230,"max":[810],"min":[0],"type":"SCALAR"}],"materials":[{"pbrMetallicRoughness":{"baseColorFactor":[0.4666666666666667,0.4745098039215686,0.4666666666666667,1],"metallicFactor":0,"roughnessFactor":1}}],"meshes":[{"primitives":[{"mode":4,"attributes":{"POSITION":0,"NORMAL":1,"TEXCOORD_0":2},"indices":3,"material":0}]}]}