{"asset":{"version":"2.0","generator":"THREE.GLTFExporter"},"scenes":[{"nodes":[0]}],"scene":0,"nodes":[{"matrix":[0.02539999969303608,0,0,0,0,0.02539999969303608,0,0,0,0,0.02539999969303608,0,33.51439326222615,16.83346518151211,-48.62919744494138,1],"name":"HouseLG03_Stone_Stacked","extras":{"name":"HouseLG03_Stone_Stacked"},"mesh":0}],"bufferViews":[{"buffer":0,"byteOffset":0,"byteLength":67356,"target":34962,"byteStride":12},{"buffer":0,"byteOffset":67356,"byteLength":67356,"target":34962,"byteStride":12},{"buffer":0,"byteOffset":134712,"byteLength":44904,"target":34962,"byteStride":8},{"buffer":0,"byteOffset":179616,"byteLength":17816,"target":34963}],"buffers":[{"byteLength":197432,"uri":"data:application/octet-stream;base64,"}],"accessors":[{"bufferView":0,"componentType":5126,"count":5613,"max":[340.47900390625,187.18934631347656,261.31085205078125],"min":[-340.4790344238281,-187.18931579589844,-261.3109130859375],"type":"VEC3"},{"bufferView":1,"componentType":5126,"count":5613,"max":[1,1.0000001192092896,1],"min":[-1,-1.0000001192092896,-1],"type":"VEC3"},{"bufferView":2,"componentType":5126,"count":5613,"max":[5.890389442443848,4.1419243812561035],"min":[-3.390389919281006,0.6239734888076782],"type":"VEC2"},{"bufferView":3,"componentType":5123,"count":8907,"max":[5612],"min":[0],"type":"SCALAR"}],"materials":[{"pbrMetallicRoughness":{"baseColorFactor":[0.40000003576278687,0.41960787773132324,0.7921569347381592,1],"metallicFactor":1,"roughnessFactor":0.858578622341156},"doubleSided":true,"name":"Stone_Stacked"}],"meshes":[{"primitives":[{"mode":4,"attributes":{"POSITION":0,"NORMAL":1,"TEXCOORD_0":2},"indices":3,"material":0}]}]}