{"asset":{"version":"2.0","generator":"THREE.GLTFExporter"},"scenes":[{"nodes":[0]}],"scene":0,"nodes":[{"matrix":[0.02539999969303608,0,0,0,0,0.02539999969303608,0,0,0,0,0.02539999969303608,0,60.40906977539066,24.720333002022244,-48.18819666137688,1],"name":"HouseLG04_Wood_Beams","extras":{"name":"HouseLG04_Wood_Beams"},"mesh":0}],"bufferViews":[{"buffer":0,"byteOffset":0,"byteLength":91032,"target":34962,"byteStride":12},{"buffer":0,"byteOffset":91032,"byteLength":91032,"target":34962,"byteStride":12},{"buffer":0,"byteOffset":182064,"byteLength":60688,"target":34962,"byteStride":8},{"buffer":0,"byteOffset":242752,"byteLength":23784,"target":34963}],"buffers":[{"byteLength":266536,"uri":"data:application/octet-stream;base64,"}],"accessors":[{"bufferView":0,"componentType":5126,"count":7586,"max":[233.5462646484375,487.9539794921875,193.1341552734375],"min":[-233.5460205078125,-487.9537658691406,-193.1336669921875],"type":"VEC3"},{"bufferView":1,"componentType":5126,"count":7586,"max":[1,1,1],"min":[-1,-1,-1],"type":"VEC3"},{"bufferView":2,"componentType":5126,"count":7586,"max":[9.968523025512695,9.968523025512695],"min":[-8.968523025512695,-6.1205596923828125],"type":"VEC2"},{"bufferView":3,"componentType":5123,"count":11892,"max":[7585],"min":[0],"type":"SCALAR"}],"materials":[{"pbrMetallicRoughness":{"baseColorFactor":[0.12941177189350128,0.03921568766236305,0.007843137718737125,1],"metallicFactor":1,"roughnessFactor":0.858578622341156},"doubleSided":true,"name":"Wood_Beams"}],"meshes":[{"primitives":[{"mode":4,"attributes":{"POSITION":0,"NORMAL":1,"TEXCOORD_0":2},"indices":3,"material":0}]}]}