{"asset":{"version":"2.0","generator":"THREE.GLTFExporter"},"scenes":[{"nodes":[0]}],"scene":0,"nodes":[{"matrix":[0.02539999969303608,0,0,0,0,0.02539999969303608,0,0,0,0,0.02539999969303608,0,20.695783615112305,11.262534331496028,23.62819649135048,1],"name":"Turret_Stone_Blocks","extras":{"name":"Turret_Stone_Blocks"},"mesh":0}],"bufferViews":[{"buffer":0,"byteOffset":0,"byteLength":16824,"target":34962,"byteStride":12},{"buffer":0,"byteOffset":16824,"byteLength":16824,"target":34962,"byteStride":12},{"buffer":0,"byteOffset":33648,"byteLength":11216,"target":34962,"byteStride":8},{"buffer":0,"byteOffset":44864,"byteLength":12048,"target":34963}],"buffers":[{"byteLength":56912,"uri":"data:application/octet-stream;base64,"}],"accessors":[{"bufferView":0,"componentType":5126,"count":1402,"max":[99.73990631103516,-44.62738037109375,100.48416900634766],"min":[-99.73986053466797,-191.4315185546875,-100.48422241210938],"type":"VEC3"},{"bufferView":1,"componentType":5126,"count":1402,"max":[1,1,1],"min":[-1,-1,-1],"type":"VEC3"},{"bufferView":2,"componentType":5126,"count":1402,"max":[7.040148735046387,6.516881465911865],"min":[-5.790148735046387,-0.7466559410095215],"type":"VEC2"},{"bufferView":3,"componentType":5123,"count":6024,"max":[1401],"min":[0],"type":"SCALAR"}],"materials":[{"pbrMetallicRoughness":{"baseColorFactor":[0.9254902601242065,0.7960785031318665,0.19215688109397888,1],"metallicFactor":1,"roughnessFactor":0.858578622341156},"doubleSided":true,"name":"Stone_Blocks"}],"meshes":[{"primitives":[{"mode":4,"attributes":{"POSITION":0,"NORMAL":1,"TEXCOORD_0":2},"indices":3,"material":0}]}]}