{"asset":{"version":"2.0","generator":"THREE.GLTFExporter"},"scenes":[{"nodes":[0]}],"scene":0,"nodes":[{"matrix":[0.02539999969303608,0,0,0,0,0.02539999969303608,0,0,0,0,0.02539999969303608,0,18.635397450017194,9.735792627352708,-6.105739065292255,1],"name":"HouseMD04_WoodDark","extras":{"name":"HouseMD04_WoodDark"},"mesh":0}],"bufferViews":[{"buffer":0,"byteOffset":0,"byteLength":31368,"target":34962,"byteStride":12},{"buffer":0,"byteOffset":31368,"byteLength":31368,"target":34962,"byteStride":12},{"buffer":0,"byteOffset":62736,"byteLength":20912,"target":34962,"byteStride":8},{"buffer":0,"byteOffset":83648,"byteLength":9168,"target":34963}],"buffers":[{"byteLength":92816,"uri":"data:application/octet-stream;base64,"}],"accessors":[{"bufferView":0,"componentType":5126,"count":2614,"max":[55.895172119140625,53.346893310546875,134.709716796875],"min":[-55.895050048828125,-53.34695053100586,-134.7095947265625],"type":"VEC3"},{"bufferView":1,"componentType":5126,"count":2614,"max":[1,1,1],"min":[-1,-1,-1],"type":"VEC3"},{"bufferView":2,"componentType":5126,"count":2614,"max":[14.678946495056152,14.678946495056152],"min":[-13.678946495056152,-16.613479614257812],"type":"VEC2"},{"bufferView":3,"componentType":5123,"count":4584,"max":[2613],"min":[0],"type":"SCALAR"}],"materials":[{"pbrMetallicRoughness":{"baseColorFactor":[0.07058823853731155,0.003921568859368563,0.003921568859368563,1],"metallicFactor":1,"roughnessFactor":0.858578622341156},"doubleSided":true,"name":"WoodDark"}],"meshes":[{"primitives":[{"mode":4,"attributes":{"POSITION":0,"NORMAL":1,"TEXCOORD_0":2},"indices":3,"material":0}]}]}