{"asset":{"version":"2.0","generator":"THREE.GLTFExporter"},"scenes":[{"nodes":[0]}],"scene":0,"nodes":[{"matrix":[0.02539999969303608,0,0,0,0,0.02539999969303608,0,0,0,0,0.02539999969303608,0,153.58532739513066,13.59919060996424,-49.32819331853534,1],"name":"HouseLG07_Stone_Stacked","extras":{"name":"HouseLG07_Stone_Stacked"},"mesh":0}],"bufferViews":[{"buffer":0,"byteOffset":0,"byteLength":18240,"target":34962,"byteStride":12},{"buffer":0,"byteOffset":18240,"byteLength":18240,"target":34962,"byteStride":12},{"buffer":0,"byteOffset":36480,"byteLength":12160,"target":34962,"byteStride":8},{"buffer":0,"byteOffset":48640,"byteLength":4788,"target":34963}],"buffers":[{"byteLength":53428,"uri":"data:application/octet-stream;base64,"}],"accessors":[{"bufferView":0,"componentType":5126,"count":1520,"max":[409.7678527832031,267.6998596191406,302.6173400878906],"min":[-409.7678527832031,-267.6999206542969,-302.6174011230469],"type":"VEC3"},{"bufferView":1,"componentType":5126,"count":1520,"max":[1,1,1],"min":[-1,-1,-1],"type":"VEC3"},{"bufferView":2,"componentType":5126,"count":1520,"max":[9.941876411437988,8.441877365112305],"min":[-7.441877365112305,1.8962433338165283],"type":"VEC2"},{"bufferView":3,"componentType":5123,"count":2394,"max":[1519],"min":[0],"type":"SCALAR"}],"materials":[{"pbrMetallicRoughness":{"baseColorFactor":[0.40000003576278687,0.41960787773132324,0.7921569347381592,1],"metallicFactor":1,"roughnessFactor":0.858578622341156},"doubleSided":true,"name":"Stone_Stacked"}],"meshes":[{"primitives":[{"mode":4,"attributes":{"POSITION":0,"NORMAL":1,"TEXCOORD_0":2},"indices":3,"material":0}]}]}