{"asset":{"version":"2.0","generator":"THREE.GLTFExporter"},"scenes":[{"nodes":[0]}],"scene":0,"nodes":[{"matrix":[0.02539999969303608,0,0,0,0,0.02539999969303608,0,0,0,0,0.02539999969303608,0,-16.646334796403153,7.5691606065971655,21.594755170654224,1],"name":"Windmill_WoodDark","extras":{"name":"Windmill_WoodDark"},"mesh":0}],"bufferViews":[{"buffer":0,"byteOffset":0,"byteLength":5712,"target":34962,"byteStride":12},{"buffer":0,"byteOffset":5712,"byteLength":5712,"target":34962,"byteStride":12},{"buffer":0,"byteOffset":11424,"byteLength":3808,"target":34962,"byteStride":8},{"buffer":0,"byteOffset":15232,"byteLength":1356,"target":34963}],"buffers":[{"byteLength":16588,"uri":"data:application/octet-stream;base64,"}],"accessors":[{"bufferView":0,"componentType":5126,"count":476,"max":[27.501338958740234,39.24070358276367,10.753692626953125],"min":[-27.501304626464844,-39.24078369140625,-10.753662109375],"type":"VEC3"},{"bufferView":1,"componentType":5126,"count":476,"max":[1,1,0.9999867677688599],"min":[-1,-1,-0.9999868273735046],"type":"VEC3"},{"bufferView":2,"componentType":5126,"count":476,"max":[22.7313175201416,22.734067916870117],"min":[-21.734067916870117,-28.73708152770996],"type":"VEC2"},{"bufferView":3,"componentType":5123,"count":678,"max":[475],"min":[0],"type":"SCALAR"}],"materials":[{"pbrMetallicRoughness":{"baseColorFactor":[0.07058823853731155,0.003921568859368563,0.003921568859368563,1],"metallicFactor":1,"roughnessFactor":0.858578622341156},"doubleSided":true,"name":"WoodDark"}],"meshes":[{"primitives":[{"mode":4,"attributes":{"POSITION":0,"NORMAL":1,"TEXCOORD_0":2},"indices":3,"material":0}]}]}