{"asset":{"version":"2.0","generator":"THREE.GLTFExporter"},"scenes":[{"nodes":[0]}],"scene":0,"nodes":[{"matrix":[0.02539999969303608,0,0,0,0,0.02539999969303608,0,0,0,0,0.02539999969303608,0,137.39230300403779,9.976939572364358,24.496234893798828,1],"name":"GateHouseLG_Wood_Beams","extras":{"name":"GateHouseLG_Wood_Beams"},"mesh":0}],"bufferViews":[{"buffer":0,"byteOffset":0,"byteLength":945732,"target":34962,"byteStride":12},{"buffer":0,"byteOffset":945732,"byteLength":945732,"target":34962,"byteStride":12},{"buffer":0,"byteOffset":1891464,"byteLength":630488,"target":34962,"byteStride":8},{"buffer":0,"byteOffset":2521952,"byteLength":494232,"target":34963}],"buffers":[{"byteLength":3016184,"uri":"data:application/octet-stream;base64,"}],"accessors":[{"bufferView":0,"componentType":5126,"count":78811,"max":[236.53082275390625,188.36691284179688,153.87522888183594],"min":[-229.3106231689453,-188.36691284179688,-153.87521362304688],"type":"VEC3"},{"bufferView":1,"componentType":5126,"count":78811,"max":[1,1,1],"min":[-1,-1,-1],"type":"VEC3"},{"bufferView":2,"componentType":5126,"count":78811,"max":[51.8774299621582,51.8774299621582],"min":[-50.8774299621582,-2.290815591812134],"type":"VEC2"},{"bufferView":3,"componentType":5125,"count":123558,"max":[78810],"min":[0],"type":"SCALAR"}],"materials":[{"pbrMetallicRoughness":{"baseColorFactor":[0.12941177189350128,0.03921568766236305,0.007843137718737125,1],"metallicFactor":1,"roughnessFactor":0.858578622341156},"doubleSided":true,"name":"Wood_Beams"}],"meshes":[{"primitives":[{"mode":4,"attributes":{"POSITION":0,"NORMAL":1,"TEXCOORD_0":2},"indices":3,"material":0}]}]}