{"asset":{"version":"2.0","generator":"THREE.GLTFExporter"},"scenes":[{"nodes":[0]}],"scene":0,"nodes":[{"matrix":[0.02539999969303608,0,0,0,0,0.02539999969303608,0,0,0,0,0.02539999969303608,0,71.49090576171875,8.026452609982215,27.28154721982537,1],"name":"HouseSM_WoodDark001","extras":{"name":"HouseSM_WoodDark.001"},"mesh":0}],"bufferViews":[{"buffer":0,"byteOffset":0,"byteLength":21552,"target":34962,"byteStride":12},{"buffer":0,"byteOffset":21552,"byteLength":21552,"target":34962,"byteStride":12},{"buffer":0,"byteOffset":43104,"byteLength":14368,"target":34962,"byteStride":8},{"buffer":0,"byteOffset":57472,"byteLength":5004,"target":34963}],"buffers":[{"byteLength":62476,"uri":"data:application/octet-stream;base64,"}],"accessors":[{"bufferView":0,"componentType":5126,"count":1796,"max":[27.21314239501953,70.17689514160156,4.8085527420043945],"min":[-27.21314239501953,-70.17692565917969,-4.808605194091797],"type":"VEC3"},{"bufferView":1,"componentType":5126,"count":1796,"max":[1,1,1],"min":[-1,-1,-1],"type":"VEC3"},{"bufferView":2,"componentType":5126,"count":1796,"max":[24.550273895263672,24.550273895263672],"min":[-23.550273895263672,-9.447918891906738],"type":"VEC2"},{"bufferView":3,"componentType":5123,"count":2502,"max":[1795],"min":[0],"type":"SCALAR"}],"materials":[{"pbrMetallicRoughness":{"baseColorFactor":[0.07058823853731155,0.003921568859368563,0.003921568859368563,1],"metallicFactor":1,"roughnessFactor":0.858578622341156},"doubleSided":true,"name":"WoodDark"}],"meshes":[{"primitives":[{"mode":4,"attributes":{"POSITION":0,"NORMAL":1,"TEXCOORD_0":2},"indices":3,"material":0}]}]}