{"asset":{"version":"2.0","generator":"THREE.GLTFExporter"},"scenes":[{"nodes":[0]}],"scene":0,"nodes":[{"matrix":[0.02539999969303608,0,0,0,0,0.02539999969303608,0,0,0,0,0.02539999969303608,0,159.45702863959195,8.469851123774788,25.209885775756845,1],"name":"HouseSM01_Glass","extras":{"name":"HouseSM01_Glass"},"mesh":0}],"bufferViews":[{"buffer":0,"byteOffset":0,"byteLength":15072,"target":34962,"byteStride":12},{"buffer":0,"byteOffset":15072,"byteLength":15072,"target":34962,"byteStride":12},{"buffer":0,"byteOffset":30144,"byteLength":10048,"target":34962,"byteStride":8},{"buffer":0,"byteOffset":40192,"byteLength":3840,"target":34963}],"buffers":[{"byteLength":44032,"uri":"data:application/octet-stream;base64,"}],"accessors":[{"bufferView":0,"componentType":5126,"count":1256,"max":[257.276123046875,96.03456115722656,112.52542114257812],"min":[-257.2759094238281,-96.03453826904297,-112.52546691894531],"type":"VEC3"},{"bufferView":1,"componentType":5126,"count":1256,"max":[1,0.0000025516615096421447,1],"min":[-1,-0.0000041806370063568465,-1],"type":"VEC3"},{"bufferView":2,"componentType":5126,"count":1256,"max":[0.9649898409843445,0.9806616306304932],"min":[0.033454928547143936,0.02315056324005127],"type":"VEC2"},{"bufferView":3,"componentType":5123,"count":1920,"max":[1255],"min":[0],"type":"SCALAR"}],"materials":[{"pbrMetallicRoughness":{"baseColorFactor":[0.41960787773132324,0.6274510025978088,0.7568628191947937,1],"metallicFactor":1,"roughnessFactor":0.858578622341156},"doubleSided":true,"name":"Glass"}],"meshes":[{"primitives":[{"mode":4,"attributes":{"POSITION":0,"NORMAL":1,"TEXCOORD_0":2},"indices":3,"material":0}]}]}