{"asset":{"version":"2.0","generator":"THREE.GLTFExporter"},"scenes":[{"nodes":[0]}],"scene":0,"nodes":[{"matrix":[0.02539999969303608,0,0,0,0,0.02539999969303608,0,0,0,0,0.02539999969303608,0,-21.009330846407465,16.989667425397954,-49.68304496897281,1],"name":"ManorMD_PlasterYellow","extras":{"name":"ManorMD_PlasterYellow"},"mesh":0}],"bufferViews":[{"buffer":0,"byteOffset":0,"byteLength":4020,"target":34962,"byteStride":12},{"buffer":0,"byteOffset":4020,"byteLength":4020,"target":34962,"byteStride":12},{"buffer":0,"byteOffset":8040,"byteLength":2680,"target":34962,"byteStride":8},{"buffer":0,"byteOffset":10720,"byteLength":1008,"target":34963}],"buffers":[{"byteLength":11728,"uri":"data:application/octet-stream;base64,"}],"accessors":[{"bufferView":0,"componentType":5126,"count":335,"max":[188.58367919921875,43.88140869140625,250.66925048828125],"min":[-188.58370971679688,-43.88140869140625,-250.66946411132812],"type":"VEC3"},{"bufferView":1,"componentType":5126,"count":335,"max":[0.9998830556869507,1,0.9999999403953552],"min":[-0.9970086812973022,-1,-0.9999698400497437],"type":"VEC3"},{"bufferView":2,"componentType":5126,"count":335,"max":[14.15221881866455,3.406162738800049],"min":[-12.88691520690918,-1.374319076538086],"type":"VEC2"},{"bufferView":3,"componentType":5123,"count":504,"max":[334],"min":[0],"type":"SCALAR"}],"materials":[{"pbrMetallicRoughness":{"baseColorFactor":[0.7372549176216125,0.6000000238418579,0.3803921937942505,1],"metallicFactor":1,"roughnessFactor":0.858578622341156},"doubleSided":true,"name":"PlasterYellow"}],"meshes":[{"primitives":[{"mode":4,"attributes":{"POSITION":0,"NORMAL":1,"TEXCOORD_0":2},"indices":3,"material":0}]}]}