{"asset":{"version":"2.0","generator":"THREE.GLTFExporter"},"scenes":[{"nodes":[0]}],"scene":0,"nodes":[{"matrix":[0.02539999969303608,0,0,0,0,0.02539999969303608,0,0,0,0,0.02539999969303608,0,117.12649274848445,11.869133379187701,24.240551266408147,1],"name":"HouseSM02_WoodDark","extras":{"name":"HouseSM02_WoodDark"},"mesh":0}],"bufferViews":[{"buffer":0,"byteOffset":0,"byteLength":457380,"target":34962,"byteStride":12},{"buffer":0,"byteOffset":457380,"byteLength":457380,"target":34962,"byteStride":12},{"buffer":0,"byteOffset":914760,"byteLength":304920,"target":34962,"byteStride":8},{"buffer":0,"byteOffset":1219680,"byteLength":126024,"target":34963}],"buffers":[{"byteLength":1345704,"uri":"data:application/octet-stream;base64,"}],"accessors":[{"bufferView":0,"componentType":5126,"count":38115,"max":[190.35125732421875,178.48187255859375,131.2611846923828],"min":[-190.351318359375,-178.4818572998047,-131.2611846923828],"type":"VEC3"},{"bufferView":1,"componentType":5126,"count":38115,"max":[1.0000001192092896,1,1.0000001192092896],"min":[-1.0000001192092896,-1.0000001192092896,-1.0000001192092896],"type":"VEC3"},{"bufferView":2,"componentType":5126,"count":38115,"max":[73.23310089111328,73.22097778320312],"min":[-72.23310089111328,6.347250938415527],"type":"VEC2"},{"bufferView":3,"componentType":5123,"count":63012,"max":[38114],"min":[0],"type":"SCALAR"}],"materials":[{"pbrMetallicRoughness":{"baseColorFactor":[0.07058823853731155,0.003921568859368563,0.003921568859368563,1],"metallicFactor":1,"roughnessFactor":0.858578622341156},"doubleSided":true,"name":"WoodDark"}],"meshes":[{"primitives":[{"mode":4,"attributes":{"POSITION":0,"NORMAL":1,"TEXCOORD_0":2},"indices":3,"material":0}]}]}