{"asset":{"version":"2.0","generator":"THREE.GLTFExporter"},"scenes":[{"nodes":[0]}],"scene":0,"nodes":[{"matrix":[0.02539999969303608,0,0,0,0,0.02539999969303608,0,0,0,0,0.02539999969303608,0,59.783284724359646,20.848593406478983,-48.015810286507076,1],"name":"HouseLG04_Mullions_Wood","extras":{"name":"HouseLG04_Mullions_Wood"},"mesh":0}],"bufferViews":[{"buffer":0,"byteOffset":0,"byteLength":71136,"target":34962,"byteStride":12},{"buffer":0,"byteOffset":71136,"byteLength":71136,"target":34962,"byteStride":12},{"buffer":0,"byteOffset":142272,"byteLength":47424,"target":34962,"byteStride":8},{"buffer":0,"byteOffset":189696,"byteLength":18408,"target":34963}],"buffers":[{"byteLength":208104,"uri":"data:application/octet-stream;base64,"}],"accessors":[{"bufferView":0,"componentType":5126,"count":5928,"max":[173.6942138671875,290.3969421386719,167.1466064453125],"min":[-173.6939697265625,-290.3968505859375,-167.1466064453125],"type":"VEC3"},{"bufferView":1,"componentType":5126,"count":5928,"max":[1,1,1],"min":[-1,-1,-1],"type":"VEC3"},{"bufferView":2,"componentType":5126,"count":5928,"max":[49.6145133972168,12.649148941040039],"min":[-48.6145133972168,-48.62694549560547],"type":"VEC2"},{"bufferView":3,"componentType":5123,"count":9204,"max":[5927],"min":[0],"type":"SCALAR"}],"materials":[{"pbrMetallicRoughness":{"baseColorFactor":[0.7058823704719543,0.8588235974311829,0.6549019813537598,1],"metallicFactor":1,"roughnessFactor":0.858578622341156},"doubleSided":true,"name":"Mullions_Wood"}],"meshes":[{"primitives":[{"mode":4,"attributes":{"POSITION":0,"NORMAL":1,"TEXCOORD_0":2},"indices":3,"material":0}]}]}