{"asset":{"version":"2.0","generator":"THREE.GLTFExporter"},"scenes":[{"nodes":[0]}],"scene":0,"nodes":[{"matrix":[0.02539999969303608,0,0,0,0,0.02539999969303608,0,0,0,0,0.02539999969303608,0,-58.43795865280299,11.661908723307477,-2.70052996057143,1],"name":"HouseMD01_Glass","extras":{"name":"HouseMD01_Glass"},"mesh":0}],"bufferViews":[{"buffer":0,"byteOffset":0,"byteLength":28848,"target":34962,"byteStride":12},{"buffer":0,"byteOffset":28848,"byteLength":28848,"target":34962,"byteStride":12},{"buffer":0,"byteOffset":57696,"byteLength":19232,"target":34962,"byteStride":8},{"buffer":0,"byteOffset":76928,"byteLength":7416,"target":34963}],"buffers":[{"byteLength":84344,"uri":"data:application/octet-stream;base64,"}],"accessors":[{"bufferView":0,"componentType":5126,"count":2404,"max":[318.8226623535156,153.09310913085938,210.112060546875],"min":[-318.8226318359375,-153.09310913085938,-210.11236572265625],"type":"VEC3"},{"bufferView":1,"componentType":5126,"count":2404,"max":[1,1,1.0000001192092896],"min":[-1,-1,-1],"type":"VEC3"},{"bufferView":2,"componentType":5126,"count":2404,"max":[1,1],"min":[0.12118300050497055,0.40664100646972656],"type":"VEC2"},{"bufferView":3,"componentType":5123,"count":3708,"max":[2403],"min":[0],"type":"SCALAR"}],"materials":[{"pbrMetallicRoughness":{"baseColorFactor":[0.41960787773132324,0.6274510025978088,0.7568628191947937,1],"metallicFactor":1,"roughnessFactor":0.858578622341156},"doubleSided":true,"name":"Glass"}],"meshes":[{"primitives":[{"mode":4,"attributes":{"POSITION":0,"NORMAL":1,"TEXCOORD_0":2},"indices":3,"material":0}]}]}