{"asset":{"version":"2.0","generator":"THREE.GLTFExporter"},"scenes":[{"nodes":[0]}],"scene":0,"nodes":[{"matrix":[0.02539999969303608,0,0,0,0,0.02539999969303608,0,0,0,0,0.02539999969303608,0,20.695783615112305,14.742678066903636,25.954563766702677,1],"name":"Turret_PlasterYellow","extras":{"name":"Turret_PlasterYellow"},"mesh":0}],"bufferViews":[{"buffer":0,"byteOffset":0,"byteLength":12180,"target":34962,"byteStride":12},{"buffer":0,"byteOffset":12180,"byteLength":12180,"target":34962,"byteStride":12},{"buffer":0,"byteOffset":24360,"byteLength":8120,"target":34962,"byteStride":8},{"buffer":0,"byteOffset":32480,"byteLength":3348,"target":34963}],"buffers":[{"byteLength":35828,"uri":"data:application/octet-stream;base64,"}],"accessors":[{"bufferView":0,"componentType":5126,"count":1015,"max":[30.45050621032715,39.105224609375,13.473535537719727],"min":[-30.45050621032715,-39.10528564453125,-33.924705505371094],"type":"VEC3"},{"bufferView":1,"componentType":5126,"count":1015,"max":[1,1,1],"min":[-1,-1,-1],"type":"VEC3"},{"bufferView":2,"componentType":5126,"count":1015,"max":[18.175479888916016,18.323373794555664],"min":[-17.175479888916016,3.0165200233459473],"type":"VEC2"},{"bufferView":3,"componentType":5123,"count":1674,"max":[1014],"min":[0],"type":"SCALAR"}],"materials":[{"pbrMetallicRoughness":{"baseColorFactor":[0.7372549176216125,0.6000000238418579,0.3803921937942505,1],"metallicFactor":1,"roughnessFactor":0.858578622341156},"doubleSided":true,"name":"PlasterYellow"}],"meshes":[{"primitives":[{"mode":4,"attributes":{"POSITION":0,"NORMAL":1,"TEXCOORD_0":2},"indices":3,"material":0}]}]}