{"asset":{"version":"2.0","generator":"THREE.GLTFExporter"},"scenes":[{"nodes":[0]}],"scene":0,"nodes":[{"matrix":[0.02539999969303608,0,0,0,0,0.02539999969303608,0,0,0,0,0.02539999969303608,0,157.93365801125583,7.141642517006062,-4.88514659842167,1],"name":"TowerBridge_Stone_Blocks","extras":{"name":"TowerBridge_Stone_Blocks"},"mesh":0}],"bufferViews":[{"buffer":0,"byteOffset":0,"byteLength":184776,"target":34962,"byteStride":12},{"buffer":0,"byteOffset":184776,"byteLength":184776,"target":34962,"byteStride":12},{"buffer":0,"byteOffset":369552,"byteLength":123184,"target":34962,"byteStride":8},{"buffer":0,"byteOffset":492736,"byteLength":61940,"target":34963}],"buffers":[{"byteLength":554676,"uri":"data:application/octet-stream;base64,"}],"accessors":[{"bufferView":0,"componentType":5126,"count":15398,"max":[378.39251708984375,480.593017578125,105.055419921875],"min":[-227.44528198242188,2.82196044921875,-311.26336669921875],"type":"VEC3"},{"bufferView":1,"componentType":5126,"count":15398,"max":[0.999993085861206,1.0000001192092896,0.9999250173568726],"min":[-0.9999972581863403,-1,-0.9999721646308899],"type":"VEC3"},{"bufferView":2,"componentType":5126,"count":15398,"max":[4.3420820236206055,1.0656543970108032],"min":[-1.8046648502349854,-3.397728443145752],"type":"VEC2"},{"bufferView":3,"componentType":5123,"count":30969,"max":[15397],"min":[0],"type":"SCALAR"}],"materials":[{"pbrMetallicRoughness":{"baseColorFactor":[0.9254902601242065,0.7960785031318665,0.19215688109397888,1],"metallicFactor":1,"roughnessFactor":0.858578622341156},"doubleSided":true,"name":"Stone_Blocks"}],"meshes":[{"primitives":[{"mode":4,"attributes":{"POSITION":0,"NORMAL":1,"TEXCOORD_0":2},"indices":3,"material":0}]}]}