{"asset":{"version":"2.0","generator":"THREE.GLTFExporter"},"scenes":[{"nodes":[0]}],"scene":0,"nodes":[{"matrix":[0.02539999969303608,0,0,0,0,0.02539999969303608,0,0,0,0,0.02539999969303608,0,149.4708803902031,41.70868250810406,-127.57447430327011,1],"name":"ManorLG_PlasterYellow","extras":{"name":"ManorLG_PlasterYellow"},"mesh":0}],"bufferViews":[{"buffer":0,"byteOffset":0,"byteLength":454404,"target":34962,"byteStride":12},{"buffer":0,"byteOffset":454404,"byteLength":454404,"target":34962,"byteStride":12},{"buffer":0,"byteOffset":908808,"byteLength":302936,"target":34962,"byteStride":8},{"buffer":0,"byteOffset":1211744,"byteLength":122756,"target":34963}],"buffers":[{"byteLength":1334500,"uri":"data:application/octet-stream;base64,"}],"accessors":[{"bufferView":0,"componentType":5126,"count":37867,"max":[666.45068359375,403.3720703125,313.4893493652344],"min":[-666.4508056640625,-716.9585571289062,-313.4898376464844],"type":"VEC3"},{"bufferView":1,"componentType":5126,"count":37867,"max":[1.0000001192092896,1.0000001192092896,1],"min":[-1,-1.0000001192092896,-1],"type":"VEC3"},{"bufferView":2,"componentType":5126,"count":37867,"max":[24.42167091369629,5.063414096832275],"min":[-23.42167091369629,-18.87708854675293],"type":"VEC2"},{"bufferView":3,"componentType":5123,"count":61377,"max":[37866],"min":[0],"type":"SCALAR"}],"materials":[{"pbrMetallicRoughness":{"baseColorFactor":[0.7372549176216125,0.6000000238418579,0.3803921937942505,1],"metallicFactor":1,"roughnessFactor":0.858578622341156},"doubleSided":true,"name":"PlasterYellow"}],"meshes":[{"primitives":[{"mode":4,"attributes":{"POSITION":0,"NORMAL":1,"TEXCOORD_0":2},"indices":3,"material":0}]}]}