{"asset":{"version":"2.0","generator":"THREE.GLTFExporter"},"scenes":[{"nodes":[0]}],"scene":0,"nodes":[{"matrix":[0.02539999969303608,0,0,0,0,0.02539999969303608,0,0,0,0,0.02539999969303608,0,40.40752720947262,18.28689024851957,-7.333450678009285,1],"name":"HouseMD05_Glass","extras":{"name":"HouseMD05_Glass"},"mesh":0}],"bufferViews":[{"buffer":0,"byteOffset":0,"byteLength":9504,"target":34962,"byteStride":12},{"buffer":0,"byteOffset":9504,"byteLength":9504,"target":34962,"byteStride":12},{"buffer":0,"byteOffset":19008,"byteLength":6336,"target":34962,"byteStride":8},{"buffer":0,"byteOffset":25344,"byteLength":2376,"target":34963}],"buffers":[{"byteLength":27720,"uri":"data:application/octet-stream;base64,"}],"accessors":[{"bufferView":0,"componentType":5126,"count":792,"max":[192.082763671875,341.8912353515625,176.78749084472656],"min":[-192.08251953125,-341.8913269042969,-176.78729248046875],"type":"VEC3"},{"bufferView":1,"componentType":5126,"count":792,"max":[1,4.338530175118649e-7,1],"min":[-1,-0.000001249848423867661,-1],"type":"VEC3"},{"bufferView":2,"componentType":5126,"count":792,"max":[0.9722219705581665,1],"min":[0,0.032868027687072754],"type":"VEC2"},{"bufferView":3,"componentType":5123,"count":1188,"max":[791],"min":[0],"type":"SCALAR"}],"materials":[{"pbrMetallicRoughness":{"baseColorFactor":[0.41960787773132324,0.6274510025978088,0.7568628191947937,1],"metallicFactor":1,"roughnessFactor":0.858578622341156},"doubleSided":true,"name":"Glass"}],"meshes":[{"primitives":[{"mode":4,"attributes":{"POSITION":0,"NORMAL":1,"TEXCOORD_0":2},"indices":3,"material":0}]}]}