{"asset":{"version":"2.0","generator":"THREE.GLTFExporter"},"scenes":[{"nodes":[0]}],"scene":0,"nodes":[{"matrix":[0.02539999969303608,0,0,0,0,0.02539999969303608,0,0,0,0,0.02539999969303608,0,16.986929098357223,19.290292649213825,-2.2398665534183237,1],"name":"HouseMD04_Cloth","extras":{"name":"HouseMD04_Cloth"},"mesh":0}],"bufferViews":[{"buffer":0,"byteOffset":0,"byteLength":16224,"target":34962,"byteStride":12},{"buffer":0,"byteOffset":16224,"byteLength":16224,"target":34962,"byteStride":12},{"buffer":0,"byteOffset":32448,"byteLength":10816,"target":34962,"byteStride":8},{"buffer":0,"byteOffset":43264,"byteLength":3840,"target":34963}],"buffers":[{"byteLength":47104,"uri":"data:application/octet-stream;base64,"}],"accessors":[{"bufferView":0,"componentType":5126,"count":1352,"max":[179.95750427246094,153.48333740234375,4.905548095703125],"min":[-179.95748901367188,-153.48358154296875,-4.90557861328125],"type":"VEC3"},{"bufferView":1,"componentType":5126,"count":1352,"max":[1,0.9635810852050781,1],"min":[-1,-1,-1],"type":"VEC3"},{"bufferView":2,"componentType":5126,"count":1352,"max":[0.75,0.6666669845581055],"min":[0,0],"type":"VEC2"},{"bufferView":3,"componentType":5123,"count":1920,"max":[1351],"min":[0],"type":"SCALAR"}],"materials":[{"pbrMetallicRoughness":{"baseColorFactor":[0.7568628191947937,0.6313725709915161,0.46666669845581055,1],"metallicFactor":1,"roughnessFactor":0.858578622341156},"doubleSided":true,"name":"Cloth"}],"meshes":[{"primitives":[{"mode":4,"attributes":{"POSITION":0,"NORMAL":1,"TEXCOORD_0":2},"indices":3,"material":0}]}]}