{"asset":{"version":"2.0","generator":"THREE.GLTFExporter"},"scenes":[{"nodes":[0]}],"scene":0,"nodes":[{"matrix":[0.02539999969303608,0,0,0,0,0.02539999969303608,0,0,0,0,0.02539999969303608,0,-2.6571882629834818,8.882072808132364,25.16822536625523,1],"name":"GateHouseSM_Wood_Beams","extras":{"name":"GateHouseSM_Wood_Beams"},"mesh":0}],"bufferViews":[{"buffer":0,"byteOffset":0,"byteLength":48216,"target":34962,"byteStride":12},{"buffer":0,"byteOffset":48216,"byteLength":48216,"target":34962,"byteStride":12},{"buffer":0,"byteOffset":96432,"byteLength":32144,"target":34962,"byteStride":8},{"buffer":0,"byteOffset":128576,"byteLength":13908,"target":34963}],"buffers":[{"byteLength":142484,"uri":"data:application/octet-stream;base64,"}],"accessors":[{"bufferView":0,"componentType":5126,"count":4018,"max":[76.5689697265625,71.46415710449219,68.732177734375],"min":[-76.568603515625,-71.46421813964844,-68.7322998046875],"type":"VEC3"},{"bufferView":1,"componentType":5126,"count":4018,"max":[1,1,1],"min":[-1,-1,-1],"type":"VEC3"},{"bufferView":2,"componentType":5126,"count":4018,"max":[60.83717727661133,50.89929962158203],"min":[-59.83717727661133,-0.6017711162567139],"type":"VEC2"},{"bufferView":3,"componentType":5123,"count":6954,"max":[4017],"min":[0],"type":"SCALAR"}],"materials":[{"pbrMetallicRoughness":{"baseColorFactor":[0.12941177189350128,0.03921568766236305,0.007843137718737125,1],"metallicFactor":1,"roughnessFactor":0.858578622341156},"doubleSided":true,"name":"Wood_Beams"}],"meshes":[{"primitives":[{"mode":4,"attributes":{"POSITION":0,"NORMAL":1,"TEXCOORD_0":2},"indices":3,"material":0}]}]}