{"asset":{"version":"2.0","generator":"THREE.GLTFExporter"},"scenes":[{"nodes":[0]}],"scene":0,"nodes":[{"matrix":[0.02539999969303608,0,0,0,0,0.02539999969303608,0,0,0,0,0.02539999969303608,0,117.06190134301505,16.859448870636584,24.228784930490775,1],"name":"HouseSM02_RoofTiles","extras":{"name":"HouseSM02_RoofTiles"},"mesh":0}],"bufferViews":[{"buffer":0,"byteOffset":0,"byteLength":2232,"target":34962,"byteStride":12},{"buffer":0,"byteOffset":2232,"byteLength":2232,"target":34962,"byteStride":12},{"buffer":0,"byteOffset":4464,"byteLength":1488,"target":34962,"byteStride":8},{"buffer":0,"byteOffset":5952,"byteLength":552,"target":34963}],"buffers":[{"byteLength":6504,"uri":"data:application/octet-stream;base64,"}],"accessors":[{"bufferView":0,"componentType":5126,"count":186,"max":[194.13125610351562,99.19314575195312,140.62081909179688],"min":[-194.1311798095703,-99.1932373046875,-140.620849609375],"type":"VEC3"},{"bufferView":1,"componentType":5126,"count":186,"max":[1,1,0.8378188014030457],"min":[-1,-0.7453130483627319,-0.8379068374633789],"type":"VEC3"},{"bufferView":2,"componentType":5126,"count":186,"max":[19.328022003173828,19.32802391052246],"min":[-18.32802391052246,3.0484302043914795],"type":"VEC2"},{"bufferView":3,"componentType":5123,"count":276,"max":[185],"min":[0],"type":"SCALAR"}],"materials":[{"pbrMetallicRoughness":{"baseColorFactor":[0.4666666666666667,0.4745098039215686,0.4666666666666667,1],"metallicFactor":0,"roughnessFactor":1}}],"meshes":[{"primitives":[{"mode":4,"attributes":{"POSITION":0,"NORMAL":1,"TEXCOORD_0":2},"indices":3,"material":0}]}]}