{"asset":{"version":"2.0","generator":"THREE.GLTFExporter"},"scenes":[{"nodes":[0]}],"scene":0,"nodes":[{"matrix":[0.02539999969303608,0,0,0,0,0.02539999969303608,0,0,0,0,0.02539999969303608,0,-57.045848926213694,5.824658434724427,25.118173345388172,1],"name":"网格.277_1","mesh":0}],"bufferViews":[{"buffer":0,"byteOffset":0,"byteLength":480,"target":34962,"byteStride":12},{"buffer":0,"byteOffset":480,"byteLength":480,"target":34962,"byteStride":12},{"buffer":0,"byteOffset":960,"byteLength":320,"target":34962,"byteStride":8},{"buffer":0,"byteOffset":1280,"byteLength":120,"target":34963}],"buffers":[{"byteLength":1400,"uri":"data:application/octet-stream;base64,"}],"accessors":[{"bufferView":0,"componentType":5126,"count":40,"max":[6.769646644592285,10.412398338317871,48.142356872558594],"min":[-30.801862716674805,-19.261611938476562,10.418832778930664],"type":"VEC3"},{"bufferView":1,"componentType":5126,"count":40,"max":[0.700955331325531,1.0158144192473628e-7,0.9999620318412781],"min":[-0.9999613165855408,-5.683665449396358e-7,-0.7133402228355408],"type":"VEC3"},{"bufferView":2,"componentType":5126,"count":40,"max":[0.9925640225410461,0.8884601593017578],"min":[0.08234797418117523,0.16501301527023315],"type":"VEC2"},{"bufferView":3,"componentType":5123,"count":60,"max":[39],"min":[0],"type":"SCALAR"}],"materials":[{"pbrMetallicRoughness":{"baseColorFactor":[0.41960787773132324,0.6274510025978088,0.7568628191947937,1],"metallicFactor":1,"roughnessFactor":0.858578622341156},"doubleSided":true,"name":"Glass"}],"meshes":[{"primitives":[{"mode":4,"attributes":{"POSITION":0,"NORMAL":1,"TEXCOORD_0":2},"indices":3,"material":0}]}]}