{"asset":{"version":"2.0","generator":"THREE.GLTFExporter"},"scenes":[{"nodes":[0]}],"scene":0,"nodes":[{"matrix":[0.02539999969303608,0,0,0,0,0.02539999969303608,0,0,0,0,0.02539999969303608,0,9.071354274185751,4.823427297364731,24.390233501570492,1],"name":"HouseCabin_Wood_Beams","extras":{"name":"HouseCabin_Wood_Beams"},"mesh":0}],"bufferViews":[{"buffer":0,"byteOffset":0,"byteLength":10032,"target":34962,"byteStride":12},{"buffer":0,"byteOffset":10032,"byteLength":10032,"target":34962,"byteStride":12},{"buffer":0,"byteOffset":20064,"byteLength":6688,"target":34962,"byteStride":8},{"buffer":0,"byteOffset":26752,"byteLength":2640,"target":34963}],"buffers":[{"byteLength":29392,"uri":"data:application/octet-stream;base64,"}],"accessors":[{"bufferView":0,"componentType":5126,"count":836,"max":[105.31584930419922,69.08975982666016,90.13521575927734],"min":[-105.31584930419922,-69.08979034423828,-90.13522338867188],"type":"VEC3"},{"bufferView":1,"componentType":5126,"count":836,"max":[1,1,1],"min":[-1,-1,-1],"type":"VEC3"},{"bufferView":2,"componentType":5126,"count":836,"max":[55.437164306640625,50.74235153198242],"min":[-54.437164306640625,-0.8113986253738403],"type":"VEC2"},{"bufferView":3,"componentType":5123,"count":1320,"max":[835],"min":[0],"type":"SCALAR"}],"materials":[{"pbrMetallicRoughness":{"baseColorFactor":[0.12941177189350128,0.03921568766236305,0.007843137718737125,1],"metallicFactor":1,"roughnessFactor":0.858578622341156},"doubleSided":true,"name":"Wood_Beams"}],"meshes":[{"primitives":[{"mode":4,"attributes":{"POSITION":0,"NORMAL":1,"TEXCOORD_0":2},"indices":3,"material":0}]}]}