{"asset":{"version":"2.0","generator":"THREE.GLTFExporter"},"scenes":[{"nodes":[0]}],"scene":0,"nodes":[{"matrix":[0.02539999969303608,0,0,0,0,0.02539999969303608,0,0,0,0,0.02539999969303608,0,85.46580561658993,19.083578023334383,-48.86930889121595,1],"name":"HouseLG05_PlasterYellow001","extras":{"name":"HouseLG05_PlasterYellow.001"},"mesh":0}],"bufferViews":[{"buffer":0,"byteOffset":0,"byteLength":24156,"target":34962,"byteStride":12},{"buffer":0,"byteOffset":24156,"byteLength":24156,"target":34962,"byteStride":12},{"buffer":0,"byteOffset":48312,"byteLength":16104,"target":34962,"byteStride":8},{"buffer":0,"byteOffset":64416,"byteLength":6800,"target":34963}],"buffers":[{"byteLength":71216,"uri":"data:application/octet-stream;base64,"}],"accessors":[{"bufferView":0,"componentType":5126,"count":2013,"max":[327.7611083984375,375.1937561035156,164.7034454345703],"min":[-327.76123046875,-375.19378662109375,-164.70327758789062],"type":"VEC3"},{"bufferView":1,"componentType":5126,"count":2013,"max":[1,1,1.0000001192092896],"min":[-1.0000001192092896,-1,-1.0000001192092896],"type":"VEC3"},{"bufferView":2,"componentType":5126,"count":2013,"max":[8.657242774963379,5.420255184173584],"min":[-7.657242774963379,-0.573686957359314],"type":"VEC2"},{"bufferView":3,"componentType":5123,"count":3399,"max":[2012],"min":[0],"type":"SCALAR"}],"materials":[{"pbrMetallicRoughness":{"baseColorFactor":[0.7372549176216125,0.6000000238418579,0.3803921937942505,1],"metallicFactor":1,"roughnessFactor":0.858578622341156},"doubleSided":true,"name":"PlasterYellow"}],"meshes":[{"primitives":[{"mode":4,"attributes":{"POSITION":0,"NORMAL":1,"TEXCOORD_0":2},"indices":3,"material":0}]}]}