{"asset":{"version":"2.0","generator":"THREE.GLTFExporter"},"scenes":[{"nodes":[0]}],"scene":0,"nodes":[{"matrix":[0.02539999969303608,0,0,0,0,0.02539999969303608,0,0,0,0,0.02539999969303608,0,31.4876651763916,6.043666017882259,21.431194727127505,1],"name":"HouseAFrame_PlasterYellow","extras":{"name":"HouseAFrame_PlasterYellow"},"mesh":0}],"bufferViews":[{"buffer":0,"byteOffset":0,"byteLength":1632,"target":34962,"byteStride":12},{"buffer":0,"byteOffset":1632,"byteLength":1632,"target":34962,"byteStride":12},{"buffer":0,"byteOffset":3264,"byteLength":1088,"target":34962,"byteStride":8},{"buffer":0,"byteOffset":4352,"byteLength":432,"target":34963}],"buffers":[{"byteLength":4784,"uri":"data:application/octet-stream;base64,"}],"accessors":[{"bufferView":0,"componentType":5126,"count":136,"max":[93.69557189941406,89.64057159423828,66.91988372802734],"min":[-93.69557189941406,-89.64056396484375,-66.9198989868164],"type":"VEC3"},{"bufferView":1,"componentType":5126,"count":136,"max":[0.999988317489624,1,1],"min":[-0.9999990463256836,-1,-1],"type":"VEC3"},{"bufferView":2,"componentType":5126,"count":136,"max":[17.35610580444336,17.35610580444336],"min":[-16.35610580444336,4.015444755554199],"type":"VEC2"},{"bufferView":3,"componentType":5123,"count":216,"max":[135],"min":[0],"type":"SCALAR"}],"materials":[{"pbrMetallicRoughness":{"baseColorFactor":[0.7372549176216125,0.6000000238418579,0.3803921937942505,1],"metallicFactor":1,"roughnessFactor":0.858578622341156},"doubleSided":true,"name":"PlasterYellow"}],"meshes":[{"primitives":[{"mode":4,"attributes":{"POSITION":0,"NORMAL":1,"TEXCOORD_0":2},"indices":3,"material":0}]}]}