{"asset":{"version":"2.0","generator":"THREE.GLTFExporter"},"scenes":[{"nodes":[0]}],"scene":0,"nodes":[{"matrix":[0.02539999969303608,0,0,0,0,0.02539999969303608,0,0,0,0,0.02539999969303608,0,71.64242519348136,7.615558703204783,24.88004112091835,1],"name":"HouseSM_Glass","extras":{"name":"HouseSM_Glass"},"mesh":0}],"bufferViews":[{"buffer":0,"byteOffset":0,"byteLength":144,"target":34962,"byteStride":12},{"buffer":0,"byteOffset":144,"byteLength":144,"target":34962,"byteStride":12},{"buffer":0,"byteOffset":288,"byteLength":96,"target":34962,"byteStride":8},{"buffer":0,"byteOffset":384,"byteLength":36,"target":34963}],"buffers":[{"byteLength":420,"uri":"data:application/octet-stream;base64,"}],"accessors":[{"bufferView":0,"componentType":5126,"count":12,"max":[67.22953033447266,18.14527130126953,87.2716293334961],"min":[-67.2295913696289,-18.145286560058594,-87.27163696289062],"type":"VEC3"},{"bufferView":1,"componentType":5126,"count":12,"max":[5.422601248028514e-7,0,0.9999999403953552],"min":[-5.422601816462702e-7,-2.3907512058940483e-7,-0.9999999403953552],"type":"VEC3"},{"bufferView":2,"componentType":5126,"count":12,"max":[1.247773289680481,1.2820453643798828],"min":[0.3842080533504486,0.385420560836792],"type":"VEC2"},{"bufferView":3,"componentType":5123,"count":18,"max":[11],"min":[0],"type":"SCALAR"}],"materials":[{"pbrMetallicRoughness":{"baseColorFactor":[0.41960787773132324,0.6274510025978088,0.7568628191947937,1],"metallicFactor":1,"roughnessFactor":0.858578622341156},"doubleSided":true,"name":"Glass"}],"meshes":[{"primitives":[{"mode":4,"attributes":{"POSITION":0,"NORMAL":1,"TEXCOORD_0":2},"indices":3,"material":0}]}]}