{"asset":{"version":"2.0","generator":"THREE.GLTFExporter"},"scenes":[{"nodes":[0]}],"scene":0,"nodes":[{"matrix":[0.02539999969303608,0,0,0,0,0.02539999969303608,0,0,0,0,0.02539999969303608,0,56.70432134401108,10.117660669137251,25.222546209560022,1],"name":"BellTower_WoodDark","extras":{"name":"BellTower_WoodDark"},"mesh":0}],"bufferViews":[{"buffer":0,"byteOffset":0,"byteLength":9444,"target":34962,"byteStride":12},{"buffer":0,"byteOffset":9444,"byteLength":9444,"target":34962,"byteStride":12},{"buffer":0,"byteOffset":18888,"byteLength":6296,"target":34962,"byteStride":8},{"buffer":0,"byteOffset":25184,"byteLength":2736,"target":34963}],"buffers":[{"byteLength":27920,"uri":"data:application/octet-stream;base64,"}],"accessors":[{"bufferView":0,"componentType":5126,"count":787,"max":[71.45635986328125,118.67570495605469,63.738685607910156],"min":[-71.45637512207031,-118.67569732666016,-63.738651275634766],"type":"VEC3"},{"bufferView":1,"componentType":5126,"count":787,"max":[1,1,1],"min":[-1,-1,-1],"type":"VEC3"},{"bufferView":2,"componentType":5126,"count":787,"max":[72.4660415649414,72.4660415649414],"min":[-71.4660415649414,9.798608779907227],"type":"VEC2"},{"bufferView":3,"componentType":5123,"count":1368,"max":[786],"min":[0],"type":"SCALAR"}],"materials":[{"pbrMetallicRoughness":{"baseColorFactor":[0.07058823853731155,0.003921568859368563,0.003921568859368563,1],"metallicFactor":1,"roughnessFactor":0.858578622341156},"doubleSided":true,"name":"WoodDark"}],"meshes":[{"primitives":[{"mode":4,"attributes":{"POSITION":0,"NORMAL":1,"TEXCOORD_0":2},"indices":3,"material":0}]}]}