{"asset":{"version":"2.0","generator":"THREE.GLTFExporter"},"scenes":[{"nodes":[0]}],"scene":0,"nodes":[{"matrix":[0.02539999969303608,0,0,0,0,0.02539999969303608,0,0,0,0,0.02539999969303608,0,117.06803970101919,30.138299323885462,-48.531070709228516,1],"name":"HouseLG06_Wood_Beams","extras":{"name":"HouseLG06_Wood_Beams"},"mesh":0}],"bufferViews":[{"buffer":0,"byteOffset":0,"byteLength":313188,"target":34962,"byteStride":12},{"buffer":0,"byteOffset":313188,"byteLength":313188,"target":34962,"byteStride":12},{"buffer":0,"byteOffset":626376,"byteLength":208792,"target":34962,"byteStride":8},{"buffer":0,"byteOffset":835168,"byteLength":79812,"target":34963}],"buffers":[{"byteLength":914980,"uri":"data:application/octet-stream;base64,"}],"accessors":[{"bufferView":0,"componentType":5126,"count":26099,"max":[489.048095703125,399.38568115234375,339.4910888671875],"min":[-464.59228515625,-399.3856506347656,-339.49102783203125],"type":"VEC3"},{"bufferView":1,"componentType":5126,"count":26099,"max":[1,1,1],"min":[-1,-1,-1],"type":"VEC3"},{"bufferView":2,"componentType":5126,"count":26099,"max":[40.16717529296875,33.813636779785156],"min":[-39.14541244506836,-25.295236587524414],"type":"VEC2"},{"bufferView":3,"componentType":5123,"count":39906,"max":[26098],"min":[0],"type":"SCALAR"}],"materials":[{"pbrMetallicRoughness":{"baseColorFactor":[0.12941177189350128,0.03921568766236305,0.007843137718737125,1],"metallicFactor":1,"roughnessFactor":0.858578622341156},"doubleSided":true,"name":"Wood_Beams"}],"meshes":[{"primitives":[{"mode":4,"attributes":{"POSITION":0,"NORMAL":1,"TEXCOORD_0":2},"indices":3,"material":0}]}]}