{"asset":{"version":"2.0","generator":"THREE.GLTFExporter"},"scenes":[{"nodes":[0]}],"scene":0,"nodes":[{"matrix":[0.02539999969303608,0,0,0,0,0.02539999969303608,0,0,0,0,0.02539999969303608,0,149.473746590058,16.49088724044441,-5.994957913134385,1],"name":"TowerBridge_Mullions_Wood","extras":{"name":"TowerBridge_Mullions_Wood"},"mesh":0}],"bufferViews":[{"buffer":0,"byteOffset":0,"byteLength":258852,"target":34962,"byteStride":12},{"buffer":0,"byteOffset":258852,"byteLength":258852,"target":34962,"byteStride":12},{"buffer":0,"byteOffset":517704,"byteLength":172568,"target":34962,"byteStride":8},{"buffer":0,"byteOffset":690272,"byteLength":172568,"target":34962,"byteStride":8},{"buffer":0,"byteOffset":862840,"byteLength":108060,"target":34963}],"buffers":[{"byteLength":970900,"uri":"data:application/octet-stream;base64,"}],"accessors":[{"bufferView":0,"componentType":5126,"count":21571,"max":[635.26611328125,47.413536071777344,108.0517578125],"min":[-328.4306640625,-150.8792724609375,-194.46728515625],"type":"VEC3"},{"bufferView":1,"componentType":5126,"count":21571,"max":[1,1,1],"min":[-1,-1.0000001192092896,-1],"type":"VEC3"},{"bufferView":2,"componentType":5126,"count":21571,"max":[4.281490325927734,12.546211242675781],"min":[-3.2814903259277344,-11.546210289001465],"type":"VEC2"},{"bufferView":3,"componentType":5126,"count":21571,"max":[799.9873046875,4.1708984375],"min":[-163.70945739746094,-298.34814453125],"type":"VEC2"},{"bufferView":4,"componentType":5123,"count":54030,"max":[21570],"min":[0],"type":"SCALAR"}],"materials":[{"pbrMetallicRoughness":{"baseColorFactor":[0.7058823704719543,0.8588235974311829,0.6549019813537598,1],"metallicFactor":1,"roughnessFactor":0.858578622341156},"doubleSided":true,"name":"Mullions_Wood"}],"meshes":[{"primitives":[{"mode":4,"attributes":{"POSITION":0,"NORMAL":1,"TEXCOORD_0":2,"TEXCOORD_1":3},"indices":4,"material":0}]}]}