{"asset":{"version":"2.0","generator":"THREE.GLTFExporter"},"scenes":[{"nodes":[0]}],"scene":0,"nodes":[{"matrix":[0.02539999969303608,0,0,0,0,0.02539999969303608,0,0,0,0,0.02539999969303608,0,117.06807070687819,30.475540750473897,-48.53804082633178,1],"name":"HouseLG06_PlasterYellow","extras":{"name":"HouseLG06_PlasterYellow"},"mesh":0}],"bufferViews":[{"buffer":0,"byteOffset":0,"byteLength":28476,"target":34962,"byteStride":12},{"buffer":0,"byteOffset":28476,"byteLength":28476,"target":34962,"byteStride":12},{"buffer":0,"byteOffset":56952,"byteLength":18984,"target":34962,"byteStride":8},{"buffer":0,"byteOffset":75936,"byteLength":8268,"target":34963}],"buffers":[{"byteLength":84204,"uri":"data:application/octet-stream;base64,"}],"accessors":[{"bufferView":0,"componentType":5126,"count":2373,"max":[389.9537353515625,386.10845947265625,301.774658203125],"min":[-389.9539794921875,-386.1084289550781,-301.77276611328125],"type":"VEC3"},{"bufferView":1,"componentType":5126,"count":2373,"max":[1,1,1],"min":[-1,-1,-1],"type":"VEC3"},{"bufferView":2,"componentType":5126,"count":2373,"max":[18.666133880615234,11.261495590209961],"min":[-17.666133880615234,-1.2558975219726562],"type":"VEC2"},{"bufferView":3,"componentType":5123,"count":4134,"max":[2372],"min":[0],"type":"SCALAR"}],"materials":[{"pbrMetallicRoughness":{"baseColorFactor":[0.7372549176216125,0.6000000238418579,0.3803921937942505,1],"metallicFactor":1,"roughnessFactor":0.858578622341156},"doubleSided":true,"name":"PlasterYellow"}],"meshes":[{"primitives":[{"mode":4,"attributes":{"POSITION":0,"NORMAL":1,"TEXCOORD_0":2},"indices":3,"material":0}]}]}