{"asset":{"version":"2.0","generator":"THREE.GLTFExporter"},"scenes":[{"nodes":[0]}],"scene":0,"nodes":[{"matrix":[0.02539999969303608,0,0,0,0,0.02539999969303608,0,0,0,0,0.02539999969303608,0,-54.46022073480526,5.371819414318168,25.52206457891039,1],"name":"网格281","mesh":0}],"bufferViews":[{"buffer":0,"byteOffset":0,"byteLength":240,"target":34962,"byteStride":12},{"buffer":0,"byteOffset":240,"byteLength":240,"target":34962,"byteStride":12},{"buffer":0,"byteOffset":480,"byteLength":160,"target":34962,"byteStride":8},{"buffer":0,"byteOffset":640,"byteLength":60,"target":34963}],"buffers":[{"byteLength":700,"uri":"data:application/octet-stream;base64,"}],"accessors":[{"bufferView":0,"componentType":5126,"count":20,"max":[61.98854064941406,24.13671875,14.032034873962402],"min":[-61.98854064941406,-24.13671875,-14.032034873962402],"type":"VEC3"},{"bufferView":1,"componentType":5126,"count":20,"max":[0.6783013343811035,-1.1612867467647447e-7,1],"min":[-0.6783050298690796,-1.641542155539355e-7,0.7347804307937622],"type":"VEC3"},{"bufferView":2,"componentType":5126,"count":20,"max":[0.9878048896789551,0.988095223903656],"min":[0.012195121496915817,0.511904776096344],"type":"VEC2"},{"bufferView":3,"componentType":5123,"count":30,"max":[19],"min":[0],"type":"SCALAR"}],"materials":[{"pbrMetallicRoughness":{"baseColorFactor":[0.41960787773132324,0.6274510025978088,0.7568628191947937,1],"metallicFactor":1,"roughnessFactor":0.858578622341156},"doubleSided":true,"name":"Glass"}],"meshes":[{"primitives":[{"mode":4,"attributes":{"POSITION":0,"NORMAL":1,"TEXCOORD_0":2},"indices":3,"material":0}]}]}