{"asset":{"version":"2.0","generator":"THREE.GLTFExporter"},"scenes":[{"nodes":[0]}],"scene":0,"nodes":[{"matrix":[0.02539999969303608,0,0,0,0,0.02539999969303608,0,0,0,0,0.02539999969303608,0,60.135555267333984,19.220929061109928,-5.968017578125,1],"name":"HouseMD06_Wood_Beams","extras":{"name":"HouseMD06_Wood_Beams"},"mesh":0}],"bufferViews":[{"buffer":0,"byteOffset":0,"byteLength":159936,"target":34962,"byteStride":12},{"buffer":0,"byteOffset":159936,"byteLength":159936,"target":34962,"byteStride":12},{"buffer":0,"byteOffset":319872,"byteLength":106624,"target":34962,"byteStride":8},{"buffer":0,"byteOffset":426496,"byteLength":42924,"target":34963}],"buffers":[{"byteLength":469420,"uri":"data:application/octet-stream;base64,"}],"accessors":[{"bufferView":0,"componentType":5126,"count":13328,"max":[168.60037231445312,370.3840637207031,145.75274658203125],"min":[-168.60037231445312,-370.38409423828125,-145.75270080566406],"type":"VEC3"},{"bufferView":1,"componentType":5126,"count":13328,"max":[1.0000001192092896,1,1],"min":[-1.0000001192092896,-1,-1],"type":"VEC3"},{"bufferView":2,"componentType":5126,"count":13328,"max":[31.75238037109375,31.75238037109375],"min":[-30.75238037109375,-19.714780807495117],"type":"VEC2"},{"bufferView":3,"componentType":5123,"count":21462,"max":[13327],"min":[0],"type":"SCALAR"}],"materials":[{"pbrMetallicRoughness":{"baseColorFactor":[0.12941177189350128,0.03921568766236305,0.007843137718737125,1],"metallicFactor":1,"roughnessFactor":0.858578622341156},"doubleSided":true,"name":"Wood_Beams"}],"meshes":[{"primitives":[{"mode":4,"attributes":{"POSITION":0,"NORMAL":1,"TEXCOORD_0":2},"indices":3,"material":0}]}]}