{"asset":{"version":"2.0","generator":"THREE.GLTFExporter"},"scenes":[{"nodes":[0]}],"scene":0,"nodes":[{"matrix":[0.02539999969303608,0,0,0,0,0.02539999969303608,0,0,0,0,0.02539999969303608,0,17.009461056092732,10.876750877724163,-6.044868362902889,1],"name":"HouseMD04_Stone_Stacked","extras":{"name":"HouseMD04_Stone_Stacked"},"mesh":0}],"bufferViews":[{"buffer":0,"byteOffset":0,"byteLength":32064,"target":34962,"byteStride":12},{"buffer":0,"byteOffset":32064,"byteLength":32064,"target":34962,"byteStride":12},{"buffer":0,"byteOffset":64128,"byteLength":21376,"target":34962,"byteStride":8},{"buffer":0,"byteOffset":85504,"byteLength":8964,"target":34963}],"buffers":[{"byteLength":94468,"uri":"data:application/octet-stream;base64,"}],"accessors":[{"bufferView":0,"componentType":5126,"count":2672,"max":[202.2303009033203,98.296875,152.43701171875],"min":[-202.23036193847656,-98.29689025878906,-152.43699645996094],"type":"VEC3"},{"bufferView":1,"componentType":5126,"count":2672,"max":[1,1,1],"min":[-1,-1,-1],"type":"VEC3"},{"bufferView":2,"componentType":5126,"count":2672,"max":[10.967827796936035,8.051047325134277],"min":[-8.46976375579834,3.3233983516693115],"type":"VEC2"},{"bufferView":3,"componentType":5123,"count":4482,"max":[2671],"min":[0],"type":"SCALAR"}],"materials":[{"pbrMetallicRoughness":{"baseColorFactor":[0.40000003576278687,0.41960787773132324,0.7921569347381592,1],"metallicFactor":1,"roughnessFactor":0.858578622341156},"doubleSided":true,"name":"Stone_Stacked"}],"meshes":[{"primitives":[{"mode":4,"attributes":{"POSITION":0,"NORMAL":1,"TEXCOORD_0":2},"indices":3,"material":0}]}]}