{"asset":{"version":"2.0","generator":"THREE.GLTFExporter"},"scenes":[{"nodes":[0]}],"scene":0,"nodes":[{"matrix":[0.02539999969303608,0,0,0,0,0.02539999969303608,0,0,0,0,0.02539999969303608,0,-66.55555052027148,1.9697838948245163,25.53119173486698,1],"name":"网格.267_1","mesh":0}],"bufferViews":[{"buffer":0,"byteOffset":0,"byteLength":288,"target":34962,"byteStride":12},{"buffer":0,"byteOffset":288,"byteLength":288,"target":34962,"byteStride":12},{"buffer":0,"byteOffset":576,"byteLength":192,"target":34962,"byteStride":8},{"buffer":0,"byteOffset":768,"byteLength":72,"target":34963}],"buffers":[{"byteLength":840,"uri":"data:application/octet-stream;base64,"}],"accessors":[{"bufferView":0,"componentType":5126,"count":24,"max":[3.301738739013672,-2.8069539070129395,4.818190097808838],"min":[-3.297832489013672,-8.576056480407715,-0.9589362144470215],"type":"VEC3"},{"bufferView":1,"componentType":5126,"count":24,"max":[0.860012948513031,-0.1176566481590271,0.993053138256073],"min":[-0.8600077629089355,-0.11773747950792313,-0.9930447936058044],"type":"VEC3"},{"bufferView":2,"componentType":5126,"count":24,"max":[0.9733338356018066,0.6114044785499573],"min":[0.39508721232414246,0.12452328205108643],"type":"VEC2"},{"bufferView":3,"componentType":5123,"count":36,"max":[23],"min":[0],"type":"SCALAR"}],"materials":[{"pbrMetallicRoughness":{"baseColorFactor":[0.41960787773132324,0.6274510025978088,0.7568628191947937,1],"metallicFactor":1,"roughnessFactor":0.858578622341156},"doubleSided":true,"name":"Glass"}],"meshes":[{"primitives":[{"mode":4,"attributes":{"POSITION":0,"NORMAL":1,"TEXCOORD_0":2},"indices":3,"material":0}]}]}