{"asset":{"version":"2.0","generator":"THREE.GLTFExporter"},"scenes":[{"nodes":[0]}],"scene":0,"nodes":[{"matrix":[0.02539999969303608,0,0,0,0,0.02539999969303608,0,0,0,0,0.02539999969303608,0,16.986946151579673,14.691940824902986,-10.083452811166126,1],"name":"HouseMD04_WoodDark001","extras":{"name":"HouseMD04_WoodDark.001"},"mesh":0}],"bufferViews":[{"buffer":0,"byteOffset":0,"byteLength":104352,"target":34962,"byteStride":12},{"buffer":0,"byteOffset":104352,"byteLength":104352,"target":34962,"byteStride":12},{"buffer":0,"byteOffset":208704,"byteLength":69568,"target":34962,"byteStride":8},{"buffer":0,"byteOffset":278272,"byteLength":25920,"target":34963}],"buffers":[{"byteLength":304192,"uri":"data:application/octet-stream;base64,"}],"accessors":[{"bufferView":0,"componentType":5126,"count":8696,"max":[138.18643188476562,209.8562774658203,23.93755340576172],"min":[-138.18637084960938,-209.85635375976562,-23.937652587890625],"type":"VEC3"},{"bufferView":1,"componentType":5126,"count":8696,"max":[1.0000001192092896,1,1.0000001192092896],"min":[-1,-1,-1],"type":"VEC3"},{"bufferView":2,"componentType":5126,"count":8696,"max":[57.349430084228516,36.766517639160156],"min":[-56.349430084228516,4.445174217224121],"type":"VEC2"},{"bufferView":3,"componentType":5123,"count":12960,"max":[8695],"min":[0],"type":"SCALAR"}],"materials":[{"pbrMetallicRoughness":{"baseColorFactor":[0.07058823853731155,0.003921568859368563,0.003921568859368563,1],"metallicFactor":1,"roughnessFactor":0.858578622341156},"doubleSided":true,"name":"WoodDark"}],"meshes":[{"primitives":[{"mode":4,"attributes":{"POSITION":0,"NORMAL":1,"TEXCOORD_0":2},"indices":3,"material":0}]}]}