{"asset":{"version":"2.0","generator":"THREE.GLTFExporter"},"scenes":[{"nodes":[0]}],"scene":0,"nodes":[{"matrix":[0.02539999969303608,0,0,0,0,0.02539999969303608,0,0,0,0,0.02539999969303608,0,60.40134311532779,20.848446903795207,-48.03352083316804,1],"name":"HouseLG04_Glass","extras":{"name":"HouseLG04_Glass"},"mesh":0}],"bufferViews":[{"buffer":0,"byteOffset":0,"byteLength":10332,"target":34962,"byteStride":12},{"buffer":0,"byteOffset":10332,"byteLength":10332,"target":34962,"byteStride":12},{"buffer":0,"byteOffset":20664,"byteLength":6888,"target":34962,"byteStride":8},{"buffer":0,"byteOffset":27552,"byteLength":4944,"target":34963}],"buffers":[{"byteLength":32496,"uri":"data:application/octet-stream;base64,"}],"accessors":[{"bufferView":0,"componentType":5126,"count":861,"max":[196.559814453125,289.83673095703125,166.3682861328125],"min":[-196.5595703125,-289.83673095703125,-166.3681640625],"type":"VEC3"},{"bufferView":1,"componentType":5126,"count":861,"max":[1,1,1],"min":[-1,-1,-1],"type":"VEC3"},{"bufferView":2,"componentType":5126,"count":861,"max":[1,1],"min":[0,0],"type":"VEC2"},{"bufferView":3,"componentType":5123,"count":2472,"max":[860],"min":[0],"type":"SCALAR"}],"materials":[{"pbrMetallicRoughness":{"baseColorFactor":[0.41960787773132324,0.6274510025978088,0.7568628191947937,1],"metallicFactor":1,"roughnessFactor":0.858578622341156},"doubleSided":true,"name":"Glass"}],"meshes":[{"primitives":[{"mode":4,"attributes":{"POSITION":0,"NORMAL":1,"TEXCOORD_0":2},"indices":3,"material":0}]}]}