{"asset":{"version":"2.0","generator":"THREE.GLTFExporter"},"scenes":[{"nodes":[0]}],"scene":0,"nodes":[{"matrix":[0.02539999969303608,0,0,0,0,0.02539999969303608,0,0,0,0,0.02539999969303608,0,46.74736207153819,56.930428588612585,-113.07281060368041,1],"name":"CastleMD_Stone_Blocks","extras":{"name":"CastleMD_Stone_Blocks"},"mesh":0}],"bufferViews":[{"buffer":0,"byteOffset":0,"byteLength":327996,"target":34962,"byteStride":12},{"buffer":0,"byteOffset":327996,"byteLength":327996,"target":34962,"byteStride":12},{"buffer":0,"byteOffset":655992,"byteLength":218664,"target":34962,"byteStride":8},{"buffer":0,"byteOffset":874656,"byteLength":145236,"target":34963}],"buffers":[{"byteLength":1019892,"uri":"data:application/octet-stream;base64,"}],"accessors":[{"bufferView":0,"componentType":5126,"count":27333,"max":[513.3619384765625,1059.4049072265625,1154.8448486328125],"min":[-513.3619384765625,-1057.2659912109375,-1127.28662109375],"type":"VEC3"},{"bufferView":1,"componentType":5126,"count":27333,"max":[1,1,1],"min":[-1,-1,-1],"type":"VEC3"},{"bufferView":2,"componentType":5126,"count":27333,"max":[6.2743659019470215,2.569450855255127],"min":[-5.0243659019470215,-5.2743659019470215],"type":"VEC2"},{"bufferView":3,"componentType":5123,"count":72618,"max":[27332],"min":[0],"type":"SCALAR"}],"materials":[{"pbrMetallicRoughness":{"baseColorFactor":[0.9254902601242065,0.7960785031318665,0.19215688109397888,1],"metallicFactor":1,"roughnessFactor":0.858578622341156},"doubleSided":true,"name":"Stone_Blocks"}],"meshes":[{"primitives":[{"mode":4,"attributes":{"POSITION":0,"NORMAL":1,"TEXCOORD_0":2},"indices":3,"material":0}]}]}