{"asset":{"version":"2.0","generator":"THREE.GLTFExporter"},"scenes":[{"nodes":[0]}],"scene":0,"nodes":[{"matrix":[0.02539999969303608,0,0,0,0,0.02539999969303608,0,0,0,0,0.02539999969303608,0,-45.31576815977087,5.575525582510636,25.364559078494537,1],"name":"网格.254_1","mesh":0}],"bufferViews":[{"buffer":0,"byteOffset":0,"byteLength":288,"target":34962,"byteStride":12},{"buffer":0,"byteOffset":288,"byteLength":288,"target":34962,"byteStride":12},{"buffer":0,"byteOffset":576,"byteLength":192,"target":34962,"byteStride":8},{"buffer":0,"byteOffset":768,"byteLength":72,"target":34963}],"buffers":[{"byteLength":840,"uri":"data:application/octet-stream;base64,"}],"accessors":[{"bufferView":0,"componentType":5126,"count":24,"max":[54.63566970825195,69.91864013671875,17.575056076049805],"min":[-54.63566589355469,36.86952209472656,-15.47433090209961],"type":"VEC3"},{"bufferView":1,"componentType":5126,"count":24,"max":[1,0.7071100473403931,0.7071101665496826],"min":[-1,-0.7071100473403931,-0.7071100473403931],"type":"VEC3"},{"bufferView":2,"componentType":5126,"count":24,"max":[-1.130306601524353,1.3162444829940796],"min":[-2.2446932792663574,1.0051844120025635],"type":"VEC2"},{"bufferView":3,"componentType":5123,"count":36,"max":[23],"min":[0],"type":"SCALAR"}],"materials":[{"pbrMetallicRoughness":{"baseColorFactor":[0.4666666666666667,0.4745098039215686,0.4666666666666667,1],"metallicFactor":0,"roughnessFactor":1}}],"meshes":[{"primitives":[{"mode":4,"attributes":{"POSITION":0,"NORMAL":1,"TEXCOORD_0":2},"indices":3,"material":0}]}]}