{"asset":{"version":"2.0","generator":"THREE.GLTFExporter"},"scenes":[{"nodes":[0]}],"scene":0,"nodes":[{"matrix":[0.02539999969303608,0,0,0,0,0.02539999969303608,0,0,0,0,0.02539999969303608,0,-40.46345354556047,1.6395720778313034,25.363796915722986,1],"name":"网格.251_3","mesh":0}],"bufferViews":[{"buffer":0,"byteOffset":0,"byteLength":2424,"target":34962,"byteStride":12},{"buffer":0,"byteOffset":2424,"byteLength":2424,"target":34962,"byteStride":12},{"buffer":0,"byteOffset":4848,"byteLength":1616,"target":34962,"byteStride":8},{"buffer":0,"byteOffset":6464,"byteLength":588,"target":34963}],"buffers":[{"byteLength":7052,"uri":"data:application/octet-stream;base64,"}],"accessors":[{"bufferView":0,"componentType":5126,"count":202,"max":[22.584238052368164,33.798805236816406,4.244510650634766],"min":[-22.701181411743164,11.379842758178711,4.244503021240234],"type":"VEC3"},{"bufferView":1,"componentType":5126,"count":202,"max":[0.0000012417942798492732,0,1],"min":[-2.717891689485441e-8,-5.443661166282254e-7,0.9999999403953552],"type":"VEC3"},{"bufferView":2,"componentType":5126,"count":202,"max":[0.10528131574392319,0.11459988355636597],"min":[0.0003087428631260991,0.06241875886917114],"type":"VEC2"},{"bufferView":3,"componentType":5123,"count":294,"max":[201],"min":[0],"type":"SCALAR"}],"materials":[{"pbrMetallicRoughness":{"baseColorFactor":[0.41960787773132324,0.6274510025978088,0.7568628191947937,1],"metallicFactor":1,"roughnessFactor":0.858578622341156},"doubleSided":true,"name":"Glass"}],"meshes":[{"primitives":[{"mode":4,"attributes":{"POSITION":0,"NORMAL":1,"TEXCOORD_0":2},"indices":3,"material":0}]}]}