{"asset":{"version":"2.0","generator":"THREE.GLTFExporter"},"scenes":[{"nodes":[0]}],"scene":0,"nodes":[{"matrix":[0.02539999969303608,0,0,0,0,0.02539999969303608,0,0,0,0,0.02539999969303608,0,119.33456625370582,13.346426383315645,-5.430552528418275,1],"name":"HouseLG02_PlasterYellow","extras":{"name":"HouseLG02_PlasterYellow"},"mesh":0}],"bufferViews":[{"buffer":0,"byteOffset":0,"byteLength":13392,"target":34962,"byteStride":12},{"buffer":0,"byteOffset":13392,"byteLength":13392,"target":34962,"byteStride":12},{"buffer":0,"byteOffset":26784,"byteLength":8928,"target":34962,"byteStride":8},{"buffer":0,"byteOffset":35712,"byteLength":8928,"target":34962,"byteStride":8},{"buffer":0,"byteOffset":44640,"byteLength":4116,"target":34963}],"buffers":[{"byteLength":48756,"uri":"data:application/octet-stream;base64,"}],"accessors":[{"bufferView":0,"componentType":5126,"count":1116,"max":[404.6123046875,233.28379821777344,386.640625],"min":[-404.61328125,-233.28375244140625,-386.640869140625],"type":"VEC3"},{"bufferView":1,"componentType":5126,"count":1116,"max":[1,1,1],"min":[-1,-1,-1],"type":"VEC3"},{"bufferView":2,"componentType":5126,"count":1116,"max":[24.65787124633789,20.02589225769043],"min":[-23.65787124633789,2.366783380508423],"type":"VEC2"},{"bufferView":3,"componentType":5126,"count":1116,"max":[1,1],"min":[0,0],"type":"VEC2"},{"bufferView":4,"componentType":5123,"count":2058,"max":[1115],"min":[0],"type":"SCALAR"}],"materials":[{"pbrMetallicRoughness":{"baseColorFactor":[0.7372549176216125,0.6000000238418579,0.3803921937942505,1],"metallicFactor":1,"roughnessFactor":0.858578622341156},"doubleSided":true,"name":"PlasterYellow"}],"meshes":[{"primitives":[{"mode":4,"attributes":{"POSITION":0,"NORMAL":1,"TEXCOORD_0":2,"TEXCOORD_1":3},"indices":4,"material":0}]}]}