{"asset":{"version":"2.0","generator":"THREE.GLTFExporter"},"scenes":[{"nodes":[0]}],"scene":0,"nodes":[{"matrix":[0.02539999969303608,0,0,0,0,0.02539999969303608,0,0,0,0,0.02539999969303608,0,71.49090576171875,8.356858794954036,24.881246861260223,1],"name":"HouseSM_PlasterYellow","extras":{"name":"HouseSM_PlasterYellow"},"mesh":0}],"bufferViews":[{"buffer":0,"byteOffset":0,"byteLength":4896,"target":34962,"byteStride":12},{"buffer":0,"byteOffset":4896,"byteLength":4896,"target":34962,"byteStride":12},{"buffer":0,"byteOffset":9792,"byteLength":3264,"target":34962,"byteStride":8},{"buffer":0,"byteOffset":13056,"byteLength":1332,"target":34963}],"buffers":[{"byteLength":14388,"uri":"data:application/octet-stream;base64,"}],"accessors":[{"bufferView":0,"componentType":5126,"count":408,"max":[117.00000762939453,84.18505096435547,94.3897933959961],"min":[-117.00000762939453,-84.18505096435547,-94.38977813720703],"type":"VEC3"},{"bufferView":1,"componentType":5126,"count":408,"max":[1,1,1],"min":[-1,-1,-1],"type":"VEC3"},{"bufferView":2,"componentType":5126,"count":408,"max":[18.444765090942383,18.444765090942383],"min":[-17.444765090942383,3.90797758102417],"type":"VEC2"},{"bufferView":3,"componentType":5123,"count":666,"max":[407],"min":[0],"type":"SCALAR"}],"materials":[{"pbrMetallicRoughness":{"baseColorFactor":[0.7372549176216125,0.6000000238418579,0.3803921937942505,1],"metallicFactor":1,"roughnessFactor":0.858578622341156},"doubleSided":true,"name":"PlasterYellow"}],"meshes":[{"primitives":[{"mode":4,"attributes":{"POSITION":0,"NORMAL":1,"TEXCOORD_0":2},"indices":3,"material":0}]}]}