{"asset":{"version":"2.0","generator":"THREE.GLTFExporter"},"scenes":[{"nodes":[0]}],"scene":0,"nodes":[{"matrix":[0.02539999969303608,0,0,0,0,0.02539999969303608,0,0,0,0,0.02539999969303608,0,16.986950802458523,16.062660241931326,-6.215899781734379,1],"name":"HouseMD04_Glass","extras":{"name":"HouseMD04_Glass"},"mesh":0}],"bufferViews":[{"buffer":0,"byteOffset":0,"byteLength":27132,"target":34962,"byteStride":12},{"buffer":0,"byteOffset":27132,"byteLength":27132,"target":34962,"byteStride":12},{"buffer":0,"byteOffset":54264,"byteLength":18088,"target":34962,"byteStride":8},{"buffer":0,"byteOffset":72352,"byteLength":7032,"target":34963}],"buffers":[{"byteLength":79384,"uri":"data:application/octet-stream;base64,"}],"accessors":[{"bufferView":0,"componentType":5126,"count":2261,"max":[202.50169372558594,273.2837829589844,174.3280487060547],"min":[-202.50149536132812,-273.283935546875,-174.32823181152344],"type":"VEC3"},{"bufferView":1,"componentType":5126,"count":2261,"max":[1,1,1],"min":[-1,-0.0000012253354952918016,-1],"type":"VEC3"},{"bufferView":2,"componentType":5126,"count":2261,"max":[0.9401580095291138,0.6553759574890137],"min":[0.12869499623775482,0.166920006275177],"type":"VEC2"},{"bufferView":3,"componentType":5123,"count":3516,"max":[2260],"min":[0],"type":"SCALAR"}],"materials":[{"pbrMetallicRoughness":{"baseColorFactor":[0.41960787773132324,0.6274510025978088,0.7568628191947937,1],"metallicFactor":1,"roughnessFactor":0.858578622341156},"doubleSided":true,"name":"Glass"}],"meshes":[{"primitives":[{"mode":4,"attributes":{"POSITION":0,"NORMAL":1,"TEXCOORD_0":2},"indices":3,"material":0}]}]}