{"asset":{"version":"2.0","generator":"THREE.GLTFExporter"},"scenes":[{"nodes":[0]}],"scene":0,"nodes":[{"matrix":[0.02539999969303608,0,0,0,0,0.02539999969303608,0,0,0,0,0.02539999969303608,0,-43.682215176582986,5.199590781756029,25.43060504632429,1],"name":"网格.253_3","mesh":0}],"bufferViews":[{"buffer":0,"byteOffset":0,"byteLength":9720,"target":34962,"byteStride":12},{"buffer":0,"byteOffset":9720,"byteLength":9720,"target":34962,"byteStride":12},{"buffer":0,"byteOffset":19440,"byteLength":6480,"target":34962,"byteStride":8},{"buffer":0,"byteOffset":25920,"byteLength":2448,"target":34963}],"buffers":[{"byteLength":28368,"uri":"data:application/octet-stream;base64,"}],"accessors":[{"bufferView":0,"componentType":5126,"count":810,"max":[72.40653228759766,35.34337615966797,-9.850057601928711],"min":[7.253859996795654,-18.498252868652344,-12.612985610961914],"type":"VEC3"},{"bufferView":1,"componentType":5126,"count":810,"max":[1,1,1],"min":[-0.9998040795326233,-1,-0.003281479235738516],"type":"VEC3"},{"bufferView":2,"componentType":5126,"count":810,"max":[-0.0009373624925501645,0.9990631341934204],"min":[-3.538039207458496,-2.999215602874756],"type":"VEC2"},{"bufferView":3,"componentType":5123,"count":1224,"max":[809],"min":[0],"type":"SCALAR"}],"materials":[{"pbrMetallicRoughness":{"baseColorFactor":[0.12941177189350128,0.03921568766236305,0.007843137718737125,1],"metallicFactor":1,"roughnessFactor":0.858578622341156},"doubleSided":true,"name":"Wood_Beams"}],"meshes":[{"primitives":[{"mode":4,"attributes":{"POSITION":0,"NORMAL":1,"TEXCOORD_0":2},"indices":3,"material":0}]}]}