{"asset":{"version":"2.0","generator":"THREE.GLTFExporter"},"scenes":[{"nodes":[0]}],"scene":0,"nodes":[{"matrix":[0.02539999969303608,0,0,0,0,0.02539999969303608,0,0,0,0,0.02539999969303608,0,160.2243864428183,12.325894003199153,25.298871815941197,1],"name":"HouseSM01_Stone_Stacked","extras":{"name":"HouseSM01_Stone_Stacked"},"mesh":0}],"bufferViews":[{"buffer":0,"byteOffset":0,"byteLength":13752,"target":34962,"byteStride":12},{"buffer":0,"byteOffset":13752,"byteLength":13752,"target":34962,"byteStride":12},{"buffer":0,"byteOffset":27504,"byteLength":9168,"target":34962,"byteStride":8},{"buffer":0,"byteOffset":36672,"byteLength":3672,"target":34963}],"buffers":[{"byteLength":40344,"uri":"data:application/octet-stream;base64,"}],"accessors":[{"bufferView":0,"componentType":5126,"count":1146,"max":[29.861846923828125,59.146087646484375,28.30950927734375],"min":[-29.8616943359375,-59.14619445800781,-28.30963134765625],"type":"VEC3"},{"bufferView":1,"componentType":5126,"count":1146,"max":[0.9953400492668152,1,0.9952755570411682],"min":[-0.9953064322471619,-1,-0.9952734112739563],"type":"VEC3"},{"bufferView":2,"componentType":5126,"count":1146,"max":[11.801664352416992,10.31082820892334],"min":[-9.301664352416992,2.782066822052002],"type":"VEC2"},{"bufferView":3,"componentType":5123,"count":1836,"max":[1145],"min":[0],"type":"SCALAR"}],"materials":[{"pbrMetallicRoughness":{"baseColorFactor":[0.40000003576278687,0.41960787773132324,0.7921569347381592,1],"metallicFactor":1,"roughnessFactor":0.858578622341156},"doubleSided":true,"name":"Stone_Stacked"}],"meshes":[{"primitives":[{"mode":4,"attributes":{"POSITION":0,"NORMAL":1,"TEXCOORD_0":2},"indices":3,"material":0}]}]}