{"asset":{"version":"2.0","generator":"THREE.GLTFExporter"},"scenes":[{"nodes":[0]}],"scene":0,"nodes":[{"matrix":[0.02539999969303608,0,0,0,0,0.02539999969303608,0,0,0,0,0.02539999969303608,0,31.4876651763916,6.045381804604688,22.05031797556569,1],"name":"HouseAFrame_RoofTiles","extras":{"name":"HouseAFrame_RoofTiles"},"mesh":0}],"bufferViews":[{"buffer":0,"byteOffset":0,"byteLength":3576,"target":34962,"byteStride":12},{"buffer":0,"byteOffset":3576,"byteLength":3576,"target":34962,"byteStride":12},{"buffer":0,"byteOffset":7152,"byteLength":2384,"target":34962,"byteStride":8},{"buffer":0,"byteOffset":9536,"byteLength":900,"target":34963}],"buffers":[{"byteLength":10436,"uri":"data:application/octet-stream;base64,"}],"accessors":[{"bufferView":0,"componentType":5126,"count":298,"max":[108.00624084472656,95.23075866699219,100.29488372802734],"min":[-108.00624084472656,-95.23078918457031,-100.29489135742188],"type":"VEC3"},{"bufferView":1,"componentType":5126,"count":298,"max":[0.8892745971679688,1,1],"min":[-0.8893145322799683,-1,-1],"type":"VEC3"},{"bufferView":2,"componentType":5126,"count":298,"max":[18.53994369506836,18.53994369506836],"min":[-17.53994369506836,4.746419906616211],"type":"VEC2"},{"bufferView":3,"componentType":5123,"count":450,"max":[297],"min":[0],"type":"SCALAR"}],"materials":[{"pbrMetallicRoughness":{"baseColorFactor":[0.4666666666666667,0.4745098039215686,0.4666666666666667,1],"metallicFactor":0,"roughnessFactor":1}}],"meshes":[{"primitives":[{"mode":4,"attributes":{"POSITION":0,"NORMAL":1,"TEXCOORD_0":2},"indices":3,"material":0}]}]}