{"asset":{"version":"2.0","generator":"THREE.GLTFExporter"},"scenes":[{"nodes":[0]}],"scene":0,"nodes":[{"matrix":[0.02539999969303608,0,0,0,0,0.02539999969303608,0,0,0,0,0.02539999969303608,0,-63.44068332158713,5.706864075796432,25.165842915734927,1],"name":"网格273","mesh":0}],"bufferViews":[{"buffer":0,"byteOffset":0,"byteLength":480,"target":34962,"byteStride":12},{"buffer":0,"byteOffset":480,"byteLength":480,"target":34962,"byteStride":12},{"buffer":0,"byteOffset":960,"byteLength":320,"target":34962,"byteStride":8},{"buffer":0,"byteOffset":1280,"byteLength":120,"target":34963}],"buffers":[{"byteLength":1400,"uri":"data:application/octet-stream;base64,"}],"accessors":[{"bufferView":0,"componentType":5126,"count":40,"max":[16.51909637451172,23.418821334838867,0.0018849630141630769],"min":[-16.51909637451172,-23.418821334838867,-0.0018869003979489207],"type":"VEC3"},{"bufferView":1,"componentType":5126,"count":40,"max":[0.009924371726810932,0.00010623687558108941,1],"min":[-0.009944000281393528,-0.04216613620519638,0.9990613460540771],"type":"VEC3"},{"bufferView":2,"componentType":5126,"count":40,"max":[0.16164427995681763,0.6151278018951416],"min":[0.0011464133858680725,0.38764071464538574],"type":"VEC2"},{"bufferView":3,"componentType":5123,"count":60,"max":[39],"min":[0],"type":"SCALAR"}],"materials":[{"pbrMetallicRoughness":{"baseColorFactor":[0.41960787773132324,0.6274510025978088,0.7568628191947937,1],"metallicFactor":1,"roughnessFactor":0.858578622341156},"doubleSided":true,"name":"Glass"}],"meshes":[{"primitives":[{"mode":4,"attributes":{"POSITION":0,"NORMAL":1,"TEXCOORD_0":2},"indices":3,"material":0}]}]}