{"asset":{"version":"2.0","generator":"THREE.GLTFExporter"},"scenes":[{"nodes":[0]}],"scene":0,"nodes":[{"matrix":[0.02539999969303608,0,0,0,0,0.02539999969303608,0,0,0,0,0.02539999969303608,0,60.135567669677584,26.02208438663149,-6.053444920842594,1],"name":"HouseMD06_RoofTiles","extras":{"name":"HouseMD06_RoofTiles"},"mesh":0}],"bufferViews":[{"buffer":0,"byteOffset":0,"byteLength":528,"target":34962,"byteStride":12},{"buffer":0,"byteOffset":528,"byteLength":528,"target":34962,"byteStride":12},{"buffer":0,"byteOffset":1056,"byteLength":352,"target":34962,"byteStride":8},{"buffer":0,"byteOffset":1408,"byteLength":144,"target":34963}],"buffers":[{"byteLength":1552,"uri":"data:application/octet-stream;base64,"}],"accessors":[{"bufferView":0,"componentType":5126,"count":44,"max":[153.96969604492188,99.99993896484375,134.865966796875],"min":[-153.96963500976562,-100.00009155273438,-134.865966796875],"type":"VEC3"},{"bufferView":1,"componentType":5126,"count":44,"max":[0.7953453660011292,1,0.0000025312501747976057],"min":[-0.7953523993492126,0.6061471700668335,7.083717434852588e-8],"type":"VEC3"},{"bufferView":2,"componentType":5126,"count":44,"max":[11.840718269348145,11.840718269348145],"min":[-10.840718269348145,1.5302140712738037],"type":"VEC2"},{"bufferView":3,"componentType":5123,"count":72,"max":[43],"min":[0],"type":"SCALAR"}],"materials":[{"pbrMetallicRoughness":{"baseColorFactor":[0.4666666666666667,0.4745098039215686,0.4666666666666667,1],"metallicFactor":0,"roughnessFactor":1}}],"meshes":[{"primitives":[{"mode":4,"attributes":{"POSITION":0,"NORMAL":1,"TEXCOORD_0":2},"indices":3,"material":0}]}]}