{"asset":{"version":"2.0","generator":"THREE.GLTFExporter"},"scenes":[{"nodes":[0]}],"scene":0,"nodes":[{"matrix":[0.02539999969303608,0,0,0,0,0.02539999969303608,0,0,0,0,0.02539999969303608,0,-31.924314863250856,13.382701062128461,-5.802709732292669,1],"name":"HouseMD02_Mullions_Wood","extras":{"name":"HouseMD02_Mullions_Wood"},"mesh":0}],"bufferViews":[{"buffer":0,"byteOffset":0,"byteLength":64164,"target":34962,"byteStride":12},{"buffer":0,"byteOffset":64164,"byteLength":64164,"target":34962,"byteStride":12},{"buffer":0,"byteOffset":128328,"byteLength":42776,"target":34962,"byteStride":8},{"buffer":0,"byteOffset":171104,"byteLength":17628,"target":34963}],"buffers":[{"byteLength":188732,"uri":"data:application/octet-stream;base64,"}],"accessors":[{"bufferView":0,"componentType":5126,"count":5347,"max":[193.4842529296875,210.19125366210938,81.18341064453125],"min":[-193.4842529296875,-210.19126892089844,-81.18328857421875],"type":"VEC3"},{"bufferView":1,"componentType":5126,"count":5347,"max":[1,1,1],"min":[-1,-1,-1],"type":"VEC3"},{"bufferView":2,"componentType":5126,"count":5347,"max":[138.05516052246094,13.2538423538208],"min":[-138.91085815429688,-0.7589092254638672],"type":"VEC2"},{"bufferView":3,"componentType":5123,"count":8814,"max":[5346],"min":[0],"type":"SCALAR"}],"materials":[{"pbrMetallicRoughness":{"baseColorFactor":[0.7058823704719543,0.8588235974311829,0.6549019813537598,1],"metallicFactor":1,"roughnessFactor":0.858578622341156},"doubleSided":true,"name":"Mullions_Wood"}],"meshes":[{"primitives":[{"mode":4,"attributes":{"POSITION":0,"NORMAL":1,"TEXCOORD_0":2},"indices":3,"material":0}]}]}