{"asset":{"version":"2.0","generator":"THREE.GLTFExporter"},"scenes":[{"nodes":[0]}],"scene":0,"nodes":[{"matrix":[0.02539999969303608,0,0,0,0,0.02539999969303608,0,0,0,0,0.02539999969303608,0,-32.02280807495117,14.76373108999411,-5.812999026601915,1],"name":"HouseMD02_Wood_Beams","extras":{"name":"HouseMD02_Wood_Beams"},"mesh":0}],"bufferViews":[{"buffer":0,"byteOffset":0,"byteLength":204732,"target":34962,"byteStride":12},{"buffer":0,"byteOffset":204732,"byteLength":204732,"target":34962,"byteStride":12},{"buffer":0,"byteOffset":409464,"byteLength":136488,"target":34962,"byteStride":8},{"buffer":0,"byteOffset":545952,"byteLength":53304,"target":34963}],"buffers":[{"byteLength":599256,"uri":"data:application/octet-stream;base64,"}],"accessors":[{"bufferView":0,"componentType":5126,"count":17061,"max":[205.537109375,292.2576599121094,85.92626953125],"min":[-205.5372314453125,-292.2577209472656,-85.9263916015625],"type":"VEC3"},{"bufferView":1,"componentType":5126,"count":17061,"max":[1,1,1],"min":[-1,-1,-1],"type":"VEC3"},{"bufferView":2,"componentType":5126,"count":17061,"max":[68.38746643066406,32.711402893066406],"min":[-67.38746643066406,-4.767064571380615],"type":"VEC2"},{"bufferView":3,"componentType":5123,"count":26652,"max":[17060],"min":[0],"type":"SCALAR"}],"materials":[{"pbrMetallicRoughness":{"baseColorFactor":[0.12941177189350128,0.03921568766236305,0.007843137718737125,1],"metallicFactor":1,"roughnessFactor":0.858578622341156},"doubleSided":true,"name":"Wood_Beams"}],"meshes":[{"primitives":[{"mode":4,"attributes":{"POSITION":0,"NORMAL":1,"TEXCOORD_0":2},"indices":3,"material":0}]}]}