{"asset":{"version":"2.0","generator":"THREE.GLTFExporter"},"scenes":[{"nodes":[0]}],"scene":0,"nodes":[{"matrix":[0.02539999969303608,0,0,0,0,0.02539999969303608,0,0,0,0,0.02539999969303608,0,-28.49178896729063,106.97287514257414,-123.09598697796537,1],"name":"CastleLG_Mullions_Wood001","extras":{"name":"CastleLG_Mullions_Wood.001"},"mesh":0}],"bufferViews":[{"buffer":0,"byteOffset":0,"byteLength":947364,"target":34962,"byteStride":12},{"buffer":0,"byteOffset":947364,"byteLength":947364,"target":34962,"byteStride":12},{"buffer":0,"byteOffset":1894728,"byteLength":631576,"target":34962,"byteStride":8},{"buffer":0,"byteOffset":2526304,"byteLength":502272,"target":34963}],"buffers":[{"byteLength":3028576,"uri":"data:application/octet-stream;base64,"}],"accessors":[{"bufferView":0,"componentType":5126,"count":78947,"max":[636.806884765625,1838.97216796875,663.2470703125],"min":[-636.8070068359375,-1838.97216796875,-663.24755859375],"type":"VEC3"},{"bufferView":1,"componentType":5126,"count":78947,"max":[1,1,1],"min":[-1,-1,-1],"type":"VEC3"},{"bufferView":2,"componentType":5126,"count":78947,"max":[3.5040431022644043,3.5850467681884766],"min":[-2.5040431022644043,-2.58504581451416],"type":"VEC2"},{"bufferView":3,"componentType":5125,"count":125568,"max":[78946],"min":[0],"type":"SCALAR"}],"materials":[{"pbrMetallicRoughness":{"baseColorFactor":[0.7058823704719543,0.8588235974311829,0.6549019813537598,1],"metallicFactor":1,"roughnessFactor":0.858578622341156},"doubleSided":true,"name":"Mullions_Wood"}],"meshes":[{"primitives":[{"mode":4,"attributes":{"POSITION":0,"NORMAL":1,"TEXCOORD_0":2},"indices":3,"material":0}]}]}