{"asset":{"version":"2.0","generator":"THREE.GLTFExporter"},"scenes":[{"nodes":[0]}],"scene":0,"nodes":[{"matrix":[0.02539999969303608,0,0,0,0,0.02539999969303608,0,0,0,0,0.02539999969303608,0,-57.045848926213694,5.824658434724427,25.118173345388172,1],"name":"网格.277_2","mesh":0}],"bufferViews":[{"buffer":0,"byteOffset":0,"byteLength":2640,"target":34962,"byteStride":12},{"buffer":0,"byteOffset":2640,"byteLength":2640,"target":34962,"byteStride":12},{"buffer":0,"byteOffset":5280,"byteLength":1760,"target":34962,"byteStride":8},{"buffer":0,"byteOffset":7040,"byteLength":600,"target":34963}],"buffers":[{"byteLength":7640,"uri":"data:application/octet-stream;base64,"}],"accessors":[{"bufferView":0,"componentType":5126,"count":220,"max":[14.758966445922852,56.989139556884766,55.323646545410156],"min":[-37.98845672607422,18.575719833374023,2.6512279510498047],"type":"VEC3"},{"bufferView":1,"componentType":5126,"count":220,"max":[0.8722288012504578,0.992544949054718,0.8665382266044617],"min":[-0.8707855939865112,0.46932998299598694,-0.8734326958656311],"type":"VEC3"},{"bufferView":2,"componentType":5126,"count":220,"max":[0.9335894584655762,0.9995005130767822],"min":[-0.07364165782928467,-0.475750207901001],"type":"VEC2"},{"bufferView":3,"componentType":5123,"count":300,"max":[219],"min":[0],"type":"SCALAR"}],"materials":[{"pbrMetallicRoughness":{"baseColorFactor":[0.4666666666666667,0.4745098039215686,0.4666666666666667,1],"metallicFactor":0,"roughnessFactor":1}}],"meshes":[{"primitives":[{"mode":4,"attributes":{"POSITION":0,"NORMAL":1,"TEXCOORD_0":2},"indices":3,"material":0}]}]}