{"asset":{"version":"2.0","generator":"THREE.GLTFExporter"},"scenes":[{"nodes":[0]}],"scene":0,"nodes":[{"matrix":[0.02539999969303608,0,0,0,0,0.02539999969303608,0,0,0,0,0.02539999969303608,0,43.3983364687374,10.098922441831832,25.346151234206616,1],"name":"Tavern_PlasterYellow","extras":{"name":"Tavern_PlasterYellow"},"mesh":0}],"bufferViews":[{"buffer":0,"byteOffset":0,"byteLength":14724,"target":34962,"byteStride":12},{"buffer":0,"byteOffset":14724,"byteLength":14724,"target":34962,"byteStride":12},{"buffer":0,"byteOffset":29448,"byteLength":9816,"target":34962,"byteStride":8},{"buffer":0,"byteOffset":39264,"byteLength":4440,"target":34963}],"buffers":[{"byteLength":43704,"uri":"data:application/octet-stream;base64,"}],"accessors":[{"bufferView":0,"componentType":5126,"count":1227,"max":[90.6392822265625,192.71824645996094,192.5164794921875],"min":[-90.63934326171875,-192.71824645996094,-192.51641845703125],"type":"VEC3"},{"bufferView":1,"componentType":5126,"count":1227,"max":[1,1,1],"min":[-1,-1,-1],"type":"VEC3"},{"bufferView":2,"componentType":5126,"count":1227,"max":[19.220964431762695,19.220964431762695],"min":[-18.220964431762695,2.8808677196502686],"type":"VEC2"},{"bufferView":3,"componentType":5123,"count":2220,"max":[1226],"min":[0],"type":"SCALAR"}],"materials":[{"pbrMetallicRoughness":{"baseColorFactor":[0.7372549176216125,0.6000000238418579,0.3803921937942505,1],"metallicFactor":1,"roughnessFactor":0.858578622341156},"doubleSided":true,"name":"PlasterYellow"}],"meshes":[{"primitives":[{"mode":4,"attributes":{"POSITION":0,"NORMAL":1,"TEXCOORD_0":2},"indices":3,"material":0}]}]}