{"asset":{"version":"2.0","generator":"THREE.GLTFExporter"},"scenes":[{"nodes":[0]}],"scene":0,"nodes":[{"matrix":[0.02539999969303608,0,0,0,0,0.02539999969303608,0,0,0,0,0.02539999969303608,0,-64.88295185884454,1.882042546092407,25.689831662149004,1],"name":"网格.270_1","mesh":0}],"bufferViews":[{"buffer":0,"byteOffset":0,"byteLength":288,"target":34962,"byteStride":12},{"buffer":0,"byteOffset":288,"byteLength":288,"target":34962,"byteStride":12},{"buffer":0,"byteOffset":576,"byteLength":192,"target":34962,"byteStride":8},{"buffer":0,"byteOffset":768,"byteLength":72,"target":34963}],"buffers":[{"byteLength":840,"uri":"data:application/octet-stream;base64,"}],"accessors":[{"bufferView":0,"componentType":5126,"count":24,"max":[3.4071550369262695,-2.3629887104034424,9.257376670837402],"min":[-3.4071550369262695,-8.286242485046387,3.2335293292999268],"type":"VEC3"},{"bufferView":1,"componentType":5126,"count":24,"max":[0.8660792708396912,2.017345508420476e-7,1],"min":[-0.8660792708396912,-2.017345508420476e-7,-1],"type":"VEC3"},{"bufferView":2,"componentType":5126,"count":24,"max":[0.77173912525177,0.5993158221244812],"min":[0.000679941731505096,0.1868910789489746],"type":"VEC2"},{"bufferView":3,"componentType":5123,"count":36,"max":[23],"min":[0],"type":"SCALAR"}],"materials":[{"pbrMetallicRoughness":{"baseColorFactor":[0.41960787773132324,0.6274510025978088,0.7568628191947937,1],"metallicFactor":1,"roughnessFactor":0.858578622341156},"doubleSided":true,"name":"Glass"}],"meshes":[{"primitives":[{"mode":4,"attributes":{"POSITION":0,"NORMAL":1,"TEXCOORD_0":2},"indices":3,"material":0}]}]}