{"asset":{"version":"2.0","generator":"THREE.GLTFExporter"},"scenes":[{"nodes":[0]}],"scene":0,"nodes":[{"matrix":[0.02539999969303608,0,0,0,0,0.02539999969303608,0,0,0,0,0.02539999969303608,0,117.06803349984739,37.337571429263676,-48.53801602164458,1],"name":"HouseLG06_Mullions_Wood","extras":{"name":"HouseLG06_Mullions_Wood"},"mesh":0}],"bufferViews":[{"buffer":0,"byteOffset":0,"byteLength":47496,"target":34962,"byteStride":12},{"buffer":0,"byteOffset":47496,"byteLength":47496,"target":34962,"byteStride":12},{"buffer":0,"byteOffset":94992,"byteLength":31664,"target":34962,"byteStride":8},{"buffer":0,"byteOffset":126656,"byteLength":13824,"target":34963}],"buffers":[{"byteLength":140480,"uri":"data:application/octet-stream;base64,"}],"accessors":[{"bufferView":0,"componentType":5126,"count":3958,"max":[181.33642578125,-158.9742431640625,299.1727294921875],"min":[-181.3319091796875,-232.62973022460938,-299.17266845703125],"type":"VEC3"},{"bufferView":1,"componentType":5126,"count":3958,"max":[1,1,0.9999991655349731],"min":[-1,-1,-0.9999995231628418],"type":"VEC3"},{"bufferView":2,"componentType":5126,"count":3958,"max":[65.41032409667969,9.493282318115234],"min":[-64.41033172607422,-10.45150375366211],"type":"VEC2"},{"bufferView":3,"componentType":5123,"count":6912,"max":[3957],"min":[0],"type":"SCALAR"}],"materials":[{"pbrMetallicRoughness":{"baseColorFactor":[0.7058823704719543,0.8588235974311829,0.6549019813537598,1],"metallicFactor":1,"roughnessFactor":0.858578622341156},"doubleSided":true,"name":"Mullions_Wood"}],"meshes":[{"primitives":[{"mode":4,"attributes":{"POSITION":0,"NORMAL":1,"TEXCOORD_0":2},"indices":3,"material":0}]}]}