{"asset":{"version":"2.0","generator":"THREE.GLTFExporter"},"scenes":[{"nodes":[0]}],"scene":0,"nodes":[{"matrix":[0.02539999969303608,0,0,0,0,0.02539999969303608,0,0,0,0,0.02539999969303608,0,16.986922897185423,12.33392354382977,-4.899632854282345,1],"name":"HouseMD04_Mullions_Wood","extras":{"name":"HouseMD04_Mullions_Wood"},"mesh":0}],"bufferViews":[{"buffer":0,"byteOffset":0,"byteLength":258276,"target":34962,"byteStride":12},{"buffer":0,"byteOffset":258276,"byteLength":258276,"target":34962,"byteStride":12},{"buffer":0,"byteOffset":516552,"byteLength":172184,"target":34962,"byteStride":8},{"buffer":0,"byteOffset":688736,"byteLength":71904,"target":34963}],"buffers":[{"byteLength":760640,"uri":"data:application/octet-stream;base64,"}],"accessors":[{"bufferView":0,"componentType":5126,"count":21523,"max":[187.52793884277344,28.483341217041016,123.47494506835938],"min":[-187.52798461914062,-28.483413696289062,-123.47508239746094],"type":"VEC3"},{"bufferView":1,"componentType":5126,"count":21523,"max":[1,1,1],"min":[-1,-1,-1],"type":"VEC3"},{"bufferView":2,"componentType":5126,"count":21523,"max":[97.69186401367188,10.113213539123535],"min":[-96.69186401367188,-0.8249578475952148],"type":"VEC2"},{"bufferView":3,"componentType":5123,"count":35952,"max":[21522],"min":[0],"type":"SCALAR"}],"materials":[{"pbrMetallicRoughness":{"baseColorFactor":[0.7058823704719543,0.8588235974311829,0.6549019813537598,1],"metallicFactor":1,"roughnessFactor":0.858578622341156},"doubleSided":true,"name":"Mullions_Wood"}],"meshes":[{"primitives":[{"mode":4,"attributes":{"POSITION":0,"NORMAL":1,"TEXCOORD_0":2},"indices":3,"material":0}]}]}