{"asset":{"version":"2.0","generator":"THREE.GLTFExporter"},"scenes":[{"nodes":[0]}],"scene":0,"nodes":[{"matrix":[0.02539999969303608,0,0,0,0,0.02539999969303608,0,0,0,0,0.02539999969303608,0,60.135549066162184,18.74237843212768,-5.990738671600411,1],"name":"HouseMD06_Glass","extras":{"name":"HouseMD06_Glass"},"mesh":0}],"bufferViews":[{"buffer":0,"byteOffset":0,"byteLength":8544,"target":34962,"byteStride":12},{"buffer":0,"byteOffset":8544,"byteLength":8544,"target":34962,"byteStride":12},{"buffer":0,"byteOffset":17088,"byteLength":5696,"target":34962,"byteStride":8},{"buffer":0,"byteOffset":22784,"byteLength":2136,"target":34963}],"buffers":[{"byteLength":24920,"uri":"data:application/octet-stream;base64,"}],"accessors":[{"bufferView":0,"componentType":5126,"count":712,"max":[144.21875,344.04742431640625,127.33465576171875],"min":[-144.2186279296875,-344.0474548339844,-127.334716796875],"type":"VEC3"},{"bufferView":1,"componentType":5126,"count":712,"max":[1,0.0000017900313196150819,1],"min":[-1,-0.0000029359193831623998,-1],"type":"VEC3"},{"bufferView":2,"componentType":5126,"count":712,"max":[0.9350249767303467,0.7456470131874084],"min":[0.10647299885749817,-0.003029942512512207],"type":"VEC2"},{"bufferView":3,"componentType":5123,"count":1068,"max":[711],"min":[0],"type":"SCALAR"}],"materials":[{"pbrMetallicRoughness":{"baseColorFactor":[0.41960787773132324,0.6274510025978088,0.7568628191947937,1],"metallicFactor":1,"roughnessFactor":0.858578622341156},"doubleSided":true,"name":"Glass"}],"meshes":[{"primitives":[{"mode":4,"attributes":{"POSITION":0,"NORMAL":1,"TEXCOORD_0":2},"indices":3,"material":0}]}]}