{"asset":{"version":"2.0","generator":"THREE.GLTFExporter"},"scenes":[{"nodes":[0]}],"scene":0,"nodes":[{"matrix":[0.02539999969303608,0,0,0,0,0.02539999969303608,0,0,0,0,0.02539999969303608,0,20.695783615112305,11.262534331496028,23.628195716204004,1],"name":"Turret_Stone_Stacked","extras":{"name":"Turret_Stone_Stacked"},"mesh":0}],"bufferViews":[{"buffer":0,"byteOffset":0,"byteLength":38220,"target":34962,"byteStride":12},{"buffer":0,"byteOffset":38220,"byteLength":38220,"target":34962,"byteStride":12},{"buffer":0,"byteOffset":76440,"byteLength":25480,"target":34962,"byteStride":8},{"buffer":0,"byteOffset":101920,"byteLength":17940,"target":34963}],"buffers":[{"byteLength":119860,"uri":"data:application/octet-stream;base64,"}],"accessors":[{"bufferView":0,"componentType":5126,"count":3185,"max":[70.23365020751953,191.4315185546875,70.97799682617188],"min":[-70.23343658447266,-188.96986389160156,-69.48908996582031],"type":"VEC3"},{"bufferView":1,"componentType":5126,"count":3185,"max":[1,1,1],"min":[-1,-1,-1],"type":"VEC3"},{"bufferView":2,"componentType":5126,"count":3185,"max":[14.023372650146484,12.579261779785156],"min":[-11.523372650146484,2.528913974761963],"type":"VEC2"},{"bufferView":3,"componentType":5123,"count":8970,"max":[3184],"min":[0],"type":"SCALAR"}],"materials":[{"pbrMetallicRoughness":{"baseColorFactor":[0.40000003576278687,0.41960787773132324,0.7921569347381592,1],"metallicFactor":1,"roughnessFactor":0.858578622341156},"doubleSided":true,"name":"Stone_Stacked"}],"meshes":[{"primitives":[{"mode":4,"attributes":{"POSITION":0,"NORMAL":1,"TEXCOORD_0":2},"indices":3,"material":0}]}]}