{"asset":{"version":"2.0","generator":"THREE.GLTFExporter"},"scenes":[{"nodes":[0]}],"scene":0,"nodes":[{"matrix":[0.02539999969303608,0,0,0,0,0.02539999969303608,0,0,0,0,0.02539999969303608,0,93.27174909628684,9.33811214897716,26.27835467624368,1],"name":"HouseSM03_RoofTiles","extras":{"name":"HouseSM03_RoofTiles"},"mesh":0}],"bufferViews":[{"buffer":0,"byteOffset":0,"byteLength":7224,"target":34962,"byteStride":12},{"buffer":0,"byteOffset":7224,"byteLength":7224,"target":34962,"byteStride":12},{"buffer":0,"byteOffset":14448,"byteLength":4816,"target":34962,"byteStride":8},{"buffer":0,"byteOffset":19264,"byteLength":1800,"target":34963}],"buffers":[{"byteLength":21064,"uri":"data:application/octet-stream;base64,"}],"accessors":[{"bufferView":0,"componentType":5126,"count":602,"max":[342.42681884765625,126.69793701171875,205.13137817382812],"min":[-342.4267272949219,-126.69791412353516,-205.13137817382812],"type":"VEC3"},{"bufferView":1,"componentType":5126,"count":602,"max":[1,1,1.0000001192092896],"min":[-1,-1.0000001192092896,-0.9999945163726807],"type":"VEC3"},{"bufferView":2,"componentType":5126,"count":602,"max":[20.235536575317383,19.297245025634766],"min":[-19.235530853271484,4.087868690490723],"type":"VEC2"},{"bufferView":3,"componentType":5123,"count":900,"max":[601],"min":[0],"type":"SCALAR"}],"materials":[{"pbrMetallicRoughness":{"baseColorFactor":[0.4666666666666667,0.4745098039215686,0.4666666666666667,1],"metallicFactor":0,"roughnessFactor":1}}],"meshes":[{"primitives":[{"mode":4,"attributes":{"POSITION":0,"NORMAL":1,"TEXCOORD_0":2},"indices":3,"material":0}]}]}