{"asset":{"version":"2.0","generator":"THREE.GLTFExporter"},"scenes":[{"nodes":[0]}],"scene":0,"nodes":[{"matrix":[0.02539999969303608,0,0,0,0,0.02539999969303608,0,0,0,0,0.02539999969303608,0,-31.72677963614592,13.422240508672104,-5.816209683301395,1],"name":"HouseMD02_Glass","extras":{"name":"HouseMD02_Glass"},"mesh":0}],"bufferViews":[{"buffer":0,"byteOffset":0,"byteLength":16812,"target":34962,"byteStride":12},{"buffer":0,"byteOffset":16812,"byteLength":16812,"target":34962,"byteStride":12},{"buffer":0,"byteOffset":33624,"byteLength":11208,"target":34962,"byteStride":8},{"buffer":0,"byteOffset":44832,"byteLength":8112,"target":34963}],"buffers":[{"byteLength":52944,"uri":"data:application/octet-stream;base64,"}],"accessors":[{"bufferView":0,"componentType":5126,"count":1401,"max":[184.844482421875,208.23562622070312,79.05499267578125],"min":[-184.8447265625,-208.23561096191406,-79.054931640625],"type":"VEC3"},{"bufferView":1,"componentType":5126,"count":1401,"max":[1,1,1],"min":[-1,-1,-1],"type":"VEC3"},{"bufferView":2,"componentType":5126,"count":1401,"max":[0.8667140007019043,0.8452630043029785],"min":[0.15439200401306152,0.006528019905090332],"type":"VEC2"},{"bufferView":3,"componentType":5123,"count":4056,"max":[1400],"min":[0],"type":"SCALAR"}],"materials":[{"pbrMetallicRoughness":{"baseColorFactor":[0.41960787773132324,0.6274510025978088,0.7568628191947937,1],"metallicFactor":1,"roughnessFactor":0.858578622341156},"doubleSided":true,"name":"Glass"}],"meshes":[{"primitives":[{"mode":4,"attributes":{"POSITION":0,"NORMAL":1,"TEXCOORD_0":2},"indices":3,"material":0}]}]}