{"asset":{"version":"2.0","generator":"THREE.GLTFExporter"},"scenes":[{"nodes":[0]}],"scene":0,"nodes":[{"matrix":[0.02539999969303608,0,0,0,0,0.02539999969303608,0,0,0,0,0.02539999969303608,0,-45.29678017171909,1.528859069525737,25.079651859952833,1],"name":"网格.255_1","mesh":0}],"bufferViews":[{"buffer":0,"byteOffset":0,"byteLength":237660,"target":34962,"byteStride":12},{"buffer":0,"byteOffset":237660,"byteLength":237660,"target":34962,"byteStride":12},{"buffer":0,"byteOffset":475320,"byteLength":158440,"target":34962,"byteStride":8},{"buffer":0,"byteOffset":633760,"byteLength":75732,"target":34963}],"buffers":[{"byteLength":709492,"uri":"data:application/octet-stream;base64,"}],"accessors":[{"bufferView":0,"componentType":5126,"count":19805,"max":[103.03018188476562,42.22587203979492,13.659036636352539],"min":[-107.66062927246094,-63.249176025390625,-14.783830642700195],"type":"VEC3"},{"bufferView":1,"componentType":5126,"count":19805,"max":[1,1,1],"min":[-1,-1,-1],"type":"VEC3"},{"bufferView":2,"componentType":5126,"count":19805,"max":[4.011513710021973,1.8168176412582397],"min":[-3.0115137100219727,-1.2579174041748047],"type":"VEC2"},{"bufferView":3,"componentType":5123,"count":37866,"max":[19804],"min":[0],"type":"SCALAR"}],"materials":[{"pbrMetallicRoughness":{"baseColorFactor":[0.7058823704719543,0.8588235974311829,0.6549019813537598,1],"metallicFactor":1,"roughnessFactor":0.858578622341156},"doubleSided":true,"name":"Mullions_Wood"}],"meshes":[{"primitives":[{"mode":4,"attributes":{"POSITION":0,"NORMAL":1,"TEXCOORD_0":2},"indices":3,"material":0}]}]}