{"asset":{"version":"2.0","generator":"THREE.GLTFExporter"},"scenes":[{"nodes":[0]}],"scene":0,"nodes":[{"matrix":[0.02539999969303608,0,0,0,0,0.02539999969303608,0,0,0,0,0.02539999969303608,0,-50.0099559936657,5.364750078466102,25.2249362072571,1],"name":"网格.279_1","mesh":0}],"bufferViews":[{"buffer":0,"byteOffset":0,"byteLength":288,"target":34962,"byteStride":12},{"buffer":0,"byteOffset":288,"byteLength":288,"target":34962,"byteStride":12},{"buffer":0,"byteOffset":576,"byteLength":192,"target":34962,"byteStride":8},{"buffer":0,"byteOffset":768,"byteLength":72,"target":34963}],"buffers":[{"byteLength":840,"uri":"data:application/octet-stream;base64,"}],"accessors":[{"bufferView":0,"componentType":5126,"count":24,"max":[13.057271003723145,26.0714168548584,8.435437202453613],"min":[-13.057271003723145,-23.9229793548584,3.6608760356903076],"type":"VEC3"},{"bufferView":1,"componentType":5126,"count":24,"max":[0.49082785844802856,0.000012062982932548039,0.9672670364379883],"min":[-0.49082785844802856,-0.000012335804967733566,0.8712565898895264],"type":"VEC3"},{"bufferView":2,"componentType":5126,"count":24,"max":[0.7906249165534973,0.9903846383094788],"min":[0.009376841597259045,0.00961536169052124],"type":"VEC2"},{"bufferView":3,"componentType":5123,"count":36,"max":[23],"min":[0],"type":"SCALAR"}],"materials":[{"pbrMetallicRoughness":{"baseColorFactor":[0.41960787773132324,0.6274510025978088,0.7568628191947937,1],"metallicFactor":1,"roughnessFactor":0.858578622341156},"doubleSided":true,"name":"Glass"}],"meshes":[{"primitives":[{"mode":4,"attributes":{"POSITION":0,"NORMAL":1,"TEXCOORD_0":2},"indices":3,"material":0}]}]}