{"asset":{"version":"2.0","generator":"THREE.GLTFExporter"},"scenes":[{"nodes":[0]}],"scene":0,"nodes":[{"matrix":[0.02539999969303608,0,0,0,0,0.02539999969303608,0,0,0,0,0.02539999969303608,0,92.99397380667506,7.742323526905153,26.098936947699087,1],"name":"HouseSM03_WoodDark","extras":{"name":"HouseSM03_WoodDark"},"mesh":0}],"bufferViews":[{"buffer":0,"byteOffset":0,"byteLength":35316,"target":34962,"byteStride":12},{"buffer":0,"byteOffset":35316,"byteLength":35316,"target":34962,"byteStride":12},{"buffer":0,"byteOffset":70632,"byteLength":23544,"target":34962,"byteStride":8},{"buffer":0,"byteOffset":94176,"byteLength":9132,"target":34963}],"buffers":[{"byteLength":103308,"uri":"data:application/octet-stream;base64,"}],"accessors":[{"bufferView":0,"componentType":5126,"count":2943,"max":[307.8757629394531,95.00392150878906,192.650390625],"min":[-307.87591552734375,-95.00393676757812,-192.65045166015625],"type":"VEC3"},{"bufferView":1,"componentType":5126,"count":2943,"max":[1.0000001192092896,1,1.0000001192092896],"min":[-1,-1,-1.0000001192092896],"type":"VEC3"},{"bufferView":2,"componentType":5126,"count":2943,"max":[76.59558868408203,76.59599304199219],"min":[-75.59558868408203,9.93850326538086],"type":"VEC2"},{"bufferView":3,"componentType":5123,"count":4566,"max":[2942],"min":[0],"type":"SCALAR"}],"materials":[{"pbrMetallicRoughness":{"baseColorFactor":[0.07058823853731155,0.003921568859368563,0.003921568859368563,1],"metallicFactor":1,"roughnessFactor":0.858578622341156},"doubleSided":true,"name":"WoodDark"}],"meshes":[{"primitives":[{"mode":4,"attributes":{"POSITION":0,"NORMAL":1,"TEXCOORD_0":2},"indices":3,"material":0}]}]}