{"asset":{"version":"2.0","generator":"THREE.GLTFExporter"},"scenes":[{"nodes":[0]}],"scene":0,"nodes":[{"matrix":[0.02539999969303608,0,0,0,0,0.02539999969303608,0,0,0,0,0.02539999969303608,0,9.07226894702626,5.599029364712621,25.75441068234977,1],"name":"HouseCabin_WoodDark","extras":{"name":"HouseCabin_WoodDark"},"mesh":0}],"bufferViews":[{"buffer":0,"byteOffset":0,"byteLength":37536,"target":34962,"byteStride":12},{"buffer":0,"byteOffset":37536,"byteLength":37536,"target":34962,"byteStride":12},{"buffer":0,"byteOffset":75072,"byteLength":25024,"target":34962,"byteStride":8},{"buffer":0,"byteOffset":100096,"byteLength":8952,"target":34963}],"buffers":[{"byteLength":109048,"uri":"data:application/octet-stream;base64,"}],"accessors":[{"bufferView":0,"componentType":5126,"count":3128,"max":[20.347103118896484,79.15467834472656,32.58131790161133],"min":[-20.347190856933594,-79.15467834472656,-32.58132553100586],"type":"VEC3"},{"bufferView":1,"componentType":5126,"count":3128,"max":[1,1,1],"min":[-1,-1,-1],"type":"VEC3"},{"bufferView":2,"componentType":5126,"count":3128,"max":[24.27987289428711,24.280683517456055],"min":[-23.27987289428711,-21.75663185119629],"type":"VEC2"},{"bufferView":3,"componentType":5123,"count":4476,"max":[3127],"min":[0],"type":"SCALAR"}],"materials":[{"pbrMetallicRoughness":{"baseColorFactor":[0.07058823853731155,0.003921568859368563,0.003921568859368563,1],"metallicFactor":1,"roughnessFactor":0.858578622341156},"doubleSided":true,"name":"WoodDark"}],"meshes":[{"primitives":[{"mode":4,"attributes":{"POSITION":0,"NORMAL":1,"TEXCOORD_0":2},"indices":3,"material":0}]}]}