{"asset":{"version":"2.0","generator":"THREE.GLTFExporter"},"scenes":[{"nodes":[0]}],"scene":0,"nodes":[{"matrix":[0.02539999969303608,0,0,0,0,0.02539999969303608,0,0,0,0,0.02539999969303608,0,119.84321116943374,16.64031055981701,-4.4903742682961365,1],"name":"HouseLG02_RoofTiles","extras":{"name":"HouseLG02_RoofTiles"},"mesh":0}],"bufferViews":[{"buffer":0,"byteOffset":0,"byteLength":2256,"target":34962,"byteStride":12},{"buffer":0,"byteOffset":2256,"byteLength":2256,"target":34962,"byteStride":12},{"buffer":0,"byteOffset":4512,"byteLength":1504,"target":34962,"byteStride":8},{"buffer":0,"byteOffset":6016,"byteLength":564,"target":34963}],"buffers":[{"byteLength":6580,"uri":"data:application/octet-stream;base64,"}],"accessors":[{"bufferView":0,"componentType":5126,"count":188,"max":[507.57177734375,119.19378662109375,470.708740234375],"min":[-507.57275390625,-119.19364929199219,-470.7080078125],"type":"VEC3"},{"bufferView":1,"componentType":5126,"count":188,"max":[0.8479912281036377,1,0.7806416749954224],"min":[-0.9925028681755066,-0.9972984194755554,-0.7840617895126343],"type":"VEC3"},{"bufferView":2,"componentType":5126,"count":188,"max":[23.639118194580078,19.459474563598633],"min":[-22.639118194580078,3.138720750808716],"type":"VEC2"},{"bufferView":3,"componentType":5123,"count":282,"max":[187],"min":[0],"type":"SCALAR"}],"materials":[{"pbrMetallicRoughness":{"baseColorFactor":[0.4666666666666667,0.4745098039215686,0.4666666666666667,1],"metallicFactor":0,"roughnessFactor":1}}],"meshes":[{"primitives":[{"mode":4,"attributes":{"POSITION":0,"NORMAL":1,"TEXCOORD_0":2},"indices":3,"material":0}]}]}