{"asset":{"version":"2.0","generator":"THREE.GLTFExporter"},"scenes":[{"nodes":[0]}],"scene":0,"nodes":[{"matrix":[0.02539999969303608,0,0,0,0,0.02539999969303608,0,0,0,0,0.02539999969303608,0,-59.25861305962826,5.5411439606116915,25.07428338925355,1],"name":"网格276","mesh":0}],"bufferViews":[{"buffer":0,"byteOffset":0,"byteLength":14592,"target":34962,"byteStride":12},{"buffer":0,"byteOffset":14592,"byteLength":14592,"target":34962,"byteStride":12},{"buffer":0,"byteOffset":29184,"byteLength":9728,"target":34962,"byteStride":8},{"buffer":0,"byteOffset":38912,"byteLength":4308,"target":34963}],"buffers":[{"byteLength":43220,"uri":"data:application/octet-stream;base64,"}],"accessors":[{"bufferView":0,"componentType":5126,"count":1216,"max":[20.025468826293945,28.546329498291016,2.128220319747925],"min":[-20.025468826293945,-28.546329498291016,-2.1282196044921875],"type":"VEC3"},{"bufferView":1,"componentType":5126,"count":1216,"max":[1,1,1],"min":[-1,-1,-1],"type":"VEC3"},{"bufferView":2,"componentType":5126,"count":1216,"max":[3.492999792098999,0.9929999709129333],"min":[0.007000000216066837,-2.4908432960510254],"type":"VEC2"},{"bufferView":3,"componentType":5123,"count":2154,"max":[1215],"min":[0],"type":"SCALAR"}],"materials":[{"pbrMetallicRoughness":{"baseColorFactor":[0.12941177189350128,0.03921568766236305,0.007843137718737125,1],"metallicFactor":1,"roughnessFactor":0.858578622341156},"doubleSided":true,"name":"Wood_Beams"}],"meshes":[{"primitives":[{"mode":4,"attributes":{"POSITION":0,"NORMAL":1,"TEXCOORD_0":2},"indices":3,"material":0}]}]}