{"asset":{"version":"2.0","generator":"THREE.GLTFExporter"},"scenes":[{"nodes":[0]}],"scene":0,"nodes":[{"matrix":[0.02539999969303608,0,0,0,0,0.02539999969303608,0,0,0,0,0.02539999969303608,0,-2.6571882629834818,8.258712802848407,25.16822807926789,1],"name":"GateHouseSM_Mullions_Wood","extras":{"name":"GateHouseSM_Mullions_Wood"},"mesh":0}],"bufferViews":[{"buffer":0,"byteOffset":0,"byteLength":11292,"target":34962,"byteStride":12},{"buffer":0,"byteOffset":11292,"byteLength":11292,"target":34962,"byteStride":12},{"buffer":0,"byteOffset":22584,"byteLength":7528,"target":34962,"byteStride":8},{"buffer":0,"byteOffset":30112,"byteLength":3168,"target":34963}],"buffers":[{"byteLength":33280,"uri":"data:application/octet-stream;base64,"}],"accessors":[{"bufferView":0,"componentType":5126,"count":941,"max":[38.07292938232422,90.50785827636719,60.28356170654297],"min":[-43.24214553833008,-11.41815185546875,-49.330787658691406],"type":"VEC3"},{"bufferView":1,"componentType":5126,"count":941,"max":[1,1,1],"min":[-1,-1,-1],"type":"VEC3"},{"bufferView":2,"componentType":5126,"count":941,"max":[124.23043060302734,44.73612594604492],"min":[-123.23043060302734,5.640693664550781],"type":"VEC2"},{"bufferView":3,"componentType":5123,"count":1584,"max":[940],"min":[0],"type":"SCALAR"}],"materials":[{"pbrMetallicRoughness":{"baseColorFactor":[0.7058823704719543,0.8588235974311829,0.6549019813537598,1],"metallicFactor":1,"roughnessFactor":0.858578622341156},"doubleSided":true,"name":"Mullions_Wood"}],"meshes":[{"primitives":[{"mode":4,"attributes":{"POSITION":0,"NORMAL":1,"TEXCOORD_0":2},"indices":3,"material":0}]}]}