{"asset":{"version":"2.0","generator":"THREE.GLTFExporter"},"scenes":[{"nodes":[0]}],"scene":0,"nodes":[{"matrix":[0.02539999969303608,0,0,0,0,0.02539999969303608,0,0,0,0,0.02539999969303608,0,148.43177483635463,34.64183642651608,-127.59328865851148,1],"name":"ManorLG_PlasterBrown","extras":{"name":"ManorLG_PlasterBrown"},"mesh":0}],"bufferViews":[{"buffer":0,"byteOffset":0,"byteLength":377892,"target":34962,"byteStride":12},{"buffer":0,"byteOffset":377892,"byteLength":377892,"target":34962,"byteStride":12},{"buffer":0,"byteOffset":755784,"byteLength":251928,"target":34962,"byteStride":8},{"buffer":0,"byteOffset":1007712,"byteLength":117120,"target":34963}],"buffers":[{"byteLength":1124832,"uri":"data:application/octet-stream;base64,"}],"accessors":[{"bufferView":0,"componentType":5126,"count":31491,"max":[588.841552734375,360.60626220703125,289.07110595703125],"min":[-591.6472778320312,-360.6063232421875,-286.3611145019531],"type":"VEC3"},{"bufferView":1,"componentType":5126,"count":31491,"max":[1,1,1],"min":[-1,-1,-1],"type":"VEC3"},{"bufferView":2,"componentType":5126,"count":31491,"max":[23.490623474121094,2.6545822620391846],"min":[-22.490623474121094,-15.443960189819336],"type":"VEC2"},{"bufferView":3,"componentType":5123,"count":58560,"max":[31490],"min":[0],"type":"SCALAR"}],"materials":[{"pbrMetallicRoughness":{"baseColorFactor":[0.5803921818733215,0.13725490868091583,0.13725490868091583,1],"metallicFactor":1,"roughnessFactor":0.858578622341156},"doubleSided":true,"name":"PlasterBrown"}],"meshes":[{"primitives":[{"mode":4,"attributes":{"POSITION":0,"NORMAL":1,"TEXCOORD_0":2},"indices":3,"material":0}]}]}