{"asset":{"version":"2.0","generator":"THREE.GLTFExporter"},"scenes":[{"nodes":[0]}],"scene":0,"nodes":[{"matrix":[0.02539999969303608,0,0,0,0,0.02539999969303608,0,0,0,0,0.02539999969303608,0,-65.42364443043516,1.763703452979101,25.58707204425025,1],"name":"网格.269_1","mesh":0}],"bufferViews":[{"buffer":0,"byteOffset":0,"byteLength":288,"target":34962,"byteStride":12},{"buffer":0,"byteOffset":288,"byteLength":288,"target":34962,"byteStride":12},{"buffer":0,"byteOffset":576,"byteLength":192,"target":34962,"byteStride":8},{"buffer":0,"byteOffset":768,"byteLength":72,"target":34963}],"buffers":[{"byteLength":840,"uri":"data:application/octet-stream;base64,"}],"accessors":[{"bufferView":0,"componentType":5126,"count":24,"max":[4.580045700073242,2.4012837409973145,4.927402496337891],"min":[-4.583951950073242,-9.531402587890625,-3.0078468322753906],"type":"VEC3"},{"bufferView":1,"componentType":5126,"count":24,"max":[0.8661727905273438,1.5698192612489947e-7,0.9999999403953552],"min":[-0.8658230304718018,-1.7442437183490256e-7,-0.9999999403953552],"type":"VEC3"},{"bufferView":2,"componentType":5126,"count":24,"max":[0.9682239294052124,1.482664704322815],"min":[0.3045184016227722,0.2742237448692322],"type":"VEC2"},{"bufferView":3,"componentType":5123,"count":36,"max":[23],"min":[0],"type":"SCALAR"}],"materials":[{"pbrMetallicRoughness":{"baseColorFactor":[0.41960787773132324,0.6274510025978088,0.7568628191947937,1],"metallicFactor":1,"roughnessFactor":0.858578622341156},"doubleSided":true,"name":"Glass"}],"meshes":[{"primitives":[{"mode":4,"attributes":{"POSITION":0,"NORMAL":1,"TEXCOORD_0":2},"indices":3,"material":0}]}]}