{"asset":{"version":"2.0","generator":"THREE.GLTFExporter"},"scenes":[{"nodes":[0]}],"scene":0,"nodes":[{"matrix":[0.02539999969303608,0,0,0,0,0.02539999969303608,0,0,0,0,0.02539999969303608,0,-51.75018153415817,4.99657565664603,25.23092925222862,1],"name":"网格278","mesh":0}],"bufferViews":[{"buffer":0,"byteOffset":0,"byteLength":51048,"target":34962,"byteStride":12},{"buffer":0,"byteOffset":51048,"byteLength":51048,"target":34962,"byteStride":12},{"buffer":0,"byteOffset":102096,"byteLength":34032,"target":34962,"byteStride":8},{"buffer":0,"byteOffset":136128,"byteLength":13164,"target":34963}],"buffers":[{"byteLength":149292,"uri":"data:application/octet-stream;base64,"}],"accessors":[{"bufferView":0,"componentType":5126,"count":4254,"max":[18.812026977539062,45.55683517456055,11.162995338439941],"min":[-18.812026977539062,-45.55683517456055,-11.162993431091309],"type":"VEC3"},{"bufferView":1,"componentType":5126,"count":4254,"max":[1.0000001192092896,1,1.0000001192092896],"min":[-1.0000001192092896,-1,-1.0000001192092896],"type":"VEC3"},{"bufferView":2,"componentType":5126,"count":4254,"max":[0.9980158805847168,0.997710645198822],"min":[0.0019841270986944437,0.001984119415283203],"type":"VEC2"},{"bufferView":3,"componentType":5123,"count":6582,"max":[4253],"min":[0],"type":"SCALAR"}],"materials":[{"pbrMetallicRoughness":{"baseColorFactor":[0.5803921818733215,0.13725490868091583,0.13725490868091583,1],"metallicFactor":1,"roughnessFactor":0.858578622341156},"doubleSided":true,"name":"PlasterBrown"}],"meshes":[{"primitives":[{"mode":4,"attributes":{"POSITION":0,"NORMAL":1,"TEXCOORD_0":2},"indices":3,"material":0}]}]}