{"asset":{"version":"2.0","generator":"THREE.GLTFExporter"},"scenes":[{"nodes":[0]}],"scene":0,"nodes":[{"matrix":[0.02539999969303608,0,0,0,0,0.02539999969303608,0,0,0,0,0.02539999969303608,0,20.241671804194084,11.001981246265956,22.32156221225005,1],"name":"Turret_WoodDark","extras":{"name":"Turret_WoodDark"},"mesh":0}],"bufferViews":[{"buffer":0,"byteOffset":0,"byteLength":7968,"target":34962,"byteStride":12},{"buffer":0,"byteOffset":7968,"byteLength":7968,"target":34962,"byteStride":12},{"buffer":0,"byteOffset":15936,"byteLength":5312,"target":34962,"byteStride":8},{"buffer":0,"byteOffset":21248,"byteLength":1992,"target":34963}],"buffers":[{"byteLength":23240,"uri":"data:application/octet-stream;base64,"}],"accessors":[{"bufferView":0,"componentType":5126,"count":664,"max":[22.001890182495117,34.98240661621094,6.121822834014893],"min":[-22.230676651000977,-34.9824104309082,-6.975658893585205],"type":"VEC3"},{"bufferView":1,"componentType":5126,"count":664,"max":[0.9659263491630554,1,0.25881969928741455],"min":[-0.9659262299537659,-1,-0.9659263491630554],"type":"VEC3"},{"bufferView":2,"componentType":5126,"count":664,"max":[22.933923721313477,22.933923721313477],"min":[-21.920618057250977,-19.44428062438965],"type":"VEC2"},{"bufferView":3,"componentType":5123,"count":996,"max":[663],"min":[0],"type":"SCALAR"}],"materials":[{"pbrMetallicRoughness":{"baseColorFactor":[0.07058823853731155,0.003921568859368563,0.003921568859368563,1],"metallicFactor":1,"roughnessFactor":0.858578622341156},"doubleSided":true,"name":"WoodDark"}],"meshes":[{"primitives":[{"mode":4,"attributes":{"POSITION":0,"NORMAL":1,"TEXCOORD_0":2},"indices":3,"material":0}]}]}