{"asset":{"version":"2.0","generator":"THREE.GLTFExporter"},"scenes":[{"nodes":[0]}],"scene":0,"nodes":[{"matrix":[0.02539999969303608,0,0,0,0,0.02539999969303608,0,0,0,0,0.02539999969303608,0,137.3511644303162,10.397097642237838,24.496235281372066,1],"name":"GateHouseLG_Stone_Stacked","extras":{"name":"GateHouseLG_Stone_Stacked"},"mesh":0}],"bufferViews":[{"buffer":0,"byteOffset":0,"byteLength":44640,"target":34962,"byteStride":12},{"buffer":0,"byteOffset":44640,"byteLength":44640,"target":34962,"byteStride":12},{"buffer":0,"byteOffset":89280,"byteLength":29760,"target":34962,"byteStride":8},{"buffer":0,"byteOffset":119040,"byteLength":11940,"target":34963}],"buffers":[{"byteLength":130980,"uri":"data:application/octet-stream;base64,"}],"accessors":[{"bufferView":0,"componentType":5126,"count":3720,"max":[200.58543395996094,204.71554565429688,123.58390808105469],"min":[-200.5854949951172,-204.71554565429688,-123.58394622802734],"type":"VEC3"},{"bufferView":1,"componentType":5126,"count":3720,"max":[1.0000001192092896,1,1],"min":[-1.0000001192092896,-1,-1],"type":"VEC3"},{"bufferView":2,"componentType":5126,"count":3720,"max":[14.440851211547852,12.940851211547852],"min":[-11.940851211547852,2.407956600189209],"type":"VEC2"},{"bufferView":3,"componentType":5123,"count":5970,"max":[3719],"min":[0],"type":"SCALAR"}],"materials":[{"pbrMetallicRoughness":{"baseColorFactor":[0.40000003576278687,0.41960787773132324,0.7921569347381592,1],"metallicFactor":1,"roughnessFactor":0.858578622341156},"doubleSided":true,"name":"Stone_Stacked"}],"meshes":[{"primitives":[{"mode":4,"attributes":{"POSITION":0,"NORMAL":1,"TEXCOORD_0":2},"indices":3,"material":0}]}]}