{"asset":{"version":"2.0","generator":"THREE.GLTFExporter"},"scenes":[{"nodes":[0]}],"scene":0,"nodes":[{"matrix":[0.02539999969303608,0,0,0,0,0.02539999969303608,0,0,0,0,0.02539999969303608,0,60.135567669677584,19.629428152852824,-6.108449314709105,1],"name":"HouseMD06_PlasterYellow","extras":{"name":"HouseMD06_PlasterYellow"},"mesh":0}],"bufferViews":[{"buffer":0,"byteOffset":0,"byteLength":66624,"target":34962,"byteStride":12},{"buffer":0,"byteOffset":66624,"byteLength":66624,"target":34962,"byteStride":12},{"buffer":0,"byteOffset":133248,"byteLength":44416,"target":34962,"byteStride":8},{"buffer":0,"byteOffset":177664,"byteLength":20388,"target":34963}],"buffers":[{"byteLength":198052,"uri":"data:application/octet-stream;base64,"}],"accessors":[{"bufferView":0,"componentType":5126,"count":5552,"max":[153.96969604492188,386.4666442871094,139.57443237304688],"min":[-153.96963500976562,-386.46673583984375,-139.57449340820312],"type":"VEC3"},{"bufferView":1,"componentType":5126,"count":5552,"max":[1.0000001192092896,1,1],"min":[-1.0000001192092896,-1,-1],"type":"VEC3"},{"bufferView":2,"componentType":5126,"count":5552,"max":[10.608651161193848,10.612220764160156],"min":[-9.608651161193848,0.31519031524658203],"type":"VEC2"},{"bufferView":3,"componentType":5123,"count":10194,"max":[5551],"min":[0],"type":"SCALAR"}],"materials":[{"pbrMetallicRoughness":{"baseColorFactor":[0.7372549176216125,0.6000000238418579,0.3803921937942505,1],"metallicFactor":1,"roughnessFactor":0.858578622341156},"doubleSided":true,"name":"PlasterYellow"}],"meshes":[{"primitives":[{"mode":4,"attributes":{"POSITION":0,"NORMAL":1,"TEXCOORD_0":2},"indices":3,"material":0}]}]}