{"asset":{"version":"2.0","generator":"THREE.GLTFExporter"},"scenes":[{"nodes":[0]}],"scene":0,"nodes":[{"matrix":[0.02539999969303608,0,0,0,0,0.02539999969303608,0,0,0,0,0.02539999969303608,0,-45.31576815977087,5.575525582510636,25.364559078494537,1],"name":"网格254","mesh":0}],"bufferViews":[{"buffer":0,"byteOffset":0,"byteLength":47760,"target":34962,"byteStride":12},{"buffer":0,"byteOffset":47760,"byteLength":47760,"target":34962,"byteStride":12},{"buffer":0,"byteOffset":95520,"byteLength":31840,"target":34962,"byteStride":8},{"buffer":0,"byteOffset":127360,"byteLength":21624,"target":34963}],"buffers":[{"byteLength":148984,"uri":"data:application/octet-stream;base64,"}],"accessors":[{"bufferView":0,"componentType":5126,"count":3980,"max":[53.48096466064453,68.10889434814453,15.76531982421875],"min":[-53.48096466064453,-68.10889434814453,-15.765323638916016],"type":"VEC3"},{"bufferView":1,"componentType":5126,"count":3980,"max":[1,1,1],"min":[-1,-1,-1],"type":"VEC3"},{"bufferView":2,"componentType":5126,"count":3980,"max":[1.3513612747192383,1.1685121059417725],"min":[-0.3513612747192383,-0.16851210594177246],"type":"VEC2"},{"bufferView":3,"componentType":5123,"count":10812,"max":[3979],"min":[0],"type":"SCALAR"}],"materials":[{"pbrMetallicRoughness":{"baseColorFactor":[0.12941177189350128,0.03921568766236305,0.007843137718737125,1],"metallicFactor":1,"roughnessFactor":0.858578622341156},"doubleSided":true,"name":"Wood_Beams"}],"meshes":[{"primitives":[{"mode":4,"attributes":{"POSITION":0,"NORMAL":1,"TEXCOORD_0":2},"indices":3,"material":0}]}]}