{"asset":{"version":"2.0","generator":"THREE.GLTFExporter"},"scenes":[{"nodes":[0]}],"scene":0,"nodes":[{"matrix":[0.02539999969303608,0,0,0,0,0.02539999969303608,0,0,0,0,0.02539999969303608,0,-51.81878819836811,1.1561052761179411,25.137826602902123,1],"name":"网格257","mesh":0}],"bufferViews":[{"buffer":0,"byteOffset":0,"byteLength":6888,"target":34962,"byteStride":12},{"buffer":0,"byteOffset":6888,"byteLength":6888,"target":34962,"byteStride":12},{"buffer":0,"byteOffset":13776,"byteLength":4592,"target":34962,"byteStride":8},{"buffer":0,"byteOffset":18368,"byteLength":1656,"target":34963}],"buffers":[{"byteLength":20024,"uri":"data:application/octet-stream;base64,"}],"accessors":[{"bufferView":0,"componentType":5126,"count":574,"max":[36.348060607910156,48.573822021484375,4.759241580963135],"min":[-36.348060607910156,-48.573822021484375,-4.759241580963135],"type":"VEC3"},{"bufferView":1,"componentType":5126,"count":574,"max":[1,1,1],"min":[-1,-1,-1],"type":"VEC3"},{"bufferView":2,"componentType":5126,"count":574,"max":[3.991999864578247,0.9919999837875366],"min":[0.00800000037997961,-2.9749603271484375],"type":"VEC2"},{"bufferView":3,"componentType":5123,"count":828,"max":[573],"min":[0],"type":"SCALAR"}],"materials":[{"pbrMetallicRoughness":{"baseColorFactor":[0.12941177189350128,0.03921568766236305,0.007843137718737125,1],"metallicFactor":1,"roughnessFactor":0.858578622341156},"doubleSided":true,"name":"Wood_Beams"}],"meshes":[{"primitives":[{"mode":4,"attributes":{"POSITION":0,"NORMAL":1,"TEXCOORD_0":2},"indices":3,"material":0}]}]}