{"asset":{"version":"2.0","generator":"THREE.GLTFExporter"},"scenes":[{"nodes":[0]}],"scene":0,"nodes":[{"matrix":[0.02539999969303608,0,0,0,0,0.02539999969303608,0,0,0,0,0.02539999969303608,0,-8.15071229942987,8.378824112704024,-5.357096441779277,1],"name":"HouseMD03_Stone_Stacked","extras":{"name":"HouseMD03_Stone_Stacked"},"mesh":0}],"bufferViews":[{"buffer":0,"byteOffset":0,"byteLength":31140,"target":34962,"byteStride":12},{"buffer":0,"byteOffset":31140,"byteLength":31140,"target":34962,"byteStride":12},{"buffer":0,"byteOffset":62280,"byteLength":20760,"target":34962,"byteStride":8},{"buffer":0,"byteOffset":83040,"byteLength":8796,"target":34963}],"buffers":[{"byteLength":91836,"uri":"data:application/octet-stream;base64,"}],"accessors":[{"bufferView":0,"componentType":5126,"count":2595,"max":[197.24948120117188,19.875036239624023,188.55471801757812],"min":[-197.24948120117188,-19.875036239624023,-188.55471801757812],"type":"VEC3"},{"bufferView":1,"componentType":5126,"count":2595,"max":[1,1,1],"min":[-1,-1.0000001192092896,-1],"type":"VEC3"},{"bufferView":2,"componentType":5126,"count":2595,"max":[13.575094223022461,8.228666305541992],"min":[-11.075096130371094,3.948294162750244],"type":"VEC2"},{"bufferView":3,"componentType":5123,"count":4398,"max":[2594],"min":[0],"type":"SCALAR"}],"materials":[{"pbrMetallicRoughness":{"baseColorFactor":[0.40000003576278687,0.41960787773132324,0.7921569347381592,1],"metallicFactor":1,"roughnessFactor":0.858578622341156},"doubleSided":true,"name":"Stone_Stacked"}],"meshes":[{"primitives":[{"mode":4,"attributes":{"POSITION":0,"NORMAL":1,"TEXCOORD_0":2},"indices":3,"material":0}]}]}