{"asset":{"version":"2.0","generator":"THREE.GLTFExporter"},"scenes":[{"nodes":[0]}],"scene":0,"nodes":[{"matrix":[0.02539999969303608,0,0,0,0,0.02539999969303608,0,0,0,0,0.02539999969303608,0,-65.4178401336303,0.33364831736852807,26.148617606311518,1],"name":"网格265","mesh":0}],"bufferViews":[{"buffer":0,"byteOffset":0,"byteLength":3096,"target":34962,"byteStride":12},{"buffer":0,"byteOffset":3096,"byteLength":3096,"target":34962,"byteStride":12},{"buffer":0,"byteOffset":6192,"byteLength":2064,"target":34962,"byteStride":8},{"buffer":0,"byteOffset":8256,"byteLength":2160,"target":34963}],"buffers":[{"byteLength":10416,"uri":"data:application/octet-stream;base64,"}],"accessors":[{"bufferView":0,"componentType":5126,"count":258,"max":[14.600817680358887,16.782651901245117,14.601213455200195],"min":[-14.600817680358887,-16.782651901245117,-14.601213455200195],"type":"VEC3"},{"bufferView":1,"componentType":5126,"count":258,"max":[1,1,1],"min":[-1,-1,-1],"type":"VEC3"},{"bufferView":2,"componentType":5126,"count":258,"max":[1.0940980911254883,5.042987823486328],"min":[-2.094097852706909,1.2552822828292847],"type":"VEC2"},{"bufferView":3,"componentType":5123,"count":1080,"max":[257],"min":[0],"type":"SCALAR"}],"materials":[{"pbrMetallicRoughness":{"baseColorFactor":[0.12941177189350128,0.03921568766236305,0.007843137718737125,1],"metallicFactor":1,"roughnessFactor":0.858578622341156},"doubleSided":true,"name":"Wood_Beams"}],"meshes":[{"primitives":[{"mode":4,"attributes":{"POSITION":0,"NORMAL":1,"TEXCOORD_0":2},"indices":3,"material":0}]}]}