{"asset":{"version":"2.0","generator":"THREE.GLTFExporter"},"scenes":[{"nodes":[0]}],"scene":0,"nodes":[{"matrix":[0.02539999969303608,0,0,0,0,0.02539999969303608,0,0,0,0,0.02539999969303608,0,85.99418114018408,17.414530987605474,-5.748534586263531,1],"name":"HouseLG01_Wood_Beams","extras":{"name":"HouseLG01_Wood_Beams"},"mesh":0}],"bufferViews":[{"buffer":0,"byteOffset":0,"byteLength":239964,"target":34962,"byteStride":12},{"buffer":0,"byteOffset":239964,"byteLength":239964,"target":34962,"byteStride":12},{"buffer":0,"byteOffset":479928,"byteLength":159976,"target":34962,"byteStride":8},{"buffer":0,"byteOffset":639904,"byteLength":159976,"target":34962,"byteStride":8},{"buffer":0,"byteOffset":799880,"byteLength":62640,"target":34963}],"buffers":[{"byteLength":862520,"uri":"data:application/octet-stream;base64,"}],"accessors":[{"bufferView":0,"componentType":5126,"count":19997,"max":[395.0941162109375,347.712646484375,220.3961639404297],"min":[-395.09442138671875,-347.71270751953125,-220.39598083496094],"type":"VEC3"},{"bufferView":1,"componentType":5126,"count":19997,"max":[1.0000001192092896,1.0000001192092896,1.0000001192092896],"min":[-1.0000001192092896,-1.0000001192092896,-1.0000001192092896],"type":"VEC3"},{"bufferView":2,"componentType":5126,"count":19997,"max":[33.14045715332031,33.14045715332031],"min":[-32.139713287353516,-4.199946880340576],"type":"VEC2"},{"bufferView":3,"componentType":5126,"count":19997,"max":[0,1],"min":[0,0],"type":"VEC2"},{"bufferView":4,"componentType":5123,"count":31320,"max":[19996],"min":[0],"type":"SCALAR"}],"materials":[{"pbrMetallicRoughness":{"baseColorFactor":[0.12941177189350128,0.03921568766236305,0.007843137718737125,1],"metallicFactor":1,"roughnessFactor":0.858578622341156},"doubleSided":true,"name":"Wood_Beams"}],"meshes":[{"primitives":[{"mode":4,"attributes":{"POSITION":0,"NORMAL":1,"TEXCOORD_0":2,"TEXCOORD_1":3},"indices":4,"material":0}]}]}