{"asset":{"version":"2.0","generator":"THREE.GLTFExporter"},"scenes":[{"nodes":[0]}],"scene":0,"nodes":[{"matrix":[0.02539999969303608,0,0,0,0,0.02539999969303608,0,0,0,0,0.02539999969303608,0,137.48399353027344,13.077092940660123,24.496235668945303,1],"name":"GateHouseLG_RoofTiles","extras":{"name":"GateHouseLG_RoofTiles"},"mesh":0}],"bufferViews":[{"buffer":0,"byteOffset":0,"byteLength":3552,"target":34962,"byteStride":12},{"buffer":0,"byteOffset":3552,"byteLength":3552,"target":34962,"byteStride":12},{"buffer":0,"byteOffset":7104,"byteLength":2368,"target":34962,"byteStride":8},{"buffer":0,"byteOffset":9472,"byteLength":948,"target":34963}],"buffers":[{"byteLength":10420,"uri":"data:application/octet-stream;base64,"}],"accessors":[{"bufferView":0,"componentType":5126,"count":296,"max":[231.65020751953125,66.31362915039062,153.8751983642578],"min":[-231.65020751953125,-66.31367492675781,-153.875244140625],"type":"VEC3"},{"bufferView":1,"componentType":5126,"count":296,"max":[1,1,1],"min":[-1,-1,-1],"type":"VEC3"},{"bufferView":2,"componentType":5126,"count":296,"max":[19.476675033569336,19.476675033569336],"min":[-18.476675033569336,3.7737133502960205],"type":"VEC2"},{"bufferView":3,"componentType":5123,"count":474,"max":[295],"min":[0],"type":"SCALAR"}],"materials":[{"pbrMetallicRoughness":{"baseColorFactor":[0.4666666666666667,0.4745098039215686,0.4666666666666667,1],"metallicFactor":0,"roughnessFactor":1}}],"meshes":[{"primitives":[{"mode":4,"attributes":{"POSITION":0,"NORMAL":1,"TEXCOORD_0":2},"indices":3,"material":0}]}]}