{"asset":{"version":"2.0","generator":"THREE.GLTFExporter"},"scenes":[{"nodes":[0]}],"scene":0,"nodes":[{"matrix":[0.02539999969303608,0,0,0,0,0.02539999969303608,0,0,0,0,0.02539999969303608,0,159.45702863959195,8.47092353892296,25.209887326049795,1],"name":"HouseSM01_Mullions_Wood","extras":{"name":"HouseSM01_Mullions_Wood"},"mesh":0}],"bufferViews":[{"buffer":0,"byteOffset":0,"byteLength":162312,"target":34962,"byteStride":12},{"buffer":0,"byteOffset":162312,"byteLength":162312,"target":34962,"byteStride":12},{"buffer":0,"byteOffset":324624,"byteLength":108208,"target":34962,"byteStride":8},{"buffer":0,"byteOffset":432832,"byteLength":46368,"target":34963}],"buffers":[{"byteLength":479200,"uri":"data:application/octet-stream;base64,"}],"accessors":[{"bufferView":0,"componentType":5126,"count":13526,"max":[257.8935852050781,96.38595581054688,113.14288330078125],"min":[-257.8934020996094,-96.38594818115234,-113.1429443359375],"type":"VEC3"},{"bufferView":1,"componentType":5126,"count":13526,"max":[1,1.0000001192092896,1.0000001192092896],"min":[-1,-1.0000001192092896,-1.0000001192092896],"type":"VEC3"},{"bufferView":2,"componentType":5126,"count":13526,"max":[64.02774810791016,46.552818298339844],"min":[-63.027748107910156,6.093679428100586],"type":"VEC2"},{"bufferView":3,"componentType":5123,"count":23184,"max":[13525],"min":[0],"type":"SCALAR"}],"materials":[{"pbrMetallicRoughness":{"baseColorFactor":[0.7058823704719543,0.8588235974311829,0.6549019813537598,1],"metallicFactor":1,"roughnessFactor":0.858578622341156},"doubleSided":true,"name":"Mullions_Wood"}],"meshes":[{"primitives":[{"mode":4,"attributes":{"POSITION":0,"NORMAL":1,"TEXCOORD_0":2},"indices":3,"material":0}]}]}