{"asset":{"version":"2.0","generator":"THREE.GLTFExporter"},"scenes":[{"nodes":[0]}],"scene":0,"nodes":[{"matrix":[0.02539999969303608,0,0,0,0,0.02539999969303608,0,0,0,0,0.02539999969303608,0,20.695783615112305,17.15113257881262,23.99816266424753,1],"name":"Turret_RoofTiles","extras":{"name":"Turret_RoofTiles"},"mesh":0}],"bufferViews":[{"buffer":0,"byteOffset":0,"byteLength":6384,"target":34962,"byteStride":12},{"buffer":0,"byteOffset":6384,"byteLength":6384,"target":34962,"byteStride":12},{"buffer":0,"byteOffset":12768,"byteLength":4256,"target":34962,"byteStride":8},{"buffer":0,"byteOffset":17024,"byteLength":4020,"target":34963}],"buffers":[{"byteLength":21044,"uri":"data:application/octet-stream;base64,"}],"accessors":[{"bufferView":0,"componentType":5126,"count":532,"max":[98.2298812866211,80.68209838867188,91.59989166259766],"min":[-98.2298355102539,-80.68211364746094,-112.05108642578125],"type":"VEC3"},{"bufferView":1,"componentType":5126,"count":532,"max":[0.9101881980895996,1,0.9931254386901855],"min":[-0.9101884365081787,-1,-1],"type":"VEC3"},{"bufferView":2,"componentType":5126,"count":532,"max":[19.014873504638672,19.092710494995117],"min":[-18.014873504638672,3.0015804767608643],"type":"VEC2"},{"bufferView":3,"componentType":5123,"count":2010,"max":[531],"min":[0],"type":"SCALAR"}],"materials":[{"pbrMetallicRoughness":{"baseColorFactor":[0.4666666666666667,0.4745098039215686,0.4666666666666667,1],"metallicFactor":0,"roughnessFactor":1}}],"meshes":[{"primitives":[{"mode":4,"attributes":{"POSITION":0,"NORMAL":1,"TEXCOORD_0":2},"indices":3,"material":0}]}]}