{"asset":{"version":"2.0","generator":"THREE.GLTFExporter"},"scenes":[{"nodes":[0]}],"scene":0,"nodes":[{"matrix":[0.02539999969303608,0,0,0,0,0.02539999969303608,0,0,0,0,0.02539999969303608,0,-60.900038430416316,0.9731342761319155,25.20756498096557,1],"name":"网格262","mesh":0}],"bufferViews":[{"buffer":0,"byteOffset":0,"byteLength":10620,"target":34962,"byteStride":12},{"buffer":0,"byteOffset":10620,"byteLength":10620,"target":34962,"byteStride":12},{"buffer":0,"byteOffset":21240,"byteLength":7080,"target":34962,"byteStride":8},{"buffer":0,"byteOffset":28320,"byteLength":5412,"target":34963}],"buffers":[{"byteLength":33732,"uri":"data:application/octet-stream;base64,"}],"accessors":[{"bufferView":0,"componentType":5126,"count":885,"max":[21.637903213500977,41.370243072509766,1.4424442052841187],"min":[-21.637903213500977,-41.370243072509766,-1.4424444437026978],"type":"VEC3"},{"bufferView":1,"componentType":5126,"count":885,"max":[0.999978244304657,0.9999966621398926,1],"min":[-0.9999781250953674,-0.9999436140060425,0.002259225817397237],"type":"VEC3"},{"bufferView":2,"componentType":5126,"count":885,"max":[0.8995256423950195,2.8704519271850586],"min":[-1.9334498643875122,-1.0867350101470947],"type":"VEC2"},{"bufferView":3,"componentType":5123,"count":2706,"max":[884],"min":[0],"type":"SCALAR"}],"materials":[{"pbrMetallicRoughness":{"baseColorFactor":[0.12941177189350128,0.03921568766236305,0.007843137718737125,1],"metallicFactor":1,"roughnessFactor":0.858578622341156},"doubleSided":true,"name":"Wood_Beams"}],"meshes":[{"primitives":[{"mode":4,"attributes":{"POSITION":0,"NORMAL":1,"TEXCOORD_0":2},"indices":3,"material":0}]}]}