{"asset":{"version":"2.0","generator":"THREE.GLTFExporter"},"scenes":[{"nodes":[0]}],"scene":0,"nodes":[{"matrix":[0.02539999969303608,0,0,0,0,0.02539999969303608,0,0,0,0,0.02539999969303608,0,-16.654179278730226,11.307550203751987,24.06875723120953,1],"name":"Windmill_Mullions_Wood","extras":{"name":"Windmill_Mullions_Wood"},"mesh":0}],"bufferViews":[{"buffer":0,"byteOffset":0,"byteLength":12096,"target":34962,"byteStride":12},{"buffer":0,"byteOffset":12096,"byteLength":12096,"target":34962,"byteStride":12},{"buffer":0,"byteOffset":24192,"byteLength":8064,"target":34962,"byteStride":8},{"buffer":0,"byteOffset":32256,"byteLength":8064,"target":34962,"byteStride":8},{"buffer":0,"byteOffset":40320,"byteLength":2880,"target":34963}],"buffers":[{"byteLength":43200,"uri":"data:application/octet-stream;base64,"}],"accessors":[{"bufferView":0,"componentType":5126,"count":1008,"max":[59.89982986450195,16.86376953125,59.816566467285156],"min":[-59.899749755859375,-16.863815307617188,-59.81660461425781],"type":"VEC3"},{"bufferView":1,"componentType":5126,"count":1008,"max":[0.7407460808753967,1,0.7392655611038208],"min":[-0.7403067946434021,-1,-0.7383540272712708],"type":"VEC3"},{"bufferView":2,"componentType":5126,"count":1008,"max":[140.72872924804688,43.269657135009766],"min":[-139.72872924804688,6.986917018890381],"type":"VEC2"},{"bufferView":3,"componentType":5126,"count":1008,"max":[0.7685356140136719,0.9806616306304932],"min":[0.033454928547143936,0.869731068611145],"type":"VEC2"},{"bufferView":4,"componentType":5123,"count":1440,"max":[1007],"min":[0],"type":"SCALAR"}],"materials":[{"pbrMetallicRoughness":{"baseColorFactor":[0.7058823704719543,0.8588235974311829,0.6549019813537598,1],"metallicFactor":1,"roughnessFactor":0.858578622341156},"doubleSided":true,"name":"Mullions_Wood"}],"meshes":[{"primitives":[{"mode":4,"attributes":{"POSITION":0,"NORMAL":1,"TEXCOORD_0":2,"TEXCOORD_1":3},"indices":4,"material":0}]}]}