{"asset":{"version":"2.0","generator":"THREE.GLTFExporter"},"scenes":[{"nodes":[0]}],"scene":0,"nodes":[{"matrix":[0.02539999969303608,0,0,0,0,0.02539999969303608,0,0,0,0,0.02539999969303608,0,56.70572280883789,14.150781885044637,25.20957064514164,1],"name":"BellTower_PlasterYellow","extras":{"name":"BellTower_PlasterYellow"},"mesh":0}],"bufferViews":[{"buffer":0,"byteOffset":0,"byteLength":497556,"target":34962,"byteStride":12},{"buffer":0,"byteOffset":497556,"byteLength":497556,"target":34962,"byteStride":12},{"buffer":0,"byteOffset":995112,"byteLength":331704,"target":34962,"byteStride":8},{"buffer":0,"byteOffset":1326816,"byteLength":126552,"target":34963}],"buffers":[{"byteLength":1453368,"uri":"data:application/octet-stream;base64,"}],"accessors":[{"bufferView":0,"componentType":5126,"count":41463,"max":[78.86595153808594,277.4599914550781,84.22631072998047],"min":[-78.86595153808594,-277.4599914550781,-84.22621154785156],"type":"VEC3"},{"bufferView":1,"componentType":5126,"count":41463,"max":[1.0000001192092896,1,1.0000001192092896],"min":[-1.0000001192092896,-1.0000001192092896,-1.0000001192092896],"type":"VEC3"},{"bufferView":2,"componentType":5126,"count":41463,"max":[18.46318244934082,18.46318244934082],"min":[-17.46318244934082,1.7509775161743164],"type":"VEC2"},{"bufferView":3,"componentType":5123,"count":63276,"max":[41462],"min":[0],"type":"SCALAR"}],"materials":[{"pbrMetallicRoughness":{"baseColorFactor":[0.7372549176216125,0.6000000238418579,0.3803921937942505,1],"metallicFactor":1,"roughnessFactor":0.858578622341156},"doubleSided":true,"name":"PlasterYellow"}],"meshes":[{"primitives":[{"mode":4,"attributes":{"POSITION":0,"NORMAL":1,"TEXCOORD_0":2},"indices":3,"material":0}]}]}