{"asset":{"version":"2.0","generator":"THREE.GLTFExporter"},"scenes":[{"nodes":[0]}],"scene":0,"nodes":[{"matrix":[-3.4127149151033032e-9,0,0.02539999882363095,0,0,0.02539999969303608,0,0,-0.02539999882363095,0,-3.4127149151033032e-9,0,-0.8539262071071789,29.084812261440675,-44.195002773669785,1],"name":"HouseCastle_WoodDark","extras":{"name":"HouseCastle_WoodDark"},"mesh":0}],"bufferViews":[{"buffer":0,"byteOffset":0,"byteLength":116796,"target":34962,"byteStride":12},{"buffer":0,"byteOffset":116796,"byteLength":116796,"target":34962,"byteStride":12},{"buffer":0,"byteOffset":233592,"byteLength":77864,"target":34962,"byteStride":8},{"buffer":0,"byteOffset":311456,"byteLength":32196,"target":34963}],"buffers":[{"byteLength":343652,"uri":"data:application/octet-stream;base64,"}],"accessors":[{"bufferView":0,"componentType":5126,"count":9733,"max":[87.74856567382812,33.09912109375,87.29981231689453],"min":[-261.8328552246094,-678.1836547851562,-453.8567810058594],"type":"VEC3"},{"bufferView":1,"componentType":5126,"count":9733,"max":[1,1,1],"min":[-1,-1,-1],"type":"VEC3"},{"bufferView":2,"componentType":5126,"count":9733,"max":[4.989999771118164,2.4847731590270996],"min":[-2.497380018234253,-3.97867488861084],"type":"VEC2"},{"bufferView":3,"componentType":5123,"count":16098,"max":[9732],"min":[0],"type":"SCALAR"}],"materials":[{"pbrMetallicRoughness":{"baseColorFactor":[0.07058823853731155,0.003921568859368563,0.003921568859368563,1],"metallicFactor":1,"roughnessFactor":0.858578622341156},"doubleSided":true,"name":"WoodDark"}],"meshes":[{"primitives":[{"mode":4,"attributes":{"POSITION":0,"NORMAL":1,"TEXCOORD_0":2},"indices":3,"material":0}]}]}