{"asset":{"version":"2.0","generator":"THREE.GLTFExporter"},"scenes":[{"nodes":[0]}],"scene":0,"nodes":[{"matrix":[0.02539999969303608,0,0,0,0,0.02539999969303608,0,0,0,0,0.02539999969303608,0,-66.30197840419532,0.4150216440218344,26.29980256237016,1],"name":"网格.266_1","mesh":0}],"bufferViews":[{"buffer":0,"byteOffset":0,"byteLength":4224,"target":34962,"byteStride":12},{"buffer":0,"byteOffset":4224,"byteLength":4224,"target":34962,"byteStride":12},{"buffer":0,"byteOffset":8448,"byteLength":2816,"target":34962,"byteStride":8},{"buffer":0,"byteOffset":11264,"byteLength":1776,"target":34963}],"buffers":[{"byteLength":13040,"uri":"data:application/octet-stream;base64,"}],"accessors":[{"bufferView":0,"componentType":5126,"count":352,"max":[6.374996185302734,11.580723762512207,5.7904953956604],"min":[-5.606686592102051,-7.620901107788086,-4.730679512023926],"type":"VEC3"},{"bufferView":1,"componentType":5126,"count":352,"max":[0.9999999403953552,0.9136599898338318,0.9671170711517334],"min":[-0.9916215538978577,-0.9144010543823242,-0.9381975531578064],"type":"VEC3"},{"bufferView":2,"componentType":5126,"count":352,"max":[-0.21577712893486023,1.9393091201782227],"min":[-4.3914947509765625,-0.9397510290145874],"type":"VEC2"},{"bufferView":3,"componentType":5123,"count":888,"max":[351],"min":[0],"type":"SCALAR"}],"materials":[{"pbrMetallicRoughness":{"baseColorFactor":[0.12941177189350128,0.03921568766236305,0.007843137718737125,1],"metallicFactor":1,"roughnessFactor":0.858578622341156},"doubleSided":true,"name":"Wood_Beams"}],"meshes":[{"primitives":[{"mode":4,"attributes":{"POSITION":0,"NORMAL":1,"TEXCOORD_0":2},"indices":3,"material":0}]}]}