{"asset":{"version":"2.0","generator":"THREE.GLTFExporter"},"scenes":[{"nodes":[0]}],"scene":0,"nodes":[{"matrix":[0.02539999969303608,0,0,0,0,0.02539999969303608,0,0,0,0,0.02539999969303608,0,-47.75441141516217,78.65978818005578,-120.67424335488886,1],"name":"CastleLG_RoofTiles","extras":{"name":"CastleLG_RoofTiles"},"mesh":0}],"bufferViews":[{"buffer":0,"byteOffset":0,"byteLength":37560,"target":34962,"byteStride":12},{"buffer":0,"byteOffset":37560,"byteLength":37560,"target":34962,"byteStride":12},{"buffer":0,"byteOffset":75120,"byteLength":25040,"target":34962,"byteStride":8},{"buffer":0,"byteOffset":100160,"byteLength":14724,"target":34963}],"buffers":[{"byteLength":114884,"uri":"data:application/octet-stream;base64,"}],"accessors":[{"bufferView":0,"componentType":5126,"count":3130,"max":[2567.74658203125,1598.2589111328125,1757.120361328125],"min":[-815.8417358398438,-388.3125,-1492.361572265625],"type":"VEC3"},{"bufferView":1,"componentType":5126,"count":3130,"max":[1,1,1],"min":[-1,0,-1],"type":"VEC3"},{"bufferView":2,"componentType":5126,"count":3130,"max":[16.94389533996582,2.7829232215881348],"min":[-10.930259704589844,-18.959999084472656],"type":"VEC2"},{"bufferView":3,"componentType":5123,"count":7362,"max":[3129],"min":[0],"type":"SCALAR"}],"materials":[{"pbrMetallicRoughness":{"baseColorFactor":[0.4666666666666667,0.4745098039215686,0.4666666666666667,1],"metallicFactor":0,"roughnessFactor":1}}],"meshes":[{"primitives":[{"mode":4,"attributes":{"POSITION":0,"NORMAL":1,"TEXCOORD_0":2},"indices":3,"material":0}]}]}