{"asset":{"version":"2.0","generator":"THREE.GLTFExporter"},"scenes":[{"nodes":[0]}],"scene":0,"nodes":[{"matrix":[0.02539999969303608,0,0,0,0,0.02539999969303608,0,0,0,0,0.02539999969303608,0,-62.62217825335392,0.9818141725724274,25.07708883813322,1],"name":"网格263","mesh":0}],"bufferViews":[{"buffer":0,"byteOffset":0,"byteLength":264,"target":34962,"byteStride":12},{"buffer":0,"byteOffset":264,"byteLength":264,"target":34962,"byteStride":12},{"buffer":0,"byteOffset":528,"byteLength":176,"target":34962,"byteStride":8},{"buffer":0,"byteOffset":704,"byteLength":120,"target":34963}],"buffers":[{"byteLength":824,"uri":"data:application/octet-stream;base64,"}],"accessors":[{"bufferView":0,"componentType":5126,"count":22,"max":[18.084897994995117,40.374237060546875,0.000006577798103535315],"min":[-18.084897994995117,-40.374237060546875,-0.000006577798103535315],"type":"VEC3"},{"bufferView":1,"componentType":5126,"count":22,"max":[0,-1.6292067073209182e-7,1],"min":[0,-1.6292068494294654e-7,0.9999999403953552],"type":"VEC3"},{"bufferView":2,"componentType":5126,"count":22,"max":[-2.2844185829162598,2.0700135231018066],"min":[-2.7365410327911377,1.0606573820114136],"type":"VEC2"},{"bufferView":3,"componentType":5123,"count":60,"max":[21],"min":[0],"type":"SCALAR"}],"materials":[{"pbrMetallicRoughness":{"baseColorFactor":[0.12941177189350128,0.03921568766236305,0.007843137718737125,1],"metallicFactor":1,"roughnessFactor":0.858578622341156},"doubleSided":true,"name":"Wood_Beams"}],"meshes":[{"primitives":[{"mode":4,"attributes":{"POSITION":0,"NORMAL":1,"TEXCOORD_0":2},"indices":3,"material":0}]}]}