{"asset":{"version":"2.0","generator":"THREE.GLTFExporter"},"scenes":[{"nodes":[0]}],"scene":0,"nodes":[{"matrix":[0.02539999969303608,0,0,0,0,0.02539999969303608,0,0,0,0,0.02539999969303608,0,-32.420309388506666,9.681091777639494,-5.819597073397176,1],"name":"HouseMD02_Cloth","extras":{"name":"HouseMD02_Cloth"},"mesh":0}],"bufferViews":[{"buffer":0,"byteOffset":0,"byteLength":188892,"target":34962,"byteStride":12},{"buffer":0,"byteOffset":188892,"byteLength":188892,"target":34962,"byteStride":12},{"buffer":0,"byteOffset":377784,"byteLength":125928,"target":34962,"byteStride":8},{"buffer":0,"byteOffset":503712,"byteLength":53376,"target":34963}],"buffers":[{"byteLength":557088,"uri":"data:application/octet-stream;base64,"}],"accessors":[{"bufferView":0,"componentType":5126,"count":15741,"max":[49.95849609375,4.057037353515625,87.306396484375],"min":[-49.9583740234375,-4.057037353515625,-87.30621337890625],"type":"VEC3"},{"bufferView":1,"componentType":5126,"count":15741,"max":[1,0.9992631673812866,1],"min":[-1,-0.000029522881959564984,-1],"type":"VEC3"},{"bufferView":2,"componentType":5126,"count":15741,"max":[1,1],"min":[0,0],"type":"VEC2"},{"bufferView":3,"componentType":5123,"count":26688,"max":[15740],"min":[0],"type":"SCALAR"}],"materials":[{"pbrMetallicRoughness":{"baseColorFactor":[0.7568628191947937,0.6313725709915161,0.46666669845581055,1],"metallicFactor":1,"roughnessFactor":0.858578622341156},"doubleSided":true,"name":"Cloth"}],"meshes":[{"primitives":[{"mode":4,"attributes":{"POSITION":0,"NORMAL":1,"TEXCOORD_0":2},"indices":3,"material":0}]}]}