{"asset":{"version":"2.0","generator":"THREE.GLTFExporter"},"scenes":[{"nodes":[0]}],"scene":0,"nodes":[{"matrix":[0.02539999969303608,0,0,0,0,0.02539999969303608,0,0,0,0,0.02539999969303608,0,58.37085002463232,16.261421519777173,-52.46327209799301,1],"name":"HouseLG04_Cloth","extras":{"name":"HouseLG04_Cloth"},"mesh":0}],"bufferViews":[{"buffer":0,"byteOffset":0,"byteLength":93576,"target":34962,"byteStride":12},{"buffer":0,"byteOffset":93576,"byteLength":93576,"target":34962,"byteStride":12},{"buffer":0,"byteOffset":187152,"byteLength":62384,"target":34962,"byteStride":8},{"buffer":0,"byteOffset":249536,"byteLength":26688,"target":34963}],"buffers":[{"byteLength":276224,"uri":"data:application/octet-stream;base64,"}],"accessors":[{"bufferView":0,"componentType":5126,"count":7798,"max":[84.980224609375,6.9010467529296875,6.2232666015625],"min":[-84.97998046875,-6.90106201171875,-6.22314453125],"type":"VEC3"},{"bufferView":1,"componentType":5126,"count":7798,"max":[1,0.9995458126068115,1],"min":[-1.0000001192092896,-0.00004181091208010912,-1],"type":"VEC3"},{"bufferView":2,"componentType":5126,"count":7798,"max":[1,1],"min":[0,0],"type":"VEC2"},{"bufferView":3,"componentType":5123,"count":13344,"max":[7797],"min":[0],"type":"SCALAR"}],"materials":[{"pbrMetallicRoughness":{"baseColorFactor":[0.7568628191947937,0.6313725709915161,0.46666669845581055,1],"metallicFactor":1,"roughnessFactor":0.858578622341156},"doubleSided":true,"name":"Cloth"}],"meshes":[{"primitives":[{"mode":4,"attributes":{"POSITION":0,"NORMAL":1,"TEXCOORD_0":2},"indices":3,"material":0}]}]}