{"asset":{"version":"2.0","generator":"THREE.GLTFExporter"},"scenes":[{"nodes":[0]}],"scene":0,"nodes":[{"matrix":[0.02539999969303608,0,0,0,0,0.02539999969303608,0,0,0,0,0.02539999969303608,0,153.45744010764975,34.08338292374361,-128.37163493816752,1],"name":"ManorLG_Wood_Beams","extras":{"name":"ManorLG_Wood_Beams"},"mesh":0}],"bufferViews":[{"buffer":0,"byteOffset":0,"byteLength":814704,"target":34962,"byteStride":12},{"buffer":0,"byteOffset":814704,"byteLength":814704,"target":34962,"byteStride":12},{"buffer":0,"byteOffset":1629408,"byteLength":543136,"target":34962,"byteStride":8},{"buffer":0,"byteOffset":2172544,"byteLength":453156,"target":34963}],"buffers":[{"byteLength":2625700,"uri":"data:application/octet-stream;base64,"}],"accessors":[{"bufferView":0,"componentType":5126,"count":67892,"max":[511.4999694824219,338.2500305175781,315.285888671875],"min":[-511.5,-338.24993896484375,-315.2861328125],"type":"VEC3"},{"bufferView":1,"componentType":5126,"count":67892,"max":[1,1,1],"min":[-1,-1,-1],"type":"VEC3"},{"bufferView":2,"componentType":5126,"count":67892,"max":[69.30288696289062,7.829278945922852],"min":[-68.30288696289062,-43.09098434448242],"type":"VEC2"},{"bufferView":3,"componentType":5125,"count":113289,"max":[67891],"min":[0],"type":"SCALAR"}],"materials":[{"pbrMetallicRoughness":{"baseColorFactor":[0.12941177189350128,0.03921568766236305,0.007843137718737125,1],"metallicFactor":1,"roughnessFactor":0.858578622341156},"doubleSided":true,"name":"Wood_Beams"}],"meshes":[{"primitives":[{"mode":4,"attributes":{"POSITION":0,"NORMAL":1,"TEXCOORD_0":2},"indices":3,"material":0}]}]}