{"asset":{"version":"2.0","generator":"THREE.GLTFExporter"},"scenes":[{"nodes":[0]}],"scene":0,"nodes":[{"matrix":[0.02539999969303608,0,0,0,0,0.02539999969303608,0,0,0,0,0.02539999969303608,0,85.47223003057479,16.19776350742876,-48.85450049295741,1],"name":"HouseLG05_Mullions_Wood","extras":{"name":"HouseLG05_Mullions_Wood"},"mesh":0}],"bufferViews":[{"buffer":0,"byteOffset":0,"byteLength":107508,"target":34962,"byteStride":12},{"buffer":0,"byteOffset":107508,"byteLength":107508,"target":34962,"byteStride":12},{"buffer":0,"byteOffset":215016,"byteLength":71672,"target":34962,"byteStride":8},{"buffer":0,"byteOffset":286688,"byteLength":28140,"target":34963}],"buffers":[{"byteLength":314828,"uri":"data:application/octet-stream;base64,"}],"accessors":[{"bufferView":0,"componentType":5126,"count":8959,"max":[322.8897705078125,227.70001220703125,157.822021484375],"min":[-322.890380859375,-227.70001220703125,-157.822021484375],"type":"VEC3"},{"bufferView":1,"componentType":5126,"count":8959,"max":[1,1,1],"min":[-1,-1,-1],"type":"VEC3"},{"bufferView":2,"componentType":5126,"count":8959,"max":[50.416778564453125,12.843425750732422],"min":[-49.416778564453125,-49.416778564453125],"type":"VEC2"},{"bufferView":3,"componentType":5123,"count":14070,"max":[8958],"min":[0],"type":"SCALAR"}],"materials":[{"pbrMetallicRoughness":{"baseColorFactor":[0.7058823704719543,0.8588235974311829,0.6549019813537598,1],"metallicFactor":1,"roughnessFactor":0.858578622341156},"doubleSided":true,"name":"Mullions_Wood"}],"meshes":[{"primitives":[{"mode":4,"attributes":{"POSITION":0,"NORMAL":1,"TEXCOORD_0":2},"indices":3,"material":0}]}]}