{"asset":{"version":"2.0","generator":"THREE.GLTFExporter"},"scenes":[{"nodes":[0]}],"scene":0,"nodes":[{"matrix":[0.02539999969303608,0,0,0,0,0.02539999969303608,0,0,0,0,0.02539999969303608,0,118.68714085332704,16.303104828610884,-52.27266553705749,1],"name":"HouseLG06_WoodDark","extras":{"name":"HouseLG06_WoodDark"},"mesh":0}],"bufferViews":[{"buffer":0,"byteOffset":0,"byteLength":5136,"target":34962,"byteStride":12},{"buffer":0,"byteOffset":5136,"byteLength":5136,"target":34962,"byteStride":12},{"buffer":0,"byteOffset":10272,"byteLength":3424,"target":34962,"byteStride":8},{"buffer":0,"byteOffset":13696,"byteLength":1212,"target":34963}],"buffers":[{"byteLength":14908,"uri":"data:application/octet-stream;base64,"}],"accessors":[{"bufferView":0,"componentType":5126,"count":428,"max":[41.796630859375,62.242340087890625,3.9068603515625],"min":[-41.79638671875,-62.24235534667969,-3.90673828125],"type":"VEC3"},{"bufferView":1,"componentType":5126,"count":428,"max":[1,1,1],"min":[-1,-1,-0.9595420956611633],"type":"VEC3"},{"bufferView":2,"componentType":5126,"count":428,"max":[62.09878158569336,34.871238708496094],"min":[-61.09878158569336,12.629514694213867],"type":"VEC2"},{"bufferView":3,"componentType":5123,"count":606,"max":[427],"min":[0],"type":"SCALAR"}],"materials":[{"pbrMetallicRoughness":{"baseColorFactor":[0.07058823853731155,0.003921568859368563,0.003921568859368563,1],"metallicFactor":1,"roughnessFactor":0.858578622341156},"doubleSided":true,"name":"WoodDark"}],"meshes":[{"primitives":[{"mode":4,"attributes":{"POSITION":0,"NORMAL":1,"TEXCOORD_0":2},"indices":3,"material":0}]}]}