{"asset":{"version":"2.0","generator":"THREE.GLTFExporter"},"scenes":[{"nodes":[0]}],"scene":0,"nodes":[{"matrix":[0.02539999969303608,0,0,0,0,0.02539999969303608,0,0,0,0,0.02539999969303608,0,90.69492981384337,9.956018119979376,-1.9220798229366665,1],"name":"HouseLG01_WoodDark001","extras":{"name":"HouseLG01_WoodDark.001"},"mesh":0}],"bufferViews":[{"buffer":0,"byteOffset":0,"byteLength":9600,"target":34962,"byteStride":12},{"buffer":0,"byteOffset":9600,"byteLength":9600,"target":34962,"byteStride":12},{"buffer":0,"byteOffset":19200,"byteLength":6400,"target":34962,"byteStride":8},{"buffer":0,"byteOffset":25600,"byteLength":2484,"target":34963}],"buffers":[{"byteLength":28084,"uri":"data:application/octet-stream;base64,"}],"accessors":[{"bufferView":0,"componentType":5126,"count":800,"max":[19.8427734375,49.16275405883789,1.92510986328125],"min":[-19.842864990234375,-49.162818908691406,-1.9251251220703125],"type":"VEC3"},{"bufferView":1,"componentType":5126,"count":800,"max":[1,1,1],"min":[-1,-1,-1],"type":"VEC3"},{"bufferView":2,"componentType":5126,"count":800,"max":[14.942538261413574,14.942538261413574],"min":[-13.942538261413574,2.373422861099243],"type":"VEC2"},{"bufferView":3,"componentType":5123,"count":1242,"max":[799],"min":[0],"type":"SCALAR"}],"materials":[{"pbrMetallicRoughness":{"baseColorFactor":[0.07058823853731155,0.003921568859368563,0.003921568859368563,1],"metallicFactor":1,"roughnessFactor":0.858578622341156},"doubleSided":true,"name":"WoodDark"}],"meshes":[{"primitives":[{"mode":4,"attributes":{"POSITION":0,"NORMAL":1,"TEXCOORD_0":2},"indices":3,"material":0}]}]}