{"asset":{"version":"2.0","generator":"THREE.GLTFExporter"},"scenes":[{"nodes":[0]}],"scene":0,"nodes":[{"matrix":[0.02539999969303608,0,0,0,0,0.02539999969303608,0,0,0,0,0.02539999969303608,0,-11.882949559012559,9.657636543843566,-1.29805742833355,1],"name":"HouseMD03_WoodDark","extras":{"name":"HouseMD03_WoodDark"},"mesh":0}],"bufferViews":[{"buffer":0,"byteOffset":0,"byteLength":12432,"target":34962,"byteStride":12},{"buffer":0,"byteOffset":12432,"byteLength":12432,"target":34962,"byteStride":12},{"buffer":0,"byteOffset":24864,"byteLength":8288,"target":34962,"byteStride":8},{"buffer":0,"byteOffset":33152,"byteLength":3252,"target":34963}],"buffers":[{"byteLength":36404,"uri":"data:application/octet-stream;base64,"}],"accessors":[{"bufferView":0,"componentType":5126,"count":1036,"max":[20.182497024536133,52.527381896972656,1.7500267028808594],"min":[-20.182498931884766,-52.52739715576172,-1.7499752044677734],"type":"VEC3"},{"bufferView":1,"componentType":5126,"count":1036,"max":[1,1,1],"min":[-1,-1,-1],"type":"VEC3"},{"bufferView":2,"componentType":5126,"count":1036,"max":[14.976886749267578,14.976886749267578],"min":[-13.976886749267578,-23.32597541809082],"type":"VEC2"},{"bufferView":3,"componentType":5123,"count":1626,"max":[1035],"min":[0],"type":"SCALAR"}],"materials":[{"pbrMetallicRoughness":{"baseColorFactor":[0.07058823853731155,0.003921568859368563,0.003921568859368563,1],"metallicFactor":1,"roughnessFactor":0.858578622341156},"doubleSided":true,"name":"WoodDark"}],"meshes":[{"primitives":[{"mode":4,"attributes":{"POSITION":0,"NORMAL":1,"TEXCOORD_0":2},"indices":3,"material":0}]}]}