{"asset":{"version":"2.0","generator":"THREE.GLTFExporter"},"scenes":[{"nodes":[0]}],"scene":0,"nodes":[{"matrix":[0.02539999969303608,0,0,0,0,0.02539999969303608,0,0,0,0,0.02539999969303608,0,-7.6871878848656365,16.426790140931075,-5.233652815341429,1],"name":"HouseMD03_Mullions_Wood","extras":{"name":"HouseMD03_Mullions_Wood"},"mesh":0}],"bufferViews":[{"buffer":0,"byteOffset":0,"byteLength":111504,"target":34962,"byteStride":12},{"buffer":0,"byteOffset":111504,"byteLength":111504,"target":34962,"byteStride":12},{"buffer":0,"byteOffset":223008,"byteLength":74336,"target":34962,"byteStride":8},{"buffer":0,"byteOffset":297344,"byteLength":29568,"target":34963}],"buffers":[{"byteLength":326912,"uri":"data:application/octet-stream;base64,"}],"accessors":[{"bufferView":0,"componentType":5126,"count":9292,"max":[204.55601501464844,140.47393798828125,180.69781494140625],"min":[-204.55606079101562,-140.4740753173828,-180.69781494140625],"type":"VEC3"},{"bufferView":1,"componentType":5126,"count":9292,"max":[1,1,1],"min":[-1,-1,-1],"type":"VEC3"},{"bufferView":2,"componentType":5126,"count":9292,"max":[118.63026428222656,8.166908264160156],"min":[-117.63026428222656,-3.867114543914795],"type":"VEC2"},{"bufferView":3,"componentType":5123,"count":14784,"max":[9291],"min":[0],"type":"SCALAR"}],"materials":[{"pbrMetallicRoughness":{"baseColorFactor":[0.7058823704719543,0.8588235974311829,0.6549019813537598,1],"metallicFactor":1,"roughnessFactor":0.858578622341156},"doubleSided":true,"name":"Mullions_Wood"}],"meshes":[{"primitives":[{"mode":4,"attributes":{"POSITION":0,"NORMAL":1,"TEXCOORD_0":2},"indices":3,"material":0}]}]}