{"asset":{"version":"2.0","generator":"THREE.GLTFExporter"},"scenes":[{"nodes":[0]}],"scene":0,"nodes":[{"matrix":[0.02539999969303608,0,0,0,0,0.02539999969303608,0,0,0,0,0.02539999969303608,0,-40.46345354556047,1.6395720778313034,25.363796915722986,1],"name":"网格.251_1","mesh":0}],"bufferViews":[{"buffer":0,"byteOffset":0,"byteLength":32040,"target":34962,"byteStride":12},{"buffer":0,"byteOffset":32040,"byteLength":32040,"target":34962,"byteStride":12},{"buffer":0,"byteOffset":64080,"byteLength":21360,"target":34962,"byteStride":8},{"buffer":0,"byteOffset":85440,"byteLength":11616,"target":34963}],"buffers":[{"byteLength":97056,"uri":"data:application/octet-stream;base64,"}],"accessors":[{"bufferView":0,"componentType":5126,"count":2670,"max":[40.138099670410156,51.10871124267578,13.015390396118164],"min":[-40.25555419921875,-67.60794830322266,-8.47115421295166],"type":"VEC3"},{"bufferView":1,"componentType":5126,"count":2670,"max":[1.0000001192092896,1,1],"min":[-1,-1,-1],"type":"VEC3"},{"bufferView":2,"componentType":5126,"count":2670,"max":[1.3329178094863892,1.7638368606567383],"min":[-0.3329179286956787,0.38142848014831543],"type":"VEC2"},{"bufferView":3,"componentType":5123,"count":5808,"max":[2669],"min":[0],"type":"SCALAR"}],"materials":[{"pbrMetallicRoughness":{"baseColorFactor":[0.5803921818733215,0.13725490868091583,0.13725490868091583,1],"metallicFactor":1,"roughnessFactor":0.858578622341156},"doubleSided":true,"name":"PlasterBrown"}],"meshes":[{"primitives":[{"mode":4,"attributes":{"POSITION":0,"NORMAL":1,"TEXCOORD_0":2},"indices":3,"material":0}]}]}