{"asset":{"version":"2.0","generator":"THREE.GLTFExporter"},"scenes":[{"nodes":[0]}],"scene":0,"nodes":[{"matrix":[0.02539999969303608,0,0,0,0,0.02539999969303608,0,0,0,0,0.02539999969303608,0,85.57797241210938,19.034032210944872,-48.736392974853516,1],"name":"HouseLG05_Wood_Beams","extras":{"name":"HouseLG05_Wood_Beams"},"mesh":0}],"bufferViews":[{"buffer":0,"byteOffset":0,"byteLength":165612,"target":34962,"byteStride":12},{"buffer":0,"byteOffset":165612,"byteLength":165612,"target":34962,"byteStride":12},{"buffer":0,"byteOffset":331224,"byteLength":110408,"target":34962,"byteStride":8},{"buffer":0,"byteOffset":441632,"byteLength":41820,"target":34963}],"buffers":[{"byteLength":483452,"uri":"data:application/octet-stream;base64,"}],"accessors":[{"bufferView":0,"componentType":5126,"count":13801,"max":[342.6861572265625,377.4189147949219,179.85043334960938],"min":[-342.68597412109375,-377.41888427734375,-179.85044860839844],"type":"VEC3"},{"bufferView":1,"componentType":5126,"count":13801,"max":[1,1,1],"min":[-1,-1,-1],"type":"VEC3"},{"bufferView":2,"componentType":5126,"count":13801,"max":[13.797517776489258,10.045308113098145],"min":[-12.797517776489258,-3.686936855316162],"type":"VEC2"},{"bufferView":3,"componentType":5123,"count":20910,"max":[13800],"min":[0],"type":"SCALAR"}],"materials":[{"pbrMetallicRoughness":{"baseColorFactor":[0.12941177189350128,0.03921568766236305,0.007843137718737125,1],"metallicFactor":1,"roughnessFactor":0.858578622341156},"doubleSided":true,"name":"Wood_Beams"}],"meshes":[{"primitives":[{"mode":4,"attributes":{"POSITION":0,"NORMAL":1,"TEXCOORD_0":2},"indices":3,"material":0}]}]}