{"asset":{"version":"2.0","generator":"THREE.GLTFExporter"},"scenes":[{"nodes":[0]}],"scene":0,"nodes":[{"matrix":[0.02539999969303608,0,0,0,0,0.02539999969303608,0,0,0,0,0.02539999969303608,0,-2.6571882629834818,8.258712802848407,25.16822652897494,1],"name":"GateHouseSM_PlasterYellow","extras":{"name":"GateHouseSM_PlasterYellow"},"mesh":0}],"bufferViews":[{"buffer":0,"byteOffset":0,"byteLength":7080,"target":34962,"byteStride":12},{"buffer":0,"byteOffset":7080,"byteLength":7080,"target":34962,"byteStride":12},{"buffer":0,"byteOffset":14160,"byteLength":4720,"target":34962,"byteStride":8},{"buffer":0,"byteOffset":18880,"byteLength":3096,"target":34963}],"buffers":[{"byteLength":21976,"uri":"data:application/octet-stream;base64,"}],"accessors":[{"bufferView":0,"componentType":5126,"count":590,"max":[69.10039520263672,161.67832946777344,68.7322998046875],"min":[-69.10039520263672,-161.67837524414062,-68.73226928710938],"type":"VEC3"},{"bufferView":1,"componentType":5126,"count":590,"max":[1,1,1],"min":[-1,-1,-1],"type":"VEC3"},{"bufferView":2,"componentType":5126,"count":590,"max":[21.61018943786621,18.31759262084961],"min":[-20.61018943786621,3.279378890991211],"type":"VEC2"},{"bufferView":3,"componentType":5123,"count":1548,"max":[589],"min":[0],"type":"SCALAR"}],"materials":[{"pbrMetallicRoughness":{"baseColorFactor":[0.7372549176216125,0.6000000238418579,0.3803921937942505,1],"metallicFactor":1,"roughnessFactor":0.858578622341156},"doubleSided":true,"name":"PlasterYellow"}],"meshes":[{"primitives":[{"mode":4,"attributes":{"POSITION":0,"NORMAL":1,"TEXCOORD_0":2},"indices":3,"material":0}]}]}