{"asset":{"version":"2.0","generator":"THREE.GLTFExporter"},"scenes":[{"nodes":[0]}],"scene":0,"nodes":[{"matrix":[0.02539999969303608,0,0,0,0,0.02539999969303608,0,0,0,0,0.02539999969303608,0,-58.12182291443605,11.769521145713014,-2.930982557884022,1],"name":"HouseMD01_PlasterYellow","extras":{"name":"HouseMD01_PlasterYellow"},"mesh":0}],"bufferViews":[{"buffer":0,"byteOffset":0,"byteLength":220284,"target":34962,"byteStride":12},{"buffer":0,"byteOffset":220284,"byteLength":220284,"target":34962,"byteStride":12},{"buffer":0,"byteOffset":440568,"byteLength":146856,"target":34962,"byteStride":8},{"buffer":0,"byteOffset":587424,"byteLength":66768,"target":34963}],"buffers":[{"byteLength":654192,"uri":"data:application/octet-stream;base64,"}],"accessors":[{"bufferView":0,"componentType":5126,"count":18357,"max":[333.83203125,210.9906463623047,223.9329833984375],"min":[-333.8321533203125,-210.9906463623047,-223.93310546875],"type":"VEC3"},{"bufferView":1,"componentType":5126,"count":18357,"max":[1,1,1.0000001192092896],"min":[-1,-1,-1],"type":"VEC3"},{"bufferView":2,"componentType":5126,"count":18357,"max":[19.621326446533203,19.610511779785156],"min":[-18.621326446533203,2.6330690383911133],"type":"VEC2"},{"bufferView":3,"componentType":5123,"count":33384,"max":[18356],"min":[0],"type":"SCALAR"}],"materials":[{"pbrMetallicRoughness":{"baseColorFactor":[0.7372549176216125,0.6000000238418579,0.3803921937942505,1],"metallicFactor":1,"roughnessFactor":0.858578622341156},"doubleSided":true,"name":"PlasterYellow"}],"meshes":[{"primitives":[{"mode":4,"attributes":{"POSITION":0,"NORMAL":1,"TEXCOORD_0":2},"indices":3,"material":0}]}]}