{"asset":{"version":"2.0","generator":"THREE.GLTFExporter"},"scenes":[{"nodes":[0]}],"scene":0,"nodes":[{"matrix":[0.02539999969303608,0,0,0,0,0.02539999969303608,0,0,0,0,0.02539999969303608,0,-45.29678017171909,1.528859069525737,25.079651859952833,1],"name":"网格.255_3","mesh":0}],"bufferViews":[{"buffer":0,"byteOffset":0,"byteLength":12648,"target":34962,"byteStride":12},{"buffer":0,"byteOffset":12648,"byteLength":12648,"target":34962,"byteStride":12},{"buffer":0,"byteOffset":25296,"byteLength":8432,"target":34962,"byteStride":8},{"buffer":0,"byteOffset":33728,"byteLength":3156,"target":34963}],"buffers":[{"byteLength":36884,"uri":"data:application/octet-stream;base64,"}],"accessors":[{"bufferView":0,"componentType":5126,"count":1054,"max":[100.28311157226562,39.68491744995117,12.034414291381836],"min":[-104.91397094726562,-27.059139251708984,-3.3734641075134277],"type":"VEC3"},{"bufferView":1,"componentType":5126,"count":1054,"max":[8.299554110635654e-8,0,1],"min":[-1,-3.528300283051067e-7,-5.637816684611607e-7],"type":"VEC3"},{"bufferView":2,"componentType":5126,"count":1054,"max":[0.999842643737793,0.7265411615371704],"min":[0.0001573712652316317,0.008339166641235352],"type":"VEC2"},{"bufferView":3,"componentType":5123,"count":1578,"max":[1053],"min":[0],"type":"SCALAR"}],"materials":[{"pbrMetallicRoughness":{"baseColorFactor":[0.41960787773132324,0.6274510025978088,0.7568628191947937,1],"metallicFactor":1,"roughnessFactor":0.858578622341156},"doubleSided":true,"name":"Glass"}],"meshes":[{"primitives":[{"mode":4,"attributes":{"POSITION":0,"NORMAL":1,"TEXCOORD_0":2},"indices":3,"material":0}]}]}