{"asset":{"version":"2.0","generator":"THREE.GLTFExporter"},"scenes":[{"nodes":[0]}],"scene":0,"nodes":[{"matrix":[0.02539999969303608,0,0,0,0,0.02539999969303608,0,0,0,0,0.02539999969303608,0,40.40752720947262,10.553681748226893,-5.702339406217675,1],"name":"HouseMD05_WoodDark","extras":{"name":"HouseMD05_WoodDark"},"mesh":0}],"bufferViews":[{"buffer":0,"byteOffset":0,"byteLength":13152,"target":34962,"byteStride":12},{"buffer":0,"byteOffset":13152,"byteLength":13152,"target":34962,"byteStride":12},{"buffer":0,"byteOffset":26304,"byteLength":8768,"target":34962,"byteStride":8},{"buffer":0,"byteOffset":35072,"byteLength":3192,"target":34963}],"buffers":[{"byteLength":38264,"uri":"data:application/octet-stream;base64,"}],"accessors":[{"bufferView":0,"componentType":5126,"count":1096,"max":[200.3544921875,47.13328552246094,113.33661651611328],"min":[-200.354248046875,-47.133262634277344,-113.33659362792969],"type":"VEC3"},{"bufferView":1,"componentType":5126,"count":1096,"max":[1,1,1],"min":[-1,-1,-1],"type":"VEC3"},{"bufferView":2,"componentType":5126,"count":1096,"max":[43.31361770629883,43.31361770629883],"min":[-42.31361770629883,13.257747650146484],"type":"VEC2"},{"bufferView":3,"componentType":5123,"count":1596,"max":[1095],"min":[0],"type":"SCALAR"}],"materials":[{"pbrMetallicRoughness":{"baseColorFactor":[0.07058823853731155,0.003921568859368563,0.003921568859368563,1],"metallicFactor":1,"roughnessFactor":0.858578622341156},"doubleSided":true,"name":"WoodDark"}],"meshes":[{"primitives":[{"mode":4,"attributes":{"POSITION":0,"NORMAL":1,"TEXCOORD_0":2},"indices":3,"material":0}]}]}