{"asset":{"version":"2.0","generator":"THREE.GLTFExporter"},"scenes":[{"nodes":[0]}],"scene":0,"nodes":[{"matrix":[0.02539999969303608,0,0,0,0,0.02539999969303608,0,0,0,0,0.02539999969303608,0,61.223928554605436,20.293186229353296,-48.050611262649,1],"name":"HouseLG04_WoodDark","extras":{"name":"HouseLG04_WoodDark"},"mesh":0}],"bufferViews":[{"buffer":0,"byteOffset":0,"byteLength":405912,"target":34962,"byteStride":12},{"buffer":0,"byteOffset":405912,"byteLength":405912,"target":34962,"byteStride":12},{"buffer":0,"byteOffset":811824,"byteLength":270608,"target":34962,"byteStride":8},{"buffer":0,"byteOffset":1082432,"byteLength":97836,"target":34963}],"buffers":[{"byteLength":1180268,"uri":"data:application/octet-stream;base64,"}],"accessors":[{"bufferView":0,"componentType":5126,"count":33826,"max":[187.1619873046875,315.248046875,168.411376953125],"min":[-187.162353515625,-315.2479553222656,-168.4114990234375],"type":"VEC3"},{"bufferView":1,"componentType":5126,"count":33826,"max":[1,1.0000001192092896,1],"min":[-1,-1.0000001192092896,-1],"type":"VEC3"},{"bufferView":2,"componentType":5126,"count":33826,"max":[10.696992874145508,15.794438362121582],"min":[-9.696992874145508,0.032036781311035156],"type":"VEC2"},{"bufferView":3,"componentType":5123,"count":48918,"max":[33825],"min":[0],"type":"SCALAR"}],"materials":[{"pbrMetallicRoughness":{"baseColorFactor":[0.07058823853731155,0.003921568859368563,0.003921568859368563,1],"metallicFactor":1,"roughnessFactor":0.858578622341156},"doubleSided":true,"name":"WoodDark"}],"meshes":[{"primitives":[{"mode":4,"attributes":{"POSITION":0,"NORMAL":1,"TEXCOORD_0":2},"indices":3,"material":0}]}]}