{"asset":{"version":"2.0","generator":"THREE.GLTFExporter"},"scenes":[{"nodes":[0]}],"scene":0,"nodes":[{"matrix":[0.02539999969303608,0,0,0,0,0.02539999969303608,0,0,0,0,0.02539999969303608,0,90.62827961933635,10.882491015276912,-0.5228784238306616,1],"name":"HouseLG01_Cloth","extras":{"name":"HouseLG01_Cloth"},"mesh":0}],"bufferViews":[{"buffer":0,"byteOffset":0,"byteLength":622272,"target":34962,"byteStride":12},{"buffer":0,"byteOffset":622272,"byteLength":622272,"target":34962,"byteStride":12},{"buffer":0,"byteOffset":1244544,"byteLength":414848,"target":34962,"byteStride":8},{"buffer":0,"byteOffset":1659392,"byteLength":155520,"target":34963}],"buffers":[{"byteLength":1814912,"uri":"data:application/octet-stream;base64,"}],"accessors":[{"bufferView":0,"componentType":5126,"count":51856,"max":[138.26556396484375,35.743690490722656,59.860107421875],"min":[-138.26580810546875,-35.74378204345703,-59.86012268066406],"type":"VEC3"},{"bufferView":1,"componentType":5126,"count":51856,"max":[0.9999980926513672,0.9999803900718689,0.9530904293060303],"min":[-0.9999890327453613,-0.30739346146583557,-0.8848549723625183],"type":"VEC3"},{"bufferView":2,"componentType":5126,"count":51856,"max":[0.9963129758834839,0.9963129758834839],"min":[0.0036869999021291733,0.6981059908866882],"type":"VEC2"},{"bufferView":3,"componentType":5123,"count":77760,"max":[51855],"min":[0],"type":"SCALAR"}],"materials":[{"pbrMetallicRoughness":{"baseColorFactor":[0.7568628191947937,0.6313725709915161,0.46666669845581055,1],"metallicFactor":1,"roughnessFactor":0.858578622341156},"doubleSided":true,"name":"Cloth"}],"meshes":[{"primitives":[{"mode":4,"attributes":{"POSITION":0,"NORMAL":1,"TEXCOORD_0":2},"indices":3,"material":0}]}]}