{"asset":{"version":"2.0","generator":"THREE.GLTFExporter"},"scenes":[{"nodes":[0]}],"scene":0,"nodes":[{"matrix":[0.02539999969303608,0,0,0,0,0.02539999969303608,0,0,0,0,0.02539999969303608,0,-40.31807637446582,5.606526015485599,25.368953383861353,1],"name":"网格.252_2","mesh":0}],"bufferViews":[{"buffer":0,"byteOffset":0,"byteLength":46104,"target":34962,"byteStride":12},{"buffer":0,"byteOffset":46104,"byteLength":46104,"target":34962,"byteStride":12},{"buffer":0,"byteOffset":92208,"byteLength":30736,"target":34962,"byteStride":8},{"buffer":0,"byteOffset":122944,"byteLength":13788,"target":34963}],"buffers":[{"byteLength":136732,"uri":"data:application/octet-stream;base64,"}],"accessors":[{"bufferView":0,"componentType":5126,"count":3842,"max":[19.891672134399414,21.297168731689453,5.115948677062988],"min":[-19.89198112487793,-38.16782760620117,2.3497354984283447],"type":"VEC3"},{"bufferView":1,"componentType":5126,"count":3842,"max":[1,1,1],"min":[-1,-1,-1],"type":"VEC3"},{"bufferView":2,"componentType":5126,"count":3842,"max":[1.4269574880599976,1.4910831451416016],"min":[-0.42695748805999756,-0.49108314514160156],"type":"VEC2"},{"bufferView":3,"componentType":5123,"count":6894,"max":[3841],"min":[0],"type":"SCALAR"}],"materials":[{"pbrMetallicRoughness":{"baseColorFactor":[0.7058823704719543,0.8588235974311829,0.6549019813537598,1],"metallicFactor":1,"roughnessFactor":0.858578622341156},"doubleSided":true,"name":"Mullions_Wood"}],"meshes":[{"primitives":[{"mode":4,"attributes":{"POSITION":0,"NORMAL":1,"TEXCOORD_0":2},"indices":3,"material":0}]}]}