{"asset":{"version":"2.0","generator":"THREE.GLTFExporter"},"scenes":[{"nodes":[0]}],"scene":0,"nodes":[{"matrix":[0.02539999969303608,0,0,0,0,0.02539999969303608,0,0,0,0,0.02539999969303608,0,-36.409990621225006,16.106429875036895,-47.04928948322413,1],"name":"ManorMD_WoodDark","extras":{"name":"ManorMD_WoodDark"},"mesh":0}],"bufferViews":[{"buffer":0,"byteOffset":0,"byteLength":151272,"target":34962,"byteStride":12},{"buffer":0,"byteOffset":151272,"byteLength":151272,"target":34962,"byteStride":12},{"buffer":0,"byteOffset":302544,"byteLength":100848,"target":34962,"byteStride":8},{"buffer":0,"byteOffset":403392,"byteLength":35964,"target":34963}],"buffers":[{"byteLength":439356,"uri":"data:application/octet-stream;base64,"}],"accessors":[{"bufferView":0,"componentType":5126,"count":12606,"max":[815.5675659179688,253.46200561523438,385.3448181152344],"min":[-815.567626953125,-253.4620819091797,-385.3446044921875],"type":"VEC3"},{"bufferView":1,"componentType":5126,"count":12606,"max":[1,1,1],"min":[-1,-1.0000001192092896,-1],"type":"VEC3"},{"bufferView":2,"componentType":5126,"count":12606,"max":[81.96977233886719,17.112953186035156],"min":[-80.96977233886719,-2.1542725563049316],"type":"VEC2"},{"bufferView":3,"componentType":5123,"count":17982,"max":[12605],"min":[0],"type":"SCALAR"}],"materials":[{"pbrMetallicRoughness":{"baseColorFactor":[0.07058823853731155,0.003921568859368563,0.003921568859368563,1],"metallicFactor":1,"roughnessFactor":0.858578622341156},"doubleSided":true,"name":"WoodDark"}],"meshes":[{"primitives":[{"mode":4,"attributes":{"POSITION":0,"NORMAL":1,"TEXCOORD_0":2},"indices":3,"material":0}]}]}