{"asset":{"version":"2.0","generator":"THREE.GLTFExporter"},"scenes":[{"nodes":[0]}],"scene":0,"nodes":[{"matrix":[0.02539999969303608,0,0,0,0,0.02539999969303608,0,0,0,0,0.02539999969303608,0,56.70572280883789,12.067922223937103,25.209566769409264,1],"name":"BellTower_Wood_Beams","extras":{"name":"BellTower_Wood_Beams"},"mesh":0}],"bufferViews":[{"buffer":0,"byteOffset":0,"byteLength":19860,"target":34962,"byteStride":12},{"buffer":0,"byteOffset":19860,"byteLength":19860,"target":34962,"byteStride":12},{"buffer":0,"byteOffset":39720,"byteLength":13240,"target":34962,"byteStride":8},{"buffer":0,"byteOffset":52960,"byteLength":5448,"target":34963}],"buffers":[{"byteLength":58408,"uri":"data:application/octet-stream;base64,"}],"accessors":[{"bufferView":0,"componentType":5126,"count":1655,"max":[82.6103744506836,195.4576416015625,74.22374725341797],"min":[-82.6103744506836,-195.45765686035156,-74.22369384765625],"type":"VEC3"},{"bufferView":1,"componentType":5126,"count":1655,"max":[1,1,1],"min":[-1,-1,-1],"type":"VEC3"},{"bufferView":2,"componentType":5126,"count":1655,"max":[7.885368824005127,4.26691198348999],"min":[-5.578795433044434,-5.071076393127441],"type":"VEC2"},{"bufferView":3,"componentType":5123,"count":2724,"max":[1654],"min":[0],"type":"SCALAR"}],"materials":[{"pbrMetallicRoughness":{"baseColorFactor":[0.12941177189350128,0.03921568766236305,0.007843137718737125,1],"metallicFactor":1,"roughnessFactor":0.858578622341156},"doubleSided":true,"name":"Wood_Beams"}],"meshes":[{"primitives":[{"mode":4,"attributes":{"POSITION":0,"NORMAL":1,"TEXCOORD_0":2},"indices":3,"material":0}]}]}