{"asset":{"version":"2.0","generator":"THREE.GLTFExporter"},"scenes":[{"nodes":[0]}],"scene":0,"nodes":[{"matrix":[0.02539999969303608,0,0,0,0,0.02539999969303608,0,0,0,0,0.02539999969303608,0,-54.46022073480526,5.371819414318168,25.52206457891039,1],"name":"网格.281_2","mesh":0}],"bufferViews":[{"buffer":0,"byteOffset":0,"byteLength":1512,"target":34962,"byteStride":12},{"buffer":0,"byteOffset":1512,"byteLength":1512,"target":34962,"byteStride":12},{"buffer":0,"byteOffset":3024,"byteLength":1008,"target":34962,"byteStride":8},{"buffer":0,"byteOffset":4032,"byteLength":672,"target":34963}],"buffers":[{"byteLength":4704,"uri":"data:application/octet-stream;base64,"}],"accessors":[{"bufferView":0,"componentType":5126,"count":126,"max":[53.02714920043945,73.04376220703125,15.60848617553711],"min":[-53.02714920043945,35.559288024902344,-20.016460418701172],"type":"VEC3"},{"bufferView":1,"componentType":5126,"count":126,"max":[0.7764051556587219,1,0.9275138974189758],"min":[-0.7764051556587219,0,-1],"type":"VEC3"},{"bufferView":2,"componentType":5126,"count":126,"max":[1.6495591402053833,1.0410798788070679],"min":[0.5504404902458191,-0.04107999801635742],"type":"VEC2"},{"bufferView":3,"componentType":5123,"count":336,"max":[125],"min":[0],"type":"SCALAR"}],"materials":[{"pbrMetallicRoughness":{"baseColorFactor":[0.4666666666666667,0.4745098039215686,0.4666666666666667,1],"metallicFactor":0,"roughnessFactor":1}}],"meshes":[{"primitives":[{"mode":4,"attributes":{"POSITION":0,"NORMAL":1,"TEXCOORD_0":2},"indices":3,"material":0}]}]}