{"asset":{"version":"2.0","generator":"THREE.GLTFExporter"},"scenes":[{"nodes":[0]}],"scene":0,"nodes":[{"matrix":[0.02539999969303608,0,0,0,0,0.02539999969303608,0,0,0,0,0.02539999969303608,0,-41.256975328273256,16.998305657715434,-46.075308635619876,1],"name":"ManorMD_Glass","extras":{"name":"ManorMD_Glass"},"mesh":0}],"bufferViews":[{"buffer":0,"byteOffset":0,"byteLength":96864,"target":34962,"byteStride":12},{"buffer":0,"byteOffset":96864,"byteLength":96864,"target":34962,"byteStride":12},{"buffer":0,"byteOffset":193728,"byteLength":64576,"target":34962,"byteStride":8},{"buffer":0,"byteOffset":258304,"byteLength":40068,"target":34963}],"buffers":[{"byteLength":298372,"uri":"data:application/octet-stream;base64,"}],"accessors":[{"bufferView":0,"componentType":5126,"count":8072,"max":[964.5382690429688,150.38021850585938,368.5516357421875],"min":[-964.538330078125,-150.38035583496094,-368.5517578125],"type":"VEC3"},{"bufferView":1,"componentType":5126,"count":8072,"max":[0.9998493194580078,1,1],"min":[-0.9005523920059204,-0.0000709918313077651,-1],"type":"VEC3"},{"bufferView":2,"componentType":5126,"count":8072,"max":[0.9962908029556274,1.1665966510772705],"min":[0,-0.5147463083267212],"type":"VEC2"},{"bufferView":3,"componentType":5123,"count":20034,"max":[8071],"min":[0],"type":"SCALAR"}],"materials":[{"pbrMetallicRoughness":{"baseColorFactor":[0.41960787773132324,0.6274510025978088,0.7568628191947937,1],"metallicFactor":1,"roughnessFactor":0.858578622341156},"doubleSided":true,"name":"Glass"}],"meshes":[{"primitives":[{"mode":4,"attributes":{"POSITION":0,"NORMAL":1,"TEXCOORD_0":2},"indices":3,"material":0}]}]}