{"asset":{"version":"2.0","generator":"THREE.GLTFExporter"},"scenes":[{"nodes":[0]}],"scene":0,"nodes":[{"matrix":[0.02539999969303608,0,0,0,0,0.02539999969303608,0,0,0,0,0.02539999969303608,0,-58.731835917556964,1.085435365778153,25.078494953838884,1],"name":"网格.261_1","mesh":0}],"bufferViews":[{"buffer":0,"byteOffset":0,"byteLength":36504,"target":34962,"byteStride":12},{"buffer":0,"byteOffset":36504,"byteLength":36504,"target":34962,"byteStride":12},{"buffer":0,"byteOffset":73008,"byteLength":24336,"target":34962,"byteStride":8},{"buffer":0,"byteOffset":97344,"byteLength":9336,"target":34963}],"buffers":[{"byteLength":106680,"uri":"data:application/octet-stream;base64,"}],"accessors":[{"bufferView":0,"componentType":5126,"count":3042,"max":[44.489498138427734,63.89603042602539,7.389675140380859],"min":[-45.108638763427734,-45.79153823852539,-8.161483764648438],"type":"VEC3"},{"bufferView":1,"componentType":5126,"count":3042,"max":[1,1,1],"min":[-1,-1,-1],"type":"VEC3"},{"bufferView":2,"componentType":5126,"count":3042,"max":[1.436783790588379,0.9570314884185791],"min":[-0.4367837905883789,0.04296845197677612],"type":"VEC2"},{"bufferView":3,"componentType":5123,"count":4668,"max":[3041],"min":[0],"type":"SCALAR"}],"materials":[{"pbrMetallicRoughness":{"baseColorFactor":[0.5803921818733215,0.13725490868091583,0.13725490868091583,1],"metallicFactor":1,"roughnessFactor":0.858578622341156},"doubleSided":true,"name":"PlasterBrown"}],"meshes":[{"primitives":[{"mode":4,"attributes":{"POSITION":0,"NORMAL":1,"TEXCOORD_0":2},"indices":3,"material":0}]}]}