{"asset":{"version":"2.0","generator":"THREE.GLTFExporter"},"scenes":[{"nodes":[0]}],"scene":0,"nodes":[{"matrix":[0.02539999969303608,0,0,0,0,0.02539999969303608,0,0,0,0,0.02539999969303608,0,86.1030117052751,21.78624316011428,-5.952914356742781,1],"name":"HouseLG01_RoofTiles","extras":{"name":"HouseLG01_RoofTiles"},"mesh":0}],"bufferViews":[{"buffer":0,"byteOffset":0,"byteLength":49824,"target":34962,"byteStride":12},{"buffer":0,"byteOffset":49824,"byteLength":49824,"target":34962,"byteStride":12},{"buffer":0,"byteOffset":99648,"byteLength":33216,"target":34962,"byteStride":8},{"buffer":0,"byteOffset":132864,"byteLength":12552,"target":34963}],"buffers":[{"byteLength":145416,"uri":"data:application/octet-stream;base64,"}],"accessors":[{"bufferView":0,"componentType":5126,"count":4152,"max":[391.11834716796875,175.59796142578125,212.3433837890625],"min":[-391.11846923828125,-175.59799194335938,-212.34326171875],"type":"VEC3"},{"bufferView":1,"componentType":5126,"count":4152,"max":[1,1.0000001192092896,1],"min":[-1,-1.0000001192092896,-1],"type":"VEC3"},{"bufferView":2,"componentType":5126,"count":4152,"max":[12.276047706604004,12.349689483642578],"min":[-11.349689483642578,1.8213844299316406],"type":"VEC2"},{"bufferView":3,"componentType":5123,"count":6276,"max":[4151],"min":[0],"type":"SCALAR"}],"materials":[{"pbrMetallicRoughness":{"baseColorFactor":[0.4666666666666667,0.4745098039215686,0.4666666666666667,1],"metallicFactor":0,"roughnessFactor":1}}],"meshes":[{"primitives":[{"mode":4,"attributes":{"POSITION":0,"NORMAL":1,"TEXCOORD_0":2},"indices":3,"material":0}]}]}