{"asset":{"version":"2.0","generator":"THREE.GLTFExporter"},"scenes":[{"nodes":[0]}],"scene":0,"nodes":[{"matrix":[0.02539999969303608,0,0,0,0,0.02539999969303608,0,0,0,0,0.02539999969303608,0,56.70572280883789,20.711966589686995,25.20957374572754,1],"name":"BellTower_RoofTiles","extras":{"name":"BellTower_RoofTiles"},"mesh":0}],"bufferViews":[{"buffer":0,"byteOffset":0,"byteLength":1344,"target":34962,"byteStride":12},{"buffer":0,"byteOffset":1344,"byteLength":1344,"target":34962,"byteStride":12},{"buffer":0,"byteOffset":2688,"byteLength":896,"target":34962,"byteStride":8},{"buffer":0,"byteOffset":3584,"byteLength":336,"target":34963}],"buffers":[{"byteLength":3920,"uri":"data:application/octet-stream;base64,"}],"accessors":[{"bufferView":0,"componentType":5126,"count":112,"max":[80.34662628173828,23.540475845336914,95.87833404541016],"min":[-80.34662628173828,-23.54047966003418,-95.87832641601562],"type":"VEC3"},{"bufferView":1,"componentType":5126,"count":112,"max":[0.8722554445266724,0.8736276030540466,1],"min":[-0.8722431063652039,-0.8728921413421631,-1],"type":"VEC3"},{"bufferView":2,"componentType":5126,"count":112,"max":[19.289714813232422,19.289714813232422],"min":[-18.289714813232422,2.631376028060913],"type":"VEC2"},{"bufferView":3,"componentType":5123,"count":168,"max":[111],"min":[0],"type":"SCALAR"}],"materials":[{"pbrMetallicRoughness":{"baseColorFactor":[0.4666666666666667,0.4745098039215686,0.4666666666666667,1],"metallicFactor":0,"roughnessFactor":1}}],"meshes":[{"primitives":[{"mode":4,"attributes":{"POSITION":0,"NORMAL":1,"TEXCOORD_0":2},"indices":3,"material":0}]}]}