{"asset":{"version":"2.0","generator":"THREE.GLTFExporter"},"scenes":[{"nodes":[0]}],"scene":0,"nodes":[{"matrix":[0.02539999969303608,0,0,0,0,0.02539999969303608,0,0,0,0,0.02539999969303608,0,9.064511281104387,6.137061052241165,19.922255113184065,1],"name":"HouseCabin_Stone_Stacked","extras":{"name":"HouseCabin_Stone_Stacked"},"mesh":0}],"bufferViews":[{"buffer":0,"byteOffset":0,"byteLength":112512,"target":34962,"byteStride":12},{"buffer":0,"byteOffset":112512,"byteLength":112512,"target":34962,"byteStride":12},{"buffer":0,"byteOffset":225024,"byteLength":75008,"target":34962,"byteStride":8},{"buffer":0,"byteOffset":300032,"byteLength":28800,"target":34963}],"buffers":[{"byteLength":328832,"uri":"data:application/octet-stream;base64,"}],"accessors":[{"bufferView":0,"componentType":5126,"count":9376,"max":[27.021188735961914,132.92835998535156,22.614635467529297],"min":[-27.021188735961914,-132.92835998535156,-22.614635467529297],"type":"VEC3"},{"bufferView":1,"componentType":5126,"count":9376,"max":[1.0000001192092896,0.9998524785041809,1.0000001192092896],"min":[-1.0000001192092896,-1,-1],"type":"VEC3"},{"bufferView":2,"componentType":5126,"count":9376,"max":[10.590719223022461,9.090719223022461],"min":[-8.090719223022461,3.088303804397583],"type":"VEC2"},{"bufferView":3,"componentType":5123,"count":14400,"max":[9375],"min":[0],"type":"SCALAR"}],"materials":[{"pbrMetallicRoughness":{"baseColorFactor":[0.40000003576278687,0.41960787773132324,0.7921569347381592,1],"metallicFactor":1,"roughnessFactor":0.858578622341156},"doubleSided":true,"name":"Stone_Stacked"}],"meshes":[{"primitives":[{"mode":4,"attributes":{"POSITION":0,"NORMAL":1,"TEXCOORD_0":2},"indices":3,"material":0}]}]}