{"asset":{"version":"2.0","generator":"THREE.GLTFExporter"},"scenes":[{"nodes":[0]}],"scene":0,"nodes":[{"matrix":[0.02539999969303608,0,0,0,0,0.02539999969303608,0,0,0,0,0.02539999969303608,0,111.88321341406936,14.94418697802007,-11.134092693864886,1],"name":"HouseLG02_Stone_Stacked","extras":{"name":"HouseLG02_Stone_Stacked"},"mesh":0}],"bufferViews":[{"buffer":0,"byteOffset":0,"byteLength":4140,"target":34962,"byteStride":12},{"buffer":0,"byteOffset":4140,"byteLength":4140,"target":34962,"byteStride":12},{"buffer":0,"byteOffset":8280,"byteLength":2760,"target":34962,"byteStride":8},{"buffer":0,"byteOffset":11040,"byteLength":1128,"target":34963}],"buffers":[{"byteLength":12168,"uri":"data:application/octet-stream;base64,"}],"accessors":[{"bufferView":0,"componentType":5126,"count":345,"max":[32.8486328125,306.672607421875,54.478759765625],"min":[-32.8515625,-306.6724853515625,-54.47900390625],"type":"VEC3"},{"bufferView":1,"componentType":5126,"count":345,"max":[1,1,1],"min":[-1,-1,-1],"type":"VEC3"},{"bufferView":2,"componentType":5126,"count":345,"max":[20.142982482910156,15.598590850830078],"min":[-17.642982482910156,2.6129417419433594],"type":"VEC2"},{"bufferView":3,"componentType":5123,"count":564,"max":[344],"min":[0],"type":"SCALAR"}],"materials":[{"pbrMetallicRoughness":{"baseColorFactor":[0.40000003576278687,0.41960787773132324,0.7921569347381592,1],"metallicFactor":1,"roughnessFactor":0.858578622341156},"doubleSided":true,"name":"Stone_Stacked"}],"meshes":[{"primitives":[{"mode":4,"attributes":{"POSITION":0,"NORMAL":1,"TEXCOORD_0":2},"indices":3,"material":0}]}]}