{"asset":{"version":"2.0","generator":"THREE.GLTFExporter"},"scenes":[{"nodes":[0]}],"scene":0,"nodes":[{"matrix":[0.02539999969303608,0,0,0,0,0.02539999969303608,0,0,0,0,0.02539999969303608,0,-32.03201371448836,19.59564229868937,-5.822320938110352,1],"name":"HouseMD02_RoofTiles","extras":{"name":"HouseMD02_RoofTiles"},"mesh":0}],"bufferViews":[{"buffer":0,"byteOffset":0,"byteLength":4152,"target":34962,"byteStride":12},{"buffer":0,"byteOffset":4152,"byteLength":4152,"target":34962,"byteStride":12},{"buffer":0,"byteOffset":8304,"byteLength":2768,"target":34962,"byteStride":8},{"buffer":0,"byteOffset":11072,"byteLength":1056,"target":34963}],"buffers":[{"byteLength":12128,"uri":"data:application/octet-stream;base64,"}],"accessors":[{"bufferView":0,"componentType":5126,"count":346,"max":[201.2327880859375,104.09371948242188,93.338623046875],"min":[-201.23291015625,-104.09378051757812,-93.338623046875],"type":"VEC3"},{"bufferView":1,"componentType":5126,"count":346,"max":[1,1,0.9293531775474548],"min":[-1,-1,-0.929362952709198],"type":"VEC3"},{"bufferView":2,"componentType":5126,"count":346,"max":[23.428993225097656,12.333450317382812],"min":[-22.428993225097656,2.4709439277648926],"type":"VEC2"},{"bufferView":3,"componentType":5123,"count":528,"max":[345],"min":[0],"type":"SCALAR"}],"materials":[{"pbrMetallicRoughness":{"baseColorFactor":[0.4666666666666667,0.4745098039215686,0.4666666666666667,1],"metallicFactor":0,"roughnessFactor":1}}],"meshes":[{"primitives":[{"mode":4,"attributes":{"POSITION":0,"NORMAL":1,"TEXCOORD_0":2},"indices":3,"material":0}]}]}