{"asset":{"version":"2.0","generator":"THREE.GLTFExporter"},"scenes":[{"nodes":[0]}],"scene":0,"nodes":[{"matrix":[0.02539999969303608,0,0,0,0,0.02539999969303608,0,0,0,0,0.02539999969303608,0,153.79653930664062,15.119216415569042,-49.4310831610419,1],"name":"HouseLG07_RoofTiles","extras":{"name":"HouseLG07_RoofTiles"},"mesh":0}],"bufferViews":[{"buffer":0,"byteOffset":0,"byteLength":11316,"target":34962,"byteStride":12},{"buffer":0,"byteOffset":11316,"byteLength":11316,"target":34962,"byteStride":12},{"buffer":0,"byteOffset":22632,"byteLength":7544,"target":34962,"byteStride":8},{"buffer":0,"byteOffset":30176,"byteLength":2768,"target":34963}],"buffers":[{"byteLength":32944,"uri":"data:application/octet-stream;base64,"}],"accessors":[{"bufferView":0,"componentType":5126,"count":943,"max":[448.9969482421875,207.84182739257812,356.86376953125],"min":[-448.9970703125,-207.85633850097656,-356.8638000488281],"type":"VEC3"},{"bufferView":1,"componentType":5126,"count":943,"max":[1,1,1],"min":[-1,-0.9999719858169556,-1],"type":"VEC3"},{"bufferView":2,"componentType":5126,"count":943,"max":[12.71760082244873,12.852611541748047],"min":[-11.71760082244873,2.8006691932678223],"type":"VEC2"},{"bufferView":3,"componentType":5123,"count":1383,"max":[942],"min":[0],"type":"SCALAR"}],"materials":[{"pbrMetallicRoughness":{"baseColorFactor":[0.4666666666666667,0.4745098039215686,0.4666666666666667,1],"metallicFactor":0,"roughnessFactor":1}}],"meshes":[{"primitives":[{"mode":4,"attributes":{"POSITION":0,"NORMAL":1,"TEXCOORD_0":2},"indices":3,"material":0}]}]}