{"asset":{"version":"2.0","generator":"THREE.GLTFExporter"},"scenes":[{"nodes":[0]}],"scene":0,"nodes":[{"matrix":[0.02539999969303608,0,0,0,0,0.02539999969303608,0,0,0,0,0.02539999969303608,0,-27.27495782965252,106.96651894147908,-119.87596650906744,1],"name":"CastleLG_Glass001","extras":{"name":"CastleLG_Glass.001"},"mesh":0}],"bufferViews":[{"buffer":0,"byteOffset":0,"byteLength":50016,"target":34962,"byteStride":12},{"buffer":0,"byteOffset":50016,"byteLength":50016,"target":34962,"byteStride":12},{"buffer":0,"byteOffset":100032,"byteLength":33344,"target":34962,"byteStride":8},{"buffer":0,"byteOffset":133376,"byteLength":13584,"target":34963}],"buffers":[{"byteLength":146960,"uri":"data:application/octet-stream;base64,"}],"accessors":[{"bufferView":0,"componentType":5126,"count":4168,"max":[582.6430053710938,1836.5416259765625,530.217529296875],"min":[-680.4066772460938,-1836.541259765625,-785.6873168945312],"type":"VEC3"},{"bufferView":1,"componentType":5126,"count":4168,"max":[1,0.0000062856920521880966,1],"min":[-1,-0.00000699964266459574,-1],"type":"VEC3"},{"bufferView":2,"componentType":5126,"count":4168,"max":[1,1],"min":[0,0],"type":"VEC2"},{"bufferView":3,"componentType":5123,"count":6792,"max":[4167],"min":[0],"type":"SCALAR"}],"materials":[{"pbrMetallicRoughness":{"baseColorFactor":[0.41960787773132324,0.6274510025978088,0.7568628191947937,1],"metallicFactor":1,"roughnessFactor":0.858578622341156},"doubleSided":true,"name":"Glass"}],"meshes":[{"primitives":[{"mode":4,"attributes":{"POSITION":0,"NORMAL":1,"TEXCOORD_0":2},"indices":3,"material":0}]}]}