{"asset":{"version":"2.0","generator":"THREE.GLTFExporter"},"scenes":[{"nodes":[0]}],"scene":0,"nodes":[{"matrix":[0.02539999969303608,0,0,0,0,0.02539999969303608,0,0,0,0,0.02539999969303608,0,-35.94057618322813,1.0807550313620595,26.098214094347412,1],"name":"网格.250_1","mesh":0}],"bufferViews":[{"buffer":0,"byteOffset":0,"byteLength":622272,"target":34962,"byteStride":12},{"buffer":0,"byteOffset":622272,"byteLength":622272,"target":34962,"byteStride":12},{"buffer":0,"byteOffset":1244544,"byteLength":414848,"target":34962,"byteStride":8},{"buffer":0,"byteOffset":1659392,"byteLength":155520,"target":34963}],"buffers":[{"byteLength":1814912,"uri":"data:application/octet-stream;base64,"}],"accessors":[{"bufferView":0,"componentType":5126,"count":51856,"max":[115.64241790771484,55.611907958984375,15.172119140625],"min":[-114.95394134521484,-4.001054763793945,-84.66112518310547],"type":"VEC3"},{"bufferView":1,"componentType":5126,"count":51856,"max":[0.9999868869781494,0.9999141097068787,0.9955781102180481],"min":[-0.9999947547912598,-0.9999866485595703,-0.9999892115592957],"type":"VEC3"},{"bufferView":2,"componentType":5126,"count":51856,"max":[0.9984325766563416,0.9983178973197937],"min":[0.0015673980815336108,0.018944203853607178],"type":"VEC2"},{"bufferView":3,"componentType":5123,"count":77760,"max":[51855],"min":[0],"type":"SCALAR"}],"materials":[{"pbrMetallicRoughness":{"baseColorFactor":[0.21226100623607635,0.1704780012369156,0.08462850004434586,1],"metallicFactor":1,"roughnessFactor":0},"doubleSided":true,"name":"cloth"}],"meshes":[{"primitives":[{"mode":4,"attributes":{"POSITION":0,"NORMAL":1,"TEXCOORD_0":2},"indices":3,"material":0}]}]}