{"asset":{"version":"2.0","generator":"THREE.GLTFExporter"},"scenes":[{"nodes":[0]}],"scene":0,"nodes":[{"matrix":[0.02539999969303608,0,0,0,0,0.02539999969303608,0,0,0,0,0.02539999969303608,0,-43.682215176582986,5.199590781756029,25.43060504632429,1],"name":"网格253","mesh":0}],"bufferViews":[{"buffer":0,"byteOffset":0,"byteLength":11688,"target":34962,"byteStride":12},{"buffer":0,"byteOffset":11688,"byteLength":11688,"target":34962,"byteStride":12},{"buffer":0,"byteOffset":23376,"byteLength":7792,"target":34962,"byteStride":8},{"buffer":0,"byteOffset":31168,"byteLength":4692,"target":34963}],"buffers":[{"byteLength":35860,"uri":"data:application/octet-stream;base64,"}],"accessors":[{"bufferView":0,"componentType":5126,"count":974,"max":[79.37891387939453,45.00120544433594,12.61294937133789],"min":[0.2774065434932709,-24.25136375427246,-9.850027084350586],"type":"VEC3"},{"bufferView":1,"componentType":5126,"count":974,"max":[1,1,1],"min":[-1,-1,-1],"type":"VEC3"},{"bufferView":2,"componentType":5126,"count":974,"max":[1.3329180479049683,0.6185716390609741],"min":[-0.33291804790496826,-0.7638368606567383],"type":"VEC2"},{"bufferView":3,"componentType":5123,"count":2346,"max":[973],"min":[0],"type":"SCALAR"}],"materials":[{"pbrMetallicRoughness":{"baseColorFactor":[0.5803921818733215,0.13725490868091583,0.13725490868091583,1],"metallicFactor":1,"roughnessFactor":0.858578622341156},"doubleSided":true,"name":"PlasterBrown"}],"meshes":[{"primitives":[{"mode":4,"attributes":{"POSITION":0,"NORMAL":1,"TEXCOORD_0":2},"indices":3,"material":0}]}]}