{"asset":{"version":"2.0","generator":"THREE.GLTFExporter"},"scenes":[{"nodes":[0]}],"scene":0,"nodes":[{"matrix":[0.02539999969303608,0,0,0,0,0.02539999969303608,0,0,0,0,0.02539999969303608,0,60.135549066162184,11.507092246374157,-2.821522852967405,1],"name":"HouseMD06_Stone_Stacked","extras":{"name":"HouseMD06_Stone_Stacked"},"mesh":0}],"bufferViews":[{"buffer":0,"byteOffset":0,"byteLength":3072,"target":34962,"byteStride":12},{"buffer":0,"byteOffset":3072,"byteLength":3072,"target":34962,"byteStride":12},{"buffer":0,"byteOffset":6144,"byteLength":2048,"target":34962,"byteStride":8},{"buffer":0,"byteOffset":8192,"byteLength":840,"target":34963}],"buffers":[{"byteLength":9032,"uri":"data:application/octet-stream;base64,"}],"accessors":[{"bufferView":0,"componentType":5126,"count":256,"max":[156.21878051757812,66.68970489501953,14.874969482421875],"min":[-156.2186279296875,-66.689697265625,-14.875091552734375],"type":"VEC3"},{"bufferView":1,"componentType":5126,"count":256,"max":[1,1,1],"min":[-1,-1,-1],"type":"VEC3"},{"bufferView":2,"componentType":5126,"count":256,"max":[9.506636619567871,8.006636619567871],"min":[-7.006636619567871,3.5691938400268555],"type":"VEC2"},{"bufferView":3,"componentType":5123,"count":420,"max":[255],"min":[0],"type":"SCALAR"}],"materials":[{"pbrMetallicRoughness":{"baseColorFactor":[0.40000003576278687,0.41960787773132324,0.7921569347381592,1],"metallicFactor":1,"roughnessFactor":0.858578622341156},"doubleSided":true,"name":"Stone_Stacked"}],"meshes":[{"primitives":[{"mode":4,"attributes":{"POSITION":0,"NORMAL":1,"TEXCOORD_0":2},"indices":3,"material":0}]}]}