{"asset":{"version":"2.0","generator":"THREE.GLTFExporter"},"scenes":[{"nodes":[0]}],"scene":0,"nodes":[{"matrix":[0.02539999969303608,0,0,0,0,0.02539999969303608,0,0,0,0,0.02539999969303608,0,159.43196350317612,9.324872179725872,25.20988500061037,1],"name":"HouseSM01_PlasterYellow","extras":{"name":"HouseSM01_PlasterYellow"},"mesh":0}],"bufferViews":[{"buffer":0,"byteOffset":0,"byteLength":12252,"target":34962,"byteStride":12},{"buffer":0,"byteOffset":12252,"byteLength":12252,"target":34962,"byteStride":12},{"buffer":0,"byteOffset":24504,"byteLength":8168,"target":34962,"byteStride":8},{"buffer":0,"byteOffset":32672,"byteLength":3228,"target":34963}],"buffers":[{"byteLength":35900,"uri":"data:application/octet-stream;base64,"}],"accessors":[{"bufferView":0,"componentType":5126,"count":1021,"max":[260.48077392578125,180.41648864746094,126.99127197265625],"min":[-260.4813232421875,-180.41650390625,-126.99127197265625],"type":"VEC3"},{"bufferView":1,"componentType":5126,"count":1021,"max":[1.0000001192092896,1,1],"min":[-1.0000001192092896,-1,-1],"type":"VEC3"},{"bufferView":2,"componentType":5126,"count":1021,"max":[18.748369216918945,18.748369216918945],"min":[-17.748369216918945,3.060108184814453],"type":"VEC2"},{"bufferView":3,"componentType":5123,"count":1614,"max":[1020],"min":[0],"type":"SCALAR"}],"materials":[{"pbrMetallicRoughness":{"baseColorFactor":[0.7372549176216125,0.6000000238418579,0.3803921937942505,1],"metallicFactor":1,"roughnessFactor":0.858578622341156},"doubleSided":true,"name":"PlasterYellow"}],"meshes":[{"primitives":[{"mode":4,"attributes":{"POSITION":0,"NORMAL":1,"TEXCOORD_0":2},"indices":3,"material":0}]}]}