{"asset":{"version":"2.0","generator":"THREE.GLTFExporter"},"scenes":[{"nodes":[0]}],"scene":0,"nodes":[{"matrix":[0.02539999969303608,0,0,0,0,0.02539999969303608,0,0,0,0,0.02539999969303608,0,84.95096242244108,22.638773056321696,-113.25544867063945,1],"name":"CastleSM_PlasterBrown","extras":{"name":"CastleSM_PlasterBrown"},"mesh":0}],"bufferViews":[{"buffer":0,"byteOffset":0,"byteLength":102528,"target":34962,"byteStride":12},{"buffer":0,"byteOffset":102528,"byteLength":102528,"target":34962,"byteStride":12},{"buffer":0,"byteOffset":205056,"byteLength":68352,"target":34962,"byteStride":8},{"buffer":0,"byteOffset":273408,"byteLength":23496,"target":34963}],"buffers":[{"byteLength":296904,"uri":"data:application/octet-stream;base64,"}],"accessors":[{"bufferView":0,"componentType":5126,"count":8544,"max":[168.6466064453125,188.51058959960938,318.4862365722656],"min":[-168.64663696289062,-188.5105743408203,-318.4864501953125],"type":"VEC3"},{"bufferView":1,"componentType":5126,"count":8544,"max":[1,1,1],"min":[-1,-1,-1],"type":"VEC3"},{"bufferView":2,"componentType":5126,"count":8544,"max":[12.654335021972656,3.6313774585723877],"min":[-11.654335021972656,-11.654335021972656],"type":"VEC2"},{"bufferView":3,"componentType":5123,"count":11748,"max":[8543],"min":[0],"type":"SCALAR"}],"materials":[{"pbrMetallicRoughness":{"baseColorFactor":[0.5803921818733215,0.13725490868091583,0.13725490868091583,1],"metallicFactor":1,"roughnessFactor":0.858578622341156},"doubleSided":true,"name":"PlasterBrown"}],"meshes":[{"primitives":[{"mode":4,"attributes":{"POSITION":0,"NORMAL":1,"TEXCOORD_0":2},"indices":3,"material":0}]}]}