{"asset":{"version":"2.0","generator":"THREE.GLTFExporter"},"scenes":[{"nodes":[0]}],"scene":0,"nodes":[{"matrix":[0.02539999969303608,0,0,0,0,0.02539999969303608,0,0,0,0,0.02539999969303608,0,-64.87655224954688,5.275732257276275,25.358876867259497,1],"name":"网格272","mesh":0}],"bufferViews":[{"buffer":0,"byteOffset":0,"byteLength":11616,"target":34962,"byteStride":12},{"buffer":0,"byteOffset":11616,"byteLength":11616,"target":34962,"byteStride":12},{"buffer":0,"byteOffset":23232,"byteLength":7744,"target":34962,"byteStride":8},{"buffer":0,"byteOffset":30976,"byteLength":3420,"target":34963}],"buffers":[{"byteLength":34396,"uri":"data:application/octet-stream;base64,"}],"accessors":[{"bufferView":0,"componentType":5126,"count":968,"max":[16.95865821838379,15.492898941040039,1.2891995906829834],"min":[-16.95865821838379,-15.492898941040039,-1.2892000675201416],"type":"VEC3"},{"bufferView":1,"componentType":5126,"count":968,"max":[0.9999531507492065,0.9998915195465088,0.9998234510421753],"min":[-0.9998860359191895,-0.9999677538871765,-0.9998375177383423],"type":"VEC3"},{"bufferView":2,"componentType":5126,"count":968,"max":[1.7414746284484863,1.738983392715454],"min":[-3.8263797760009766,-2.829671621322632],"type":"VEC2"},{"bufferView":3,"componentType":5123,"count":1710,"max":[967],"min":[0],"type":"SCALAR"}],"materials":[{"pbrMetallicRoughness":{"baseColorFactor":[0.12941177189350128,0.03921568766236305,0.007843137718737125,1],"metallicFactor":1,"roughnessFactor":0.858578622341156},"doubleSided":true,"name":"Wood_Beams"}],"meshes":[{"primitives":[{"mode":4,"attributes":{"POSITION":0,"NORMAL":1,"TEXCOORD_0":2},"indices":3,"material":0}]}]}