{"asset":{"version":"2.0","generator":"THREE.GLTFExporter"},"scenes":[{"nodes":[0]}],"scene":0,"nodes":[{"matrix":[0.02539999969303608,0,0,0,0,0.02539999969303608,0,0,0,0,0.02539999969303608,0,-48.20506773422812,5.4792810707343165,25.289578772393853,1],"name":"网格.280_2","mesh":0}],"bufferViews":[{"buffer":0,"byteOffset":0,"byteLength":144,"target":34962,"byteStride":12},{"buffer":0,"byteOffset":144,"byteLength":144,"target":34962,"byteStride":12},{"buffer":0,"byteOffset":288,"byteLength":96,"target":34962,"byteStride":8},{"buffer":0,"byteOffset":384,"byteLength":36,"target":34963}],"buffers":[{"byteLength":420,"uri":"data:application/octet-stream;base64,"}],"accessors":[{"bufferView":0,"componentType":5126,"count":12,"max":[19.762163162231445,19.2858829498291,4.636048316955566],"min":[-19.762163162231445,-34.27202606201172,-7.290497779846191],"type":"VEC3"},{"bufferView":1,"componentType":5126,"count":12,"max":[0.7020691633224487,-1.1530143240179314e-7,1],"min":[-0.7020691633224487,-1.5796796049016848e-7,0.7121087908744812],"type":"VEC3"},{"bufferView":2,"componentType":5126,"count":12,"max":[0.9848486185073853,0.9838709831237793],"min":[0.015871504321694374,0.016129016876220703],"type":"VEC2"},{"bufferView":3,"componentType":5123,"count":18,"max":[11],"min":[0],"type":"SCALAR"}],"materials":[{"pbrMetallicRoughness":{"baseColorFactor":[0.41960787773132324,0.6274510025978088,0.7568628191947937,1],"metallicFactor":1,"roughnessFactor":0.858578622341156},"doubleSided":true,"name":"Glass"}],"meshes":[{"primitives":[{"mode":4,"attributes":{"POSITION":0,"NORMAL":1,"TEXCOORD_0":2},"indices":3,"material":0}]}]}