{"asset":{"version":"2.0","generator":"THREE.GLTFExporter"},"scenes":[{"nodes":[0]}],"scene":0,"nodes":[{"matrix":[0.02539999969303608,0,0,0,0,0.02539999969303608,0,0,0,0,0.02539999969303608,0,-7.6871878848656365,14.087248476089655,-5.334369147132065,1],"name":"HouseMD03_Glass","extras":{"name":"HouseMD03_Glass"},"mesh":0}],"bufferViews":[{"buffer":0,"byteOffset":0,"byteLength":19152,"target":34962,"byteStride":12},{"buffer":0,"byteOffset":19152,"byteLength":19152,"target":34962,"byteStride":12},{"buffer":0,"byteOffset":38304,"byteLength":12768,"target":34962,"byteStride":8},{"buffer":0,"byteOffset":51072,"byteLength":4968,"target":34963}],"buffers":[{"byteLength":56040,"uri":"data:application/octet-stream;base64,"}],"accessors":[{"bufferView":0,"componentType":5126,"count":1596,"max":[203.05601501464844,231.85693359375,183.16302490234375],"min":[-203.05606079101562,-231.85702514648438,-183.16311645507812],"type":"VEC3"},{"bufferView":1,"componentType":5126,"count":1596,"max":[1,0.00033554236870259047,1],"min":[-1,-0.0003318983071949333,-1],"type":"VEC3"},{"bufferView":2,"componentType":5126,"count":1596,"max":[1.0189290046691895,1.6073567867279053],"min":[0.027959102764725685,-0.6069985628128052],"type":"VEC2"},{"bufferView":3,"componentType":5123,"count":2484,"max":[1595],"min":[0],"type":"SCALAR"}],"materials":[{"pbrMetallicRoughness":{"baseColorFactor":[0.41960787773132324,0.6274510025978088,0.7568628191947937,1],"metallicFactor":1,"roughnessFactor":0.858578622341156},"doubleSided":true,"name":"Glass"}],"meshes":[{"primitives":[{"mode":4,"attributes":{"POSITION":0,"NORMAL":1,"TEXCOORD_0":2},"indices":3,"material":0}]}]}