{"asset":{"version":"2.0","generator":"THREE.GLTFExporter"},"scenes":[{"nodes":[0]}],"scene":0,"nodes":[{"matrix":[0.02539999969303608,0,0,0,0,0.02539999969303608,0,0,0,0,0.02539999969303608,0,46.646766662597656,65.38646737802128,-115.10138753228966,1],"name":"CastleMD_RoofTiles","extras":{"name":"CastleMD_RoofTiles"},"mesh":0}],"bufferViews":[{"buffer":0,"byteOffset":0,"byteLength":12480,"target":34962,"byteStride":12},{"buffer":0,"byteOffset":12480,"byteLength":12480,"target":34962,"byteStride":12},{"buffer":0,"byteOffset":24960,"byteLength":8320,"target":34962,"byteStride":8},{"buffer":0,"byteOffset":33280,"byteLength":3084,"target":34963}],"buffers":[{"byteLength":36364,"uri":"data:application/octet-stream;base64,"}],"accessors":[{"bufferView":0,"componentType":5126,"count":1040,"max":[517.3223266601562,988.71826171875,1065.7813720703125],"min":[-517.3223266601562,-929.8866577148438,-976.0762329101562],"type":"VEC3"},{"bufferView":1,"componentType":5126,"count":1040,"max":[1,1,1],"min":[-1,-1,-1],"type":"VEC3"},{"bufferView":2,"componentType":5126,"count":1040,"max":[18.00111198425293,3.287726879119873],"min":[-17.00111198425293,-17.00111198425293],"type":"VEC2"},{"bufferView":3,"componentType":5123,"count":1542,"max":[1039],"min":[0],"type":"SCALAR"}],"materials":[{"pbrMetallicRoughness":{"baseColorFactor":[0.4666666666666667,0.4745098039215686,0.4666666666666667,1],"metallicFactor":0,"roughnessFactor":1}}],"meshes":[{"primitives":[{"mode":4,"attributes":{"POSITION":0,"NORMAL":1,"TEXCOORD_0":2},"indices":3,"material":0}]}]}