{"asset":{"version":"2.0","generator":"THREE.GLTFExporter"},"scenes":[{"nodes":[0]}],"scene":0,"nodes":[{"matrix":[0.02539999969303608,0,0,0,0,0.02539999969303608,0,0,0,0,0.02539999969303608,0,-41.43254290427649,16.748840267663866,-44.94262119813675,1],"name":"ManorMD_Stone_Stacked","extras":{"name":"ManorMD_Stone_Stacked"},"mesh":0}],"bufferViews":[{"buffer":0,"byteOffset":0,"byteLength":928728,"target":34962,"byteStride":12},{"buffer":0,"byteOffset":928728,"byteLength":928728,"target":34962,"byteStride":12},{"buffer":0,"byteOffset":1857456,"byteLength":619152,"target":34962,"byteStride":8},{"buffer":0,"byteOffset":2476608,"byteLength":477204,"target":34963}],"buffers":[{"byteLength":2953812,"uri":"data:application/octet-stream;base64,"}],"accessors":[{"bufferView":0,"componentType":5126,"count":77394,"max":[990.9036254882812,286.2818908691406,420.6646728515625],"min":[-990.9036254882812,-286.2818603515625,-420.66510009765625],"type":"VEC3"},{"bufferView":1,"componentType":5126,"count":77394,"max":[1.0000001192092896,1.0000001192092896,1.0000001192092896],"min":[-1.0000001192092896,-1.0000001192092896,-1.0000001192092896],"type":"VEC3"},{"bufferView":2,"componentType":5126,"count":77394,"max":[16.364473342895508,4.07028865814209],"min":[-13.864473342895508,0.708572506904602],"type":"VEC2"},{"bufferView":3,"componentType":5125,"count":119301,"max":[77393],"min":[0],"type":"SCALAR"}],"materials":[{"pbrMetallicRoughness":{"baseColorFactor":[0.40000003576278687,0.41960787773132324,0.7921569347381592,1],"metallicFactor":1,"roughnessFactor":0.858578622341156},"doubleSided":true,"name":"Stone_Stacked"}],"meshes":[{"primitives":[{"mode":4,"attributes":{"POSITION":0,"NORMAL":1,"TEXCOORD_0":2},"indices":3,"material":0}]}]}