{"asset":{"version":"2.0","generator":"THREE.GLTFExporter"},"scenes":[{"nodes":[0]}],"scene":0,"nodes":[{"matrix":[0.02539999969303608,0,0,0,0,0.02539999969303608,0,0,0,0,0.02539999969303608,0,-58.25467681908049,13.298964593415917,-3.003832373898149,1],"name":"HouseMD01_RoofTiles","extras":{"name":"HouseMD01_RoofTiles"},"mesh":0}],"bufferViews":[{"buffer":0,"byteOffset":0,"byteLength":7104,"target":34962,"byteStride":12},{"buffer":0,"byteOffset":7104,"byteLength":7104,"target":34962,"byteStride":12},{"buffer":0,"byteOffset":14208,"byteLength":4736,"target":34962,"byteStride":8},{"buffer":0,"byteOffset":18944,"byteLength":1776,"target":34963}],"buffers":[{"byteLength":20720,"uri":"data:application/octet-stream;base64,"}],"accessors":[{"bufferView":0,"componentType":5126,"count":592,"max":[328.6800842285156,179.4141845703125,221.06500244140625],"min":[-328.6801452636719,-179.41424560546875,-221.06500244140625],"type":"VEC3"},{"bufferView":1,"componentType":5126,"count":592,"max":[0.6672534346580505,1,0.6584935188293457],"min":[-0.6651069521903992,0.7448307275772095,-0.6629911661148071],"type":"VEC3"},{"bufferView":2,"componentType":5126,"count":592,"max":[3.6353261470794678,20.266799926757812],"min":[-0.4731755256652832,17.50348663330078],"type":"VEC2"},{"bufferView":3,"componentType":5123,"count":888,"max":[591],"min":[0],"type":"SCALAR"}],"materials":[{"pbrMetallicRoughness":{"baseColorFactor":[0.4666666666666667,0.4745098039215686,0.4666666666666667,1],"metallicFactor":0,"roughnessFactor":1}}],"meshes":[{"primitives":[{"mode":4,"attributes":{"POSITION":0,"NORMAL":1,"TEXCOORD_0":2},"indices":3,"material":0}]}]}