{"asset":{"version":"2.0","generator":"THREE.GLTFExporter"},"scenes":[{"nodes":[0]}],"scene":0,"nodes":[{"matrix":[0.02539999969303608,0,0,0,0,0.02539999969303608,0,0,0,0,0.02539999969303608,0,-43.682215176582986,5.199590781756029,25.43060504632429,1],"name":"网格.253_1","mesh":0}],"bufferViews":[{"buffer":0,"byteOffset":0,"byteLength":204,"target":34962,"byteStride":12},{"buffer":0,"byteOffset":204,"byteLength":204,"target":34962,"byteStride":12},{"buffer":0,"byteOffset":408,"byteLength":136,"target":34962,"byteStride":8},{"buffer":0,"byteOffset":544,"byteLength":92,"target":34963}],"buffers":[{"byteLength":636,"uri":"data:application/octet-stream;base64,"}],"accessors":[{"bufferView":0,"componentType":5126,"count":17,"max":[69.1573715209961,32.149742126464844,-12.61295223236084],"min":[10.49894905090332,-15.315372467041016,-12.612959861755371],"type":"VEC3"},{"bufferView":1,"componentType":5126,"count":17,"max":[-7.422763063213024e-16,-1.7337370650238881e-7,1],"min":[-7.422763063213024e-16,-1.7337370650238881e-7,1],"type":"VEC3"},{"bufferView":2,"componentType":5126,"count":17,"max":[0.2938831150531769,0.2280009388923645],"min":[0.14846983551979065,0.10846966505050659],"type":"VEC2"},{"bufferView":3,"componentType":5123,"count":45,"max":[16],"min":[0],"type":"SCALAR"}],"materials":[{"pbrMetallicRoughness":{"baseColorFactor":[0.41960787773132324,0.6274510025978088,0.7568628191947937,1],"metallicFactor":1,"roughnessFactor":0.858578622341156},"doubleSided":true,"name":"Glass"}],"meshes":[{"primitives":[{"mode":4,"attributes":{"POSITION":0,"NORMAL":1,"TEXCOORD_0":2},"indices":3,"material":0}]}]}