{"asset":{"version":"2.0","generator":"THREE.GLTFExporter"},"scenes":[{"nodes":[0]}],"scene":0,"nodes":[{"matrix":[0.02539999969303608,0,0,0,0,0.02539999969303608,0,0,0,0,0.02539999969303608,0,119.35459603862,13.18019312116445,-5.440302320780916,1],"name":"HouseLG02_Wood_Beams","extras":{"name":"HouseLG02_Wood_Beams"},"mesh":0}],"bufferViews":[{"buffer":0,"byteOffset":0,"byteLength":76224,"target":34962,"byteStride":12},{"buffer":0,"byteOffset":76224,"byteLength":76224,"target":34962,"byteStride":12},{"buffer":0,"byteOffset":152448,"byteLength":50816,"target":34962,"byteStride":8},{"buffer":0,"byteOffset":203264,"byteLength":50816,"target":34962,"byteStride":8},{"buffer":0,"byteOffset":254080,"byteLength":20072,"target":34963}],"buffers":[{"byteLength":274152,"uri":"data:application/octet-stream;base64,"}],"accessors":[{"bufferView":0,"componentType":5126,"count":6352,"max":[407.1695556640625,245.26983642578125,389.5346374511719],"min":[-407.1695556640625,-245.26980590820312,-389.5345764160156],"type":"VEC3"},{"bufferView":1,"componentType":5126,"count":6352,"max":[1,1,1],"min":[-1,-1,-1],"type":"VEC3"},{"bufferView":2,"componentType":5126,"count":6352,"max":[55.133277893066406,55.13328170776367],"min":[-54.13328170776367,-4.5896196365356445],"type":"VEC2"},{"bufferView":3,"componentType":5126,"count":6352,"max":[1,1],"min":[-0.00547282537445426,-0.015436768531799316],"type":"VEC2"},{"bufferView":4,"componentType":5123,"count":10035,"max":[6351],"min":[0],"type":"SCALAR"}],"materials":[{"pbrMetallicRoughness":{"baseColorFactor":[0.12941177189350128,0.03921568766236305,0.007843137718737125,1],"metallicFactor":1,"roughnessFactor":0.858578622341156},"doubleSided":true,"name":"Wood_Beams"}],"meshes":[{"primitives":[{"mode":4,"attributes":{"POSITION":0,"NORMAL":1,"TEXCOORD_0":2,"TEXCOORD_1":3},"indices":4,"material":0}]}]}