{"asset":{"version":"2.0","generator":"THREE.GLTFExporter"},"scenes":[{"nodes":[0]}],"scene":0,"nodes":[{"matrix":[0.02539999969303608,0,0,0,0,0.02539999969303608,0,0,0,0,0.02539999969303608,0,71.49090576171875,6.62446591580489,26.7386230015332,1],"name":"HouseSM_WoodDark","extras":{"name":"HouseSM_WoodDark"},"mesh":0}],"bufferViews":[{"buffer":0,"byteOffset":0,"byteLength":204300,"target":34962,"byteStride":12},{"buffer":0,"byteOffset":204300,"byteLength":204300,"target":34962,"byteStride":12},{"buffer":0,"byteOffset":408600,"byteLength":136200,"target":34962,"byteStride":8},{"buffer":0,"byteOffset":544800,"byteLength":48660,"target":34963}],"buffers":[{"byteLength":593460,"uri":"data:application/octet-stream;base64,"}],"accessors":[{"bufferView":0,"componentType":5126,"count":17025,"max":[117.98815155029297,103.9806137084961,172.90353393554688],"min":[-117.98815155029297,-103.98062896728516,-172.90359497070312],"type":"VEC3"},{"bufferView":1,"componentType":5126,"count":17025,"max":[1,1,1],"min":[-1,-1,-1],"type":"VEC3"},{"bufferView":2,"componentType":5126,"count":17025,"max":[76.73287200927734,76.73287200927734],"min":[-75.73287200927734,11.158361434936523],"type":"VEC2"},{"bufferView":3,"componentType":5123,"count":24330,"max":[17024],"min":[0],"type":"SCALAR"}],"materials":[{"pbrMetallicRoughness":{"baseColorFactor":[0.07058823853731155,0.003921568859368563,0.003921568859368563,1],"metallicFactor":1,"roughnessFactor":0.858578622341156},"doubleSided":true,"name":"WoodDark"}],"meshes":[{"primitives":[{"mode":4,"attributes":{"POSITION":0,"NORMAL":1,"TEXCOORD_0":2},"indices":3,"material":0}]}]}