{"asset":{"version":"2.0","generator":"THREE.GLTFExporter"},"scenes":[{"nodes":[0]}],"scene":0,"nodes":[{"matrix":[0.02539999969303608,0,0,0,0,0.02539999969303608,0,0,0,0,0.02539999969303608,0,43.3983364687374,9.68698673819199,25.34615200935309,1],"name":"Tavern_Glass","extras":{"name":"Tavern_Glass"},"mesh":0}],"bufferViews":[{"buffer":0,"byteOffset":0,"byteLength":1728,"target":34962,"byteStride":12},{"buffer":0,"byteOffset":1728,"byteLength":1728,"target":34962,"byteStride":12},{"buffer":0,"byteOffset":3456,"byteLength":1152,"target":34962,"byteStride":8},{"buffer":0,"byteOffset":4608,"byteLength":1152,"target":34962,"byteStride":8},{"buffer":0,"byteOffset":5760,"byteLength":432,"target":34963}],"buffers":[{"byteLength":6192,"uri":"data:application/octet-stream;base64,"}],"accessors":[{"bufferView":0,"componentType":5126,"count":144,"max":[89.22528076171875,134.121337890625,188.89141845703125],"min":[-89.225341796875,-134.121337890625,-188.89117431640625],"type":"VEC3"},{"bufferView":1,"componentType":5126,"count":144,"max":[1,0.0000010747824035206577,1],"min":[-1,-0.0902068167924881,-1],"type":"VEC3"},{"bufferView":2,"componentType":5126,"count":144,"max":[0.625,1],"min":[0,0.31156015396118164],"type":"VEC2"},{"bufferView":3,"componentType":5126,"count":144,"max":[1,1],"min":[0,0],"type":"VEC2"},{"bufferView":4,"componentType":5123,"count":216,"max":[143],"min":[0],"type":"SCALAR"}],"materials":[{"pbrMetallicRoughness":{"baseColorFactor":[0.41960787773132324,0.6274510025978088,0.7568628191947937,1],"metallicFactor":1,"roughnessFactor":0.858578622341156},"doubleSided":true,"name":"Glass"}],"meshes":[{"primitives":[{"mode":4,"attributes":{"POSITION":0,"NORMAL":1,"TEXCOORD_0":2,"TEXCOORD_1":3},"indices":4,"material":0}]}]}