{"asset":{"version":"2.0","generator":"THREE.GLTFExporter"},"scenes":[{"nodes":[0]}],"scene":0,"nodes":[{"matrix":[-0.02539999795422759,3.9715701025220537e-10,3.9715688993498526e-10,0,-3.9715703744038705e-10,-8.56423936183775e-9,-0.025399998823630116,0,-3.9715688993498536e-10,-0.025399998823630702,8.564239395677545e-9,0,-22.707473113122944,68.73562506756934,-120.9691617839419,1],"name":"CastleLG_Glass","extras":{"name":"CastleLG_Glass"},"mesh":0}],"bufferViews":[{"buffer":0,"byteOffset":0,"byteLength":98112,"target":34962,"byteStride":12},{"buffer":0,"byteOffset":98112,"byteLength":98112,"target":34962,"byteStride":12},{"buffer":0,"byteOffset":196224,"byteLength":65408,"target":34962,"byteStride":8},{"buffer":0,"byteOffset":261632,"byteLength":26688,"target":34963}],"buffers":[{"byteLength":288320,"uri":"data:application/octet-stream;base64,"}],"accessors":[{"bufferView":0,"componentType":5126,"count":8176,"max":[1761.3878173828125,1440.1988525390625,260.935302734375],"min":[-1532.941162109375,-1717.8046875,-1590.012939453125],"type":"VEC3"},{"bufferView":1,"componentType":5126,"count":8176,"max":[1,1,0.000013722812582273036],"min":[-1,-1,-0.000016464631698909216],"type":"VEC3"},{"bufferView":2,"componentType":5126,"count":8176,"max":[1,1],"min":[0,0],"type":"VEC2"},{"bufferView":3,"componentType":5123,"count":13344,"max":[8175],"min":[0],"type":"SCALAR"}],"materials":[{"pbrMetallicRoughness":{"baseColorFactor":[0.41960787773132324,0.6274510025978088,0.7568628191947937,1],"metallicFactor":1,"roughnessFactor":0.858578622341156},"doubleSided":true,"name":"Glass"}],"meshes":[{"primitives":[{"mode":4,"attributes":{"POSITION":0,"NORMAL":1,"TEXCOORD_0":2},"indices":3,"material":0}]}]}