{"asset":{"version":"2.0","generator":"THREE.GLTFExporter"},"scenes":[{"nodes":[0]}],"scene":0,"nodes":[{"matrix":[0.02539999969303608,0,0,0,0,0.02539999969303608,0,0,0,0,0.02539999969303608,0,92.99425906057786,7.7419716104055,26.09922220160189,1],"name":"HouseSM03_Mullions_Wood","extras":{"name":"HouseSM03_Mullions_Wood"},"mesh":0}],"bufferViews":[{"buffer":0,"byteOffset":0,"byteLength":93840,"target":34962,"byteStride":12},{"buffer":0,"byteOffset":93840,"byteLength":93840,"target":34962,"byteStride":12},{"buffer":0,"byteOffset":187680,"byteLength":62560,"target":34962,"byteStride":8},{"buffer":0,"byteOffset":250240,"byteLength":26112,"target":34963}],"buffers":[{"byteLength":276352,"uri":"data:application/octet-stream;base64,"}],"accessors":[{"bufferView":0,"componentType":5126,"count":7820,"max":[306.0808410644531,93.92231750488281,190.85549926757812],"min":[-306.0809631347656,-93.92234802246094,-190.85556030273438],"type":"VEC3"},{"bufferView":1,"componentType":5126,"count":7820,"max":[1,1,1],"min":[-1,-1,-1],"type":"VEC3"},{"bufferView":2,"componentType":5126,"count":7820,"max":[50.543540954589844,50.31032943725586],"min":[-49.543540954589844,6.43500280380249],"type":"VEC2"},{"bufferView":3,"componentType":5123,"count":13056,"max":[7819],"min":[0],"type":"SCALAR"}],"materials":[{"pbrMetallicRoughness":{"baseColorFactor":[0.7058823704719543,0.8588235974311829,0.6549019813537598,1],"metallicFactor":1,"roughnessFactor":0.858578622341156},"doubleSided":true,"name":"Mullions_Wood"}],"meshes":[{"primitives":[{"mode":4,"attributes":{"POSITION":0,"NORMAL":1,"TEXCOORD_0":2},"indices":3,"material":0}]}]}