{"asset":{"version":"2.0","generator":"THREE.GLTFExporter"},"scenes":[{"nodes":[0]}],"scene":0,"nodes":[{"matrix":[0.02539999969303608,0,0,0,0,0.02539999969303608,0,0,0,0,0.02539999969303608,0,85.82293578092549,15.4592767143601,-5.827903384132469,1],"name":"HouseLG01_Mullions_Wood","extras":{"name":"HouseLG01_Mullions_Wood"},"mesh":0}],"bufferViews":[{"buffer":0,"byteOffset":0,"byteLength":369828,"target":34962,"byteStride":12},{"buffer":0,"byteOffset":369828,"byteLength":369828,"target":34962,"byteStride":12},{"buffer":0,"byteOffset":739656,"byteLength":246552,"target":34962,"byteStride":8},{"buffer":0,"byteOffset":986208,"byteLength":113136,"target":34963}],"buffers":[{"byteLength":1099344,"uri":"data:application/octet-stream;base64,"}],"accessors":[{"bufferView":0,"componentType":5126,"count":30819,"max":[369.88250732421875,222.63641357421875,205.05029296875],"min":[-369.88275146484375,-222.63638305664062,-205.050048828125],"type":"VEC3"},{"bufferView":1,"componentType":5126,"count":30819,"max":[1,1,1],"min":[-1,-1.0000001192092896,-1],"type":"VEC3"},{"bufferView":2,"componentType":5126,"count":30819,"max":[33.254844665527344,12.737476348876953],"min":[-32.254844665527344,-4.785649299621582],"type":"VEC2"},{"bufferView":3,"componentType":5123,"count":56568,"max":[30818],"min":[0],"type":"SCALAR"}],"materials":[{"pbrMetallicRoughness":{"baseColorFactor":[0.7058823704719543,0.8588235974311829,0.6549019813537598,1],"metallicFactor":1,"roughnessFactor":0.858578622341156},"doubleSided":true,"name":"Mullions_Wood"}],"meshes":[{"primitives":[{"mode":4,"attributes":{"POSITION":0,"NORMAL":1,"TEXCOORD_0":2},"indices":3,"material":0}]}]}