{"asset":{"version":"2.0","generator":"THREE.GLTFExporter"},"scenes":[{"nodes":[0]}],"scene":0,"nodes":[{"matrix":[0.02539999969303608,0,0,0,0,0.02539999969303608,0,0,0,0,0.02539999969303608,0,-61.71415306901508,5.328105804006611,25.151927486215598,1],"name":"网格.274_2","mesh":0}],"bufferViews":[{"buffer":0,"byteOffset":0,"byteLength":42900,"target":34962,"byteStride":12},{"buffer":0,"byteOffset":42900,"byteLength":42900,"target":34962,"byteStride":12},{"buffer":0,"byteOffset":85800,"byteLength":28600,"target":34962,"byteStride":8},{"buffer":0,"byteOffset":114400,"byteLength":12216,"target":34963}],"buffers":[{"byteLength":126616,"uri":"data:application/octet-stream;base64,"}],"accessors":[{"bufferView":0,"componentType":5126,"count":3575,"max":[28.92809295654297,20.560848236083984,6.030081748962402],"min":[-28.92809295654297,-22.00189208984375,-14.441520690917969],"type":"VEC3"},{"bufferView":1,"componentType":5126,"count":3575,"max":[1,1,1],"min":[-1,-1,-1],"type":"VEC3"},{"bufferView":2,"componentType":5126,"count":3575,"max":[1.83059823513031,1.7340664863586426],"min":[-2.425218105316162,-1.420560359954834],"type":"VEC2"},{"bufferView":3,"componentType":5123,"count":6108,"max":[3574],"min":[0],"type":"SCALAR"}],"materials":[{"pbrMetallicRoughness":{"baseColorFactor":[0.12941177189350128,0.03921568766236305,0.007843137718737125,1],"metallicFactor":1,"roughnessFactor":0.858578622341156},"doubleSided":true,"name":"Wood_Beams"}],"meshes":[{"primitives":[{"mode":4,"attributes":{"POSITION":0,"NORMAL":1,"TEXCOORD_0":2},"indices":3,"material":0}]}]}