{"asset":{"version":"2.0","generator":"THREE.GLTFExporter"},"scenes":[{"nodes":[0]}],"scene":0,"nodes":[{"matrix":[0.02539999969303608,0,0,0,0,0.02539999969303608,0,0,0,0,0.02539999969303608,0,60.135567669677584,19.008383897662952,-6.002644921456522,1],"name":"HouseMD06_Mullions_Wood","extras":{"name":"HouseMD06_Mullions_Wood"},"mesh":0}],"bufferViews":[{"buffer":0,"byteOffset":0,"byteLength":104712,"target":34962,"byteStride":12},{"buffer":0,"byteOffset":104712,"byteLength":104712,"target":34962,"byteStride":12},{"buffer":0,"byteOffset":209424,"byteLength":69808,"target":34962,"byteStride":8},{"buffer":0,"byteOffset":279232,"byteLength":28224,"target":34963}],"buffers":[{"byteLength":307456,"uri":"data:application/octet-stream;base64,"}],"accessors":[{"bufferView":0,"componentType":5126,"count":8726,"max":[147.96969604492188,334.47637939453125,130.36599731445312],"min":[-147.96963500976562,-334.47637939453125,-130.36599731445312],"type":"VEC3"},{"bufferView":1,"componentType":5126,"count":8726,"max":[1,1,1],"min":[-1,-1,-1],"type":"VEC3"},{"bufferView":2,"componentType":5126,"count":8726,"max":[51.283836364746094,13.29385757446289],"min":[-50.283836364746094,-9.004566192626953],"type":"VEC2"},{"bufferView":3,"componentType":5123,"count":14112,"max":[8725],"min":[0],"type":"SCALAR"}],"materials":[{"pbrMetallicRoughness":{"baseColorFactor":[0.7058823704719543,0.8588235974311829,0.6549019813537598,1],"metallicFactor":1,"roughnessFactor":0.858578622341156},"doubleSided":true,"name":"Mullions_Wood"}],"meshes":[{"primitives":[{"mode":4,"attributes":{"POSITION":0,"NORMAL":1,"TEXCOORD_0":2},"indices":3,"material":0}]}]}