{"asset":{"version":"2.0","generator":"THREE.GLTFExporter"},"scenes":[{"nodes":[0]}],"scene":0,"nodes":[{"matrix":[0.02539999969303608,0,0,0,0,0.02539999969303608,0,0,0,0,0.02539999969303608,0,-56.594894747403714,28.625221404653075,-45.47022929722925,1],"name":"ManorMD_Cloth","extras":{"name":"ManorMD_Cloth"},"mesh":0}],"bufferViews":[{"buffer":0,"byteOffset":0,"byteLength":11520,"target":34962,"byteStride":12},{"buffer":0,"byteOffset":11520,"byteLength":11520,"target":34962,"byteStride":12},{"buffer":0,"byteOffset":23040,"byteLength":7680,"target":34962,"byteStride":8},{"buffer":0,"byteOffset":30720,"byteLength":2880,"target":34963}],"buffers":[{"byteLength":33600,"uri":"data:application/octet-stream;base64,"}],"accessors":[{"bufferView":0,"componentType":5126,"count":960,"max":[34.87506103515625,19.42266845703125,3.6947097778320312],"min":[-34.87493896484375,-19.4228515625,-3.6946182250976562],"type":"VEC3"},{"bufferView":1,"componentType":5126,"count":960,"max":[0.49199628829956055,0.6562555432319641,1],"min":[-0.37201547622680664,-0.601853609085083,0.7519443035125732],"type":"VEC3"},{"bufferView":2,"componentType":5126,"count":960,"max":[1,1],"min":[0,0],"type":"VEC2"},{"bufferView":3,"componentType":5123,"count":1440,"max":[959],"min":[0],"type":"SCALAR"}],"materials":[{"pbrMetallicRoughness":{"baseColorFactor":[0.7568628191947937,0.6313725709915161,0.46666669845581055,1],"metallicFactor":1,"roughnessFactor":0.858578622341156},"doubleSided":true,"name":"Cloth"}],"meshes":[{"primitives":[{"mode":4,"attributes":{"POSITION":0,"NORMAL":1,"TEXCOORD_0":2},"indices":3,"material":0}]}]}