{"asset":{"version":"2.0","generator":"THREE.GLTFExporter"},"scenes":[{"nodes":[0]}],"scene":0,"nodes":[{"matrix":[0.02539999969303608,0,0,0,0,0.02539999969303608,0,0,0,0,0.02539999969303608,0,87.08620424916535,5.289704947689323,26.100464761401327,1],"name":"HouseSM03_WoodDark001","extras":{"name":"HouseSM03_WoodDark.001"},"mesh":0}],"bufferViews":[{"buffer":0,"byteOffset":0,"byteLength":16800,"target":34962,"byteStride":12},{"buffer":0,"byteOffset":16800,"byteLength":16800,"target":34962,"byteStride":12},{"buffer":0,"byteOffset":33600,"byteLength":11200,"target":34962,"byteStride":8},{"buffer":0,"byteOffset":44800,"byteLength":4152,"target":34963}],"buffers":[{"byteLength":48952,"uri":"data:application/octet-stream;base64,"}],"accessors":[{"bufferView":0,"componentType":5126,"count":1400,"max":[29.101715087890625,44.6494255065918,211.81707763671875],"min":[-29.10186767578125,-44.6494255065918,-211.8170623779297],"type":"VEC3"},{"bufferView":1,"componentType":5126,"count":1400,"max":[1,1,1],"min":[-1,-1,-1],"type":"VEC3"},{"bufferView":2,"componentType":5126,"count":1400,"max":[25.887855529785156,25.887855529785156],"min":[-24.887855529785156,-6.090826511383057],"type":"VEC2"},{"bufferView":3,"componentType":5123,"count":2076,"max":[1399],"min":[0],"type":"SCALAR"}],"materials":[{"pbrMetallicRoughness":{"baseColorFactor":[0.07058823853731155,0.003921568859368563,0.003921568859368563,1],"metallicFactor":1,"roughnessFactor":0.858578622341156},"doubleSided":true,"name":"WoodDark"}],"meshes":[{"primitives":[{"mode":4,"attributes":{"POSITION":0,"NORMAL":1,"TEXCOORD_0":2},"indices":3,"material":0}]}]}