{"asset":{"version":"2.0","generator":"THREE.GLTFExporter"},"scenes":[{"nodes":[0]}],"scene":0,"nodes":[{"matrix":[0.02539999969303608,0,0,0,0,0.02539999969303608,0,0,0,0,0.02539999969303608,0,-49.68434486478827,1.2756264676056333,25.37069261876465,1],"name":"网格.256_1","mesh":0}],"bufferViews":[{"buffer":0,"byteOffset":0,"byteLength":4560,"target":34962,"byteStride":12},{"buffer":0,"byteOffset":4560,"byteLength":4560,"target":34962,"byteStride":12},{"buffer":0,"byteOffset":9120,"byteLength":3040,"target":34962,"byteStride":8},{"buffer":0,"byteOffset":12160,"byteLength":2004,"target":34963}],"buffers":[{"byteLength":14164,"uri":"data:application/octet-stream;base64,"}],"accessors":[{"bufferView":0,"componentType":5126,"count":380,"max":[30.554807662963867,38.73326873779297,13.992992401123047],"min":[-30.554807662963867,-53.27939224243164,-16.334035873413086],"type":"VEC3"},{"bufferView":1,"componentType":5126,"count":380,"max":[1,1,1],"min":[-1,-1,-1],"type":"VEC3"},{"bufferView":2,"componentType":5126,"count":380,"max":[0.8412038087844849,0.9600633382797241],"min":[0.0019306429894641042,0.039936721324920654],"type":"VEC2"},{"bufferView":3,"componentType":5123,"count":1002,"max":[379],"min":[0],"type":"SCALAR"}],"materials":[{"pbrMetallicRoughness":{"baseColorFactor":[0.5803921818733215,0.13725490868091583,0.13725490868091583,1],"metallicFactor":1,"roughnessFactor":0.858578622341156},"doubleSided":true,"name":"PlasterBrown"}],"meshes":[{"primitives":[{"mode":4,"attributes":{"POSITION":0,"NORMAL":1,"TEXCOORD_0":2},"indices":3,"material":0}]}]}