{"asset":{"version":"2.0","generator":"THREE.GLTFExporter"},"scenes":[{"nodes":[0]}],"scene":0,"nodes":[{"matrix":[0.02539999969303608,0,0,0,0,0.02539999969303608,0,0,0,0,0.02539999969303608,0,-16.667896270751953,13.230251425632957,23.46034437540314,1],"name":"Windmill_WoodDark001","extras":{"name":"Windmill_WoodDark.001"},"mesh":0}],"bufferViews":[{"buffer":0,"byteOffset":0,"byteLength":175320,"target":34962,"byteStride":12},{"buffer":0,"byteOffset":175320,"byteLength":175320,"target":34962,"byteStride":12},{"buffer":0,"byteOffset":350640,"byteLength":116880,"target":34962,"byteStride":8},{"buffer":0,"byteOffset":467520,"byteLength":45348,"target":34963}],"buffers":[{"byteLength":512868,"uri":"data:application/octet-stream;base64,"}],"accessors":[{"bufferView":0,"componentType":5126,"count":14610,"max":[213.73324584960938,272.9358215332031,126.97987365722656],"min":[-213.7332763671875,-263.68548583984375,-80.01211547851562],"type":"VEC3"},{"bufferView":1,"componentType":5126,"count":14610,"max":[1,1,1.0000001192092896],"min":[-1,-1,-1],"type":"VEC3"},{"bufferView":2,"componentType":5126,"count":14610,"max":[-1.122266411781311,10.784008979797363],"min":[-8.87773323059082,1.0481634140014648],"type":"VEC2"},{"bufferView":3,"componentType":5123,"count":22674,"max":[14609],"min":[0],"type":"SCALAR"}],"materials":[{"pbrMetallicRoughness":{"baseColorFactor":[0.07058823853731155,0.003921568859368563,0.003921568859368563,1],"metallicFactor":1,"roughnessFactor":0.858578622341156},"doubleSided":true,"name":"WoodDark"}],"meshes":[{"primitives":[{"mode":4,"attributes":{"POSITION":0,"NORMAL":1,"TEXCOORD_0":2},"indices":3,"material":0}]}]}