{"asset":{"version":"2.0","generator":"THREE.GLTFExporter"},"scenes":[{"nodes":[0]}],"scene":0,"nodes":[{"matrix":[0.02539999969303608,0,0,0,0,0.02539999969303608,0,0,0,0,0.02539999969303608,0,115.85478124041583,7.7368367257886845,24.209282245179594,1],"name":"HouseSM02_WoodDark001","extras":{"name":"HouseSM02_WoodDark.001"},"mesh":0}],"bufferViews":[{"buffer":0,"byteOffset":0,"byteLength":32568,"target":34962,"byteStride":12},{"buffer":0,"byteOffset":32568,"byteLength":32568,"target":34962,"byteStride":12},{"buffer":0,"byteOffset":65136,"byteLength":21712,"target":34962,"byteStride":8},{"buffer":0,"byteOffset":86848,"byteLength":9036,"target":34963}],"buffers":[{"byteLength":95884,"uri":"data:application/octet-stream;base64,"}],"accessors":[{"bufferView":0,"componentType":5126,"count":2714,"max":[87.7500228881836,34.1602668762207,86.2585220336914],"min":[-87.75001525878906,-34.16027069091797,-86.25853729248047],"type":"VEC3"},{"bufferView":1,"componentType":5126,"count":2714,"max":[1,1,1],"min":[-1,-1,-1],"type":"VEC3"},{"bufferView":2,"componentType":5126,"count":2714,"max":[24.2210693359375,24.215850830078125],"min":[-23.2210693359375,7.823532581329346],"type":"VEC2"},{"bufferView":3,"componentType":5123,"count":4518,"max":[2713],"min":[0],"type":"SCALAR"}],"materials":[{"pbrMetallicRoughness":{"baseColorFactor":[0.07058823853731155,0.003921568859368563,0.003921568859368563,1],"metallicFactor":1,"roughnessFactor":0.858578622341156},"doubleSided":true,"name":"WoodDark"}],"meshes":[{"primitives":[{"mode":4,"attributes":{"POSITION":0,"NORMAL":1,"TEXCOORD_0":2},"indices":3,"material":0}]}]}