{"asset":{"version":"2.0","generator":"THREE.GLTFExporter"},"scenes":[{"nodes":[0]}],"scene":0,"nodes":[{"matrix":[0.02539999969303608,0,0,0,0,0.02539999969303608,0,0,0,0,0.02539999969303608,0,31.514913125281055,5.804125603296683,21.430598833274843,1],"name":"HouseAFrame_Glass","extras":{"name":"HouseAFrame_Glass"},"mesh":0}],"bufferViews":[{"buffer":0,"byteOffset":0,"byteLength":864,"target":34962,"byteStride":12},{"buffer":0,"byteOffset":864,"byteLength":864,"target":34962,"byteStride":12},{"buffer":0,"byteOffset":1728,"byteLength":576,"target":34962,"byteStride":8},{"buffer":0,"byteOffset":2304,"byteLength":240,"target":34963}],"buffers":[{"byteLength":2544,"uri":"data:application/octet-stream;base64,"}],"accessors":[{"bufferView":0,"componentType":5126,"count":72,"max":[49.38385772705078,39.48381042480469,67.17970275878906],"min":[-49.383872985839844,-39.483795166015625,-67.17967987060547],"type":"VEC3"},{"bufferView":1,"componentType":5126,"count":72,"max":[0.00004777114008902572,1,1],"min":[-0.00004777114008902572,-0.00004777114008902572,-1],"type":"VEC3"},{"bufferView":2,"componentType":5126,"count":72,"max":[0.9060605764389038,0.9060605764389038],"min":[0.0939394012093544,0.09393942356109619],"type":"VEC2"},{"bufferView":3,"componentType":5123,"count":120,"max":[71],"min":[0],"type":"SCALAR"}],"materials":[{"pbrMetallicRoughness":{"baseColorFactor":[0.41960787773132324,0.6274510025978088,0.7568628191947937,1],"metallicFactor":1,"roughnessFactor":0.858578622341156},"doubleSided":true,"name":"Glass"}],"meshes":[{"primitives":[{"mode":4,"attributes":{"POSITION":0,"NORMAL":1,"TEXCOORD_0":2},"indices":3,"material":0}]}]}