{"asset":{"version":"2.0","generator":"THREE.GLTFExporter"},"scenes":[{"nodes":[0]}],"scene":0,"nodes":[{"matrix":[0.02539999969303608,0,0,0,0,0.02539999969303608,0,0,0,0,0.02539999969303608,0,156.0308564153729,5.962198695126396,25.127581498187055,1],"name":"HouseSM01_WoodDark","extras":{"name":"HouseSM01_WoodDark"},"mesh":0}],"bufferViews":[{"buffer":0,"byteOffset":0,"byteLength":13152,"target":34962,"byteStride":12},{"buffer":0,"byteOffset":13152,"byteLength":13152,"target":34962,"byteStride":12},{"buffer":0,"byteOffset":26304,"byteLength":8768,"target":34962,"byteStride":8},{"buffer":0,"byteOffset":35072,"byteLength":3144,"target":34963}],"buffers":[{"byteLength":38216,"uri":"data:application/octet-stream;base64,"}],"accessors":[{"bufferView":0,"componentType":5126,"count":1096,"max":[30.89410400390625,47.39909744262695,83.19943237304688],"min":[-30.8939208984375,-47.39910888671875,-83.19943237304688],"type":"VEC3"},{"bufferView":1,"componentType":5126,"count":1096,"max":[1,1,1],"min":[-1,-1,-1],"type":"VEC3"},{"bufferView":2,"componentType":5126,"count":1096,"max":[24.496858596801758,24.496858596801758],"min":[-23.496858596801758,18.401756286621094],"type":"VEC2"},{"bufferView":3,"componentType":5123,"count":1572,"max":[1095],"min":[0],"type":"SCALAR"}],"materials":[{"pbrMetallicRoughness":{"baseColorFactor":[0.07058823853731155,0.003921568859368563,0.003921568859368563,1],"metallicFactor":1,"roughnessFactor":0.858578622341156},"doubleSided":true,"name":"WoodDark"}],"meshes":[{"primitives":[{"mode":4,"attributes":{"POSITION":0,"NORMAL":1,"TEXCOORD_0":2},"indices":3,"material":0}]}]}