{"asset":{"version":"2.0","generator":"THREE.GLTFExporter"},"scenes":[{"nodes":[0]}],"scene":0,"nodes":[{"matrix":[0.02539999969303608,0,0,0,0,0.02539999969303608,0,0,0,0,0.02539999969303608,0,16.974225997924805,16.37882621101079,-6.210526466369629,1],"name":"HouseMD04_Wood_Beams","extras":{"name":"HouseMD04_Wood_Beams"},"mesh":0}],"bufferViews":[{"buffer":0,"byteOffset":0,"byteLength":425328,"target":34962,"byteStride":12},{"buffer":0,"byteOffset":425328,"byteLength":425328,"target":34962,"byteStride":12},{"buffer":0,"byteOffset":850656,"byteLength":283552,"target":34962,"byteStride":8},{"buffer":0,"byteOffset":1134208,"byteLength":110112,"target":34963}],"buffers":[{"byteLength":1244320,"uri":"data:application/octet-stream;base64,"}],"accessors":[{"bufferView":0,"componentType":5126,"count":35444,"max":[231.0005645751953,314.8836669921875,186.58502197265625],"min":[-231.00062561035156,-314.8836975097656,-186.58505249023438],"type":"VEC3"},{"bufferView":1,"componentType":5126,"count":35444,"max":[1,1,1],"min":[-1,-1,-1],"type":"VEC3"},{"bufferView":2,"componentType":5126,"count":35444,"max":[47.57637023925781,32.27378845214844],"min":[-46.584110260009766,-8.032575607299805],"type":"VEC2"},{"bufferView":3,"componentType":5123,"count":55056,"max":[35443],"min":[0],"type":"SCALAR"}],"materials":[{"pbrMetallicRoughness":{"baseColorFactor":[0.12941177189350128,0.03921568766236305,0.007843137718737125,1],"metallicFactor":1,"roughnessFactor":0.858578622341156},"doubleSided":true,"name":"Wood_Beams"}],"meshes":[{"primitives":[{"mode":4,"attributes":{"POSITION":0,"NORMAL":1,"TEXCOORD_0":2},"indices":3,"material":0}]}]}