{"asset":{"version":"2.0","generator":"THREE.GLTFExporter"},"scenes":[{"nodes":[0]}],"scene":0,"nodes":[{"matrix":[0.02539999969303608,0,0,0,0,0.02539999969303608,0,0,0,0,0.02539999969303608,0,85.46823647593556,11.02856823908894,-48.351002549823534,1],"name":"HouseLG05_Stone_Stacked","extras":{"name":"HouseLG05_Stone_Stacked"},"mesh":0}],"bufferViews":[{"buffer":0,"byteOffset":0,"byteLength":49200,"target":34962,"byteStride":12},{"buffer":0,"byteOffset":49200,"byteLength":49200,"target":34962,"byteStride":12},{"buffer":0,"byteOffset":98400,"byteLength":32800,"target":34962,"byteStride":8},{"buffer":0,"byteOffset":131200,"byteLength":12600,"target":34963}],"buffers":[{"byteLength":143800,"uri":"data:application/octet-stream;base64,"}],"accessors":[{"bufferView":0,"componentType":5126,"count":4100,"max":[328.56207275390625,60.21657180786133,127.20967102050781],"min":[-328.56170654296875,-60.21657180786133,-127.20963287353516],"type":"VEC3"},{"bufferView":1,"componentType":5126,"count":4100,"max":[1,1.0000001192092896,1],"min":[-1,-1.0000001192092896,-1],"type":"VEC3"},{"bufferView":2,"componentType":5126,"count":4100,"max":[6.463440895080566,4.104005813598633],"min":[-3.9634406566619873,1.2799642086029053],"type":"VEC2"},{"bufferView":3,"componentType":5123,"count":6300,"max":[4099],"min":[0],"type":"SCALAR"}],"materials":[{"pbrMetallicRoughness":{"baseColorFactor":[0.40000003576278687,0.41960787773132324,0.7921569347381592,1],"metallicFactor":1,"roughnessFactor":0.858578622341156},"doubleSided":true,"name":"Stone_Stacked"}],"meshes":[{"primitives":[{"mode":4,"attributes":{"POSITION":0,"NORMAL":1,"TEXCOORD_0":2},"indices":3,"material":0}]}]}