{"asset":{"version":"2.0","generator":"THREE.GLTFExporter"},"scenes":[{"nodes":[0]}],"scene":0,"nodes":[{"matrix":[-3.4127149151033032e-9,0,0.02539999882363095,0,0,0.02539999969303608,0,0,-0.02539999882363095,0,-3.4127149151033032e-9,0,3.939244731060171,21.623161600883748,-48.98838455167834,1],"name":"HouseCastle_Mullions_Wood","extras":{"name":"HouseCastle_Mullions_Wood"},"mesh":0}],"bufferViews":[{"buffer":0,"byteOffset":0,"byteLength":144624,"target":34962,"byteStride":12},{"buffer":0,"byteOffset":144624,"byteLength":144624,"target":34962,"byteStride":12},{"buffer":0,"byteOffset":289248,"byteLength":96416,"target":34962,"byteStride":8},{"buffer":0,"byteOffset":385664,"byteLength":37584,"target":34963}],"buffers":[{"byteLength":423248,"uri":"data:application/octet-stream;base64,"}],"accessors":[{"bufferView":0,"componentType":5126,"count":12052,"max":[256.5400695800781,360.45989990234375,256.0964660644531],"min":[-254.60986328125,-360.45989990234375,-246.64178466796875],"type":"VEC3"},{"bufferView":1,"componentType":5126,"count":12052,"max":[1,1,1],"min":[-1,-1,-1],"type":"VEC3"},{"bufferView":2,"componentType":5126,"count":12052,"max":[140.71434020996094,9.511497497558594],"min":[-139.73606872558594,-33.548065185546875],"type":"VEC2"},{"bufferView":3,"componentType":5123,"count":18792,"max":[12051],"min":[0],"type":"SCALAR"}],"materials":[{"pbrMetallicRoughness":{"baseColorFactor":[0.7058823704719543,0.8588235974311829,0.6549019813537598,1],"metallicFactor":1,"roughnessFactor":0.858578622341156},"doubleSided":true,"name":"Mullions_Wood"}],"meshes":[{"primitives":[{"mode":4,"attributes":{"POSITION":0,"NORMAL":1,"TEXCOORD_0":2},"indices":3,"material":0}]}]}