{"asset":{"version":"2.0","generator":"THREE.GLTFExporter"},"scenes":[{"nodes":[0]}],"scene":0,"nodes":[{"matrix":[0.02539999969303608,0,0,0,0,0.02539999969303608,0,0,0,0,0.02539999969303608,0,117.06819473031419,28.561093288258803,-48.53802222281638,1],"name":"HouseLG06_Glass","extras":{"name":"HouseLG06_Glass"},"mesh":0}],"bufferViews":[{"buffer":0,"byteOffset":0,"byteLength":12384,"target":34962,"byteStride":12},{"buffer":0,"byteOffset":12384,"byteLength":12384,"target":34962,"byteStride":12},{"buffer":0,"byteOffset":24768,"byteLength":8256,"target":34962,"byteStride":8},{"buffer":0,"byteOffset":33024,"byteLength":3096,"target":34963}],"buffers":[{"byteLength":36120,"uri":"data:application/octet-stream;base64,"}],"accessors":[{"bufferView":0,"componentType":5126,"count":1032,"max":[366.7041015625,258.9853515625,296.807861328125],"min":[-366.70458984375,-258.98529052734375,-296.80743408203125],"type":"VEC3"},{"bufferView":1,"componentType":5126,"count":1032,"max":[1,0.0000011420577266108012,1.0000001192092896],"min":[-1,-0.000005532303021027474,-1.0000001192092896],"type":"VEC3"},{"bufferView":2,"componentType":5126,"count":1032,"max":[0.9997479915618896,1.0169082880020142],"min":[0.14401300251483917,-0.03636002540588379],"type":"VEC2"},{"bufferView":3,"componentType":5123,"count":1548,"max":[1031],"min":[0],"type":"SCALAR"}],"materials":[{"pbrMetallicRoughness":{"baseColorFactor":[0.41960787773132324,0.6274510025978088,0.7568628191947937,1],"metallicFactor":1,"roughnessFactor":0.858578622341156},"doubleSided":true,"name":"Glass"}],"meshes":[{"primitives":[{"mode":4,"attributes":{"POSITION":0,"NORMAL":1,"TEXCOORD_0":2},"indices":3,"material":0}]}]}