{"asset":{"version":"2.0","generator":"THREE.GLTFExporter"},"scenes":[{"nodes":[0]}],"scene":0,"nodes":[{"matrix":[0.02539999969303608,0,0,0,0,0.02539999969303608,0,0,0,0,0.02539999969303608,0,-45.29678017171909,1.528859069525737,25.079651859952833,1],"name":"网格255","mesh":0}],"bufferViews":[{"buffer":0,"byteOffset":0,"byteLength":44244,"target":34962,"byteStride":12},{"buffer":0,"byteOffset":44244,"byteLength":44244,"target":34962,"byteStride":12},{"buffer":0,"byteOffset":88488,"byteLength":29496,"target":34962,"byteStride":8},{"buffer":0,"byteOffset":117984,"byteLength":16328,"target":34963}],"buffers":[{"byteLength":134312,"uri":"data:application/octet-stream;base64,"}],"accessors":[{"bufferView":0,"componentType":5126,"count":3687,"max":[114.23184204101562,52.89046096801758,23.563396453857422],"min":[-119.44182586669922,-63.76369094848633,-23.563404083251953],"type":"VEC3"},{"bufferView":1,"componentType":5126,"count":3687,"max":[1,1,1],"min":[-1,-1,-1],"type":"VEC3"},{"bufferView":2,"componentType":5126,"count":3687,"max":[1.6683683395385742,1.083270788192749],"min":[-0.6683683395385742,-0.08327078819274902],"type":"VEC2"},{"bufferView":3,"componentType":5123,"count":8163,"max":[3686],"min":[0],"type":"SCALAR"}],"materials":[{"pbrMetallicRoughness":{"baseColorFactor":[0.5803921818733215,0.13725490868091583,0.13725490868091583,1],"metallicFactor":1,"roughnessFactor":0.858578622341156},"doubleSided":true,"name":"PlasterBrown"}],"meshes":[{"primitives":[{"mode":4,"attributes":{"POSITION":0,"NORMAL":1,"TEXCOORD_0":2},"indices":3,"material":0}]}]}