{"asset":{"version":"2.0","generator":"THREE.GLTFExporter"},"scenes":[{"nodes":[0]}],"scene":0,"nodes":[{"matrix":[0.02539999969303608,0,0,0,0,0.02539999969303608,0,0,0,0,0.02539999969303608,0,-32.02662799678001,14.791047251773364,-5.817597195491658,1],"name":"HouseMD02_PlasterYellow","extras":{"name":"HouseMD02_PlasterYellow"},"mesh":0}],"bufferViews":[{"buffer":0,"byteOffset":0,"byteLength":23784,"target":34962,"byteStride":12},{"buffer":0,"byteOffset":23784,"byteLength":23784,"target":34962,"byteStride":12},{"buffer":0,"byteOffset":47568,"byteLength":15856,"target":34962,"byteStride":8},{"buffer":0,"byteOffset":63424,"byteLength":6548,"target":34963}],"buffers":[{"byteLength":69972,"uri":"data:application/octet-stream;base64,"}],"accessors":[{"bufferView":0,"componentType":5126,"count":1982,"max":[200.89662170410156,291.1822204589844,82.8373794555664],"min":[-200.89662170410156,-291.1822204589844,-82.83745574951172],"type":"VEC3"},{"bufferView":1,"componentType":5126,"count":1982,"max":[1,1,1],"min":[-1,-1,-1],"type":"VEC3"},{"bufferView":2,"componentType":5126,"count":1982,"max":[24.657875061035156,11.044954299926758],"min":[-23.65431785583496,1.5643432140350342],"type":"VEC2"},{"bufferView":3,"componentType":5123,"count":3273,"max":[1981],"min":[0],"type":"SCALAR"}],"materials":[{"pbrMetallicRoughness":{"baseColorFactor":[0.7372549176216125,0.6000000238418579,0.3803921937942505,1],"metallicFactor":1,"roughnessFactor":0.858578622341156},"doubleSided":true,"name":"PlasterYellow"}],"meshes":[{"primitives":[{"mode":4,"attributes":{"POSITION":0,"NORMAL":1,"TEXCOORD_0":2},"indices":3,"material":0}]}]}