{"asset":{"version":"2.0","generator":"THREE.GLTFExporter"},"scenes":[{"nodes":[0]}],"scene":0,"nodes":[{"matrix":[0.02539999969303608,0,0,0,0,0.02539999969303608,0,0,0,0,0.02539999969303608,0,60.98432205395147,11.162368330862478,-5.994719823896048,1],"name":"HouseMD06_WoodDark001","extras":{"name":"HouseMD06_WoodDark.001"},"mesh":0}],"bufferViews":[{"buffer":0,"byteOffset":0,"byteLength":30480,"target":34962,"byteStride":12},{"buffer":0,"byteOffset":30480,"byteLength":30480,"target":34962,"byteStride":12},{"buffer":0,"byteOffset":60960,"byteLength":20320,"target":34962,"byteStride":8},{"buffer":0,"byteOffset":81280,"byteLength":9168,"target":34963}],"buffers":[{"byteLength":90448,"uri":"data:application/octet-stream;base64,"}],"accessors":[{"bufferView":0,"componentType":5126,"count":2540,"max":[57.322418212890625,53.11791229248047,126.97323608398438],"min":[-57.32244873046875,-53.11791229248047,-126.97317504882812],"type":"VEC3"},{"bufferView":1,"componentType":5126,"count":2540,"max":[1,1,1],"min":[-1,-1,-1],"type":"VEC3"},{"bufferView":2,"componentType":5126,"count":2540,"max":[14.65090560913086,14.65090560913086],"min":[-13.65090560913086,-5.615395545959473],"type":"VEC2"},{"bufferView":3,"componentType":5123,"count":4584,"max":[2539],"min":[0],"type":"SCALAR"}],"materials":[{"pbrMetallicRoughness":{"baseColorFactor":[0.07058823853731155,0.003921568859368563,0.003921568859368563,1],"metallicFactor":1,"roughnessFactor":0.858578622341156},"doubleSided":true,"name":"WoodDark"}],"meshes":[{"primitives":[{"mode":4,"attributes":{"POSITION":0,"NORMAL":1,"TEXCOORD_0":2},"indices":3,"material":0}]}]}