{"asset":{"version":"2.0","generator":"THREE.GLTFExporter"},"scenes":[{"nodes":[0]}],"scene":0,"nodes":[{"matrix":[0.02539999969303608,0,0,0,0,0.02539999969303608,0,0,0,0,0.02539999969303608,0,40.40752410888672,18.575011418133272,-7.713638319899019,1],"name":"HouseMD05_PlasterYellow","extras":{"name":"HouseMD05_PlasterYellow"},"mesh":0}],"bufferViews":[{"buffer":0,"byteOffset":0,"byteLength":24264,"target":34962,"byteStride":12},{"buffer":0,"byteOffset":24264,"byteLength":24264,"target":34962,"byteStride":12},{"buffer":0,"byteOffset":48528,"byteLength":16176,"target":34962,"byteStride":8},{"buffer":0,"byteOffset":64704,"byteLength":9324,"target":34963}],"buffers":[{"byteLength":74028,"uri":"data:application/octet-stream;base64,"}],"accessors":[{"bufferView":0,"componentType":5126,"count":2022,"max":[197.460693359375,368.0674743652344,199.8275604248047],"min":[-197.460693359375,-362.9336853027344,-199.82757568359375],"type":"VEC3"},{"bufferView":1,"componentType":5126,"count":2022,"max":[1,1,1],"min":[-1,-1,-1],"type":"VEC3"},{"bufferView":2,"componentType":5126,"count":2022,"max":[31.47989845275879,10.525733947753906],"min":[-10.249507904052734,-2.132280111312866],"type":"VEC2"},{"bufferView":3,"componentType":5123,"count":4662,"max":[2021],"min":[0],"type":"SCALAR"}],"materials":[{"pbrMetallicRoughness":{"baseColorFactor":[0.7372549176216125,0.6000000238418579,0.3803921937942505,1],"metallicFactor":1,"roughnessFactor":0.858578622341156},"doubleSided":true,"name":"PlasterYellow"}],"meshes":[{"primitives":[{"mode":4,"attributes":{"POSITION":0,"NORMAL":1,"TEXCOORD_0":2},"indices":3,"material":0}]}]}