{"asset":{"version":"2.0","generator":"THREE.GLTFExporter"},"scenes":[{"nodes":[0]}],"scene":0,"nodes":[{"matrix":[0.02539999969303608,0,0,0,0,0.02539999969303608,0,0,0,0,0.02539999969303608,0,20.610585715751313,14.891286048506117,24.144105692268937,1],"name":"Turret_Glass","extras":{"name":"Turret_Glass"},"mesh":0}],"bufferViews":[{"buffer":0,"byteOffset":0,"byteLength":984,"target":34962,"byteStride":12},{"buffer":0,"byteOffset":984,"byteLength":984,"target":34962,"byteStride":12},{"buffer":0,"byteOffset":1968,"byteLength":656,"target":34962,"byteStride":8},{"buffer":0,"byteOffset":2624,"byteLength":228,"target":34963}],"buffers":[{"byteLength":2852,"uri":"data:application/octet-stream;base64,"}],"accessors":[{"bufferView":0,"componentType":5126,"count":82,"max":[55.595863342285156,30.894805908203125,63.941993713378906],"min":[-55.5958366394043,-30.894805908203125,-78.02393341064453],"type":"VEC3"},{"bufferView":1,"componentType":5126,"count":82,"max":[1,7.402288688691111e-14,1],"min":[-1,-0.0002958110999315977,-0.9394596815109253],"type":"VEC3"},{"bufferView":2,"componentType":5126,"count":82,"max":[0.5629666447639465,0.3435261845588684],"min":[0.4293338358402252,0.32911109924316406],"type":"VEC2"},{"bufferView":3,"componentType":5123,"count":114,"max":[81],"min":[0],"type":"SCALAR"}],"materials":[{"pbrMetallicRoughness":{"baseColorFactor":[0.41960787773132324,0.6274510025978088,0.7568628191947937,1],"metallicFactor":1,"roughnessFactor":0.858578622341156},"doubleSided":true,"name":"Glass"}],"meshes":[{"primitives":[{"mode":4,"attributes":{"POSITION":0,"NORMAL":1,"TEXCOORD_0":2},"indices":3,"material":0}]}]}