{"asset":{"version":"2.0","generator":"THREE.GLTFExporter"},"scenes":[{"nodes":[0]}],"scene":0,"nodes":[{"matrix":[0.02539999969303608,0,0,0,0,0.02539999969303608,0,0,0,0,0.02539999969303608,0,33.96136209837718,22.63081434851057,-48.666020003090125,1],"name":"HouseLG03_Mullions_Wood","extras":{"name":"HouseLG03_Mullions_Wood"},"mesh":0}],"bufferViews":[{"buffer":0,"byteOffset":0,"byteLength":300612,"target":34962,"byteStride":12},{"buffer":0,"byteOffset":300612,"byteLength":300612,"target":34962,"byteStride":12},{"buffer":0,"byteOffset":601224,"byteLength":200408,"target":34962,"byteStride":8},{"buffer":0,"byteOffset":801632,"byteLength":88404,"target":34963}],"buffers":[{"byteLength":890036,"uri":"data:application/octet-stream;base64,"}],"accessors":[{"bufferView":0,"componentType":5126,"count":25051,"max":[424.3380432128906,405.5671691894531,254.18804931640625],"min":[-419.1364440917969,-405.567138671875,-254.18804931640625],"type":"VEC3"},{"bufferView":1,"componentType":5126,"count":25051,"max":[1,1,1],"min":[-1.0000001192092896,-1,-1.0000001192092896],"type":"VEC3"},{"bufferView":2,"componentType":5126,"count":25051,"max":[59.55265426635742,14.018903732299805],"min":[-58.55265426635742,-52.38162612915039],"type":"VEC2"},{"bufferView":3,"componentType":5123,"count":44202,"max":[25050],"min":[0],"type":"SCALAR"}],"materials":[{"pbrMetallicRoughness":{"baseColorFactor":[0.7058823704719543,0.8588235974311829,0.6549019813537598,1],"metallicFactor":1,"roughnessFactor":0.858578622341156},"doubleSided":true,"name":"Mullions_Wood"}],"meshes":[{"primitives":[{"mode":4,"attributes":{"POSITION":0,"NORMAL":1,"TEXCOORD_0":2},"indices":3,"material":0}]}]}