{"asset":{"version":"2.0","generator":"THREE.GLTFExporter"},"scenes":[{"nodes":[0]}],"scene":0,"nodes":[{"matrix":[0.02539999969303608,0,0,0,0,0.02539999969303608,0,0,0,0,0.02539999969303608,0,-16.654177728437276,11.307550203751987,24.06875723120953,1],"name":"Windmill_Glass","extras":{"name":"Windmill_Glass"},"mesh":0}],"bufferViews":[{"buffer":0,"byteOffset":0,"byteLength":1152,"target":34962,"byteStride":12},{"buffer":0,"byteOffset":1152,"byteLength":1152,"target":34962,"byteStride":12},{"buffer":0,"byteOffset":2304,"byteLength":768,"target":34962,"byteStride":8},{"buffer":0,"byteOffset":3072,"byteLength":768,"target":34962,"byteStride":8},{"buffer":0,"byteOffset":3840,"byteLength":288,"target":34963}],"buffers":[{"byteLength":4128,"uri":"data:application/octet-stream;base64,"}],"accessors":[{"bufferView":0,"componentType":5126,"count":96,"max":[59.31718063354492,16.45880126953125,59.24406433105469],"min":[-59.317100524902344,-16.458847045898438,-59.24412536621094],"type":"VEC3"},{"bufferView":1,"componentType":5126,"count":96,"max":[0.7377303242683411,9.686293651611777e-7,0.6758377552032471],"min":[-0.7383781671524048,-0.0000014529464351653587,-0.6769654750823975],"type":"VEC3"},{"bufferView":2,"componentType":5126,"count":96,"max":[0,1],"min":[0,1],"type":"VEC2"},{"bufferView":3,"componentType":5126,"count":96,"max":[0.7685356140136719,0.9806616306304932],"min":[0.033454928547143936,0.8697654008865356],"type":"VEC2"},{"bufferView":4,"componentType":5123,"count":144,"max":[95],"min":[0],"type":"SCALAR"}],"materials":[{"pbrMetallicRoughness":{"baseColorFactor":[0.41960787773132324,0.6274510025978088,0.7568628191947937,1],"metallicFactor":1,"roughnessFactor":0.858578622341156},"doubleSided":true,"name":"Glass"}],"meshes":[{"primitives":[{"mode":4,"attributes":{"POSITION":0,"NORMAL":1,"TEXCOORD_0":2,"TEXCOORD_1":3},"indices":4,"material":0}]}]}