{"asset":{"version":"2.0","generator":"THREE.GLTFExporter"},"scenes":[{"nodes":[0]}],"scene":0,"nodes":[{"matrix":[0.02539999969303608,0,0,0,0,0.02539999969303608,0,0,0,0,0.02539999969303608,0,31.474965176545084,3.7405988704223034,23.98782294482635,1],"name":"HouseAFrame_WoodDark001","extras":{"name":"HouseAFrame_WoodDark.001"},"mesh":0}],"bufferViews":[{"buffer":0,"byteOffset":0,"byteLength":82944,"target":34962,"byteStride":12},{"buffer":0,"byteOffset":82944,"byteLength":82944,"target":34962,"byteStride":12},{"buffer":0,"byteOffset":165888,"byteLength":55296,"target":34962,"byteStride":8},{"buffer":0,"byteOffset":221184,"byteLength":19296,"target":34963}],"buffers":[{"byteLength":240480,"uri":"data:application/octet-stream;base64,"}],"accessors":[{"bufferView":0,"componentType":5126,"count":6912,"max":[94.3785400390625,36.1875,167.83973693847656],"min":[-94.3785400390625,-36.18752670288086,-167.83973693847656],"type":"VEC3"},{"bufferView":1,"componentType":5126,"count":6912,"max":[1,1,1],"min":[-1,-1,-1],"type":"VEC3"},{"bufferView":2,"componentType":5126,"count":6912,"max":[73.89879608154297,73.89879608154297],"min":[-72.89879608154297,13.954268455505371],"type":"VEC2"},{"bufferView":3,"componentType":5123,"count":9648,"max":[6911],"min":[0],"type":"SCALAR"}],"materials":[{"pbrMetallicRoughness":{"baseColorFactor":[0.07058823853731155,0.003921568859368563,0.003921568859368563,1],"metallicFactor":1,"roughnessFactor":0.858578622341156},"doubleSided":true,"name":"WoodDark"}],"meshes":[{"primitives":[{"mode":4,"attributes":{"POSITION":0,"NORMAL":1,"TEXCOORD_0":2},"indices":3,"material":0}]}]}