{"asset":{"version":"2.0","generator":"THREE.GLTFExporter"},"scenes":[{"nodes":[0]}],"scene":0,"nodes":[{"matrix":[0.02539999969303608,0,0,0,0,0.02539999969303608,0,0,0,0,0.02539999969303608,0,-7.701656768968121,15.806205547600882,-5.232038960380464,1],"name":"HouseMD03_PlasterYellow","extras":{"name":"HouseMD03_PlasterYellow"},"mesh":0}],"bufferViews":[{"buffer":0,"byteOffset":0,"byteLength":279600,"target":34962,"byteStride":12},{"buffer":0,"byteOffset":279600,"byteLength":279600,"target":34962,"byteStride":12},{"buffer":0,"byteOffset":559200,"byteLength":186400,"target":34962,"byteStride":8},{"buffer":0,"byteOffset":745600,"byteLength":73800,"target":34963}],"buffers":[{"byteLength":819400,"uri":"data:application/octet-stream;base64,"}],"accessors":[{"bufferView":0,"componentType":5126,"count":23300,"max":[210.1792449951172,272.70843505859375,189.00938415527344],"min":[-210.17929077148438,-272.70855712890625,-189.00926208496094],"type":"VEC3"},{"bufferView":1,"componentType":5126,"count":23300,"max":[1.0000001192092896,1,1.0000001192092896],"min":[-1.0000001192092896,-1.0000001192092896,-1.0000001192092896],"type":"VEC3"},{"bufferView":2,"componentType":5126,"count":23300,"max":[20.36677360534668,10.97636604309082],"min":[-19.36677360534668,1.5504441261291504],"type":"VEC2"},{"bufferView":3,"componentType":5123,"count":36900,"max":[23299],"min":[0],"type":"SCALAR"}],"materials":[{"pbrMetallicRoughness":{"baseColorFactor":[0.7372549176216125,0.6000000238418579,0.3803921937942505,1],"metallicFactor":1,"roughnessFactor":0.858578622341156},"doubleSided":true,"name":"PlasterYellow"}],"meshes":[{"primitives":[{"mode":4,"attributes":{"POSITION":0,"NORMAL":1,"TEXCOORD_0":2},"indices":3,"material":0}]}]}