{"asset":{"version":"2.0","generator":"THREE.GLTFExporter"},"scenes":[{"nodes":[0]}],"scene":0,"nodes":[{"matrix":[0.02539999969303608,0,0,0,0,0.02539999969303608,0,0,0,0,0.02539999969303608,0,33.51439287465291,13.356986726211574,-51.37232919889948,1],"name":"HouseLG03_WoodDark001","extras":{"name":"HouseLG03_WoodDark.001"},"mesh":0}],"bufferViews":[{"buffer":0,"byteOffset":0,"byteLength":16128,"target":34962,"byteStride":12},{"buffer":0,"byteOffset":16128,"byteLength":16128,"target":34962,"byteStride":12},{"buffer":0,"byteOffset":32256,"byteLength":10752,"target":34962,"byteStride":8},{"buffer":0,"byteOffset":43008,"byteLength":3696,"target":34963}],"buffers":[{"byteLength":46704,"uri":"data:application/octet-stream;base64,"}],"accessors":[{"bufferView":0,"componentType":5126,"count":1344,"max":[331.7998962402344,43.82339859008789,151.44921875],"min":[-331.7999267578125,-43.82339859008789,-151.44906616210938],"type":"VEC3"},{"bufferView":1,"componentType":5126,"count":1344,"max":[1,1,1],"min":[-1,-1,-1],"type":"VEC3"},{"bufferView":2,"componentType":5126,"count":1344,"max":[8.388359069824219,2.5321919918060303],"min":[-7.3883585929870605,-8.133832931518555],"type":"VEC2"},{"bufferView":3,"componentType":5123,"count":1848,"max":[1343],"min":[0],"type":"SCALAR"}],"materials":[{"pbrMetallicRoughness":{"baseColorFactor":[0.07058823853731155,0.003921568859368563,0.003921568859368563,1],"metallicFactor":1,"roughnessFactor":0.858578622341156},"doubleSided":true,"name":"WoodDark"}],"meshes":[{"primitives":[{"mode":4,"attributes":{"POSITION":0,"NORMAL":1,"TEXCOORD_0":2},"indices":3,"material":0}]}]}