{"asset":{"version":"2.0","generator":"THREE.GLTFExporter"},"scenes":[{"nodes":[0]}],"scene":0,"nodes":[{"matrix":[0.02539999969303608,0,0,0,0,0.02539999969303608,0,0,0,0,0.02539999969303608,0,117.06802109750379,37.337571429263676,-48.53801602164458,1],"name":"HouseLG06_RoofTiles","extras":{"name":"HouseLG06_RoofTiles"},"mesh":0}],"bufferViews":[{"buffer":0,"byteOffset":0,"byteLength":67932,"target":34962,"byteStride":12},{"buffer":0,"byteOffset":67932,"byteLength":67932,"target":34962,"byteStride":12},{"buffer":0,"byteOffset":135864,"byteLength":45288,"target":34962,"byteStride":8},{"buffer":0,"byteOffset":181152,"byteLength":21848,"target":34963}],"buffers":[{"byteLength":203000,"uri":"data:application/octet-stream;base64,"}],"accessors":[{"bufferView":0,"componentType":5126,"count":5661,"max":[458.337890625,270.21630859375,333.83251953125],"min":[-458.3385009765625,-270.2162780761719,-333.8326416015625],"type":"VEC3"},{"bufferView":1,"componentType":5126,"count":5661,"max":[1.0000001192092896,1,0.999998927116394],"min":[-1,-1,-0.9999995231628418],"type":"VEC3"},{"bufferView":2,"componentType":5126,"count":5661,"max":[2.7173194885253906,2.717312812805176],"min":[-1.7173194885253906,-1.7173194885253906],"type":"VEC2"},{"bufferView":3,"componentType":5123,"count":10923,"max":[5660],"min":[0],"type":"SCALAR"}],"materials":[{"pbrMetallicRoughness":{"baseColorFactor":[0.4666666666666667,0.4745098039215686,0.4666666666666667,1],"metallicFactor":0,"roughnessFactor":1}}],"meshes":[{"primitives":[{"mode":4,"attributes":{"POSITION":0,"NORMAL":1,"TEXCOORD_0":2},"indices":3,"material":0}]}]}