{"asset":{"version":"2.0","generator":"THREE.GLTFExporter"},"scenes":[{"nodes":[0]}],"scene":0,"nodes":[{"matrix":[0.02539999969303608,0,0,0,0,0.02539999969303608,0,0,0,0,0.02539999969303608,0,94.98158105121911,34.87070574235872,-129.81289983772695,1],"name":"CastleSM_WoodDark","extras":{"name":"CastleSM_WoodDark"},"mesh":0}],"bufferViews":[{"buffer":0,"byteOffset":0,"byteLength":49032,"target":34962,"byteStride":12},{"buffer":0,"byteOffset":49032,"byteLength":49032,"target":34962,"byteStride":12},{"buffer":0,"byteOffset":98064,"byteLength":32688,"target":34962,"byteStride":8},{"buffer":0,"byteOffset":130752,"byteLength":12360,"target":34963}],"buffers":[{"byteLength":143112,"uri":"data:application/octet-stream;base64,"}],"accessors":[{"bufferView":0,"componentType":5126,"count":4086,"max":[726.439697265625,574.075439453125,758.6613159179688],"min":[-726.4396362304688,-574.075439453125,-758.66064453125],"type":"VEC3"},{"bufferView":1,"componentType":5126,"count":4086,"max":[1.0000001192092896,1.0000001192092896,1.0000001192092896],"min":[-1.0000001192092896,-1.0000001192092896,-1.0000001192092896],"type":"VEC3"},{"bufferView":2,"componentType":5126,"count":4086,"max":[80.804443359375,13.346379280090332],"min":[-80.57781982421875,-80.90547180175781],"type":"VEC2"},{"bufferView":3,"componentType":5123,"count":6180,"max":[4085],"min":[0],"type":"SCALAR"}],"materials":[{"pbrMetallicRoughness":{"baseColorFactor":[0.07058823853731155,0.003921568859368563,0.003921568859368563,1],"metallicFactor":1,"roughnessFactor":0.858578622341156},"doubleSided":true,"name":"WoodDark"}],"meshes":[{"primitives":[{"mode":4,"attributes":{"POSITION":0,"NORMAL":1,"TEXCOORD_0":2},"indices":3,"material":0}]}]}