{"asset":{"version":"2.0","generator":"THREE.GLTFExporter"},"scenes":[{"nodes":[0]}],"scene":0,"nodes":[{"matrix":[0.02539999969303608,0,0,0,0,0.02539999969303608,0,0,0,0,0.02539999969303608,0,34.06233074034543,22.62562241742097,-48.65916150707926,1],"name":"HouseLG03_Glass","extras":{"name":"HouseLG03_Glass"},"mesh":0}],"bufferViews":[{"buffer":0,"byteOffset":0,"byteLength":44700,"target":34962,"byteStride":12},{"buffer":0,"byteOffset":44700,"byteLength":44700,"target":34962,"byteStride":12},{"buffer":0,"byteOffset":89400,"byteLength":29800,"target":34962,"byteStride":8},{"buffer":0,"byteOffset":119200,"byteLength":19188,"target":34963}],"buffers":[{"byteLength":138388,"uri":"data:application/octet-stream;base64,"}],"accessors":[{"bufferView":0,"componentType":5126,"count":3725,"max":[419.704345703125,404.7295837402344,253.5074462890625],"min":[-419.70428466796875,-404.72955322265625,-253.50753784179688],"type":"VEC3"},{"bufferView":1,"componentType":5126,"count":3725,"max":[1,1,1],"min":[-1,-1,-1],"type":"VEC3"},{"bufferView":2,"componentType":5126,"count":3725,"max":[0.9979869723320007,1.0392311811447144],"min":[-0.23448200523853302,-0.043830037117004395],"type":"VEC2"},{"bufferView":3,"componentType":5123,"count":9594,"max":[3724],"min":[0],"type":"SCALAR"}],"materials":[{"pbrMetallicRoughness":{"baseColorFactor":[0.41960787773132324,0.6274510025978088,0.7568628191947937,1],"metallicFactor":1,"roughnessFactor":0.858578622341156},"doubleSided":true,"name":"Glass"}],"meshes":[{"primitives":[{"mode":4,"attributes":{"POSITION":0,"NORMAL":1,"TEXCOORD_0":2},"indices":3,"material":0}]}]}