{"asset":{"version":"2.0","generator":"THREE.GLTFExporter"},"scenes":[{"nodes":[0]}],"scene":0,"nodes":[{"matrix":[0.02539999969303608,0,0,0,0,0.02539999969303608,0,0,0,0,0.02539999969303608,0,16.986929098357223,18.56100616510747,-6.1131184597343236,1],"name":"HouseMD04_RoofTiles","extras":{"name":"HouseMD04_RoofTiles"},"mesh":0}],"bufferViews":[{"buffer":0,"byteOffset":0,"byteLength":1332,"target":34962,"byteStride":12},{"buffer":0,"byteOffset":1332,"byteLength":1332,"target":34962,"byteStride":12},{"buffer":0,"byteOffset":2664,"byteLength":888,"target":34962,"byteStride":8},{"buffer":0,"byteOffset":3552,"byteLength":360,"target":34963}],"buffers":[{"byteLength":3912,"uri":"data:application/octet-stream;base64,"}],"accessors":[{"bufferView":0,"componentType":5126,"count":111,"max":[216.0008087158203,214.9827880859375,182.74996948242188],"min":[-216.00079345703125,-214.9829559326172,-182.75006103515625],"type":"VEC3"},{"bufferView":1,"componentType":5126,"count":111,"max":[0.7187297940254211,1,0.6480660438537598],"min":[-0.7224817872047424,0.6913899183273315,-0.000011730939149856567],"type":"VEC3"},{"bufferView":2,"componentType":5126,"count":111,"max":[11.913618087768555,12.125307083129883],"min":[-13.51755428314209,2.321213960647583],"type":"VEC2"},{"bufferView":3,"componentType":5123,"count":180,"max":[110],"min":[0],"type":"SCALAR"}],"materials":[{"pbrMetallicRoughness":{"baseColorFactor":[0.4666666666666667,0.4745098039215686,0.4666666666666667,1],"metallicFactor":0,"roughnessFactor":1}}],"meshes":[{"primitives":[{"mode":4,"attributes":{"POSITION":0,"NORMAL":1,"TEXCOORD_0":2},"indices":3,"material":0}]}]}