{"asset":{"version":"2.0","generator":"THREE.GLTFExporter"},"scenes":[{"nodes":[0]}],"scene":0,"nodes":[{"matrix":[0.02539999969303608,0,0,0,0,0.02539999969303608,0,0,0,0,0.02539999969303608,0,-36.16194142336644,8.536596340115963,-5.819598623690126,1],"name":"HouseMD02_Stone_Stacked","extras":{"name":"HouseMD02_Stone_Stacked"},"mesh":0}],"bufferViews":[{"buffer":0,"byteOffset":0,"byteLength":4368,"target":34962,"byteStride":12},{"buffer":0,"byteOffset":4368,"byteLength":4368,"target":34962,"byteStride":12},{"buffer":0,"byteOffset":8736,"byteLength":2912,"target":34962,"byteStride":8},{"buffer":0,"byteOffset":11648,"byteLength":1104,"target":34963}],"buffers":[{"byteLength":12752,"uri":"data:application/octet-stream;base64,"}],"accessors":[{"bufferView":0,"componentType":5126,"count":364,"max":[24.527587890625,44.944007873535156,83.17828369140625],"min":[-24.527587890625,-44.944000244140625,-83.17816162109375],"type":"VEC3"},{"bufferView":1,"componentType":5126,"count":364,"max":[1,1,1],"min":[-1,-1,-1],"type":"VEC3"},{"bufferView":2,"componentType":5126,"count":364,"max":[16.180740356445312,8.263025283813477],"min":[-13.680739402770996,3.737091541290283],"type":"VEC2"},{"bufferView":3,"componentType":5123,"count":552,"max":[363],"min":[0],"type":"SCALAR"}],"materials":[{"pbrMetallicRoughness":{"baseColorFactor":[0.40000003576278687,0.41960787773132324,0.7921569347381592,1],"metallicFactor":1,"roughnessFactor":0.858578622341156},"doubleSided":true,"name":"Stone_Stacked"}],"meshes":[{"primitives":[{"mode":4,"attributes":{"POSITION":0,"NORMAL":1,"TEXCOORD_0":2},"indices":3,"material":0}]}]}