{"asset":{"version":"2.0","generator":"THREE.GLTFExporter"},"scenes":[{"nodes":[0]}],"scene":0,"nodes":[{"matrix":[0.02539999969303608,0,0,0,0,0.02539999969303608,0,0,0,0,0.02539999969303608,0,159.6139802978514,11.609745476697697,25.209887326049795,1],"name":"HouseSM01_RoofTiles","extras":{"name":"HouseSM01_RoofTiles"},"mesh":0}],"bufferViews":[{"buffer":0,"byteOffset":0,"byteLength":9444,"target":34962,"byteStride":12},{"buffer":0,"byteOffset":9444,"byteLength":9444,"target":34962,"byteStride":12},{"buffer":0,"byteOffset":18888,"byteLength":6296,"target":34962,"byteStride":8},{"buffer":0,"byteOffset":25184,"byteLength":2400,"target":34963}],"buffers":[{"byteLength":27584,"uri":"data:application/octet-stream;base64,"}],"accessors":[{"bufferView":0,"componentType":5126,"count":787,"max":[272.25604248046875,103.03424072265625,140.24359130859375],"min":[-272.2562561035156,-103.03421020507812,-140.24365234375],"type":"VEC3"},{"bufferView":1,"componentType":5126,"count":787,"max":[1.0000001192092896,1,1],"min":[-1,-1,-1],"type":"VEC3"},{"bufferView":2,"componentType":5126,"count":787,"max":[19.567081451416016,19.567081451416016],"min":[-18.567081451416016,3.807569980621338],"type":"VEC2"},{"bufferView":3,"componentType":5123,"count":1200,"max":[786],"min":[0],"type":"SCALAR"}],"materials":[{"pbrMetallicRoughness":{"baseColorFactor":[0.4666666666666667,0.4745098039215686,0.4666666666666667,1],"metallicFactor":0,"roughnessFactor":1}}],"meshes":[{"primitives":[{"mode":4,"attributes":{"POSITION":0,"NORMAL":1,"TEXCOORD_0":2},"indices":3,"material":0}]}]}