{"asset":{"version":"2.0","generator":"THREE.GLTFExporter"},"scenes":[{"nodes":[0]}],"scene":0,"nodes":[{"matrix":[0.02539999969303608,0,0,0,0,0.02539999969303608,0,0,0,0,0.02539999969303608,0,-62.62217825335392,0.9818141725724274,25.07708883813322,1],"name":"网格.263_1","mesh":0}],"bufferViews":[{"buffer":0,"byteOffset":0,"byteLength":9900,"target":34962,"byteStride":12},{"buffer":0,"byteOffset":9900,"byteLength":9900,"target":34962,"byteStride":12},{"buffer":0,"byteOffset":19800,"byteLength":6600,"target":34962,"byteStride":8},{"buffer":0,"byteOffset":26400,"byteLength":2496,"target":34963}],"buffers":[{"byteLength":28896,"uri":"data:application/octet-stream;base64,"}],"accessors":[{"bufferView":0,"componentType":5126,"count":825,"max":[27.175987243652344,49.66341018676758,7.571217060089111],"min":[-27.175987243652344,-41.711971282958984,-2.695225715637207],"type":"VEC3"},{"bufferView":1,"componentType":5126,"count":825,"max":[1,0.9263700246810913,0.9997612833976746],"min":[-1,-1,-0.9562966823577881],"type":"VEC3"},{"bufferView":2,"componentType":5126,"count":825,"max":[1.4367835521697998,0.9570314884185791],"min":[-0.4367835521697998,0.1955699920654297],"type":"VEC2"},{"bufferView":3,"componentType":5123,"count":1248,"max":[824],"min":[0],"type":"SCALAR"}],"materials":[{"pbrMetallicRoughness":{"baseColorFactor":[0.5803921818733215,0.13725490868091583,0.13725490868091583,1],"metallicFactor":1,"roughnessFactor":0.858578622341156},"doubleSided":true,"name":"PlasterBrown"}],"meshes":[{"primitives":[{"mode":4,"attributes":{"POSITION":0,"NORMAL":1,"TEXCOORD_0":2},"indices":3,"material":0}]}]}