{"asset":{"version":"2.0","generator":"THREE.GLTFExporter"},"scenes":[{"nodes":[0]}],"scene":0,"nodes":[{"matrix":[0.02539999969303608,0,0,0,0,0.02539999969303608,0,0,0,0,0.02539999969303608,0,40.40753031005852,9.597997506465365,-2.8474547849577903,1],"name":"HouseMD05_Stone_Stacked","extras":{"name":"HouseMD05_Stone_Stacked"},"mesh":0}],"bufferViews":[{"buffer":0,"byteOffset":0,"byteLength":68220,"target":34962,"byteStride":12},{"buffer":0,"byteOffset":68220,"byteLength":68220,"target":34962,"byteStride":12},{"buffer":0,"byteOffset":136440,"byteLength":45480,"target":34962,"byteStride":8},{"buffer":0,"byteOffset":181920,"byteLength":17148,"target":34963}],"buffers":[{"byteLength":199068,"uri":"data:application/octet-stream;base64,"}],"accessors":[{"bufferView":0,"componentType":5126,"count":5685,"max":[135.89761352539062,9.507912635803223,0.7667334675788879],"min":[-135.89761352539062,-9.507914543151855,-0.7667327523231506],"type":"VEC3"},{"bufferView":1,"componentType":5126,"count":5685,"max":[1,1,1],"min":[-1,-1,-0.000042350944568170235],"type":"VEC3"},{"bufferView":2,"componentType":5126,"count":5685,"max":[9.443596839904785,7.943597316741943],"min":[-6.943597316741943,4.015023231506348],"type":"VEC2"},{"bufferView":3,"componentType":5123,"count":8574,"max":[5684],"min":[0],"type":"SCALAR"}],"materials":[{"pbrMetallicRoughness":{"baseColorFactor":[0.40000003576278687,0.41960787773132324,0.7921569347381592,1],"metallicFactor":1,"roughnessFactor":0.858578622341156},"doubleSided":true,"name":"Stone_Stacked"}],"meshes":[{"primitives":[{"mode":4,"attributes":{"POSITION":0,"NORMAL":1,"TEXCOORD_0":2},"indices":3,"material":0}]}]}