{"asset":{"version":"2.0","generator":"THREE.GLTFExporter"},"scenes":[{"nodes":[0]}],"scene":0,"nodes":[{"matrix":[0.02539999969303608,0,0,0,0,0.02539999969303608,0,0,0,0,0.02539999969303608,0,-40.31807637446582,5.606526015485599,25.368953383861353,1],"name":"网格.252_1","mesh":0}],"bufferViews":[{"buffer":0,"byteOffset":0,"byteLength":2880,"target":34962,"byteStride":12},{"buffer":0,"byteOffset":2880,"byteLength":2880,"target":34962,"byteStride":12},{"buffer":0,"byteOffset":5760,"byteLength":1920,"target":34962,"byteStride":8},{"buffer":0,"byteOffset":7680,"byteLength":732,"target":34963}],"buffers":[{"byteLength":8412,"uri":"data:application/octet-stream;base64,"}],"accessors":[{"bufferView":0,"componentType":5126,"count":240,"max":[18.080724716186523,19.668554306030273,2.802273988723755],"min":[-18.08103370666504,-33.89271545410156,2.8022654056549072],"type":"VEC3"},{"bufferView":1,"componentType":5126,"count":240,"max":[1.7021537956907196e-8,0,1],"min":[-1.7022168563585183e-8,-2.432724386380869e-7,0.9999999403953552],"type":"VEC3"},{"bufferView":2,"componentType":5126,"count":240,"max":[0.6810097098350525,0.7970774173736572],"min":[0.3193921446800232,0.2614647150039673],"type":"VEC2"},{"bufferView":3,"componentType":5123,"count":366,"max":[239],"min":[0],"type":"SCALAR"}],"materials":[{"pbrMetallicRoughness":{"baseColorFactor":[0.41960787773132324,0.6274510025978088,0.7568628191947937,1],"metallicFactor":1,"roughnessFactor":0.858578622341156},"doubleSided":true,"name":"Glass"}],"meshes":[{"primitives":[{"mode":4,"attributes":{"POSITION":0,"NORMAL":1,"TEXCOORD_0":2},"indices":3,"material":0}]}]}