{"asset":{"version":"2.0","generator":"THREE.GLTFExporter"},"scenes":[{"nodes":[0]}],"scene":0,"nodes":[{"matrix":[-3.4127149151033032e-9,0,0.02539999882363095,0,0,0.02539999969303608,0,0,-0.02539999882363095,0,-3.4127149151033032e-9,0,3.258517297880644,23.171073300926935,-48.456559655761794,1],"name":"HouseCastle_Stone_Stacked","extras":{"name":"HouseCastle_Stone_Stacked"},"mesh":0}],"bufferViews":[{"buffer":0,"byteOffset":0,"byteLength":74712,"target":34962,"byteStride":12},{"buffer":0,"byteOffset":74712,"byteLength":74712,"target":34962,"byteStride":12},{"buffer":0,"byteOffset":149424,"byteLength":49808,"target":34962,"byteStride":8},{"buffer":0,"byteOffset":199232,"byteLength":34932,"target":34963}],"buffers":[{"byteLength":234164,"uri":"data:application/octet-stream;base64,"}],"accessors":[{"bufferView":0,"componentType":5126,"count":6226,"max":[287.0141296386719,449.8863525390625,281.12188720703125],"min":[-287.0142822265625,-449.8863830566406,-281.1217956542969],"type":"VEC3"},{"bufferView":1,"componentType":5126,"count":6226,"max":[1,1,1],"min":[-1,-1,-1],"type":"VEC3"},{"bufferView":2,"componentType":5126,"count":6226,"max":[2.498751163482666,1.7094353437423706],"min":[0.0012487173080444336,-2.20943546295166],"type":"VEC2"},{"bufferView":3,"componentType":5123,"count":17466,"max":[6225],"min":[0],"type":"SCALAR"}],"materials":[{"pbrMetallicRoughness":{"baseColorFactor":[0.40000003576278687,0.41960787773132324,0.7921569347381592,1],"metallicFactor":1,"roughnessFactor":0.858578622341156},"doubleSided":true,"name":"Stone_Stacked"}],"meshes":[{"primitives":[{"mode":4,"attributes":{"POSITION":0,"NORMAL":1,"TEXCOORD_0":2},"indices":3,"material":0}]}]}