{"asset":{"version":"2.0","generator":"THREE.GLTFExporter"},"scenes":[{"nodes":[0]}],"scene":0,"nodes":[{"matrix":[0.02539999969303608,0,0,0,0,0.02539999969303608,0,0,0,0,0.02539999969303608,0,119.34086664425467,12.550137788202619,-5.4345894912601125,1],"name":"HouseLG02_Glass","extras":{"name":"HouseLG02_Glass"},"mesh":0}],"bufferViews":[{"buffer":0,"byteOffset":0,"byteLength":6144,"target":34962,"byteStride":12},{"buffer":0,"byteOffset":6144,"byteLength":6144,"target":34962,"byteStride":12},{"buffer":0,"byteOffset":12288,"byteLength":4096,"target":34962,"byteStride":8},{"buffer":0,"byteOffset":16384,"byteLength":1536,"target":34963}],"buffers":[{"byteLength":17920,"uri":"data:application/octet-stream;base64,"}],"accessors":[{"bufferView":0,"componentType":5126,"count":512,"max":[401.09521484375,154.25840759277344,382.9189453125],"min":[-401.09619140625,-154.25830078125,-382.918212890625],"type":"VEC3"},{"bufferView":1,"componentType":5126,"count":512,"max":[1,0,1],"min":[-1,0,-1],"type":"VEC3"},{"bufferView":2,"componentType":5126,"count":512,"max":[0.548827052116394,0.3523341417312622],"min":[-0.00796480942517519,0.1510307788848877],"type":"VEC2"},{"bufferView":3,"componentType":5123,"count":768,"max":[511],"min":[0],"type":"SCALAR"}],"materials":[{"pbrMetallicRoughness":{"baseColorFactor":[0.41960787773132324,0.6274510025978088,0.7568628191947937,1],"metallicFactor":1,"roughnessFactor":0.858578622341156},"doubleSided":true,"name":"Glass"}],"meshes":[{"primitives":[{"mode":4,"attributes":{"POSITION":0,"NORMAL":1,"TEXCOORD_0":2},"indices":3,"material":0}]}]}