{"asset":{"version":"2.0","generator":"THREE.GLTFExporter"},"scenes":[{"nodes":[0]}],"scene":0,"nodes":[{"matrix":[0.02539999969303608,0,0,0,0,0.02539999969303608,0,0,0,0,0.02539999969303608,0,117.12649274848445,11.799318649196465,24.24055087883491,1],"name":"HouseSM02_Mullions_Wood","extras":{"name":"HouseSM02_Mullions_Wood"},"mesh":0}],"bufferViews":[{"buffer":0,"byteOffset":0,"byteLength":51600,"target":34962,"byteStride":12},{"buffer":0,"byteOffset":51600,"byteLength":51600,"target":34962,"byteStride":12},{"buffer":0,"byteOffset":103200,"byteLength":34400,"target":34962,"byteStride":8},{"buffer":0,"byteOffset":137600,"byteLength":13584,"target":34963}],"buffers":[{"byteLength":151184,"uri":"data:application/octet-stream;base64,"}],"accessors":[{"bufferView":0,"componentType":5126,"count":4300,"max":[180.713134765625,172.2613983154297,121.6230697631836],"min":[-180.71319580078125,-172.2613983154297,-121.623046875],"type":"VEC3"},{"bufferView":1,"componentType":5126,"count":4300,"max":[1,1,1],"min":[-1,-1,-1],"type":"VEC3"},{"bufferView":2,"componentType":5126,"count":4300,"max":[45.549808502197266,45.563385009765625],"min":[-44.549808502197266,1.9091196060180664],"type":"VEC2"},{"bufferView":3,"componentType":5123,"count":6792,"max":[4299],"min":[0],"type":"SCALAR"}],"materials":[{"pbrMetallicRoughness":{"baseColorFactor":[0.7058823704719543,0.8588235974311829,0.6549019813537598,1],"metallicFactor":1,"roughnessFactor":0.858578622341156},"doubleSided":true,"name":"Mullions_Wood"}],"meshes":[{"primitives":[{"mode":4,"attributes":{"POSITION":0,"NORMAL":1,"TEXCOORD_0":2},"indices":3,"material":0}]}]}