{"asset":{"version":"2.0","generator":"THREE.GLTFExporter"},"scenes":[{"nodes":[0]}],"scene":0,"nodes":[{"matrix":[0.02539999969303608,0,0,0,0,0.02539999969303608,0,0,0,0,0.02539999969303608,0,-20.939046765225612,17.00320148285158,-49.69490781062632,1],"name":"ManorMD_Wood_Beams","extras":{"name":"ManorMD_Wood_Beams"},"mesh":0}],"bufferViews":[{"buffer":0,"byteOffset":0,"byteLength":356880,"target":34962,"byteStride":12},{"buffer":0,"byteOffset":356880,"byteLength":356880,"target":34962,"byteStride":12},{"buffer":0,"byteOffset":713760,"byteLength":237920,"target":34962,"byteStride":8},{"buffer":0,"byteOffset":951680,"byteLength":89220,"target":34963}],"buffers":[{"byteLength":1040900,"uri":"data:application/octet-stream;base64,"}],"accessors":[{"bufferView":0,"componentType":5126,"count":29740,"max":[192.31939697265625,45.414093017578125,253.30970764160156],"min":[-192.31942749023438,-45.41416931152344,-253.30978393554688],"type":"VEC3"},{"bufferView":1,"componentType":5126,"count":29740,"max":[0.9999917149543762,1,0.9999999403953552],"min":[-1,-1,-1],"type":"VEC3"},{"bufferView":2,"componentType":5126,"count":29740,"max":[42.06462860107422,9.9827880859375],"min":[-41.06462860107422,-2.6461703777313232],"type":"VEC2"},{"bufferView":3,"componentType":5123,"count":44610,"max":[29739],"min":[0],"type":"SCALAR"}],"materials":[{"pbrMetallicRoughness":{"baseColorFactor":[0.12941177189350128,0.03921568766236305,0.007843137718737125,1],"metallicFactor":1,"roughnessFactor":0.858578622341156},"doubleSided":true,"name":"Wood_Beams"}],"meshes":[{"primitives":[{"mode":4,"attributes":{"POSITION":0,"NORMAL":1,"TEXCOORD_0":2},"indices":3,"material":0}]}]}