{"asset":{"version":"2.0","generator":"THREE.GLTFExporter"},"scenes":[{"nodes":[0]}],"scene":0,"nodes":[{"matrix":[0.02539999969303608,0,0,0,0,0.02539999969303608,0,0,0,0,0.02539999969303608,0,91.95631169049466,12.092740479646181,-48.795403325702864,1],"name":"HouseLG05_PlasterYellow","extras":{"name":"HouseLG05_PlasterYellow"},"mesh":0}],"bufferViews":[{"buffer":0,"byteOffset":0,"byteLength":109536,"target":34962,"byteStride":12},{"buffer":0,"byteOffset":109536,"byteLength":109536,"target":34962,"byteStride":12},{"buffer":0,"byteOffset":219072,"byteLength":73024,"target":34962,"byteStride":8},{"buffer":0,"byteOffset":292096,"byteLength":30612,"target":34963}],"buffers":[{"byteLength":322708,"uri":"data:application/octet-stream;base64,"}],"accessors":[{"bufferView":0,"componentType":5126,"count":9128,"max":[78.52831268310547,99.42724609375,154.80174255371094],"min":[-78.52837371826172,-99.42726135253906,-154.8018035888672],"type":"VEC3"},{"bufferView":1,"componentType":5126,"count":9128,"max":[1,1,1.0000001192092896],"min":[-1,-1,-1],"type":"VEC3"},{"bufferView":2,"componentType":5126,"count":9128,"max":[8.697240829467773,5.416676998138428],"min":[-7.697240829467773,-0.3029654026031494],"type":"VEC2"},{"bufferView":3,"componentType":5123,"count":15306,"max":[9127],"min":[0],"type":"SCALAR"}],"materials":[{"pbrMetallicRoughness":{"baseColorFactor":[0.7372549176216125,0.6000000238418579,0.3803921937942505,1],"metallicFactor":1,"roughnessFactor":0.858578622341156},"doubleSided":true,"name":"PlasterYellow"}],"meshes":[{"primitives":[{"mode":4,"attributes":{"POSITION":0,"NORMAL":1,"TEXCOORD_0":2},"indices":3,"material":0}]}]}