{"asset":{"version":"2.0","generator":"THREE.GLTFExporter"},"scenes":[{"nodes":[0]}],"scene":0,"nodes":[{"matrix":[0.02539999969303608,0,0,0,0,0.02539999969303608,0,0,0,0,0.02539999969303608,0,93.56512653414757,8.31283055736398,26.1004655365478,1],"name":"HouseSM03_PlasterYellow","extras":{"name":"HouseSM03_PlasterYellow"},"mesh":0}],"bufferViews":[{"buffer":0,"byteOffset":0,"byteLength":49032,"target":34962,"byteStride":12},{"buffer":0,"byteOffset":49032,"byteLength":49032,"target":34962,"byteStride":12},{"buffer":0,"byteOffset":98064,"byteLength":32688,"target":34962,"byteStride":8},{"buffer":0,"byteOffset":130752,"byteLength":32688,"target":34962,"byteStride":8},{"buffer":0,"byteOffset":163440,"byteLength":12564,"target":34963}],"buffers":[{"byteLength":176004,"uri":"data:application/octet-stream;base64,"}],"accessors":[{"bufferView":0,"componentType":5126,"count":4086,"max":[330.051513671875,163.67010498046875,192.5657958984375],"min":[-330.0514221191406,-163.6701202392578,-192.56585693359375],"type":"VEC3"},{"bufferView":1,"componentType":5126,"count":4086,"max":[1,1,1],"min":[-1,-1.0000001192092896,-1.0000001192092896],"type":"VEC3"},{"bufferView":2,"componentType":5126,"count":4086,"max":[19.419279098510742,19.419279098510742],"min":[-18.419279098510742,3.2978930473327637],"type":"VEC2"},{"bufferView":3,"componentType":5126,"count":4086,"max":[1,1.00044584274292],"min":[0,-0.00038814544677734375],"type":"VEC2"},{"bufferView":4,"componentType":5123,"count":6282,"max":[4085],"min":[0],"type":"SCALAR"}],"materials":[{"pbrMetallicRoughness":{"baseColorFactor":[0.7372549176216125,0.6000000238418579,0.3803921937942505,1],"metallicFactor":1,"roughnessFactor":0.858578622341156},"doubleSided":true,"name":"PlasterYellow"}],"meshes":[{"primitives":[{"mode":4,"attributes":{"POSITION":0,"NORMAL":1,"TEXCOORD_0":2,"TEXCOORD_1":3},"indices":4,"material":0}]}]}