{"asset":{"version":"2.0","generator":"THREE.GLTFExporter"},"scenes":[{"nodes":[0]}],"scene":0,"nodes":[{"matrix":[0.02539999969303608,0,0,0,0,0.02539999969303608,0,0,0,0,0.02539999969303608,0,153.19134908419255,19.74836046157526,-7.141585584824043,1],"name":"TowerBridge_Wood_Beams","extras":{"name":"TowerBridge_Wood_Beams"},"mesh":0}],"bufferViews":[{"buffer":0,"byteOffset":0,"byteLength":625728,"target":34962,"byteStride":12},{"buffer":0,"byteOffset":625728,"byteLength":625728,"target":34962,"byteStride":12},{"buffer":0,"byteOffset":1251456,"byteLength":417152,"target":34962,"byteStride":8},{"buffer":0,"byteOffset":1668608,"byteLength":250104,"target":34963}],"buffers":[{"byteLength":1918712,"uri":"data:application/octet-stream;base64,"}],"accessors":[{"bufferView":0,"componentType":5126,"count":52144,"max":[487.38909912109375,140.4888916015625,166.1726837158203],"min":[-487.3892822265625,-140.48892211914062,-166.17222595214844],"type":"VEC3"},{"bufferView":1,"componentType":5126,"count":52144,"max":[0.9998286366462708,0.8895721435546875,0.9999271035194397],"min":[-0.999829888343811,-0.8552461266517639,-0.99996417760849],"type":"VEC3"},{"bufferView":2,"componentType":5126,"count":52144,"max":[9.979948043823242,0.9800000190734863],"min":[0.020000001415610313,-8.979999542236328],"type":"VEC2"},{"bufferView":3,"componentType":5123,"count":125052,"max":[52143],"min":[0],"type":"SCALAR"}],"materials":[{"pbrMetallicRoughness":{"baseColorFactor":[0.12941177189350128,0.03921568766236305,0.007843137718737125,1],"metallicFactor":1,"roughnessFactor":0.858578622341156},"doubleSided":true,"name":"Wood_Beams"}],"meshes":[{"primitives":[{"mode":4,"attributes":{"POSITION":0,"NORMAL":1,"TEXCOORD_0":2},"indices":3,"material":0}]}]}