{"asset":{"version":"2.0","generator":"THREE.GLTFExporter"},"scenes":[{"nodes":[0]}],"scene":0,"nodes":[{"matrix":[0.02539999969303608,0,0,0,0,0.02539999969303608,0,0,0,0,0.02539999969303608,0,-2.6571882629834818,10.992248631019152,25.169223754915038,1],"name":"GateHouseSM_RoofTiles","extras":{"name":"GateHouseSM_RoofTiles"},"mesh":0}],"bufferViews":[{"buffer":0,"byteOffset":0,"byteLength":5160,"target":34962,"byteStride":12},{"buffer":0,"byteOffset":5160,"byteLength":5160,"target":34962,"byteStride":12},{"buffer":0,"byteOffset":10320,"byteLength":3440,"target":34962,"byteStride":8},{"buffer":0,"byteOffset":13760,"byteLength":1296,"target":34963}],"buffers":[{"byteLength":15056,"uri":"data:application/octet-stream;base64,"}],"accessors":[{"bufferView":0,"componentType":5126,"count":430,"max":[81.941650390625,57.635223388671875,74.723388671875],"min":[-82.228515625,-60.20719909667969,-74.513427734375],"type":"VEC3"},{"bufferView":1,"componentType":5126,"count":430,"max":[1,1,0.873906672000885],"min":[-1,-0.9999999403953552,-0.873708963394165],"type":"VEC3"},{"bufferView":2,"componentType":5126,"count":430,"max":[20.657638549804688,19.147567749023438],"min":[-19.657638549804688,4.069366455078125],"type":"VEC2"},{"bufferView":3,"componentType":5123,"count":648,"max":[429],"min":[0],"type":"SCALAR"}],"materials":[{"pbrMetallicRoughness":{"baseColorFactor":[0.4666666666666667,0.4745098039215686,0.4666666666666667,1],"metallicFactor":0,"roughnessFactor":1}}],"meshes":[{"primitives":[{"mode":4,"attributes":{"POSITION":0,"NORMAL":1,"TEXCOORD_0":2},"indices":3,"material":0}]}]}