{"asset":{"version":"2.0","generator":"THREE.GLTFExporter"},"scenes":[{"nodes":[0]}],"scene":0,"nodes":[{"matrix":[0.02539999969303608,0,0,0,0,0.02539999969303608,0,0,0,0,0.02539999969303608,0,-7.694727734628032,14.117474537736086,-5.282080866513979,1],"name":"HouseMD03_WoodDark001","extras":{"name":"HouseMD03_WoodDark.001"},"mesh":0}],"bufferViews":[{"buffer":0,"byteOffset":0,"byteLength":229332,"target":34962,"byteStride":12},{"buffer":0,"byteOffset":229332,"byteLength":229332,"target":34962,"byteStride":12},{"buffer":0,"byteOffset":458664,"byteLength":152888,"target":34962,"byteStride":8},{"buffer":0,"byteOffset":611552,"byteLength":59100,"target":34963}],"buffers":[{"byteLength":670652,"uri":"data:application/octet-stream;base64,"}],"accessors":[{"bufferView":0,"componentType":5126,"count":19111,"max":[208.31890869140625,233.9168701171875,186.07046508789062],"min":[-208.31893920898438,-233.91702270507812,-186.07044982910156],"type":"VEC3"},{"bufferView":1,"componentType":5126,"count":19111,"max":[1.0000001192092896,1,1],"min":[-1.0000001192092896,-1,-1],"type":"VEC3"},{"bufferView":2,"componentType":5126,"count":19111,"max":[74.37901306152344,45.03144073486328],"min":[-73.37901306152344,3.7393178939819336],"type":"VEC2"},{"bufferView":3,"componentType":5123,"count":29550,"max":[19110],"min":[0],"type":"SCALAR"}],"materials":[{"pbrMetallicRoughness":{"baseColorFactor":[0.07058823853731155,0.003921568859368563,0.003921568859368563,1],"metallicFactor":1,"roughnessFactor":0.858578622341156},"doubleSided":true,"name":"WoodDark"}],"meshes":[{"primitives":[{"mode":4,"attributes":{"POSITION":0,"NORMAL":1,"TEXCOORD_0":2},"indices":3,"material":0}]}]}