{"asset":{"version":"2.0","generator":"THREE.GLTFExporter"},"scenes":[{"nodes":[0]}],"scene":0,"nodes":[{"matrix":[0.012699999273094975,-2.420008362303671e-9,0.02199704518444063,0,-0.021997045119586507,-1.0602275812177745e-8,0.012699999148283778,0,8.0474978025424e-9,-0.025399999455896227,-7.353243168832168e-9,0,-6.650092966603324,83.9501675228588,-155.56238006704803,1],"name":"CastleLG_PlasterBrown","extras":{"name":"CastleLG_PlasterBrown"},"mesh":0}],"bufferViews":[{"buffer":0,"byteOffset":0,"byteLength":758736,"target":34962,"byteStride":12},{"buffer":0,"byteOffset":758736,"byteLength":758736,"target":34962,"byteStride":12},{"buffer":0,"byteOffset":1517472,"byteLength":505824,"target":34962,"byteStride":8},{"buffer":0,"byteOffset":2023296,"byteLength":177960,"target":34963}],"buffers":[{"byteLength":2201256,"uri":"data:application/octet-stream;base64,"}],"accessors":[{"bufferView":0,"componentType":5126,"count":63228,"max":[2609.864013671875,3406.52587890625,866.7587280273438],"min":[-674.5379638671875,-737.1709594726562,-1003.772216796875],"type":"VEC3"},{"bufferView":1,"componentType":5126,"count":63228,"max":[1,1,1],"min":[-1,-1,-1],"type":"VEC3"},{"bufferView":2,"componentType":5126,"count":63228,"max":[1.0474570989608765,1.0432904958724976],"min":[-0.047457098960876465,-0.047457098960876465],"type":"VEC2"},{"bufferView":3,"componentType":5123,"count":88980,"max":[63227],"min":[0],"type":"SCALAR"}],"materials":[{"pbrMetallicRoughness":{"baseColorFactor":[0.5803921818733215,0.13725490868091583,0.13725490868091583,1],"metallicFactor":1,"roughnessFactor":0.858578622341156},"doubleSided":true,"name":"PlasterBrown"}],"meshes":[{"primitives":[{"mode":4,"attributes":{"POSITION":0,"NORMAL":1,"TEXCOORD_0":2},"indices":3,"material":0}]}]}