{"asset":{"version":"2.0","generator":"THREE.GLTFExporter"},"scenes":[{"nodes":[0]}],"scene":0,"nodes":[{"matrix":[0.02539999969303608,0,0,0,0,0.02539999969303608,0,0,0,0,0.02539999969303608,0,137.48399353027344,10.199507379733177,24.451291513604673,1],"name":"GateHouseLG_PlasterYellow","extras":{"name":"GateHouseLG_PlasterYellow"},"mesh":0}],"bufferViews":[{"buffer":0,"byteOffset":0,"byteLength":740820,"target":34962,"byteStride":12},{"buffer":0,"byteOffset":740820,"byteLength":740820,"target":34962,"byteStride":12},{"buffer":0,"byteOffset":1481640,"byteLength":493880,"target":34962,"byteStride":8},{"buffer":0,"byteOffset":1975520,"byteLength":196848,"target":34963}],"buffers":[{"byteLength":2172368,"uri":"data:application/octet-stream;base64,"}],"accessors":[{"bufferView":0,"componentType":5126,"count":61735,"max":[224.24415588378906,197.12950134277344,141.33433532714844],"min":[-224.24417114257812,-197.1294708251953,-141.33432006835938],"type":"VEC3"},{"bufferView":1,"componentType":5126,"count":61735,"max":[1,1,1],"min":[-1,-1,-1],"type":"VEC3"},{"bufferView":2,"componentType":5126,"count":61735,"max":[18.644882202148438,18.631555557250977],"min":[-17.644882202148438,2.823338508605957],"type":"VEC2"},{"bufferView":3,"componentType":5123,"count":98424,"max":[61734],"min":[0],"type":"SCALAR"}],"materials":[{"pbrMetallicRoughness":{"baseColorFactor":[0.7372549176216125,0.6000000238418579,0.3803921937942505,1],"metallicFactor":1,"roughnessFactor":0.858578622341156},"doubleSided":true,"name":"PlasterYellow"}],"meshes":[{"primitives":[{"mode":4,"attributes":{"POSITION":0,"NORMAL":1,"TEXCOORD_0":2},"indices":3,"material":0}]}]}