{"asset":{"version":"2.0","generator":"THREE.GLTFExporter"},"scenes":[{"nodes":[0]}],"scene":0,"nodes":[{"matrix":[-3.4127149151033032e-9,0,0.02539999882363095,0,0,0.02539999969303608,0,0,-0.02539999882363095,0,-3.4127149151033032e-9,0,-0.8539262071071789,29.084812261440675,-44.194996572497985,1],"name":"HouseCastle_Glass","extras":{"name":"HouseCastle_Glass"},"mesh":0}],"bufferViews":[{"buffer":0,"byteOffset":0,"byteLength":7728,"target":34962,"byteStride":12},{"buffer":0,"byteOffset":7728,"byteLength":7728,"target":34962,"byteStride":12},{"buffer":0,"byteOffset":15456,"byteLength":5152,"target":34962,"byteStride":8},{"buffer":0,"byteOffset":20608,"byteLength":1932,"target":34963}],"buffers":[{"byteLength":22540,"uri":"data:application/octet-stream;base64,"}],"accessors":[{"bufferView":0,"componentType":5126,"count":644,"max":[66.93343353271484,65.54751586914062,66.51089477539062],"min":[-437.88677978515625,-648.298828125,-434.7527770996094],"type":"VEC3"},{"bufferView":1,"componentType":5126,"count":644,"max":[1,0.0014173066010698676,1],"min":[-1,-0.012341300025582314,-1],"type":"VEC3"},{"bufferView":2,"componentType":5126,"count":644,"max":[0.5416666269302368,0.75],"min":[0.17359374463558197,0.1640453338623047],"type":"VEC2"},{"bufferView":3,"componentType":5123,"count":966,"max":[643],"min":[0],"type":"SCALAR"}],"materials":[{"pbrMetallicRoughness":{"baseColorFactor":[0.41960787773132324,0.6274510025978088,0.7568628191947937,1],"metallicFactor":1,"roughnessFactor":0.858578622341156},"doubleSided":true,"name":"Glass"}],"meshes":[{"primitives":[{"mode":4,"attributes":{"POSITION":0,"NORMAL":1,"TEXCOORD_0":2},"indices":3,"material":0}]}]}