{"asset":{"version":"2.0","generator":"THREE.GLTFExporter"},"scenes":[{"nodes":[0]}],"scene":0,"nodes":[{"matrix":[0.02539999969303608,0,0,0,0,0.02539999969303608,0,0,0,0,0.02539999969303608,0,-60.339402890316705,5.38282959484917,25.251009034090444,1],"name":"网格275","mesh":0}],"bufferViews":[{"buffer":0,"byteOffset":0,"byteLength":9216,"target":34962,"byteStride":12},{"buffer":0,"byteOffset":9216,"byteLength":9216,"target":34962,"byteStride":12},{"buffer":0,"byteOffset":18432,"byteLength":6144,"target":34962,"byteStride":8},{"buffer":0,"byteOffset":24576,"byteLength":2136,"target":34963}],"buffers":[{"byteLength":26712,"uri":"data:application/octet-stream;base64,"}],"accessors":[{"bufferView":0,"componentType":5126,"count":768,"max":[13.810750007629395,21.749900817871094,0.9775760173797607],"min":[-13.810750007629395,-21.749900817871094,-0.6945953369140625],"type":"VEC3"},{"bufferView":1,"componentType":5126,"count":768,"max":[1,1,1],"min":[-1,-1,-1],"type":"VEC3"},{"bufferView":2,"componentType":5126,"count":768,"max":[0.997999906539917,0.9980000257492065],"min":[0.0020000000949949026,0.053882062435150146],"type":"VEC2"},{"bufferView":3,"componentType":5123,"count":1068,"max":[767],"min":[0],"type":"SCALAR"}],"materials":[{"pbrMetallicRoughness":{"baseColorFactor":[0.12941177189350128,0.03921568766236305,0.007843137718737125,1],"metallicFactor":1,"roughnessFactor":0.858578622341156},"doubleSided":true,"name":"Wood_Beams"}],"meshes":[{"primitives":[{"mode":4,"attributes":{"POSITION":0,"NORMAL":1,"TEXCOORD_0":2},"indices":3,"material":0}]}]}