{"asset":{"version":"2.0","generator":"THREE.GLTFExporter"},"scenes":[{"nodes":[0]}],"scene":0,"nodes":[{"matrix":[0.02539999969303608,0,0,0,0,0.02539999969303608,0,0,0,0,0.02539999969303608,0,71.49090576171875,7.254555161425003,26.26477828680072,1],"name":"HouseSM_Wood_Beams","extras":{"name":"HouseSM_Wood_Beams"},"mesh":0}],"bufferViews":[{"buffer":0,"byteOffset":0,"byteLength":48420,"target":34962,"byteStride":12},{"buffer":0,"byteOffset":48420,"byteLength":48420,"target":34962,"byteStride":12},{"buffer":0,"byteOffset":96840,"byteLength":32280,"target":34962,"byteStride":8},{"buffer":0,"byteOffset":129120,"byteLength":12192,"target":34963}],"buffers":[{"byteLength":141312,"uri":"data:application/octet-stream;base64,"}],"accessors":[{"bufferView":0,"componentType":5126,"count":4035,"max":[138.83908081054688,128.28729248046875,190.80880737304688],"min":[-138.83908081054688,-128.28729248046875,-190.80880737304688],"type":"VEC3"},{"bufferView":1,"componentType":5126,"count":4035,"max":[1,1,1],"min":[-1,-1,-1],"type":"VEC3"},{"bufferView":2,"componentType":5126,"count":4035,"max":[53.653438568115234,53.6534423828125],"min":[-52.6534423828125,6.261817932128906],"type":"VEC2"},{"bufferView":3,"componentType":5123,"count":6096,"max":[4034],"min":[0],"type":"SCALAR"}],"materials":[{"pbrMetallicRoughness":{"baseColorFactor":[0.12941177189350128,0.03921568766236305,0.007843137718737125,1],"metallicFactor":1,"roughnessFactor":0.858578622341156},"doubleSided":true,"name":"Wood_Beams"}],"meshes":[{"primitives":[{"mode":4,"attributes":{"POSITION":0,"NORMAL":1,"TEXCOORD_0":2},"indices":3,"material":0}]}]}