{"asset":{"version":"2.0","generator":"THREE.GLTFExporter"},"scenes":[{"nodes":[0]}],"scene":0,"nodes":[{"matrix":[0.02539999969303608,0,0,0,0,0.02539999969303608,0,0,0,0,0.02539999969303608,0,-56.639262895971115,1.0866254094039078,25.035116981951006,1],"name":"网格260","mesh":0}],"bufferViews":[{"buffer":0,"byteOffset":0,"byteLength":4416,"target":34962,"byteStride":12},{"buffer":0,"byteOffset":4416,"byteLength":4416,"target":34962,"byteStride":12},{"buffer":0,"byteOffset":8832,"byteLength":2944,"target":34962,"byteStride":8},{"buffer":0,"byteOffset":11776,"byteLength":1968,"target":34963}],"buffers":[{"byteLength":13744,"uri":"data:application/octet-stream;base64,"}],"accessors":[{"bufferView":0,"componentType":5126,"count":368,"max":[26.2117862701416,45.83839797973633,3.148534059524536],"min":[-26.2117862701416,-45.83839797973633,-3.148534059524536],"type":"VEC3"},{"bufferView":1,"componentType":5126,"count":368,"max":[1,1,1],"min":[-1,-1,-1],"type":"VEC3"},{"bufferView":2,"componentType":5126,"count":368,"max":[2.0867350101470947,2.0867350101470947],"min":[-1.0867350101470947,-1.0867350101470947],"type":"VEC2"},{"bufferView":3,"componentType":5123,"count":984,"max":[367],"min":[0],"type":"SCALAR"}],"materials":[{"pbrMetallicRoughness":{"baseColorFactor":[0.12941177189350128,0.03921568766236305,0.007843137718737125,1],"metallicFactor":1,"roughnessFactor":0.858578622341156},"doubleSided":true,"name":"Wood_Beams"}],"meshes":[{"primitives":[{"mode":4,"attributes":{"POSITION":0,"NORMAL":1,"TEXCOORD_0":2},"indices":3,"material":0}]}]}