{"asset":{"version":"2.0","generator":"THREE.GLTFExporter"},"scenes":[{"nodes":[0]}],"scene":0,"nodes":[{"matrix":[0.02539999969303608,0,0,0,0,0.02539999969303608,0,0,0,0,0.02539999969303608,0,-50.0099559936657,5.364750078466102,25.2249362072571,1],"name":"网格279","mesh":0}],"bufferViews":[{"buffer":0,"byteOffset":0,"byteLength":83244,"target":34962,"byteStride":12},{"buffer":0,"byteOffset":83244,"byteLength":83244,"target":34962,"byteStride":12},{"buffer":0,"byteOffset":166488,"byteLength":55496,"target":34962,"byteStride":8},{"buffer":0,"byteOffset":221984,"byteLength":22296,"target":34963}],"buffers":[{"byteLength":244280,"uri":"data:application/octet-stream;base64,"}],"accessors":[{"bufferView":0,"componentType":5126,"count":6937,"max":[32.77894592285156,69.29975891113281,9.259734153747559],"min":[-32.77894592285156,-69.29975891113281,-9.259740829467773],"type":"VEC3"},{"bufferView":1,"componentType":5126,"count":6937,"max":[1.0000001192092896,1.0000001192092896,1],"min":[-1,-1,-1],"type":"VEC3"},{"bufferView":2,"componentType":5126,"count":6937,"max":[0.998971164226532,0.9988052845001221],"min":[0.0011223345063626766,0.013374507427215576],"type":"VEC2"},{"bufferView":3,"componentType":5123,"count":11148,"max":[6936],"min":[0],"type":"SCALAR"}],"materials":[{"pbrMetallicRoughness":{"baseColorFactor":[0.5803921818733215,0.13725490868091583,0.13725490868091583,1],"metallicFactor":1,"roughnessFactor":0.858578622341156},"doubleSided":true,"name":"PlasterBrown"}],"meshes":[{"primitives":[{"mode":4,"attributes":{"POSITION":0,"NORMAL":1,"TEXCOORD_0":2},"indices":3,"material":0}]}]}