{"asset":{"version":"2.0","generator":"THREE.GLTFExporter"},"scenes":[{"nodes":[0]}],"scene":0,"nodes":[{"matrix":[0.02539999969303608,0,0,0,0,0.02539999969303608,0,0,0,0,0.02539999969303608,0,42.353470026286686,6.90250402037816,26.91488724430087,1],"name":"Tavern_WoodDark001","extras":{"name":"Tavern_WoodDark.001"},"mesh":0}],"bufferViews":[{"buffer":0,"byteOffset":0,"byteLength":10728,"target":34962,"byteStride":12},{"buffer":0,"byteOffset":10728,"byteLength":10728,"target":34962,"byteStride":12},{"buffer":0,"byteOffset":21456,"byteLength":7152,"target":34962,"byteStride":8},{"buffer":0,"byteOffset":28608,"byteLength":2496,"target":34963}],"buffers":[{"byteLength":31104,"uri":"data:application/octet-stream;base64,"}],"accessors":[{"bufferView":0,"componentType":5126,"count":894,"max":[0.8982204794883728,26.783283233642578,18.191091537475586],"min":[-0.8982186317443848,-26.78328514099121,-18.191131591796875],"type":"VEC3"},{"bufferView":1,"componentType":5126,"count":894,"max":[1,1,1],"min":[-1,-1,-1],"type":"VEC3"},{"bufferView":2,"componentType":5126,"count":894,"max":[73.03620910644531,73.03620910644531],"min":[-72.03620910644531,13.390933990478516],"type":"VEC2"},{"bufferView":3,"componentType":5123,"count":1248,"max":[893],"min":[0],"type":"SCALAR"}],"materials":[{"pbrMetallicRoughness":{"baseColorFactor":[0.07058823853731155,0.003921568859368563,0.003921568859368563,1],"metallicFactor":1,"roughnessFactor":0.858578622341156},"doubleSided":true,"name":"WoodDark"}],"meshes":[{"primitives":[{"mode":4,"attributes":{"POSITION":0,"NORMAL":1,"TEXCOORD_0":2},"indices":3,"material":0}]}]}