{"asset":{"version":"2.0","generator":"THREE.GLTFExporter"},"scenes":[{"nodes":[0]}],"scene":0,"nodes":[{"matrix":[0.02539999969303608,0,0,0,0,0.02539999969303608,0,0,0,0,0.02539999969303608,0,95.63047166837714,37.09657605237271,-124.46611308593765,1],"name":"CastleSM_RoofTiles","extras":{"name":"CastleSM_RoofTiles"},"mesh":0}],"bufferViews":[{"buffer":0,"byteOffset":0,"byteLength":143088,"target":34962,"byteStride":12},{"buffer":0,"byteOffset":143088,"byteLength":143088,"target":34962,"byteStride":12},{"buffer":0,"byteOffset":286176,"byteLength":95392,"target":34962,"byteStride":8},{"buffer":0,"byteOffset":381568,"byteLength":35748,"target":34963}],"buffers":[{"byteLength":417316,"uri":"data:application/octet-stream;base64,"}],"accessors":[{"bufferView":0,"componentType":5126,"count":11924,"max":[786.5253295898438,641.1485595703125,1157.3990478515625],"min":[-786.5253295898438,-641.14892578125,-1157.399658203125],"type":"VEC3"},{"bufferView":1,"componentType":5126,"count":11924,"max":[1,1,0.9999488592147827],"min":[-1,-1,-0.9999488592147827],"type":"VEC3"},{"bufferView":2,"componentType":5126,"count":11924,"max":[21.312969207763672,5.402094841003418],"min":[-20.221067428588867,-20.438690185546875],"type":"VEC2"},{"bufferView":3,"componentType":5123,"count":17874,"max":[11923],"min":[0],"type":"SCALAR"}],"materials":[{"pbrMetallicRoughness":{"baseColorFactor":[0.4666666666666667,0.4745098039215686,0.4666666666666667,1],"metallicFactor":0,"roughnessFactor":1}}],"meshes":[{"primitives":[{"mode":4,"attributes":{"POSITION":0,"NORMAL":1,"TEXCOORD_0":2},"indices":3,"material":0}]}]}