{"asset":{"version":"2.0","generator":"THREE.GLTFExporter"},"scenes":[{"nodes":[0]}],"scene":0,"nodes":[{"matrix":[0.02539999969303608,0,0,0,0,0.02539999969303608,0,0,0,0,0.02539999969303608,0,-51.75018153415817,4.99657565664603,25.23092925222862,1],"name":"网格.278_3","mesh":0}],"bufferViews":[{"buffer":0,"byteOffset":0,"byteLength":264,"target":34962,"byteStride":12},{"buffer":0,"byteOffset":264,"byteLength":264,"target":34962,"byteStride":12},{"buffer":0,"byteOffset":528,"byteLength":176,"target":34962,"byteStride":8},{"buffer":0,"byteOffset":704,"byteLength":60,"target":34963}],"buffers":[{"byteLength":764,"uri":"data:application/octet-stream;base64,"}],"accessors":[{"bufferView":0,"componentType":5126,"count":22,"max":[11.941611289978027,28.43692398071289,4.851359844207764],"min":[-10.874960899353027,-9.42795181274414,-7.039775848388672],"type":"VEC3"},{"bufferView":1,"componentType":5126,"count":22,"max":[0.7140483260154724,1,0.700096607208252],"min":[-0.7224634289741516,-1,-3.238808403693838e-7],"type":"VEC3"},{"bufferView":2,"componentType":5126,"count":22,"max":[0.9919347167015076,0.9919873476028442],"min":[0.008066128939390182,0.5080644488334656],"type":"VEC2"},{"bufferView":3,"componentType":5123,"count":30,"max":[21],"min":[0],"type":"SCALAR"}],"materials":[{"pbrMetallicRoughness":{"baseColorFactor":[0.41960787773132324,0.6274510025978088,0.7568628191947937,1],"metallicFactor":1,"roughnessFactor":0.858578622341156},"doubleSided":true,"name":"Glass"}],"meshes":[{"primitives":[{"mode":4,"attributes":{"POSITION":0,"NORMAL":1,"TEXCOORD_0":2},"indices":3,"material":0}]}]}