{"asset":{"version":"2.0","generator":"THREE.GLTFExporter"},"scenes":[{"nodes":[0]}],"scene":0,"nodes":[{"matrix":[0.02539999969303608,0,0,0,0,0.02539999969303608,0,0,0,0,0.02539999969303608,0,16.986929098357223,16.201175816429213,-6.1988682633855205,1],"name":"HouseMD04_PlasterYellow","extras":{"name":"HouseMD04_PlasterYellow"},"mesh":0}],"bufferViews":[{"buffer":0,"byteOffset":0,"byteLength":308628,"target":34962,"byteStride":12},{"buffer":0,"byteOffset":308628,"byteLength":308628,"target":34962,"byteStride":12},{"buffer":0,"byteOffset":617256,"byteLength":205752,"target":34962,"byteStride":8},{"buffer":0,"byteOffset":823008,"byteLength":85524,"target":34963}],"buffers":[{"byteLength":908532,"uri":"data:application/octet-stream;base64,"}],"accessors":[{"bufferView":0,"componentType":5126,"count":25719,"max":[216.0008087158203,307.8894958496094,179.37399291992188],"min":[-216.00079345703125,-307.8896484375,-179.37408447265625],"type":"VEC3"},{"bufferView":1,"componentType":5126,"count":25719,"max":[1,1,1],"min":[-1,-1,-1],"type":"VEC3"},{"bufferView":2,"componentType":5126,"count":25719,"max":[16.327621459960938,10.853814125061035],"min":[-15.32762336730957,1.3908395767211914],"type":"VEC2"},{"bufferView":3,"componentType":5123,"count":42762,"max":[25718],"min":[0],"type":"SCALAR"}],"materials":[{"pbrMetallicRoughness":{"baseColorFactor":[0.7372549176216125,0.6000000238418579,0.3803921937942505,1],"metallicFactor":1,"roughnessFactor":0.858578622341156},"doubleSided":true,"name":"PlasterYellow"}],"meshes":[{"primitives":[{"mode":4,"attributes":{"POSITION":0,"NORMAL":1,"TEXCOORD_0":2},"indices":3,"material":0}]}]}