{"asset":{"version":"2.0","generator":"THREE.GLTFExporter"},"scenes":[{"nodes":[0]}],"scene":0,"nodes":[{"matrix":[0.02539999969303608,0,0,0,0,0.02539999969303608,0,0,0,0,0.02539999969303608,0,48.43992230498952,54.27339390392649,-111.31692400380689,1],"name":"CastleMD_WoodDark","extras":{"name":"CastleMD_WoodDark"},"mesh":0}],"bufferViews":[{"buffer":0,"byteOffset":0,"byteLength":71688,"target":34962,"byteStride":12},{"buffer":0,"byteOffset":71688,"byteLength":71688,"target":34962,"byteStride":12},{"buffer":0,"byteOffset":143376,"byteLength":47792,"target":34962,"byteStride":8},{"buffer":0,"byteOffset":191168,"byteLength":20220,"target":34963}],"buffers":[{"byteLength":211388,"uri":"data:application/octet-stream;base64,"}],"accessors":[{"bufferView":0,"componentType":5126,"count":5974,"max":[297.5530090332031,952.9327392578125,1004.9295654296875],"min":[-297.552978515625,-952.9332275390625,-983.485595703125],"type":"VEC3"},{"bufferView":1,"componentType":5126,"count":5974,"max":[1,1,1],"min":[-1,-1,-1],"type":"VEC3"},{"bufferView":2,"componentType":5126,"count":5974,"max":[23.578487396240234,-6.008363723754883],"min":[-22.578487396240234,-22.578487396240234],"type":"VEC2"},{"bufferView":3,"componentType":5123,"count":10110,"max":[5973],"min":[0],"type":"SCALAR"}],"materials":[{"pbrMetallicRoughness":{"baseColorFactor":[0.07058823853731155,0.003921568859368563,0.003921568859368563,1],"metallicFactor":1,"roughnessFactor":0.858578622341156},"doubleSided":true,"name":"WoodDark"}],"meshes":[{"primitives":[{"mode":4,"attributes":{"POSITION":0,"NORMAL":1,"TEXCOORD_0":2},"indices":3,"material":0}]}]}