{"asset":{"version":"2.0","generator":"THREE.GLTFExporter"},"scenes":[{"nodes":[0]}],"scene":0,"nodes":[{"matrix":[0.02539999969303608,0,0,0,0,0.02539999969303608,0,0,0,0,0.02539999969303608,0,-48.20506773422812,5.4792810707343165,25.289578772393853,1],"name":"网格.280_1","mesh":0}],"bufferViews":[{"buffer":0,"byteOffset":0,"byteLength":108,"target":34962,"byteStride":12},{"buffer":0,"byteOffset":108,"byteLength":108,"target":34962,"byteStride":12},{"buffer":0,"byteOffset":216,"byteLength":72,"target":34962,"byteStride":8},{"buffer":0,"byteOffset":288,"byteLength":20,"target":34963}],"buffers":[{"byteLength":308,"uri":"data:application/octet-stream;base64,"}],"accessors":[{"bufferView":0,"componentType":5126,"count":9,"max":[24.56291961669922,53.14036560058594,7.292809009552002],"min":[-24.56291961669922,22.975357055664062,-7.231748104095459],"type":"VEC3"},{"bufferView":1,"componentType":5126,"count":9,"max":[0.6247069835662842,0.508124828338623,0.9015641212463379],"min":[-0.6247069835662842,0.432645708322525,0.5929167866706848],"type":"VEC3"},{"bufferView":2,"componentType":5126,"count":9,"max":[1.9260168075561523,-0.44460999965667725],"min":[1.0739831924438477,-1.0228495597839355],"type":"VEC2"},{"bufferView":3,"componentType":5123,"count":9,"max":[8],"min":[0],"type":"SCALAR"}],"materials":[{"pbrMetallicRoughness":{"baseColorFactor":[0.4666666666666667,0.4745098039215686,0.4666666666666667,1],"metallicFactor":0,"roughnessFactor":1}}],"meshes":[{"primitives":[{"mode":4,"attributes":{"POSITION":0,"NORMAL":1,"TEXCOORD_0":2},"indices":3,"material":0}]}]}