{"asset":{"version":"2.0","generator":"THREE.GLTFExporter"},"scenes":[{"nodes":[0]}],"scene":0,"nodes":[{"matrix":[0.02539999969303608,0,0,0,0,0.02539999969303608,0,0,0,0,0.02539999969303608,0,-60.900038430416316,0.9731342761319155,25.20756498096557,1],"name":"网格.262_1","mesh":0}],"bufferViews":[{"buffer":0,"byteOffset":0,"byteLength":4452,"target":34962,"byteStride":12},{"buffer":0,"byteOffset":4452,"byteLength":4452,"target":34962,"byteStride":12},{"buffer":0,"byteOffset":8904,"byteLength":2968,"target":34962,"byteStride":8},{"buffer":0,"byteOffset":11872,"byteLength":1992,"target":34963}],"buffers":[{"byteLength":13864,"uri":"data:application/octet-stream;base64,"}],"accessors":[{"bufferView":0,"componentType":5126,"count":371,"max":[27.613500595092773,47.35844802856445,4.304924964904785],"min":[-27.613500595092773,-41.370243072509766,-1.659785270690918],"type":"VEC3"},{"bufferView":1,"componentType":5126,"count":371,"max":[0.9974166750907898,0.9973019957542419,0.9999986290931702],"min":[-0.9974163770675659,-1,-0.9998423457145691],"type":"VEC3"},{"bufferView":2,"componentType":5126,"count":371,"max":[0.8754270076751709,0.9570314884185791],"min":[0.12983965873718262,0.21762585639953613],"type":"VEC2"},{"bufferView":3,"componentType":5123,"count":996,"max":[370],"min":[0],"type":"SCALAR"}],"materials":[{"pbrMetallicRoughness":{"baseColorFactor":[0.5803921818733215,0.13725490868091583,0.13725490868091583,1],"metallicFactor":1,"roughnessFactor":0.858578622341156},"doubleSided":true,"name":"PlasterBrown"}],"meshes":[{"primitives":[{"mode":4,"attributes":{"POSITION":0,"NORMAL":1,"TEXCOORD_0":2},"indices":3,"material":0}]}]}