{"asset":{"version":"2.0","generator":"THREE.GLTFExporter"},"scenes":[{"nodes":[0]}],"scene":0,"nodes":[{"matrix":[0.02539999969303608,0,0,0,0,0.02539999969303608,0,0,0,0,0.02539999969303608,0,95.17972089257455,30.300603356183046,-130.61061857808636,1],"name":"CastleSM_Glass","extras":{"name":"CastleSM_Glass"},"mesh":0}],"bufferViews":[{"buffer":0,"byteOffset":0,"byteLength":3432,"target":34962,"byteStride":12},{"buffer":0,"byteOffset":3432,"byteLength":3432,"target":34962,"byteStride":12},{"buffer":0,"byteOffset":6864,"byteLength":2288,"target":34962,"byteStride":8},{"buffer":0,"byteOffset":9152,"byteLength":996,"target":34963}],"buffers":[{"byteLength":10148,"uri":"data:application/octet-stream;base64,"}],"accessors":[{"bufferView":0,"componentType":5126,"count":286,"max":[708.4719848632812,351.0022277832031,666.7322998046875],"min":[-708.4719848632812,-351.00250244140625,-666.7322387695312],"type":"VEC3"},{"bufferView":1,"componentType":5126,"count":286,"max":[1,0.7200510501861572,1],"min":[-1,-0.00957794301211834,-1],"type":"VEC3"},{"bufferView":2,"componentType":5126,"count":286,"max":[0.9965550899505615,0.997555136680603],"min":[0.015934864059090614,0.0476190447807312],"type":"VEC2"},{"bufferView":3,"componentType":5123,"count":498,"max":[285],"min":[0],"type":"SCALAR"}],"materials":[{"pbrMetallicRoughness":{"baseColorFactor":[0.41960787773132324,0.6274510025978088,0.7568628191947937,1],"metallicFactor":1,"roughnessFactor":0.858578622341156},"doubleSided":true,"name":"Glass"}],"meshes":[{"primitives":[{"mode":4,"attributes":{"POSITION":0,"NORMAL":1,"TEXCOORD_0":2},"indices":3,"material":0}]}]}