{"asset":{"version":"2.0","generator":"THREE.GLTFExporter"},"scenes":[{"nodes":[0]}],"scene":0,"nodes":[{"matrix":[0.02539999969303608,0,0,0,0,0.02539999969303608,0,0,0,0,0.02539999969303608,0,85.48582299916052,16.174778089005372,-48.86085669405247,1],"name":"HouseLG05_Glass","extras":{"name":"HouseLG05_Glass"},"mesh":0}],"bufferViews":[{"buffer":0,"byteOffset":0,"byteLength":13560,"target":34962,"byteStride":12},{"buffer":0,"byteOffset":13560,"byteLength":13560,"target":34962,"byteStride":12},{"buffer":0,"byteOffset":27120,"byteLength":9040,"target":34962,"byteStride":8},{"buffer":0,"byteOffset":36160,"byteLength":6120,"target":34963}],"buffers":[{"byteLength":42280,"uri":"data:application/octet-stream;base64,"}],"accessors":[{"bufferView":0,"componentType":5126,"count":1130,"max":[322.2927551269531,226.36813354492188,156.0369110107422],"min":[-322.29254150390625,-226.36810302734375,-156.03700256347656],"type":"VEC3"},{"bufferView":1,"componentType":5126,"count":1130,"max":[1,1,1],"min":[-1,-1,-1],"type":"VEC3"},{"bufferView":2,"componentType":5126,"count":1130,"max":[1,1],"min":[0,0],"type":"VEC2"},{"bufferView":3,"componentType":5123,"count":3060,"max":[1129],"min":[0],"type":"SCALAR"}],"materials":[{"pbrMetallicRoughness":{"baseColorFactor":[0.41960787773132324,0.6274510025978088,0.7568628191947937,1],"metallicFactor":1,"roughnessFactor":0.858578622341156},"doubleSided":true,"name":"Glass"}],"meshes":[{"primitives":[{"mode":4,"attributes":{"POSITION":0,"NORMAL":1,"TEXCOORD_0":2},"indices":3,"material":0}]}]}