{"asset":{"version":"2.0","generator":"THREE.GLTFExporter"},"scenes":[{"nodes":[0]}],"scene":0,"nodes":[{"matrix":[0.02539999969303608,0,0,0,0,0.02539999969303608,0,0,0,0,0.02539999969303608,0,153.68228891739636,11.91392372969625,-50.147492136758956,1],"name":"HouseLG07_Glass","extras":{"name":"HouseLG07_Glass"},"mesh":0}],"bufferViews":[{"buffer":0,"byteOffset":0,"byteLength":100272,"target":34962,"byteStride":12},{"buffer":0,"byteOffset":100272,"byteLength":100272,"target":34962,"byteStride":12},{"buffer":0,"byteOffset":200544,"byteLength":66848,"target":34962,"byteStride":8},{"buffer":0,"byteOffset":267392,"byteLength":25068,"target":34963}],"buffers":[{"byteLength":292460,"uri":"data:application/octet-stream;base64,"}],"accessors":[{"bufferView":0,"componentType":5126,"count":8356,"max":[406.884521484375,153.19259643554688,326.1334228515625],"min":[-406.884765625,-153.19265747070312,-326.1334228515625],"type":"VEC3"},{"bufferView":1,"componentType":5126,"count":8356,"max":[1,0.000027029907869291492,1],"min":[-1,-0.00002591898555692751,-1],"type":"VEC3"},{"bufferView":2,"componentType":5126,"count":8356,"max":[0.9823920130729675,1.0040370225906372],"min":[0.017607899382710457,-0.0040400028228759766],"type":"VEC2"},{"bufferView":3,"componentType":5123,"count":12534,"max":[8355],"min":[0],"type":"SCALAR"}],"materials":[{"pbrMetallicRoughness":{"baseColorFactor":[0.41960787773132324,0.6274510025978088,0.7568628191947937,1],"metallicFactor":1,"roughnessFactor":0.858578622341156},"doubleSided":true,"name":"Glass"}],"meshes":[{"primitives":[{"mode":4,"attributes":{"POSITION":0,"NORMAL":1,"TEXCOORD_0":2},"indices":3,"material":0}]}]}