{"asset":{"version":"2.0","generator":"THREE.GLTFExporter"},"scenes":[{"nodes":[0]}],"scene":0,"nodes":[{"matrix":[0.02539999969303608,0,0,0,0,0.02539999969303608,0,0,0,0,0.02539999969303608,0,9.403572751616139,5.254402923870174,23.520095926637055,1],"name":"HouseCabin_Mullions_Wood","extras":{"name":"HouseCabin_Mullions_Wood"},"mesh":0}],"bufferViews":[{"buffer":0,"byteOffset":0,"byteLength":7596,"target":34962,"byteStride":12},{"buffer":0,"byteOffset":7596,"byteLength":7596,"target":34962,"byteStride":12},{"buffer":0,"byteOffset":15192,"byteLength":5064,"target":34962,"byteStride":8},{"buffer":0,"byteOffset":20256,"byteLength":2016,"target":34963}],"buffers":[{"byteLength":22272,"uri":"data:application/octet-stream;base64,"}],"accessors":[{"bufferView":0,"componentType":5126,"count":633,"max":[78.6379165649414,21.4947509765625,53.85771560668945],"min":[-78.63790130615234,-21.49474334716797,-53.85770797729492],"type":"VEC3"},{"bufferView":1,"componentType":5126,"count":633,"max":[1,1,1],"min":[-1,-1,-1],"type":"VEC3"},{"bufferView":2,"componentType":5126,"count":633,"max":[113.205322265625,42.359031677246094],"min":[-112.22238159179688,10.583513259887695],"type":"VEC2"},{"bufferView":3,"componentType":5123,"count":1008,"max":[632],"min":[0],"type":"SCALAR"}],"materials":[{"pbrMetallicRoughness":{"baseColorFactor":[0.7058823704719543,0.8588235974311829,0.6549019813537598,1],"metallicFactor":1,"roughnessFactor":0.858578622341156},"doubleSided":true,"name":"Mullions_Wood"}],"meshes":[{"primitives":[{"mode":4,"attributes":{"POSITION":0,"NORMAL":1,"TEXCOORD_0":2},"indices":3,"material":0}]}]}