{"asset":{"version":"2.0","generator":"THREE.GLTFExporter"},"scenes":[{"nodes":[0]}],"scene":0,"nodes":[{"matrix":[0.02539999969303608,0,0,0,0,0.02539999969303608,0,0,0,0,0.02539999969303608,0,40.40752720947262,10.465081537200476,-3.174304597902278,1],"name":"HouseMD05_WoodDark001","extras":{"name":"HouseMD05_WoodDark.001"},"mesh":0}],"bufferViews":[{"buffer":0,"byteOffset":0,"byteLength":34440,"target":34962,"byteStride":12},{"buffer":0,"byteOffset":34440,"byteLength":34440,"target":34962,"byteStride":12},{"buffer":0,"byteOffset":68880,"byteLength":22960,"target":34962,"byteStride":8},{"buffer":0,"byteOffset":91840,"byteLength":10488,"target":34963}],"buffers":[{"byteLength":102328,"uri":"data:application/octet-stream;base64,"}],"accessors":[{"bufferView":0,"componentType":5126,"count":2870,"max":[189.6142578125,43.64507293701172,0.9667510986328125],"min":[-189.614013671875,-43.64508056640625,-0.96673583984375],"type":"VEC3"},{"bufferView":1,"componentType":5126,"count":2870,"max":[1,1,1],"min":[-1,-1,0],"type":"VEC3"},{"bufferView":2,"componentType":5126,"count":2870,"max":[14.526182174682617,14.526182174682617],"min":[-13.526182174682617,-12.08425235748291],"type":"VEC2"},{"bufferView":3,"componentType":5123,"count":5244,"max":[2869],"min":[0],"type":"SCALAR"}],"materials":[{"pbrMetallicRoughness":{"baseColorFactor":[0.07058823853731155,0.003921568859368563,0.003921568859368563,1],"metallicFactor":1,"roughnessFactor":0.858578622341156},"doubleSided":true,"name":"WoodDark"}],"meshes":[{"primitives":[{"mode":4,"attributes":{"POSITION":0,"NORMAL":1,"TEXCOORD_0":2},"indices":3,"material":0}]}]}