{"asset":{"version":"2.0","generator":"THREE.GLTFExporter"},"scenes":[{"nodes":[0]}],"scene":0,"nodes":[{"matrix":[0.02539999969303608,0,0,0,0,0.02539999969303608,0,0,0,0,0.02539999969303608,0,-25.556020911949645,109.26370892836553,-121.88016043015887,1],"name":"CastleLG_Stone_Blocks001","extras":{"name":"CastleLG_Stone_Blocks.001"},"mesh":0}],"bufferViews":[{"buffer":0,"byteOffset":0,"byteLength":521532,"target":34962,"byteStride":12},{"buffer":0,"byteOffset":521532,"byteLength":521532,"target":34962,"byteStride":12},{"buffer":0,"byteOffset":1043064,"byteLength":347688,"target":34962,"byteStride":8},{"buffer":0,"byteOffset":1390752,"byteLength":174168,"target":34963}],"buffers":[{"byteLength":1564920,"uri":"data:application/octet-stream;base64,"}],"accessors":[{"bufferView":0,"componentType":5126,"count":43461,"max":[655.60400390625,2011.7451171875,749.7587890625],"min":[-808.341552734375,-2011.744873046875,-758.8372802734375],"type":"VEC3"},{"bufferView":1,"componentType":5126,"count":43461,"max":[1,1,1],"min":[-1,-1,-1],"type":"VEC3"},{"bufferView":2,"componentType":5126,"count":43461,"max":[5.312500476837158,5.830697059631348],"min":[-0.4899994134902954,-6.796103477478027],"type":"VEC2"},{"bufferView":3,"componentType":5123,"count":87084,"max":[43460],"min":[0],"type":"SCALAR"}],"materials":[{"pbrMetallicRoughness":{"baseColorFactor":[0.9254902601242065,0.7960785031318665,0.19215688109397888,1],"metallicFactor":1,"roughnessFactor":0.858578622341156},"doubleSided":true,"name":"Stone_Blocks"}],"meshes":[{"primitives":[{"mode":4,"attributes":{"POSITION":0,"NORMAL":1,"TEXCOORD_0":2},"indices":3,"material":0}]}]}