{"asset":{"version":"2.0","generator":"THREE.GLTFExporter"},"scenes":[{"nodes":[0]}],"scene":0,"nodes":[{"matrix":[0.02539999969303608,0,0,0,0,0.02539999969303608,0,0,0,0,0.02539999969303608,0,-16.6406049136599,10.48108825695283,24.087324702298616,1],"name":"Windmill_Wood_Beams","extras":{"name":"Windmill_Wood_Beams"},"mesh":0}],"bufferViews":[{"buffer":0,"byteOffset":0,"byteLength":2976,"target":34962,"byteStride":12},{"buffer":0,"byteOffset":2976,"byteLength":2976,"target":34962,"byteStride":12},{"buffer":0,"byteOffset":5952,"byteLength":1984,"target":34962,"byteStride":8},{"buffer":0,"byteOffset":7936,"byteLength":1984,"target":34962,"byteStride":8},{"buffer":0,"byteOffset":9920,"byteLength":744,"target":34963}],"buffers":[{"byteLength":10664,"uri":"data:application/octet-stream;base64,"}],"accessors":[{"bufferView":0,"componentType":5126,"count":248,"max":[106.84290313720703,156.20108032226562,105.97322845458984],"min":[-106.5343017578125,-156.20108032226562,-107.50330352783203],"type":"VEC3"},{"bufferView":1,"componentType":5126,"count":248,"max":[1,1,1],"min":[-1,-1,-1],"type":"VEC3"},{"bufferView":2,"componentType":5126,"count":248,"max":[2.395873785018921,1.8336076736450195],"min":[-1.406019687652588,-0.8336076736450195],"type":"VEC2"},{"bufferView":3,"componentType":5126,"count":248,"max":[1.0069156885147095,1],"min":[-0.006915628910064697,0.005839943885803223],"type":"VEC2"},{"bufferView":4,"componentType":5123,"count":372,"max":[247],"min":[0],"type":"SCALAR"}],"materials":[{"pbrMetallicRoughness":{"baseColorFactor":[0.12941177189350128,0.03921568766236305,0.007843137718737125,1],"metallicFactor":1,"roughnessFactor":0.858578622341156},"doubleSided":true,"name":"Wood_Beams"}],"meshes":[{"primitives":[{"mode":4,"attributes":{"POSITION":0,"NORMAL":1,"TEXCOORD_0":2,"TEXCOORD_1":3},"indices":4,"material":0}]}]}