{"asset":{"version":"2.0","generator":"THREE.GLTFExporter"},"scenes":[{"nodes":[0]}],"scene":0,"nodes":[{"matrix":[0.02539999969303608,0,0,0,0,0.02539999969303608,0,0,0,0,0.02539999969303608,0,40.40752410888672,21.63452075615851,-7.273618671896429,1],"name":"HouseMD05_RoofTiles","extras":{"name":"HouseMD05_RoofTiles"},"mesh":0}],"bufferViews":[{"buffer":0,"byteOffset":0,"byteLength":42120,"target":34962,"byteStride":12},{"buffer":0,"byteOffset":42120,"byteLength":42120,"target":34962,"byteStride":12},{"buffer":0,"byteOffset":84240,"byteLength":28080,"target":34962,"byteStride":8},{"buffer":0,"byteOffset":112320,"byteLength":10752,"target":34963}],"buffers":[{"byteLength":123072,"uri":"data:application/octet-stream;base64,"}],"accessors":[{"bufferView":0,"componentType":5126,"count":3510,"max":[196.56689453125,247.61434936523438,211.27032470703125],"min":[-196.56689453125,-247.61441040039062,-211.2701873779297],"type":"VEC3"},{"bufferView":1,"componentType":5126,"count":3510,"max":[1,1,1],"min":[-1,-1,-1],"type":"VEC3"},{"bufferView":2,"componentType":5126,"count":3510,"max":[12.018006324768066,12.018006324768066],"min":[-11.018006324768066,1.5809574127197266],"type":"VEC2"},{"bufferView":3,"componentType":5123,"count":5376,"max":[3509],"min":[0],"type":"SCALAR"}],"materials":[{"pbrMetallicRoughness":{"baseColorFactor":[0.4666666666666667,0.4745098039215686,0.4666666666666667,1],"metallicFactor":0,"roughnessFactor":1}}],"meshes":[{"primitives":[{"mode":4,"attributes":{"POSITION":0,"NORMAL":1,"TEXCOORD_0":2},"indices":3,"material":0}]}]}