{"asset":{"version":"2.0","generator":"THREE.GLTFExporter"},"scenes":[{"nodes":[0]}],"scene":0,"nodes":[{"matrix":[0.02539999969303608,0,0,0,0,0.02539999969303608,0,0,0,0,0.02539999969303608,0,-57.045848926213694,5.824658434724427,25.118173345388172,1],"name":"网格277","mesh":0}],"bufferViews":[{"buffer":0,"byteOffset":0,"byteLength":35220,"target":34962,"byteStride":12},{"buffer":0,"byteOffset":35220,"byteLength":35220,"target":34962,"byteStride":12},{"buffer":0,"byteOffset":70440,"byteLength":23480,"target":34962,"byteStride":8},{"buffer":0,"byteOffset":93920,"byteLength":8820,"target":34963}],"buffers":[{"byteLength":102740,"uri":"data:application/octet-stream;base64,"}],"accessors":[{"bufferView":0,"componentType":5126,"count":2935,"max":[14.783063888549805,19.113323211669922,55.323665618896484],"min":[-37.98877716064453,-63.48131561279297,2.582084894180298],"type":"VEC3"},{"bufferView":1,"componentType":5126,"count":2935,"max":[0.9999630451202393,1,0.999962329864502],"min":[-0.999965250492096,-1.0000001192092896,-0.9999621510505676],"type":"VEC3"},{"bufferView":2,"componentType":5126,"count":2935,"max":[0.9988738894462585,0.9987130165100098],"min":[0.0012285012053325772,0.14977478981018066],"type":"VEC2"},{"bufferView":3,"componentType":5123,"count":4410,"max":[2934],"min":[0],"type":"SCALAR"}],"materials":[{"pbrMetallicRoughness":{"baseColorFactor":[0.12941177189350128,0.03921568766236305,0.007843137718737125,1],"metallicFactor":1,"roughnessFactor":0.858578622341156},"doubleSided":true,"name":"Wood_Beams"}],"meshes":[{"primitives":[{"mode":4,"attributes":{"POSITION":0,"NORMAL":1,"TEXCOORD_0":2},"indices":3,"material":0}]}]}