{"asset":{"version":"2.0","generator":"THREE.GLTFExporter"},"scenes":[{"nodes":[0]}],"scene":0,"nodes":[{"matrix":[0.02539999969303608,0,0,0,0,0.02539999969303608,0,0,0,0,0.02539999969303608,0,-33.08538196347695,8.516945601828056,-5.819598623690126,1],"name":"HouseMD02_WoodDark","extras":{"name":"HouseMD02_WoodDark"},"mesh":0}],"bufferViews":[{"buffer":0,"byteOffset":0,"byteLength":29532,"target":34962,"byteStride":12},{"buffer":0,"byteOffset":29532,"byteLength":29532,"target":34962,"byteStride":12},{"buffer":0,"byteOffset":59064,"byteLength":19688,"target":34962,"byteStride":8},{"buffer":0,"byteOffset":78752,"byteLength":7692,"target":34963}],"buffers":[{"byteLength":86444,"uri":"data:application/octet-stream;base64,"}],"accessors":[{"bufferView":0,"componentType":5126,"count":2461,"max":[138.9879150390625,44.17034912109375,71.47100830078125],"min":[-138.988037109375,-44.170345306396484,-71.470947265625],"type":"VEC3"},{"bufferView":1,"componentType":5126,"count":2461,"max":[1,1,1],"min":[-1,-1,-1],"type":"VEC3"},{"bufferView":2,"componentType":5126,"count":2461,"max":[15.170822143554688,15.170822143554688],"min":[-14.170822143554688,-28.73280143737793],"type":"VEC2"},{"bufferView":3,"componentType":5123,"count":3846,"max":[2460],"min":[0],"type":"SCALAR"}],"materials":[{"pbrMetallicRoughness":{"baseColorFactor":[0.07058823853731155,0.003921568859368563,0.003921568859368563,1],"metallicFactor":1,"roughnessFactor":0.858578622341156},"doubleSided":true,"name":"WoodDark"}],"meshes":[{"primitives":[{"mode":4,"attributes":{"POSITION":0,"NORMAL":1,"TEXCOORD_0":2},"indices":3,"material":0}]}]}