{"asset":{"version":"2.0","generator":"THREE.GLTFExporter"},"scenes":[{"nodes":[0]}],"scene":0,"nodes":[{"matrix":[0.02539999969303608,0,0,0,0,0.02539999969303608,0,0,0,0,0.02539999969303608,0,-48.20506773422812,5.4792810707343165,25.289578772393853,1],"name":"网格280","mesh":0}],"bufferViews":[{"buffer":0,"byteOffset":0,"byteLength":28428,"target":34962,"byteStride":12},{"buffer":0,"byteOffset":28428,"byteLength":28428,"target":34962,"byteStride":12},{"buffer":0,"byteOffset":56856,"byteLength":18952,"target":34962,"byteStride":8},{"buffer":0,"byteOffset":75808,"byteLength":7436,"target":34963}],"buffers":[{"byteLength":83244,"uri":"data:application/octet-stream;base64,"}],"accessors":[{"bufferView":0,"componentType":5126,"count":2369,"max":[25.336721420288086,53.140419006347656,7.292792320251465],"min":[-25.336721420288086,-53.140419006347656,-7.292794227600098],"type":"VEC3"},{"bufferView":1,"componentType":5126,"count":2369,"max":[1,1,1],"min":[-1,-1,-1],"type":"VEC3"},{"bufferView":2,"componentType":5126,"count":2369,"max":[3.8583450317382812,0.9968374371528625],"min":[0.0026881720405071974,-1.5681004524230957],"type":"VEC2"},{"bufferView":3,"componentType":5123,"count":3717,"max":[2368],"min":[0],"type":"SCALAR"}],"materials":[{"pbrMetallicRoughness":{"baseColorFactor":[0.12941177189350128,0.03921568766236305,0.007843137718737125,1],"metallicFactor":1,"roughnessFactor":0.858578622341156},"doubleSided":true,"name":"Wood_Beams"}],"meshes":[{"primitives":[{"mode":4,"attributes":{"POSITION":0,"NORMAL":1,"TEXCOORD_0":2},"indices":3,"material":0}]}]}