{"asset":{"version":"2.0","generator":"THREE.GLTFExporter"},"scenes":[{"nodes":[0]}],"scene":0,"nodes":[{"matrix":[0.02539999969303608,0,0,0,0,0.02539999969303608,0,0,0,0,0.02539999969303608,0,85.00375919914677,24.395839816703415,-111.54836529283239,1],"name":"CastleSM_PlasterYellow","extras":{"name":"CastleSM_PlasterYellow"},"mesh":0}],"bufferViews":[{"buffer":0,"byteOffset":0,"byteLength":5424,"target":34962,"byteStride":12},{"buffer":0,"byteOffset":5424,"byteLength":5424,"target":34962,"byteStride":12},{"buffer":0,"byteOffset":10848,"byteLength":3616,"target":34962,"byteStride":8},{"buffer":0,"byteOffset":14464,"byteLength":1428,"target":34963}],"buffers":[{"byteLength":15892,"uri":"data:application/octet-stream;base64,"}],"accessors":[{"bufferView":0,"componentType":5126,"count":452,"max":[231.3746795654297,125.1196517944336,302.1024169921875],"min":[-210.89158630371094,-125.11975860595703,-302.1026306152344],"type":"VEC3"},{"bufferView":1,"componentType":5126,"count":452,"max":[1,0.9999514818191528,0.9999996423721313],"min":[-1,-1,-0.9999997019767761],"type":"VEC3"},{"bufferView":2,"componentType":5126,"count":452,"max":[15.743639945983887,4.5704450607299805],"min":[-14.743639945983887,-14.742676734924316],"type":"VEC2"},{"bufferView":3,"componentType":5123,"count":714,"max":[451],"min":[0],"type":"SCALAR"}],"materials":[{"pbrMetallicRoughness":{"baseColorFactor":[0.7372549176216125,0.6000000238418579,0.3803921937942505,1],"metallicFactor":1,"roughnessFactor":0.858578622341156},"doubleSided":true,"name":"PlasterYellow"}],"meshes":[{"primitives":[{"mode":4,"attributes":{"POSITION":0,"NORMAL":1,"TEXCOORD_0":2},"indices":3,"material":0}]}]}