{"asset":{"version":"2.0","generator":"THREE.GLTFExporter"},"scenes":[{"nodes":[0]}],"scene":0,"nodes":[{"matrix":[0.02539999969303608,0,0,0,0,0.02539999969303608,0,0,0,0,0.02539999969303608,0,-53.69809672057818,0.8252762487440037,25.07947086325092,1],"name":"网格.258_1","mesh":0}],"bufferViews":[{"buffer":0,"byteOffset":0,"byteLength":3600,"target":34962,"byteStride":12},{"buffer":0,"byteOffset":3600,"byteLength":3600,"target":34962,"byteStride":12},{"buffer":0,"byteOffset":7200,"byteLength":2400,"target":34962,"byteStride":8},{"buffer":0,"byteOffset":9600,"byteLength":1992,"target":34963}],"buffers":[{"byteLength":11592,"uri":"data:application/octet-stream;base64,"}],"accessors":[{"bufferView":0,"componentType":5126,"count":300,"max":[29.502607345581055,56.06494140625,0.04533851146697998],"min":[-22.418622970581055,-35.54905700683594,-2.6404314041137695],"type":"VEC3"},{"bufferView":1,"componentType":5126,"count":300,"max":[1,1,1],"min":[-1,-1,0],"type":"VEC3"},{"bufferView":2,"componentType":5126,"count":300,"max":[2.250075340270996,2.086735248565674],"min":[-0.9217185378074646,-1.0867352485656738],"type":"VEC2"},{"bufferView":3,"componentType":5123,"count":996,"max":[299],"min":[0],"type":"SCALAR"}],"materials":[{"pbrMetallicRoughness":{"baseColorFactor":[0.12941177189350128,0.03921568766236305,0.007843137718737125,1],"metallicFactor":1,"roughnessFactor":0.858578622341156},"doubleSided":true,"name":"Wood_Beams"}],"meshes":[{"primitives":[{"mode":4,"attributes":{"POSITION":0,"NORMAL":1,"TEXCOORD_0":2},"indices":3,"material":0}]}]}