{"asset":{"version":"2.0","generator":"THREE.GLTFExporter"},"scenes":[{"nodes":[0]}],"scene":0,"nodes":[{"matrix":[0.02539999969303608,0,0,0,0,0.02539999969303608,0,0,0,0,0.02539999969303608,0,98.16347671589028,29.433818289754015,-124.16432685911604,1],"name":"CastleSM_Stone_Stacked","extras":{"name":"CastleSM_Stone_Stacked"},"mesh":0}],"bufferViews":[{"buffer":0,"byteOffset":0,"byteLength":374376,"target":34962,"byteStride":12},{"buffer":0,"byteOffset":374376,"byteLength":374376,"target":34962,"byteStride":12},{"buffer":0,"byteOffset":748752,"byteLength":249584,"target":34962,"byteStride":8},{"buffer":0,"byteOffset":998336,"byteLength":249584,"target":34962,"byteStride":8},{"buffer":0,"byteOffset":1247920,"byteLength":204572,"target":34963}],"buffers":[{"byteLength":1452492,"uri":"data:application/octet-stream;base64,"}],"accessors":[{"bufferView":0,"componentType":5126,"count":31198,"max":[851.7108764648438,465.13116455078125,1144.721923828125],"min":[-851.7108764648438,-455.4678039550781,-1144.721923828125],"type":"VEC3"},{"bufferView":1,"componentType":5126,"count":31198,"max":[1,1,1],"min":[-1,-1,-1],"type":"VEC3"},{"bufferView":2,"componentType":5126,"count":31198,"max":[4.315739631652832,4.315739154815674],"min":[-3.315739154815674,-3.315739631652832],"type":"VEC2"},{"bufferView":3,"componentType":5126,"count":31198,"max":[0.997668981552124,0.997668981552124],"min":[0.001548584084957838,0.0038709640502929688],"type":"VEC2"},{"bufferView":4,"componentType":5123,"count":102285,"max":[31197],"min":[0],"type":"SCALAR"}],"materials":[{"pbrMetallicRoughness":{"baseColorFactor":[0.40000003576278687,0.41960787773132324,0.7921569347381592,1],"metallicFactor":1,"roughnessFactor":0.858578622341156},"doubleSided":true,"name":"Stone_Stacked"}],"meshes":[{"primitives":[{"mode":4,"attributes":{"POSITION":0,"NORMAL":1,"TEXCOORD_0":2,"TEXCOORD_1":3},"indices":4,"material":0}]}]}