{"asset":{"version":"2.0","generator":"THREE.GLTFExporter"},"scenes":[{"nodes":[0]}],"scene":0,"nodes":[{"matrix":[0.02539999969303608,0,0,0,0,0.02539999969303608,0,0,0,0,0.02539999969303608,0,60.135542864990384,19.700223830708183,-2.4833869073468122,1],"name":"HouseMD06_Cloth","extras":{"name":"HouseMD06_Cloth"},"mesh":0}],"bufferViews":[{"buffer":0,"byteOffset":0,"byteLength":1344,"target":34962,"byteStride":12},{"buffer":0,"byteOffset":1344,"byteLength":1344,"target":34962,"byteStride":12},{"buffer":0,"byteOffset":2688,"byteLength":896,"target":34962,"byteStride":8},{"buffer":0,"byteOffset":3584,"byteLength":312,"target":34963}],"buffers":[{"byteLength":3896,"uri":"data:application/octet-stream;base64,"}],"accessors":[{"bufferView":0,"componentType":5126,"count":112,"max":[72.75302124023438,6.218505859375,4.93743896484375],"min":[-72.75288391113281,-6.218505859375,-4.9373779296875],"type":"VEC3"},{"bufferView":1,"componentType":5126,"count":112,"max":[1,0.9999999403953552,0.8897284865379333],"min":[-1,-1,-0.8897199630737305],"type":"VEC3"},{"bufferView":2,"componentType":5126,"count":112,"max":[0.375,0.2252500057220459],"min":[0.37372300028800964,0.22172802686691284],"type":"VEC2"},{"bufferView":3,"componentType":5123,"count":156,"max":[111],"min":[0],"type":"SCALAR"}],"materials":[{"pbrMetallicRoughness":{"baseColorFactor":[0.7568628191947937,0.6313725709915161,0.46666669845581055,1],"metallicFactor":1,"roughnessFactor":0.858578622341156},"doubleSided":true,"name":"Cloth"}],"meshes":[{"primitives":[{"mode":4,"attributes":{"POSITION":0,"NORMAL":1,"TEXCOORD_0":2},"indices":3,"material":0}]}]}