{"asset":{"version":"2.0","generator":"THREE.GLTFExporter"},"scenes":[{"nodes":[0]}],"scene":0,"nodes":[{"matrix":[0.02539999969303608,0,0,0,0,0.02539999969303608,0,0,0,0,0.02539999969303608,0,40.99297014038484,7.956960575017661,29.555354723376638,1],"name":"Tavern_Sign","extras":{"name":"Tavern_Sign"},"mesh":0}],"bufferViews":[{"buffer":0,"byteOffset":0,"byteLength":25320,"target":34962,"byteStride":12},{"buffer":0,"byteOffset":25320,"byteLength":25320,"target":34962,"byteStride":12},{"buffer":0,"byteOffset":50640,"byteLength":16880,"target":34962,"byteStride":8},{"buffer":0,"byteOffset":67520,"byteLength":7392,"target":34963}],"buffers":[{"byteLength":74912,"uri":"data:application/octet-stream;base64,"}],"accessors":[{"bufferView":0,"componentType":5126,"count":2110,"max":[10.957855224609375,15.507347106933594,1.00616455078125],"min":[-10.95794677734375,-15.507354736328125,-1.006103515625],"type":"VEC3"},{"bufferView":1,"componentType":5126,"count":2110,"max":[1.0000001192092896,1,1],"min":[-1.0000001192092896,-1,-1],"type":"VEC3"},{"bufferView":2,"componentType":5126,"count":2110,"max":[1.0530259609222412,1.0153381824493408],"min":[0.5,0.4347369074821472],"type":"VEC2"},{"bufferView":3,"componentType":5123,"count":3696,"max":[2109],"min":[0],"type":"SCALAR"}],"materials":[{"pbrMetallicRoughness":{"baseColorFactor":[0.4705882668495178,0.2862745225429535,0.16078431904315948,1],"metallicFactor":1,"roughnessFactor":0.858578622341156},"doubleSided":true,"name":"Sign"}],"meshes":[{"primitives":[{"mode":4,"attributes":{"POSITION":0,"NORMAL":1,"TEXCOORD_0":2},"indices":3,"material":0}]}]}