{"asset":{"version":"2.0","generator":"THREE.GLTFExporter"},"scenes":[{"nodes":[0]}],"scene":0,"nodes":[{"matrix":[1,0,0,0,0,0.9999999999999989,4.3711388286738e-8,0,0,-4.3711388286738e-8,0.9999999999999989,0,0,0,0,1],"name":"house_suburbs1_col","extras":{"name":"house_suburbs1_col"},"mesh":0}],"bufferViews":[{"buffer":0,"byteOffset":0,"byteLength":31500,"target":34962,"byteStride":12},{"buffer":0,"byteOffset":31500,"byteLength":31500,"target":34962,"byteStride":12},{"buffer":0,"byteOffset":63000,"byteLength":21000,"target":34962,"byteStride":8},{"buffer":0,"byteOffset":84000,"byteLength":21000,"target":34962,"byteStride":8},{"buffer":0,"byteOffset":105000,"byteLength":7028,"target":34963}],"buffers":[{"byteLength":112028,"uri":"data:application/octet-stream;base64,"}],"accessors":[{"bufferView":0,"componentType":5126,"count":2625,"max":[1,1,1],"min":[-1,-1,-1],"type":"VEC3"},{"bufferView":1,"componentType":5126,"count":2625,"max":[11.929560661315918,17.19805908203125,14.126912117004395],"min":[-11.929560661315918,-0.35498571395874023,-14.126911163330078],"type":"VEC3"},{"bufferView":2,"componentType":5126,"count":2625,"max":[14.357148170471191,1],"min":[-6.119396209716797,-0.9435379505157471],"type":"VEC2"},{"bufferView":3,"componentType":5126,"count":2625,"max":[1,1],"min":[0,0],"type":"VEC2"},{"bufferView":4,"componentType":5123,"count":3513,"max":[2624],"min":[0],"type":"SCALAR"}],"materials":[{"pbrMetallicRoughness":{"baseColorFactor":[0.800000011920929,0,0,1],"metallicFactor":0,"roughnessFactor":0.9},"extensions":{"KHR_materials_unlit":{}},"name":"pasted__blinn1","extras":{"fromFBX":{"shadingModel":"Phong","isTruePBR":false}}}],"meshes":[{"primitives":[{"mode":4,"attributes":{"NORMAL":0,"POSITION":1,"TEXCOORD_0":2,"TEXCOORD_1":3},"indices":4,"material":0}]}],"extensionsUsed":["KHR_materials_unlit"]}