{"asset":{"version":"2.0","generator":"THREE.GLTFExporter"},"scenes":[{"nodes":[0]}],"scene":0,"nodes":[{"matrix":[1,0,0,0,0,0.9999999999999989,4.3711388286738e-8,0,0,-4.3711388286738e-8,0.9999999999999989,0,0,0,0,1],"name":"house_suburbs2_col","extras":{"name":"house_suburbs2_col"},"mesh":0}],"bufferViews":[{"buffer":0,"byteOffset":0,"byteLength":29340,"target":34962,"byteStride":12},{"buffer":0,"byteOffset":29340,"byteLength":29340,"target":34962,"byteStride":12},{"buffer":0,"byteOffset":58680,"byteLength":19560,"target":34962,"byteStride":8},{"buffer":0,"byteOffset":78240,"byteLength":19560,"target":34962,"byteStride":8},{"buffer":0,"byteOffset":97800,"byteLength":6804,"target":34963}],"buffers":[{"byteLength":104604,"uri":"data:application/octet-stream;base64,"}],"accessors":[{"bufferView":0,"componentType":5126,"count":2445,"max":[1,1,1],"min":[-1,-1,-1],"type":"VEC3"},{"bufferView":1,"componentType":5126,"count":2445,"max":[13.828645706176758,15.344500541687012,16.366411209106445],"min":[-14.109224319458008,-0.6259340643882751,-16.34998321533203],"type":"VEC3"},{"bufferView":2,"componentType":5126,"count":2445,"max":[9.135960578918457,1.4330974817276],"min":[-3.989375114440918,-2.6689975261688232],"type":"VEC2"},{"bufferView":3,"componentType":5126,"count":2445,"max":[1,1],"min":[0,0],"type":"VEC2"},{"bufferView":4,"componentType":5123,"count":3402,"max":[2444],"min":[0],"type":"SCALAR"}],"materials":[{"pbrMetallicRoughness":{"baseColorFactor":[0.527999997138977,0.800000011920929,0.527999997138977,1],"metallicFactor":0,"roughnessFactor":0.9},"extensions":{"KHR_materials_unlit":{}},"name":"pasted__pasted__blinn1","extras":{"fromFBX":{"shadingModel":"Phong","isTruePBR":false}}}],"meshes":[{"primitives":[{"mode":4,"attributes":{"NORMAL":0,"POSITION":1,"TEXCOORD_0":2,"TEXCOORD_1":3},"indices":4,"material":0}]}],"extensionsUsed":["KHR_materials_unlit"]}