{"asset":{"version":"2.0","generator":"THREE.GLTFExporter"},"scenes":[{"nodes":[0]}],"scene":0,"nodes":[{"matrix":[-0.9999999999999998,0,-3.2584136988589307e-7,0,0,1,0,0,3.2584136988589307e-7,0,-0.9999999999999998,0,-37.98638916015625,6.0005621910095215,43.462249755859375,1],"name":"005-0-5","extras":{"name":"005-0-5"},"mesh":0}],"bufferViews":[{"buffer":0,"byteOffset":0,"byteLength":49992,"target":34962,"byteStride":12},{"buffer":0,"byteOffset":49992,"byteLength":49992,"target":34962,"byteStride":12},{"buffer":0,"byteOffset":99984,"byteLength":33328,"target":34962,"byteStride":8},{"buffer":0,"byteOffset":133312,"byteLength":19668,"target":34963}],"buffers":[{"byteLength":152980,"uri":"data:application/octet-stream;base64,"}],"accessors":[{"bufferView":0,"componentType":5126,"count":4166,"max":[-0.9155589938163757,28.684865951538086,92.21289825439453],"min":[-75.07099914550781,0.07435599714517593,-2.1415181159973145],"type":"VEC3"},{"bufferView":1,"componentType":5126,"count":4166,"max":[0.9461780786514282,0.9984274506568909,0.9548352956771851],"min":[-0.9536052346229553,-0.16619810461997986,-1],"type":"VEC3"},{"bufferView":2,"componentType":5126,"count":4166,"max":[0.9999979734420776,1.0380860567092896],"min":[0,0],"type":"VEC2"},{"bufferView":3,"componentType":5123,"count":9834,"max":[4165],"min":[0],"type":"SCALAR"}],"materials":[{"pbrMetallicRoughness":{"baseColorFactor":[0.7176470588235294,0.7058823529411765,0.6588235294117647,1],"metallicFactor":0,"roughnessFactor":1}}],"meshes":[{"primitives":[{"mode":4,"attributes":{"POSITION":0,"NORMAL":1,"TEXCOORD_0":2},"indices":3,"material":0}]}]}