{"asset":{"version":"2.0","generator":"THREE.GLTFExporter"},"scenes":[{"nodes":[0]}],"scene":0,"nodes":[{"matrix":[-0.9999999999999998,0,-3.2584136988589307e-7,0,0,1,0,0,3.2584136988589307e-7,0,-0.9999999999999998,0,-37.98638916015625,6.0005621910095215,43.462249755859375,1],"name":"001-0-1","extras":{"name":"001-0-1"},"mesh":0}],"bufferViews":[{"buffer":0,"byteOffset":0,"byteLength":11280,"target":34962,"byteStride":12},{"buffer":0,"byteOffset":11280,"byteLength":11280,"target":34962,"byteStride":12},{"buffer":0,"byteOffset":22560,"byteLength":7520,"target":34962,"byteStride":8},{"buffer":0,"byteOffset":30080,"byteLength":3872,"target":34963}],"buffers":[{"byteLength":33952,"uri":"data:application/octet-stream;base64,"}],"accessors":[{"bufferView":0,"componentType":5126,"count":940,"max":[-14.398579597473145,11.129767417907715,73.28900146484375],"min":[-74.2959976196289,-0.059999000281095505,4.680144786834717],"type":"VEC3"},{"bufferView":1,"componentType":5126,"count":940,"max":[0.949209988117218,0.9999037981033325,0.896037220954895],"min":[-0.8630427122116089,0.06220952421426773,-0.8812160491943359],"type":"VEC3"},{"bufferView":2,"componentType":5126,"count":940,"max":[1.0140650272369385,1.0249680280685425],"min":[-0.01397900003939867,-0.01891803741455078],"type":"VEC2"},{"bufferView":3,"componentType":5123,"count":1935,"max":[939],"min":[0],"type":"SCALAR"}],"materials":[{"pbrMetallicRoughness":{"baseColorFactor":[0.6980392156862745,0.615686274509804,0.4980392156862745,1],"metallicFactor":0,"roughnessFactor":1}}],"meshes":[{"primitives":[{"mode":4,"attributes":{"POSITION":0,"NORMAL":1,"TEXCOORD_0":2},"indices":3,"material":0}]}]}