{"asset":{"version":"2.0","generator":"THREE.GLTFExporter"},"scenes":[{"nodes":[0]}],"scene":0,"nodes":[{"matrix":[-0.9999999999999998,0,-3.2584136988589307e-7,0,0,1,0,0,3.2584136988589307e-7,0,-0.9999999999999998,0,-37.98638916015625,6.0005621910095215,43.462249755859375,1],"name":"002-0-2","extras":{"name":"002-0-2"},"mesh":0}],"bufferViews":[{"buffer":0,"byteOffset":0,"byteLength":7800,"target":34962,"byteStride":12},{"buffer":0,"byteOffset":7800,"byteLength":7800,"target":34962,"byteStride":12},{"buffer":0,"byteOffset":15600,"byteLength":5200,"target":34962,"byteStride":8},{"buffer":0,"byteOffset":20800,"byteLength":3120,"target":34963}],"buffers":[{"byteLength":23920,"uri":"data:application/octet-stream;base64,"}],"accessors":[{"bufferView":0,"componentType":5126,"count":650,"max":[0.8290370106697083,26.27108383178711,84.1041030883789],"min":[-76.80180358886719,2.9142000675201416,-5.288390159606934],"type":"VEC3"},{"bufferView":1,"componentType":5126,"count":650,"max":[0.8609095215797424,0.9999694228172302,0.7296117544174194],"min":[-0.8832814693450928,0.28827744722366333,-0.9259709715843201],"type":"VEC3"},{"bufferView":2,"componentType":5126,"count":650,"max":[0.9765589833259583,0.9765620231628418],"min":[0.023437999188899994,0.023441016674041748],"type":"VEC2"},{"bufferView":3,"componentType":5123,"count":1560,"max":[649],"min":[0],"type":"SCALAR"}],"materials":[{"pbrMetallicRoughness":{"baseColorFactor":[0.8313725490196079,0.7254901960784313,0.5647058823529412,1],"metallicFactor":0,"roughnessFactor":1}}],"meshes":[{"primitives":[{"mode":4,"attributes":{"POSITION":0,"NORMAL":1,"TEXCOORD_0":2},"indices":3,"material":0}]}]}