{"asset":{"version":"2.0","generator":"THREE.GLTFExporter"},"scenes":[{"nodes":[0]}],"scene":0,"nodes":[{"matrix":[-0.9999999999999998,0,-3.2584136988589307e-7,0,0,1,0,0,3.2584136988589307e-7,0,-0.9999999999999998,0,-37.98638916015625,6.0005621910095215,43.462249755859375,1],"name":"006-0-6","extras":{"name":"006-0-6"},"mesh":0}],"bufferViews":[{"buffer":0,"byteOffset":0,"byteLength":32412,"target":34962,"byteStride":12},{"buffer":0,"byteOffset":32412,"byteLength":32412,"target":34962,"byteStride":12},{"buffer":0,"byteOffset":64824,"byteLength":21608,"target":34962,"byteStride":8},{"buffer":0,"byteOffset":86432,"byteLength":19736,"target":34963}],"buffers":[{"byteLength":106168,"uri":"data:application/octet-stream;base64,"}],"accessors":[{"bufferView":0,"componentType":5126,"count":2701,"max":[-0.09295400232076645,18.979507446289062,79.3750991821289],"min":[-69.93250274658203,-1.2181400060653687,6.266290187835693],"type":"VEC3"},{"bufferView":1,"componentType":5126,"count":2701,"max":[0.9999867677688599,0.9983187913894653,0.999998927116394],"min":[-0.9999387264251709,-0.975706934928894,-0.9999452829360962],"type":"VEC3"},{"bufferView":2,"componentType":5126,"count":2701,"max":[0.9973440170288086,0.9979619979858398],"min":[0.0017849999712780118,0.0027880072593688965],"type":"VEC2"},{"bufferView":3,"componentType":5123,"count":9867,"max":[2700],"min":[0],"type":"SCALAR"}],"materials":[{"pbrMetallicRoughness":{"baseColorFactor":[0.2627450980392157,0.21176470588235294,0.17254901960784313,1],"metallicFactor":0,"roughnessFactor":1}}],"meshes":[{"primitives":[{"mode":4,"attributes":{"POSITION":0,"NORMAL":1,"TEXCOORD_0":2},"indices":3,"material":0}]}]}