{"asset":{"version":"2.0","generator":"THREE.GLTFExporter"},"scenes":[{"nodes":[0]}],"scene":0,"nodes":[{"matrix":[-0.9999999999999998,0,-3.2584136988589307e-7,0,0,1,0,0,3.2584136988589307e-7,0,-0.9999999999999998,0,-37.98638916015625,6.0005621910095215,43.462249755859375,1],"name":"004-0-4","extras":{"name":"004-0-4"},"mesh":0}],"bufferViews":[{"buffer":0,"byteOffset":0,"byteLength":2400,"target":34962,"byteStride":12},{"buffer":0,"byteOffset":2400,"byteLength":2400,"target":34962,"byteStride":12},{"buffer":0,"byteOffset":4800,"byteLength":1600,"target":34962,"byteStride":8},{"buffer":0,"byteOffset":6400,"byteLength":1292,"target":34963}],"buffers":[{"byteLength":7692,"uri":"data:application/octet-stream;base64,"}],"accessors":[{"bufferView":0,"componentType":5126,"count":200,"max":[-31.075286865234375,9.441279411315918,64.46499633789062],"min":[-71.48650360107422,-0.5820479989051819,12.505385398864746],"type":"VEC3"},{"bufferView":1,"componentType":5126,"count":200,"max":[0.9912996888160706,0.9946326613426208,0.9989148378372192],"min":[-0.9931111931800842,-0.9785723090171814,-0.995176374912262],"type":"VEC3"},{"bufferView":2,"componentType":5126,"count":200,"max":[0.9932720065116882,0.745980978012085],"min":[0.008452000096440315,0.007122993469238281],"type":"VEC2"},{"bufferView":3,"componentType":5123,"count":645,"max":[199],"min":[0],"type":"SCALAR"}],"materials":[{"pbrMetallicRoughness":{"baseColorFactor":[0.5450980392156862,0.4196078431372549,0.29411764705882354,1],"metallicFactor":0,"roughnessFactor":1}}],"meshes":[{"primitives":[{"mode":4,"attributes":{"POSITION":0,"NORMAL":1,"TEXCOORD_0":2},"indices":3,"material":0}]}]}