{"asset":{"version":"2.0","generator":"THREE.GLTFExporter"},"scenes":[{"nodes":[0]}],"scene":0,"nodes":[{"matrix":[-0.9999999999999998,0,-3.2584136988589307e-7,0,0,1,0,0,3.2584136988589307e-7,0,-0.9999999999999998,0,-37.98638916015625,6.0005621910095215,43.462249755859375,1],"name":"009-0-9","extras":{"name":"009-0-9"},"mesh":0}],"bufferViews":[{"buffer":0,"byteOffset":0,"byteLength":28860,"target":34962,"byteStride":12},{"buffer":0,"byteOffset":28860,"byteLength":28860,"target":34962,"byteStride":12},{"buffer":0,"byteOffset":57720,"byteLength":19240,"target":34962,"byteStride":8},{"buffer":0,"byteOffset":76960,"byteLength":18120,"target":34963}],"buffers":[{"byteLength":95080,"uri":"data:application/octet-stream;base64,"}],"accessors":[{"bufferView":0,"componentType":5126,"count":2405,"max":[-2.770353078842163,29.137834548950195,84.6946029663086],"min":[-73.58409881591797,-0.21605700254440308,-1.5517480373382568],"type":"VEC3"},{"bufferView":1,"componentType":5126,"count":2405,"max":[0.9993070363998413,0.998752772808075,0.999858558177948],"min":[-0.9993386268615723,-0.9996140003204346,-0.9998224377632141],"type":"VEC3"},{"bufferView":2,"componentType":5126,"count":2405,"max":[0.9981160163879395,0.9947429895401001],"min":[0.0027379998937249184,0.006826996803283691],"type":"VEC2"},{"bufferView":3,"componentType":5123,"count":9060,"max":[2404],"min":[0],"type":"SCALAR"}],"materials":[{"pbrMetallicRoughness":{"baseColorFactor":[0.19215686274509805,0.13725490196078433,0.09019607843137255,1],"metallicFactor":0,"roughnessFactor":1}}],"meshes":[{"primitives":[{"mode":4,"attributes":{"POSITION":0,"NORMAL":1,"TEXCOORD_0":2},"indices":3,"material":0}]}]}