{"asset":{"version":"2.0","generator":"THREE.GLTFExporter"},"scenes":[{"nodes":[0]}],"scene":0,"nodes":[{"matrix":[-0.9999999999999998,0,-3.2584136988589307e-7,0,0,1,0,0,3.2584136988589307e-7,0,-0.9999999999999998,0,-37.98638916015625,6.0005621910095215,43.462249755859375,1],"name":"003-0-3","extras":{"name":"003-0-3"},"mesh":0}],"bufferViews":[{"buffer":0,"byteOffset":0,"byteLength":23436,"target":34962,"byteStride":12},{"buffer":0,"byteOffset":23436,"byteLength":23436,"target":34962,"byteStride":12},{"buffer":0,"byteOffset":46872,"byteLength":15624,"target":34962,"byteStride":8},{"buffer":0,"byteOffset":62496,"byteLength":11744,"target":34963}],"buffers":[{"byteLength":74240,"uri":"data:application/octet-stream;base64,"}],"accessors":[{"bufferView":0,"componentType":5126,"count":1953,"max":[-18.270919799804688,8.81127643585205,64.78739929199219],"min":[-72.42919921875,-0.1144540011882782,4.923728942871094],"type":"VEC3"},{"bufferView":1,"componentType":5126,"count":1953,"max":[0.9994504451751709,1,0.9999050498008728],"min":[-0.9997395873069763,-0.9996089935302734,-0.9994792938232422],"type":"VEC3"},{"bufferView":2,"componentType":5126,"count":1953,"max":[0.9940149784088135,0.99583899974823],"min":[0.1113860011100769,0.035427987575531006],"type":"VEC2"},{"bufferView":3,"componentType":5123,"count":5871,"max":[1952],"min":[0],"type":"SCALAR"}],"materials":[{"pbrMetallicRoughness":{"baseColorFactor":[0.29411764705882354,0.2627450980392157,0.24313725490196078,1],"metallicFactor":0,"roughnessFactor":1}}],"meshes":[{"primitives":[{"mode":4,"attributes":{"POSITION":0,"NORMAL":1,"TEXCOORD_0":2},"indices":3,"material":0}]}]}