{"asset":{"version":"2.0","generator":"THREE.GLTFExporter"},"scenes":[{"nodes":[0]}],"scene":0,"nodes":[{"matrix":[-0.9999999999999998,0,-3.2584136988589307e-7,0,0,1,0,0,3.2584136988589307e-7,0,-0.9999999999999998,0,-37.98638916015625,6.0005621910095215,43.462249755859375,1],"name":"000-0-0","extras":{"name":"000-0-0"},"mesh":0}],"bufferViews":[{"buffer":0,"byteOffset":0,"byteLength":3480,"target":34962,"byteStride":12},{"buffer":0,"byteOffset":3480,"byteLength":3480,"target":34962,"byteStride":12},{"buffer":0,"byteOffset":6960,"byteLength":2320,"target":34962,"byteStride":8},{"buffer":0,"byteOffset":9280,"byteLength":2844,"target":34963}],"buffers":[{"byteLength":12124,"uri":"data:application/octet-stream;base64,"}],"accessors":[{"bufferView":0,"componentType":5126,"count":290,"max":[-0.000014999999621068127,21.003259658813477,89.88760375976562],"min":[-73.03369903564453,-6.0005598068237305,-0.00005900000178371556],"type":"VEC3"},{"bufferView":1,"componentType":5126,"count":290,"max":[0.9964919686317444,0.999988853931427,0.9858075380325317],"min":[-0.9840924739837646,-1,-0.8133377432823181],"type":"VEC3"},{"bufferView":2,"componentType":5126,"count":290,"max":[0.997793972492218,0.9971820116043091],"min":[0.0022189998999238014,0.009454011917114258],"type":"VEC2"},{"bufferView":3,"componentType":5123,"count":1422,"max":[289],"min":[0],"type":"SCALAR"}],"materials":[{"pbrMetallicRoughness":{"baseColorFactor":[0.49411764705882355,0.32941176470588235,0.17647058823529413,1],"metallicFactor":0,"roughnessFactor":1}}],"meshes":[{"primitives":[{"mode":4,"attributes":{"POSITION":0,"NORMAL":1,"TEXCOORD_0":2},"indices":3,"material":0}]}]}