{"asset":{"version":"2.0","generator":"THREE.GLTFExporter"},"scenes":[{"nodes":[0]}],"scene":0,"nodes":[{"matrix":[-0.9999999999999998,0,-3.2584136988589307e-7,0,0,1,0,0,3.2584136988589307e-7,0,-0.9999999999999998,0,-37.98638916015625,6.0005621910095215,43.462249755859375,1],"name":"008-0-8","extras":{"name":"008-0-8"},"mesh":0}],"bufferViews":[{"buffer":0,"byteOffset":0,"byteLength":25380,"target":34962,"byteStride":12},{"buffer":0,"byteOffset":25380,"byteLength":25380,"target":34962,"byteStride":12},{"buffer":0,"byteOffset":50760,"byteLength":16920,"target":34962,"byteStride":8},{"buffer":0,"byteOffset":67680,"byteLength":17076,"target":34963}],"buffers":[{"byteLength":84756,"uri":"data:application/octet-stream;base64,"}],"accessors":[{"bufferView":0,"componentType":5126,"count":2115,"max":[-3.097421884536743,28.38864517211914,89.73590087890625],"min":[-72.97010040283203,-0.25187501311302185,-2.087718963623047],"type":"VEC3"},{"bufferView":1,"componentType":5126,"count":2115,"max":[0.9990534782409668,0.9983550310134888,0.9997345209121704],"min":[-0.9999028444290161,-0.9953308701515198,-0.9982771873474121],"type":"VEC3"},{"bufferView":2,"componentType":5126,"count":2115,"max":[0.9998400211334229,0.9950339794158936],"min":[0.008949999697506428,0.0036370158195495605],"type":"VEC2"},{"bufferView":3,"componentType":5123,"count":8538,"max":[2114],"min":[0],"type":"SCALAR"}],"materials":[{"pbrMetallicRoughness":{"baseColorFactor":[0.19215686274509805,0.13725490196078433,0.09019607843137255,1],"metallicFactor":0,"roughnessFactor":1}}],"meshes":[{"primitives":[{"mode":4,"attributes":{"POSITION":0,"NORMAL":1,"TEXCOORD_0":2},"indices":3,"material":0}]}]}