{"asset":{"version":"2.0","generator":"THREE.GLTFExporter"},"scenes":[{"nodes":[0]}],"scene":0,"nodes":[{"matrix":[-0.9999999999999998,0,-3.2584136988589307e-7,0,0,1,0,0,3.2584136988589307e-7,0,-0.9999999999999998,0,-37.98638916015625,6.0005621910095215,43.462249755859375,1],"name":"007-0-7","extras":{"name":"007-0-7"},"mesh":0}],"bufferViews":[{"buffer":0,"byteOffset":0,"byteLength":10272,"target":34962,"byteStride":12},{"buffer":0,"byteOffset":10272,"byteLength":10272,"target":34962,"byteStride":12},{"buffer":0,"byteOffset":20544,"byteLength":6848,"target":34962,"byteStride":8},{"buffer":0,"byteOffset":27392,"byteLength":6528,"target":34963}],"buffers":[{"byteLength":33920,"uri":"data:application/octet-stream;base64,"}],"accessors":[{"bufferView":0,"componentType":5126,"count":856,"max":[-13.060338973999023,11.22230052947998,76.2791976928711],"min":[-64.0811996459961,-1.3446199893951416,24.778932571411133],"type":"VEC3"},{"bufferView":1,"componentType":5126,"count":856,"max":[0.999431312084198,0.9996753931045532,0.9997081756591797],"min":[-0.998700737953186,-0.9996614456176758,-0.9971721768379211],"type":"VEC3"},{"bufferView":2,"componentType":5126,"count":856,"max":[0.9969499707221985,0.9975910186767578],"min":[0.0027099999133497477,0.24963098764419556],"type":"VEC2"},{"bufferView":3,"componentType":5123,"count":3264,"max":[855],"min":[0],"type":"SCALAR"}],"materials":[{"pbrMetallicRoughness":{"baseColorFactor":[0.2627450980392157,0.21176470588235294,0.17254901960784313,1],"metallicFactor":0,"roughnessFactor":1}}],"meshes":[{"primitives":[{"mode":4,"attributes":{"POSITION":0,"NORMAL":1,"TEXCOORD_0":2},"indices":3,"material":0}]}]}